<svg width="27" height="25" viewBox="0 0 27 25" fill="none" xmlns="http://www.w3.org/2000/svg">
<path d="M13.5 6.5H15.5M13.5 10.5H15.5M5.5 14.5H15.5M5.5 18.5H15.5M19.5 6.5H24C24.828 6.5 25.5 7.172 25.5 8V20.5C25.5 21.2957 25.1839 22.0587 24.6213 22.6213C24.0587 23.1839 23.2957 23.5 22.5 23.5M19.5 6.5V20.5C19.5 21.2957 19.8161 22.0587 20.3787 22.6213C20.9413 23.1839 21.7044 23.5 22.5 23.5M19.5 6.5V3C19.5 2.172 18.828 1.5 18 1.5H3C2.172 1.5 1.5 2.172 1.5 3V20.5C1.5 21.2957 1.81607 22.0587 2.37868 22.6213C2.94129 23.1839 3.70435 23.5 4.5 23.5H22.5M5.5 6.5H9.5V10.5H5.5V6.5Z" stroke="#0F0F0F" stroke-width="1.5" stroke-linecap="round" stroke-linejoin="round"/>
</svg>
