<svg width="26" height="27" viewBox="0 0 26 27" fill="none" xmlns="http://www.w3.org/2000/svg">
<path d="M20.9757 22.4668C20.044 21.2333 18.8387 20.2329 17.4546 19.5446C16.0705 18.8562 14.5455 18.4987 12.9997 18.5001C11.4539 18.4987 9.92887 18.8562 8.54478 19.5446C7.16069 20.2329 5.95535 21.2333 5.02369 22.4668M20.9757 22.4668C22.7937 20.8497 24.0758 18.7182 24.6546 16.3549C25.2334 13.9916 25.08 11.5082 24.215 9.23407C23.3499 6.95992 21.814 5.00246 19.8109 3.62129C17.8078 2.24012 15.4321 1.50049 12.999 1.50049C10.5659 1.50049 8.19027 2.24012 6.18716 3.62129C4.18406 5.00246 2.64813 6.95992 1.78307 9.23407C0.918012 11.5082 0.764694 13.9916 1.34345 16.3549C1.92221 18.7182 3.20569 20.8497 5.02369 22.4668M20.9757 22.4668C18.7811 24.4243 15.9405 25.5043 12.9997 25.5001C10.0584 25.5046 7.21867 24.4246 5.02369 22.4668M16.9997 10.5001C16.9997 11.561 16.5783 12.5784 15.8281 13.3285C15.078 14.0787 14.0606 14.5001 12.9997 14.5001C11.9388 14.5001 10.9214 14.0787 10.1713 13.3285C9.42112 12.5784 8.99969 11.561 8.99969 10.5001C8.99969 9.43923 9.42112 8.42181 10.1713 7.67167C10.9214 6.92152 11.9388 6.50009 12.9997 6.50009C14.0606 6.50009 15.078 6.92152 15.8281 7.67167C16.5783 8.42181 16.9997 9.43923 16.9997 10.5001Z" stroke="#0F0F0F" stroke-width="1.5" stroke-linecap="round" stroke-linejoin="round"/>
</svg>
