<svg width="45" height="22" viewBox="0 0 45 22" fill="none" xmlns="http://www.w3.org/2000/svg">
<path d="M10.9353 21.5C2.35925 21.5 0.47125 17.116 0.47125 11.26C0.47125 5.66 2.39125 0.796 10.2313 0.796C18.1033 0.796 19.8633 5.468 19.8633 10.972C19.8633 14.14 18.8393 17.756 16.5353 18.876L20.1193 19.548V21.5H10.9353ZM4.05525 11.26C4.05525 15.452 5.14325 18.588 10.2313 18.588C15.3833 18.588 16.4393 15.452 16.4393 11.292C16.4393 7.068 15.3833 3.708 10.2313 3.708C5.14325 3.708 4.05525 7.068 4.05525 11.26ZM24.828 21.724C23.324 21.724 22.332 21.308 22.332 19.676C22.332 17.98 23.324 17.596 24.828 17.596C26.268 17.596 27.26 17.98 27.26 19.676C27.26 21.308 26.268 21.724 24.828 21.724ZM44.7025 21.532L29.3745 21.5V18.396C29.4065 10.524 40.9905 12.156 41.2465 7.356C41.4065 5.116 40.2225 3.676 37.1825 3.676C34.0465 3.676 32.9905 5.436 32.9905 8.092H29.5665C29.5665 3.932 31.4865 0.796 37.0865 0.796C42.8145 0.796 44.9265 3.676 44.7345 7.548C44.3505 14.652 32.7665 13.18 32.7665 18.236V18.62H44.7025V21.532Z" fill="#1A1A1A"/>
</svg>
