<svg width="45" height="22" viewBox="0 0 45 22" fill="none" xmlns="http://www.w3.org/2000/svg">
<path d="M11.0134 21.5C2.43738 21.5 0.549375 17.116 0.549375 11.26C0.549375 5.66 2.46938 0.796 10.3094 0.796C18.1814 0.796 19.9414 5.468 19.9414 10.972C19.9414 14.14 18.9174 17.756 16.6134 18.876L20.1974 19.548V21.5H11.0134ZM4.13338 11.26C4.13338 15.452 5.22138 18.588 10.3094 18.588C15.4614 18.588 16.5174 15.452 16.5174 11.292C16.5174 7.068 15.4614 3.708 10.3094 3.708C5.22138 3.708 4.13338 7.068 4.13338 11.26ZM24.9061 21.724C23.4021 21.724 22.4101 21.308 22.4101 19.676C22.4101 17.98 23.4021 17.596 24.9061 17.596C26.3461 17.596 27.3381 17.98 27.3381 19.676C27.3381 21.308 26.3461 21.724 24.9061 21.724ZM37.0046 21.724C31.4046 21.724 29.2286 18.588 29.2286 14.46H32.5246C32.5246 17.116 34.0286 18.844 37.1326 18.844C40.0446 18.844 41.2286 17.02 41.2286 15.068C41.2286 12.892 40.1726 11.292 35.8846 11.292H32.8126V8.732L40.0446 3.9H29.9646V1.02H43.8846V4.7L37.0046 8.7C41.0046 8.7 44.6526 10.332 44.6526 15.068C44.6526 18.62 42.4446 21.724 37.0046 21.724Z" fill="#1A1A1A"/>
</svg>
