<svg width="197" height="196" viewBox="0 0 197 196" fill="none" xmlns="http://www.w3.org/2000/svg">
<path d="M56.74 60.0264L51.0602 75.1727C50.8738 75.6697 50.7783 76.1962 50.7783 76.7271V76.7271C50.7783 79.1719 52.7603 81.1539 55.2052 81.1539H69.6094C70.8199 81.1539 71.8012 80.1726 71.8012 78.9621V77.3839C71.8012 76.1734 70.8199 75.1922 69.6094 75.1922V75.1922C68.2799 75.1922 67.2566 74.018 67.4382 72.7009L69.1864 60.0264" fill="#00BEAA"/>
<path d="M90.3433 66.1374H28.8383C27.5163 66.1374 26.4194 65.1148 26.3268 63.7959L23.5463 24.1739C23.4442 22.7176 24.598 21.48 26.0578 21.48H87.2095L90.3433 66.1373V66.1374Z" fill="#00727A"/>
<path d="M94.2604 66.1373H30.4083L27.2744 21.48H91.1266L94.2604 66.1373V66.1373Z" fill="#00BEAA"/>
<path d="M90.0168 62.3505H33.9901L31.3877 25.2666H87.4144L90.0168 62.3505V62.3505Z" fill="white"/>
<path d="M74.6739 57.1277H37.8011L36.0884 32.7217H72.9612L74.6739 57.1277V57.1277Z" fill="#FFAD9D"/>
<path d="M102.226 36.6268H83.3275C80.3792 36.6268 77.9332 34.1815 77.7268 31.0278L77.1142 21.6661C76.8863 18.1837 79.4593 15.2241 82.7149 15.2241H101.613C104.561 15.2241 107.007 17.6694 107.214 20.8232L107.826 30.1849C108.054 33.6673 105.481 36.6268 102.226 36.6268Z" fill="#00727A"/>
<path d="M105.701 91.1086H42.7203C42.5453 91.1086 42.3736 91.0609 42.2237 90.9707L26.2819 81.3747C25.4459 80.8714 25.8027 79.5869 26.7785 79.5869H89.759C89.9339 79.5869 90.1056 79.6346 90.2555 79.7248L106.197 89.3209C107.033 89.8241 106.677 91.1086 105.701 91.1086H105.701Z" fill="#FFAD9D"/>
<path d="M184.739 62.6037C187.53 71.1937 188.454 80.3712 187.53 89.3513C186.786 96.5787 186.259 103.417 181.173 108.958C172.454 118.458 158.227 119.123 146.415 117.368C142.267 116.752 137.891 115.754 134.954 112.761C132.016 109.768 131.418 104.166 134.782 101.661C137.737 99.4608 142.062 100.572 145.393 98.997C147.766 97.8745 149.345 95.4847 150.098 92.9692C151.96 86.7499 151.213 80.3427 151.37 73.9718C151.54 67.0887 153.435 59.6726 158.895 55.4789C161.868 53.1955 165.602 52.1135 169.315 51.593C171.922 51.2274 174.671 51.1329 177.094 52.163C181.192 53.9052 183.363 58.3689 184.739 62.6037L184.739 62.6037Z" fill="#FFAD9D"/>
<path d="M55.4431 88.9052H83.6988C84.4549 88.9052 84.4562 87.73 83.6988 87.73H55.4431C54.6869 87.73 54.6857 88.9052 55.4431 88.9052V88.9052Z" fill="white"/>
<path d="M157.539 23.1661C158.254 23.9077 159.116 24.5528 160.2 25.0611C161.973 25.8929 163.95 26.1716 165.804 26.8014C169.53 28.0668 172.625 32.3718 172.527 36.3674C172.477 38.4039 171.444 40.4696 169.659 41.4519C168.034 42.3463 166.04 42.2594 164.235 41.8298C163.72 41.7071 163.154 41.5139 162.917 41.0403C162.679 40.5667 163.119 39.8298 163.611 40.027C164.397 41.2464 163.95 42.9084 163.116 44.0954C162.006 45.674 160.384 47.8053 158.763 48.8443C154.764 51.4069 147.506 51.8074 143.916 48.3982C142.786 47.3259 142.033 45.8006 142.109 44.2452C142.14 43.6156 142.315 42.9714 142.729 42.496C143.143 42.0206 143.828 41.7516 144.427 41.9457C144.514 41.9737 144.606 42.0185 144.639 42.103C144.672 42.1852 144.64 42.2781 144.599 42.357C143.784 43.9614 141.718 42.9709 140.762 42.1703C139.582 41.1818 138.776 39.7395 138.542 38.2192C138.241 36.2591 138.82 34.2387 139.91 32.6058C140.783 31.2985 141.636 29.5298 143.513 29.759C143.859 29.8013 144.219 29.9289 144.424 30.211C144.63 30.4931 144.606 30.9546 144.306 31.1335C143.966 31.3364 143.537 31.0864 143.253 30.8103C141.739 29.3379 141.527 27.494 142.066 25.5324C142.437 24.1776 142.069 22.741 140.61 22.1545C138.761 21.4111 137.129 22.7928 137.064 24.619C137.024 25.713 137.044 26.809 137.123 27.9008C136.479 27.7121 136.098 27.0595 135.842 26.4398C135.317 25.1684 135.5 23.0284 134.671 21.9534C133.658 20.6388 131.197 21.381 129.777 21.2214C128.858 21.1179 127.875 20.8677 127.297 20.1451C126.726 19.4309 126.691 18.4241 126.844 17.5225C127.323 14.7154 129.576 12.9445 131.988 11.6813C135.248 9.97444 138.817 8.66516 142.497 8.68379C146.602 8.70458 150.614 10.5658 152.684 14.2022C154.439 17.2838 155.2 20.741 157.539 23.1661V23.1661Z" fill="black"/>
<path d="M157.123 23.5814C158.003 24.487 159.055 25.207 160.214 25.7076C161.464 26.2476 162.784 26.5595 164.095 26.9086C165.24 27.2133 166.24 27.5172 167.23 28.1315C168.122 28.685 168.892 29.3817 169.585 30.2015C170.903 31.7624 171.845 33.8237 171.934 35.8389C172.025 37.8929 171.118 40.0523 169.222 41.0186C168.042 41.6205 166.618 41.6539 165.333 41.4505C164.758 41.3595 164.047 41.2822 163.599 40.9583C163.555 40.9263 163.462 40.8386 163.424 40.7436C163.473 40.864 163.435 40.6342 163.439 40.7779C163.438 40.7426 163.47 40.6067 163.439 40.7151C163.444 40.6969 163.511 40.5484 163.457 40.6489C163.473 40.6168 163.492 40.5859 163.513 40.5562C163.475 40.605 163.478 40.6049 163.523 40.5558L163.483 40.5847C163.542 40.5518 163.539 40.5503 163.474 40.5804C163.636 40.6135 163.28 40.5345 163.454 40.5935L163.103 40.3235C163.401 40.8006 163.484 41.349 163.41 41.8812C163.32 42.522 163.061 43.1113 162.711 43.6478C161.993 44.7451 161.159 45.799 160.266 46.7571C159.436 47.647 158.563 48.3563 157.473 48.897C157.359 48.9537 157.243 49.0084 157.127 49.0613C157.073 49.0859 157.019 49.11 156.965 49.134C156.937 49.1461 156.91 49.158 156.883 49.1697C156.94 49.1449 156.882 49.17 156.857 49.1804C156.604 49.285 156.347 49.3814 156.088 49.4702C155.564 49.6498 155.03 49.7983 154.489 49.9181C152.352 50.3916 150.002 50.4258 147.877 49.8568C146.833 49.5773 145.971 49.2157 145.069 48.5875C144.844 48.4308 144.755 48.3624 144.524 48.1588C144.288 47.9513 144.067 47.7279 143.864 47.4883C143.47 47.0214 143.145 46.4655 142.946 45.8925C142.604 44.9052 142.433 43.2377 143.486 42.6239C143.694 42.5028 143.956 42.4422 144.137 42.4766C144.166 42.4822 144.208 42.5031 144.238 42.5024C144.426 42.4975 143.991 42.1388 144.092 42.0603C144.052 42.0915 144.013 42.201 143.984 42.2472C143.968 42.2718 143.951 42.2967 143.934 42.3198C143.941 42.31 143.98 42.2626 143.937 42.3108C143.889 42.3643 143.839 42.4136 143.785 42.4613C143.734 42.5059 143.794 42.4538 143.802 42.4483C143.781 42.4624 143.76 42.4772 143.738 42.4898C143.695 42.5149 143.652 42.5386 143.607 42.5615C143.529 42.6013 143.694 42.5339 143.611 42.5587C143.587 42.5657 143.564 42.5747 143.54 42.5817C143.485 42.5981 143.429 42.6098 143.372 42.6212C143.304 42.6348 143.397 42.6183 143.405 42.6177C143.371 42.6206 143.338 42.6236 143.304 42.6253C143.253 42.6278 143.202 42.6281 143.151 42.6267C143.099 42.6253 143.047 42.6204 142.996 42.617C142.881 42.6093 142.971 42.6136 142.995 42.6177C142.96 42.6117 142.924 42.6057 142.889 42.5988C142.774 42.5758 142.659 42.5455 142.547 42.5101C142.494 42.4934 142.441 42.4756 142.389 42.4567C142.363 42.4472 142.337 42.4369 142.311 42.4276C142.212 42.3922 142.329 42.4378 142.271 42.4124C142.053 42.3171 141.843 42.2049 141.641 42.0801C141.545 42.0211 141.451 41.9592 141.36 41.8944C141.32 41.8659 141.28 41.8366 141.241 41.8073C141.345 41.8846 141.204 41.7765 141.178 41.7548C140.92 41.5398 140.681 41.3022 140.462 41.0483C139.645 40.1009 139.145 38.8723 139.065 37.6218C138.976 36.2447 139.317 34.8674 139.966 33.6547C140.247 33.1301 140.588 32.6369 140.911 32.1377C141.058 31.9104 141.209 31.6861 141.369 31.4679C141.398 31.4285 141.455 31.3549 141.535 31.2604C141.623 31.1565 141.714 31.0557 141.811 30.9598C142.16 30.6132 142.47 30.4075 142.974 30.3339C142.885 30.3469 143.033 30.331 143.059 30.3296C143.122 30.3263 143.185 30.3256 143.249 30.327C143.417 30.3308 143.468 30.3337 143.633 30.3788C143.742 30.4085 143.832 30.4455 143.894 30.4984C143.919 30.5205 143.943 30.5463 143.966 30.572C143.953 30.5571 143.94 30.5369 143.963 30.5818C143.975 30.6059 143.967 30.6062 143.97 30.6235C143.972 30.6386 143.973 30.6341 143.976 30.6498C143.969 30.6118 143.985 30.6617 143.958 30.6808C143.951 30.6855 144.008 30.6281 144.009 30.626C144.031 30.5865 144.078 30.6509 143.988 30.6182C144.036 30.6356 143.905 30.5727 143.894 30.5667C143.646 30.4286 143.435 30.1692 143.252 29.9421C142.879 29.4777 142.638 28.9683 142.5 28.3977C142.368 27.853 142.354 27.2616 142.429 26.6573C142.498 26.0981 142.724 25.458 142.775 24.8523C142.879 23.633 142.331 22.4217 141.248 21.8109C140.111 21.1692 138.734 21.2263 137.706 22.043C137.233 22.4186 136.899 22.9357 136.689 23.4971C136.446 24.1442 136.461 24.8501 136.457 25.5309C136.452 26.3216 136.48 27.112 136.535 27.9007C136.783 27.7118 137.031 27.523 137.279 27.3341C137.213 27.313 137.157 27.2888 137.064 27.2284C137.011 27.1943 136.96 27.1487 136.883 27.0679C136.758 26.9355 136.654 26.7698 136.551 26.5759C136.372 26.2402 136.26 25.8887 136.175 25.4817C135.994 24.6146 135.953 23.7208 135.722 22.8639C135.503 22.0566 135.081 21.2883 134.295 20.9191C133.514 20.5523 132.63 20.5417 131.784 20.5835C131.045 20.6201 130.233 20.714 129.542 20.6011C128.701 20.4639 127.826 20.1738 127.511 19.3534C127.186 18.5074 127.375 17.5101 127.673 16.6654C127.937 15.9175 128.422 15.1739 128.968 14.5838C130.247 13.2034 131.947 12.3119 133.656 11.5049C135.656 10.56 137.769 9.81475 139.959 9.46404C143.647 8.87329 147.612 9.63327 150.368 12.2124C153.281 14.9377 153.835 19.2259 156.146 22.4028C156.447 22.816 156.77 23.2121 157.123 23.5815C157.647 24.1291 158.477 23.2973 157.954 22.7505C155.059 19.723 154.632 15.1646 151.85 12.0474C149.175 9.05027 145.024 7.82503 141.101 8.1513C138.732 8.34834 136.451 9.02472 134.27 9.94942C132.356 10.7608 130.417 11.7023 128.837 13.0767C127.356 14.3659 126.305 16.1287 126.187 18.1179C126.12 19.2445 126.468 20.3551 127.403 21.0402C128.175 21.6053 129.242 21.819 130.183 21.8322C131.008 21.8437 131.828 21.717 132.654 21.7462C133.065 21.7607 133.275 21.784 133.692 21.9304C133.925 22.0122 134.162 22.2118 134.318 22.4817C134.436 22.6859 134.448 22.7261 134.517 22.9366C134.583 23.1385 134.634 23.3453 134.678 23.5531C134.774 24.0153 134.832 24.4843 134.9 24.9512C135.029 25.8491 135.215 26.7634 135.749 27.52C136.061 27.9608 136.446 28.3001 136.967 28.4673C137.313 28.5785 137.737 28.2741 137.71 27.9007C137.665 27.2637 137.639 26.6256 137.633 25.987C137.63 25.6829 137.632 25.3788 137.638 25.0748C137.643 24.8293 137.65 24.4788 137.679 24.3236C137.699 24.2199 137.723 24.1172 137.753 24.016C137.77 23.9562 137.79 23.8972 137.811 23.8385C137.851 23.7278 137.832 23.7815 137.821 23.8072C137.864 23.7046 137.916 23.6053 137.973 23.5094C137.998 23.4662 138.024 23.4236 138.052 23.3818C138.056 23.3757 138.157 23.2336 138.1 23.3077C138.218 23.1544 138.361 23.0102 138.514 22.8919C138.428 22.9584 138.583 22.8478 138.584 22.847C138.624 22.8204 138.666 22.7952 138.708 22.7711C138.75 22.7469 138.793 22.7248 138.836 22.7024C138.951 22.6429 138.798 22.709 138.91 22.6684C139.631 22.4061 140.498 22.567 141.068 23.133C141.331 23.3944 141.468 23.6551 141.559 24.0485C141.624 24.3263 141.619 24.8321 141.558 25.129C141.45 25.6536 141.31 26.158 141.249 26.693C141.19 27.2113 141.204 27.7261 141.278 28.242C141.427 29.2803 141.913 30.2318 142.62 31.0021C143.005 31.4215 143.513 31.8369 144.119 31.7884C144.758 31.7372 145.194 31.1631 145.139 30.5356C145.028 29.2749 143.503 28.9916 142.489 29.235C141.592 29.4504 140.927 30.1138 140.39 30.8269C140.138 31.1624 139.913 31.5172 139.687 31.8707C139.421 32.2868 139.143 32.6939 138.914 33.1322C137.863 35.1394 137.5 37.5927 138.346 39.7402C139.04 41.5029 140.443 43.1262 142.313 43.6672C143.138 43.906 144.082 43.8462 144.712 43.2021C145.121 42.7848 145.503 42.0674 144.969 41.5876C144.532 41.1951 143.764 41.2399 143.254 41.4403C142.098 41.8941 141.58 43.0679 141.522 44.2451C141.467 45.3468 141.804 46.4614 142.368 47.4009C143.346 49.0288 144.98 50.1108 146.741 50.7349C148.442 51.3375 150.299 51.5239 152.093 51.4235C153.923 51.3212 155.734 50.9275 157.421 50.208C158.228 49.8636 158.994 49.4401 159.687 48.8995C160.538 48.2358 161.273 47.4337 161.956 46.6019C162.626 45.7865 163.324 44.9338 163.861 44.0224C164.42 43.0733 164.73 41.9532 164.549 40.8539C164.466 40.3475 164.229 39.557 163.666 39.4325C163.072 39.301 162.565 39.7182 162.359 40.2457C162.155 40.7681 162.305 41.321 162.689 41.7171C163.054 42.0939 163.581 42.2762 164.079 42.3963C166.24 42.9172 168.742 42.9521 170.589 41.5422C172.237 40.2848 173.119 38.2206 173.117 36.1695C173.114 34.1996 172.414 32.2483 171.343 30.6113C170.269 28.9692 168.784 27.5271 167.008 26.6669C164.942 25.6666 162.574 25.5274 160.496 24.5537C159.542 24.1063 158.689 23.5062 157.954 22.7505C157.426 22.2072 156.595 23.0386 157.123 23.5815L157.123 23.5814Z" fill="black"/>
<path d="M75.8044 80.9141C75.5264 80.9826 75.3496 80.9982 75.1087 80.9007C75.0137 80.8622 74.844 80.7126 74.7563 80.572C74.4778 80.1252 74.3668 79.54 74.3374 78.9941C74.2633 77.6205 74.6991 76.3406 75.2789 75.0362C75.963 73.497 76.9511 72.1177 78.3945 71.2112C80.1988 70.078 82.4095 69.6259 84.5125 69.5211C86.7899 69.4075 89.0663 69.6796 91.3141 70.0211C93.731 70.3883 96.1445 70.7812 98.5567 71.1785C101.079 71.594 103.6 72.0188 106.123 72.4328C108.526 72.8271 110.952 73.1441 113.333 73.661C114.907 74.0029 116.584 74.4064 117.99 75.2221C118.836 75.713 119.727 76.2901 120.44 76.8689C120.654 77.0433 120.864 77.2247 121.06 77.419C121.139 77.4971 121.217 77.5771 121.29 77.6602C121.325 77.6991 121.359 77.7387 121.392 77.7787C121.449 77.8478 121.34 77.7068 121.391 77.7766C121.41 77.8019 121.429 77.827 121.446 77.8533C121.494 77.9265 121.537 78.0004 121.58 78.0768C121.645 78.1949 121.557 78.0031 121.587 78.0964C121.596 78.1225 121.642 78.2528 121.608 78.1537C121.573 78.0504 121.598 78.175 121.604 78.1888C121.619 78.2224 121.604 78.0343 121.601 78.1692C121.602 78.1216 121.625 78.0459 121.605 78.1411C121.632 78.0143 121.681 78.1229 121.596 78.1373C121.582 78.1397 121.696 78.0972 121.571 78.1478C121.528 78.1652 121.452 78.2054 121.543 78.1677C121.452 78.2056 121.315 78.2655 121.215 78.2632C121.024 78.2586 120.881 77.9225 120.816 77.7319C120.678 77.3289 120.673 76.9231 120.66 76.5016C120.644 75.9758 120.631 75.4499 120.624 74.924C120.562 70.6944 120.784 66.4441 121.517 62.2734C122.239 58.1614 123.45 54.1171 125.333 50.3823C127.223 46.6333 129.738 43.0681 133.089 40.4878C134.728 39.2261 136.601 38.1315 138.588 37.5247C139.554 37.2293 140.542 37.1405 141.548 37.2287C142.474 37.3099 143.38 37.5341 144.291 37.7064C145.287 37.8947 146.292 38.0246 147.307 38.0127C148.063 38.0038 148.065 36.8286 147.307 36.8375C145.201 36.8622 143.209 36.1138 141.118 36.0254C138.841 35.9291 136.656 36.8664 134.72 37.9847C130.765 40.2685 127.745 43.8144 125.451 47.7126C123.163 51.5994 121.626 55.8983 120.702 60.3044C119.772 64.7459 119.428 69.298 119.439 73.8303C119.442 74.9469 119.405 76.0952 119.517 77.207C119.602 78.0465 119.944 79.1499 120.869 79.3939C121.454 79.5481 122.276 79.2681 122.611 78.7476C122.889 78.3152 122.781 77.7911 122.534 77.3733C121.949 76.3845 120.844 75.6652 119.913 75.0401C119.055 74.4639 118.204 73.9663 117.242 73.5856C114.908 72.6625 112.415 72.2584 109.949 71.8669C107.262 71.4403 104.578 70.9935 101.894 70.5468C99.2185 70.1015 96.5422 69.661 93.8627 69.2394C91.451 68.86 89.0342 68.4411 86.5906 68.3415C84.1721 68.2429 81.6921 68.4771 79.4313 69.3886C77.5911 70.1305 76.0736 71.3296 75.015 73.0178C74.5146 73.8158 74.1315 74.6853 73.8083 75.5683C73.5396 76.3021 73.2918 77.0379 73.2 77.8161C73.0553 79.0409 73.1354 80.7347 74.1195 81.6259C74.6787 82.1324 75.4017 82.2235 76.1167 82.0473C76.8507 81.8665 76.5398 80.7329 75.8043 80.9141V80.9141L75.8044 80.9141Z" fill="black"/>
<path d="M77.0001 76.8893C76.4626 78.5702 75.9251 80.2511 75.3875 81.9321C75.032 83.0437 74.6765 84.1553 74.321 85.2669C74.1228 85.887 73.7979 86.5993 73.8078 87.2611C73.8242 88.3544 74.6431 89.3377 75.7309 89.5097C76.8911 89.6932 77.9351 89.0213 78.328 87.932C77.9503 87.8278 77.5726 87.7237 77.1948 87.6196C76.8583 88.7312 77.3875 89.9587 78.4611 90.4291C79.584 90.9212 80.9187 90.4487 81.4707 89.3489C81.1127 89.1979 80.7547 89.047 80.3967 88.8961C80.1509 90.134 80.8746 91.4469 82.1683 91.6951C83.3571 91.9231 84.4519 91.2531 84.8551 90.1277C85.2654 88.9828 85.6296 87.8192 86.0164 86.6662C86.172 86.2024 86.3276 85.7386 86.4832 85.2748C86.1055 85.1707 85.7278 85.0666 85.35 84.9624C85.0052 86.0417 84.6603 87.1209 84.3154 88.2001C84.1521 88.7112 83.9786 89.2203 83.8252 89.7344C83.566 90.6024 84.031 91.4651 84.6706 92.0391C85.5347 92.8146 86.7972 93.1966 87.8398 92.516C88.3322 92.1946 88.6733 91.7184 88.8364 91.1551C88.9295 90.8335 88.9974 90.5058 89.1114 90.1903C89.2492 89.8084 89.447 89.4716 89.7214 89.2043C89.9247 89.0061 90.21 88.8419 90.4648 88.7629C91.1399 88.5535 91.8898 88.6469 92.6126 88.8305C94.4346 89.2934 96.085 90.2656 97.7842 91.0555C100.438 92.2889 103.158 93.3811 105.93 94.3196C108.737 95.2703 111.605 96.1104 114.523 96.6492C116.012 96.9243 117.522 97.1186 119.036 97.1781C119.753 97.2062 120.471 97.204 121.187 97.1655C121.847 97.1301 122.651 97.04 123.205 96.9577C123.752 96.8766 124.288 96.7641 124.821 96.6161C126.096 96.262 127.334 95.7614 128.512 95.1609C130.208 94.2966 131.783 93.1929 133.191 91.9137C134.989 90.2803 136.508 88.3378 137.715 86.2321C139.276 83.5087 140.332 80.5079 140.993 77.4453C141.884 73.3138 142.099 69.0524 141.916 64.8381C141.862 63.6125 141.774 62.3888 141.658 61.1677C141.628 60.8518 141.409 60.5801 141.07 60.5801C140.776 60.5801 140.452 60.8499 140.482 61.1677C140.9 65.5581 140.974 70.0257 140.347 74.4009C140.096 76.1545 139.735 77.894 139.236 79.5946C138.808 81.0576 138.291 82.4574 137.665 83.7856C137.097 84.9902 136.44 86.1532 135.69 87.2534C135.022 88.2318 134.393 89.0214 133.542 89.9228C132.827 90.681 132.056 91.3877 131.238 92.0337C131.188 92.0732 131.137 92.1124 131.087 92.1514C131.191 92.0713 131.078 92.1581 131.039 92.1875C130.94 92.2626 130.84 92.3372 130.739 92.4107C130.554 92.5462 130.366 92.6786 130.177 92.8079C129.806 93.0606 129.427 93.3014 129.041 93.5296C128.365 93.929 127.666 94.29 126.949 94.609C126.874 94.6423 126.798 94.6749 126.723 94.7075C126.645 94.7416 126.624 94.7493 126.725 94.7072C126.679 94.7262 126.634 94.7454 126.588 94.7642C126.438 94.826 126.288 94.8859 126.136 94.9439C125.853 95.0523 125.568 95.1541 125.28 95.2487C124.592 95.4747 123.891 95.6634 123.176 95.7846C123.048 95.8064 123.031 95.8056 123.207 95.7824C121.945 95.9494 120.69 96.0453 119.416 96.015C116.49 95.9454 113.607 95.3437 110.791 94.5767C108.015 93.8202 105.28 92.9091 102.603 91.8541C100.275 90.9368 98.0358 89.8533 95.7743 88.7896C94.2967 88.0946 92.5929 87.3292 90.9178 87.4884C90.096 87.5665 89.3094 87.8866 88.7548 88.5163C88.1825 89.1661 87.9432 89.9573 87.7213 90.7745C87.6159 91.1624 87.392 91.4842 87.0021 91.6316C86.5602 91.7986 86.1271 91.6451 85.7512 91.3996C85.283 91.0938 84.7943 90.5602 84.9785 89.9838C85.3739 88.7463 85.7694 87.5088 86.1648 86.2712C86.271 85.9391 86.3771 85.607 86.4832 85.2748C86.7145 84.551 85.5893 84.2492 85.35 84.9624C85.0399 85.8867 84.7298 86.811 84.4197 87.7354C84.2336 88.2901 84.0474 88.8449 83.8613 89.3996C83.7287 89.7949 83.6236 90.172 83.2386 90.4066C82.4071 90.9132 81.3406 90.1618 81.5299 89.2085C81.6519 88.5941 80.7728 88.1244 80.4559 88.7557C80.1703 89.3247 79.5243 89.6427 78.9151 89.3532C78.3686 89.0934 78.1589 88.4907 78.328 87.932C78.5497 87.1996 77.4482 86.9171 77.1948 87.6196C76.9687 88.2463 76.225 88.5522 75.6244 88.2589C75.0783 87.9921 74.8832 87.393 75.0529 86.8341C75.2135 86.3054 75.3897 85.781 75.558 85.2547C76.2338 83.1414 76.9096 81.0281 77.5854 78.9148C77.768 78.3438 77.9507 77.7727 78.1333 77.2017C78.3642 76.4797 77.2299 76.1706 77 76.8893V76.8893H77.0001Z" fill="black"/>
<path d="M81.5727 89.1982C82.0992 87.6753 82.6258 86.1525 83.1523 84.6296C83.227 84.4136 83.3017 84.1975 83.3764 83.9815C83.4801 83.6815 83.258 83.3389 82.966 83.2586C82.643 83.1699 82.3473 83.368 82.2432 83.669C81.7167 85.1919 81.1901 86.7147 80.6636 88.2376C80.5889 88.4536 80.5142 88.6697 80.4395 88.8858C80.3358 89.1857 80.5579 89.5283 80.8499 89.6086C81.1729 89.6973 81.4686 89.4992 81.5727 89.1982V89.1982V89.1982Z" fill="black"/>
<path d="M78.2699 88.1542C78.7965 86.6314 79.323 85.1085 79.8496 83.5857C79.9243 83.3696 79.999 83.1536 80.0737 82.9375C80.1774 82.6376 79.9553 82.2949 79.6633 82.2147C79.3403 82.1259 79.0446 82.3241 78.9405 82.6251C78.4139 84.1479 77.8874 85.6708 77.3609 87.1936C77.2862 87.4097 77.2114 87.6257 77.1367 87.8418C77.033 88.1417 77.2552 88.4844 77.5471 88.5646C77.8702 88.6534 78.1659 88.4552 78.2699 88.1542V88.1542V88.1542Z" fill="black"/>
<path d="M120.005 66.7975C118.754 66.1344 117.504 65.4713 116.254 64.8081C115.035 64.162 113.827 63.4911 112.584 62.8933C111.16 62.2084 109.67 61.686 108.131 61.3263C105.101 60.6179 101.581 60.3303 98.7052 61.7496C97.0824 62.5505 95.9199 63.9643 95.3747 65.6819C95.1453 66.4044 96.2795 66.7137 96.5079 65.9943C96.568 65.8051 96.6342 65.6179 96.7105 65.4346C96.6673 65.5385 96.7122 65.4316 96.7241 65.4061C96.7423 65.3668 96.7599 65.3272 96.7784 65.2881C96.8223 65.1955 96.8685 65.1041 96.917 65.0139C97.0037 64.8528 97.0978 64.6958 97.1994 64.5437C97.2446 64.476 97.2913 64.4092 97.3394 64.3435C97.3511 64.3276 97.4507 64.1998 97.3646 64.3082C97.3945 64.2706 97.4245 64.2331 97.4552 64.1961C97.677 63.9288 97.9241 63.6828 98.1915 63.4612C98.2276 63.4312 98.2644 63.402 98.301 63.3726C98.2849 63.3855 98.2057 63.4419 98.2937 63.3785C98.3636 63.3282 98.4325 63.2768 98.5036 63.228C98.6525 63.126 98.806 63.0305 98.9631 62.9416C99.1008 62.8637 99.2413 62.7908 99.3841 62.7228C99.4704 62.6816 99.5576 62.6425 99.6454 62.6046C99.5209 62.6583 99.7765 62.5535 99.8178 62.5379C100.154 62.4109 100.5 62.3071 100.85 62.2231C101.012 62.184 101.175 62.1492 101.34 62.1184C101.423 62.1028 101.506 62.0882 101.589 62.0746C101.639 62.0664 101.689 62.0585 101.74 62.051C101.773 62.046 101.807 62.0411 101.841 62.0364C101.777 62.0446 101.768 62.046 101.811 62.0403C102.18 61.9931 102.551 61.9625 102.922 61.947C103.702 61.9145 104.484 61.9457 105.259 62.0235C105.455 62.0431 105.65 62.0661 105.845 62.0911C105.723 62.0754 105.969 62.1087 106.006 62.1142C106.112 62.1296 106.217 62.1459 106.322 62.163C106.705 62.225 107.085 62.2974 107.464 62.3795C108.186 62.5361 108.901 62.7277 109.604 62.9545C109.928 63.0591 110.25 63.1713 110.569 63.292C110.706 63.3439 110.843 63.3973 110.979 63.4524C111.023 63.4707 111.213 63.55 111.074 63.491C111.178 63.5354 111.282 63.5808 111.386 63.6271C112.734 64.2297 114.027 64.9565 115.331 65.6479C116.691 66.3694 118.051 67.0908 119.412 67.8123C119.692 67.9609 120.051 67.8832 120.216 67.6015C120.371 67.3357 120.286 66.9467 120.005 66.7975V66.7975L120.005 66.7975Z" fill="black"/>
<path d="M159.512 96.7507C158.35 100.208 155.766 102.986 152.736 104.93C149.249 107.168 145.224 108.241 141.183 108.961C139.004 109.35 136.809 109.645 134.623 109.995C133.637 110.152 132.728 110.298 131.753 110.4C130.527 110.528 129.29 110.601 128.058 110.549C127.027 110.506 125.868 110.401 124.965 109.889C124.617 109.692 124.361 109.477 124.206 109.107C124.163 109.004 124.157 108.75 124.124 108.605C124.134 108.648 124.081 108.693 124.041 108.699C124.111 108.689 124.202 108.668 124.335 108.682C125.573 108.811 126.733 109.72 127.219 110.836C127.57 111.644 127.678 112.54 127.816 113.401C127.991 114.488 128.188 115.572 128.406 116.651C128.843 118.804 129.364 120.94 129.959 123.055C132.382 131.667 136.003 139.912 140.19 147.802C141.276 149.85 142.394 151.881 143.504 153.915C144.541 155.814 145.555 157.713 146.714 159.541C147.791 161.239 148.907 162.92 149.81 164.719C150.651 166.396 151.437 168.336 151.321 170.247C151.209 172.085 150.16 173.719 148.976 175.065C147.635 176.59 146.079 177.937 144.443 179.134C141.095 181.584 137.367 183.452 133.621 185.207C131.59 186.158 128.188 187.398 126.45 185.225C126.028 184.697 125.811 184.028 125.707 183.368C125.538 182.296 125.583 181.169 125.642 180.09C125.768 177.781 126.143 175.485 126.102 173.168C126.03 169.161 124.593 165.381 122.754 161.872C120.882 158.301 118.68 154.914 116.787 151.352C114.609 147.256 112.532 143.106 110.558 138.908C108.605 134.755 106.701 130.563 105.035 126.286C102.074 118.684 99.7147 109.925 102.098 101.834C102.644 99.9775 103.458 98.224 104.529 96.6113C104.948 95.9795 103.931 95.3903 103.514 96.0182C98.6885 103.285 99.5021 112.659 101.847 120.645C103.185 125.203 105.067 129.584 106.992 133.919C108.957 138.343 111.034 142.717 113.223 147.035C114.317 149.194 115.437 151.34 116.588 153.469C117.563 155.273 118.629 157.024 119.67 158.79C121.747 162.315 123.785 165.971 124.588 170.027C125.034 172.276 124.952 174.532 124.743 176.803C124.533 179.096 124.172 181.509 124.594 183.798C124.85 185.187 125.645 186.464 126.949 187.078C128.219 187.676 129.665 187.663 131.017 187.391C132.74 187.045 134.321 186.183 135.891 185.426C137.841 184.485 139.77 183.495 141.632 182.387C143.479 181.288 145.257 180.068 146.906 178.688C148.463 177.385 149.976 175.932 151.094 174.226C152.186 172.558 152.719 170.639 152.402 168.653C152.078 166.626 151.188 164.712 150.189 162.936C149.156 161.101 147.958 159.367 146.87 157.566C145.675 155.589 144.626 153.518 143.518 151.491C138.969 143.163 134.795 134.657 131.939 125.584C131.247 123.384 130.63 121.16 130.103 118.915C129.581 116.692 129.204 114.451 128.807 112.204C128.512 110.533 127.812 108.936 126.234 108.119C125.385 107.68 123.395 106.886 122.995 108.306C122.692 109.384 123.545 110.458 124.433 110.938C125.5 111.514 126.772 111.663 127.965 111.72C130.332 111.834 132.685 111.487 135.016 111.115C139.541 110.394 144.153 109.894 148.483 108.312C152.107 106.989 155.538 104.876 157.985 101.851C159.147 100.416 160.056 98.8153 160.645 97.0631C160.886 96.3445 159.752 96.0363 159.512 96.7507V96.7507H159.512Z" fill="black"/>
<path d="M99.5194 128.068C96.1012 132.214 93.6157 137.029 90.4103 141.331C88.8376 143.442 87.0611 145.508 84.8858 147.02C82.2636 148.842 79.1699 149.788 76.2026 150.879C74.751 151.412 73.2894 151.972 71.9213 152.698C70.7606 153.314 69.7257 154.194 69.4368 155.534C68.8863 158.089 70.588 160.564 72.379 162.197C74.2519 163.904 76.4803 165.142 78.505 166.649C81.042 168.537 83.6195 170.378 86.5099 171.694C89.2911 172.96 92.6525 174.169 95.6441 172.914C98.0453 171.908 99.6777 169.812 101.115 167.728C104.914 162.217 109.171 157.052 113.544 151.989C122.548 141.563 132.123 131.51 143.065 123.089C145.67 121.084 148.37 119.195 151.209 117.537C154.087 115.856 157.151 114.646 160.13 113.177C164.437 111.054 167.853 107.669 170.107 103.435C174.513 95.157 174.777 85.0541 173.814 75.9294C173.696 74.8117 173.554 73.6964 173.393 72.5842C173.25 71.5925 173.249 70.2519 172.615 69.436C171.936 68.5624 170.344 68.5672 170.156 69.8472C170.057 70.5247 170.449 71.1927 170.702 71.7959C171.079 72.6974 171.456 73.5989 171.833 74.5004C172.301 75.6195 172.7 77.4978 173.951 78.018C175.167 78.5235 176.354 77.5459 177.041 76.6269C178.606 74.5312 179.498 71.9147 179.922 69.3563C180.805 64.0413 179.936 58.4448 178.164 53.3973C176.384 48.324 173.473 43.6186 169.49 39.9784C167.501 38.1604 165.256 36.6096 162.814 35.4652C161.592 34.8927 160.326 34.4106 159.028 34.044C157.866 33.7161 156.685 33.4399 155.583 32.9352C153.254 31.8687 152.098 29.9426 151.936 27.4057C151.831 25.7749 151.983 24.1412 151.637 22.5303C151.37 21.2896 150.863 20.0867 150.184 19.0157C147.365 14.5707 142.079 12.6656 137.043 14.0212C134.678 14.6578 132.439 15.9347 130.775 17.7422C128.84 19.8426 128.052 22.3854 127.888 25.1979C127.801 26.6946 127.836 28.1978 127.687 29.6909C127.634 30.227 127.394 30.903 127.731 31.3925C128.068 31.8801 128.606 31.7152 129.068 31.94L128.798 31.5889C129.561 33.5336 130.449 35.5488 132.178 36.8284C134.001 38.1767 136.361 38.7213 138.596 38.4352C139.336 38.3405 139.345 37.1641 138.596 37.26C135.481 37.6589 132.522 36.3713 130.981 33.5974C130.647 32.9957 130.368 32.365 130.109 31.7276C129.859 31.1097 129.695 30.8405 129.014 30.7197C128.916 30.7023 128.742 30.709 128.664 30.6663C128.791 30.7354 128.63 31.1365 128.763 30.5076C128.828 30.1999 128.847 29.8708 128.876 29.5579C128.947 28.7915 128.97 28.0213 128.991 27.2522C129.071 24.3399 129.236 21.5047 131.122 19.1343C132.664 17.1966 134.879 15.8436 137.252 15.1823C142.295 13.7768 147.653 16.0434 149.86 20.8792C150.444 22.1607 150.682 23.5164 150.715 24.9179C150.752 26.4592 150.672 28.0168 151.089 29.5188C151.657 31.5647 153.08 33.0711 154.99 33.9499C157.176 34.9564 159.591 35.3035 161.794 36.2849C164.203 37.3579 166.432 38.8194 168.399 40.5743C172.333 44.0838 175.239 48.6494 176.994 53.6051C178.742 58.5411 179.668 64.0643 178.751 69.27C178.529 70.5289 178.194 71.7727 177.718 72.9602C177.251 74.1266 176.623 75.5012 175.709 76.3873C175.05 77.0265 174.332 77.2011 173.86 76.3015C173.462 75.5405 173.179 74.6957 172.847 73.9033C172.53 73.1441 172.212 72.385 171.894 71.6258C171.741 71.2584 171.564 70.8906 171.433 70.5144C171.37 70.3333 171.101 69.7785 171.641 70.088C171.806 70.1825 171.88 70.5973 171.916 70.7607C172.38 72.82 172.562 74.9928 172.752 77.0912C172.959 79.3588 173.069 81.6359 173.063 83.913C173.05 88.4705 172.583 93.0653 171.275 97.4445C170.017 101.657 167.913 105.658 164.672 108.681C162.783 110.443 160.587 111.71 158.243 112.77C155.305 114.1 152.41 115.418 149.649 117.099C144.246 120.387 139.292 124.434 134.559 128.613C129.585 133.005 124.892 137.708 120.381 142.571C115.878 147.424 111.501 152.416 107.329 157.557C105.288 160.072 103.227 162.607 101.375 165.266C99.9303 167.339 98.6051 169.694 96.4643 171.139C93.6391 173.046 90.3654 172.106 87.4718 170.844C84.694 169.633 82.1776 167.927 79.7542 166.126C77.7409 164.629 75.535 163.359 73.6241 161.73C72.6828 160.928 71.8106 160.024 71.2137 158.932C70.5327 157.685 70.0907 155.906 71.1216 154.72C72.0443 153.659 73.6955 153.11 74.9621 152.604C76.4212 152.021 77.9106 151.519 79.3838 150.973C82.0189 149.997 84.5845 148.863 86.7617 147.054C90.6909 143.789 93.3669 139.195 96.0983 134.954C97.4331 132.881 98.78 130.803 100.35 128.899C100.828 128.319 100.001 127.483 99.5192 128.068V128.068L99.5194 128.068Z" fill="black"/>
<path d="M135.447 23.8193C135.475 23.8039 135.504 23.7906 135.533 23.7761C135.575 23.7544 135.452 23.8063 135.498 23.7909C135.511 23.7863 135.524 23.7808 135.538 23.7762C135.598 23.7552 135.659 23.739 135.722 23.7275C135.736 23.7248 135.789 23.7174 135.722 23.7262C135.648 23.7358 135.722 23.7268 135.733 23.7257C135.761 23.7232 135.79 23.7216 135.818 23.7208C135.838 23.7203 136.001 23.7112 136.009 23.7298C136.009 23.7287 135.909 23.7136 135.968 23.7248C135.982 23.7275 135.996 23.7297 136.01 23.7325C136.041 23.7388 136.072 23.7462 136.103 23.7547C136.134 23.7632 136.164 23.7728 136.194 23.7835C136.207 23.7882 136.221 23.7949 136.234 23.7984C136.223 23.7955 136.151 23.7606 136.199 23.7838C136.257 23.8116 136.313 23.8404 136.366 23.8755C136.378 23.8832 136.389 23.8915 136.401 23.8993C136.445 23.9284 136.381 23.8851 136.373 23.8762C136.396 23.9014 136.428 23.9222 136.453 23.946C136.602 24.0863 136.861 24.1053 137.007 23.946C137.147 23.7937 137.167 23.5419 137.007 23.392C136.485 22.9016 135.681 22.7983 135.052 23.1428C134.872 23.2413 134.799 23.5043 134.911 23.6787C135.029 23.8611 135.255 23.9247 135.447 23.8193V23.8193L135.447 23.8193Z" fill="black"/>
<path d="M130.861 26.7489C130.47 27.2213 131.197 27.6862 131.466 27.1907C131.698 26.7629 131.202 26.3371 130.861 26.7489Z" fill="black"/>
<path d="M130.585 26.4718C130.533 26.5343 130.479 26.5989 130.446 26.6733C130.424 26.7212 130.401 26.7698 130.386 26.8204C130.371 26.8724 130.366 26.9307 130.36 26.983C130.351 27.0545 130.363 27.128 130.377 27.1979C130.389 27.2644 130.419 27.3295 130.45 27.3885C130.513 27.5078 130.617 27.6071 130.73 27.6785C130.847 27.7525 130.985 27.7882 131.122 27.7944C131.139 27.7952 131.157 27.7946 131.174 27.793C131.225 27.7883 131.278 27.7829 131.328 27.7704C131.395 27.7534 131.463 27.725 131.521 27.6876C131.652 27.6043 131.765 27.4839 131.827 27.3412C131.849 27.2904 131.874 27.239 131.888 27.1851C131.903 27.1283 131.91 27.0655 131.915 27.0082C131.922 26.9294 131.911 26.847 131.893 26.7705C131.888 26.748 131.881 26.7262 131.872 26.7048C131.853 26.6553 131.834 26.6032 131.805 26.5572C131.778 26.513 131.745 26.472 131.712 26.4323C131.697 26.4148 131.681 26.3985 131.663 26.384C131.571 26.3067 131.495 26.2597 131.379 26.2207C131.305 26.1955 131.22 26.1836 131.141 26.1913C131.017 26.2034 130.919 26.2271 130.808 26.2876C130.725 26.3333 130.646 26.3987 130.585 26.4718C130.546 26.5073 130.519 26.5493 130.504 26.5979C130.479 26.6446 130.468 26.6949 130.47 26.7488C130.47 26.8449 130.512 26.9597 130.585 27.0258C130.659 27.0943 130.757 27.1452 130.862 27.1406C130.96 27.1361 131.072 27.1044 131.139 27.0258C131.166 26.9933 131.196 26.9637 131.229 26.9377L131.15 26.999C131.177 26.9786 131.206 26.9613 131.237 26.9476L131.144 26.9871C131.172 26.9753 131.201 26.9669 131.232 26.9624L131.128 26.9764C131.156 26.9726 131.184 26.9724 131.213 26.9758L131.109 26.9618C131.139 26.9659 131.167 26.9738 131.195 26.9853L131.101 26.9458C131.129 26.9578 131.155 26.9729 131.178 26.9911L131.099 26.9299C131.125 26.9502 131.148 26.9732 131.168 26.9991L131.106 26.9198C131.127 26.9468 131.143 26.9756 131.156 27.0066L131.117 26.913C131.13 26.9455 131.139 26.9788 131.144 27.0135L131.13 26.9093C131.135 26.9461 131.135 26.9827 131.131 27.0196L131.145 26.9154C131.139 26.9582 131.127 26.9994 131.111 27.0393L131.15 26.9457C131.133 26.9866 131.111 27.025 131.084 27.0604L131.145 26.9811C131.124 27.0086 131.099 27.0334 131.072 27.0549L131.151 26.9936C131.127 27.0115 131.102 27.0264 131.074 27.0382L131.168 26.9987C131.14 27.0101 131.111 27.0179 131.081 27.0222L131.185 27.0082C131.154 27.0121 131.123 27.012 131.092 27.0083L131.196 27.0223C131.16 27.0174 131.124 27.0076 131.09 26.9933L131.184 27.0328C131.152 27.0188 131.122 27.0011 131.094 26.9798L131.173 27.0411C131.146 27.0195 131.121 26.9949 131.099 26.9672L131.161 27.0464C131.142 27.0213 131.126 26.9944 131.114 26.9656L131.153 27.0591C131.142 27.0313 131.134 27.0026 131.129 26.9728L131.143 27.077C131.139 27.0456 131.139 27.0144 131.143 26.983L131.129 27.0872C131.134 27.0529 131.143 27.0199 131.156 26.9878L131.117 27.0814C131.134 27.04 131.157 27.0018 131.184 26.9659L131.123 27.0452C131.128 27.0387 131.133 27.0322 131.139 27.0258C131.177 26.9904 131.204 26.9483 131.22 26.8998C131.244 26.8531 131.255 26.8028 131.253 26.7488C131.253 26.6528 131.211 26.538 131.139 26.4719C131.064 26.4033 130.966 26.3525 130.862 26.3571C130.764 26.3615 130.649 26.3928 130.585 26.4719V26.4718Z" fill="black"/>
<path d="M134.324 32.9544C134.273 32.9752 134.222 32.9936 134.169 33.0068C134.143 33.0133 134.116 33.0195 134.089 33.0231C134.144 33.0158 134.071 33.0214 134.051 33.0218C134.024 33.0223 133.997 33.0211 133.969 33.02C133.903 33.0176 134.017 33.0309 133.952 33.0191C133.891 33.0082 133.833 32.9903 133.775 32.9691C133.833 33.1873 133.89 33.4056 133.948 33.6238C134.646 33.0197 135.083 31.969 134.556 31.1108C134.304 30.7001 133.781 30.3866 133.316 30.6623C133.017 30.8398 132.903 31.1724 132.749 31.4627C132.732 31.4941 132.714 31.5247 132.695 31.5548C132.688 31.5669 132.679 31.5784 132.671 31.59C132.703 31.546 132.665 31.5952 132.65 31.6124C132.577 31.6974 132.496 31.7757 132.409 31.8466C132.36 31.8866 132.451 31.8173 132.399 31.8534C132.374 31.8712 132.348 31.8892 132.322 31.906C132.275 31.9364 132.226 31.9644 132.177 31.9902C132.155 32.0017 132.132 32.0123 132.11 32.0232C132.072 32.0412 132.149 32.0115 132.083 32.0344C132.024 32.0549 131.965 32.0742 131.904 32.0901C131.706 32.1422 131.566 32.3723 131.631 32.572C131.697 32.7759 131.9 32.9015 132.113 32.8456C132.491 32.7461 132.84 32.5405 133.115 32.2625C133.234 32.1426 133.346 32.0077 133.425 31.8582C133.485 31.7458 133.534 31.6282 133.594 31.516C133.622 31.4636 133.657 31.4157 133.686 31.3638C133.642 31.4444 133.673 31.3789 133.698 31.3537C133.709 31.342 133.722 31.3319 133.733 31.3199C133.767 31.2825 133.674 31.3699 133.712 31.3388C133.784 31.2795 133.66 31.3722 133.715 31.337C133.728 31.3288 133.752 31.3086 133.711 31.3365L133.684 31.341C133.715 31.3425 133.718 31.3417 133.694 31.3386C133.649 31.3094 133.798 31.3925 133.72 31.3466C133.735 31.3559 133.751 31.3652 133.767 31.375C133.817 31.4063 133.732 31.3407 133.775 31.3819C133.806 31.4117 133.838 31.4421 133.864 31.4765C133.825 31.4255 133.89 31.5241 133.899 31.5393C133.908 31.555 133.956 31.6617 133.933 31.6016C133.952 31.6493 133.967 31.6985 133.979 31.7482C133.988 31.7855 133.996 31.8235 134.002 31.8616C133.992 31.7948 134.003 31.9117 134.003 31.9309C134.004 31.9763 134.002 32.0214 134 32.0668C134 32.069 133.996 32.133 134 32.0921C134.004 32.0478 133.99 32.1459 133.989 32.1551C133.978 32.2056 133.965 32.2557 133.95 32.3049C133.944 32.3233 133.938 32.3416 133.931 32.3597C133.927 32.3707 133.896 32.4487 133.921 32.3913C133.882 32.4793 133.835 32.5638 133.782 32.6445C133.768 32.6661 133.754 32.6874 133.739 32.7084C133.735 32.7139 133.693 32.7712 133.712 32.7464C133.737 32.7139 133.687 32.776 133.682 32.7822C133.665 32.802 133.648 32.8214 133.631 32.8406C133.557 32.9222 133.477 32.9978 133.394 33.0698C133.29 33.1593 133.258 33.3237 133.293 33.4509C133.332 33.591 133.435 33.6764 133.567 33.7245C133.872 33.8363 134.231 33.8336 134.532 33.7099C134.721 33.6323 134.877 33.4462 134.806 33.228C134.747 33.046 134.527 32.871 134.324 32.9544V32.9544L134.324 32.9544Z" fill="black"/>
<path d="M133.24 32.0617C133.265 32.0542 133.289 32.0486 133.314 32.0447L133.21 32.0587C133.248 32.0547 133.284 32.0551 133.322 32.0596L133.217 32.0456C133.262 32.0527 133.303 32.0647 133.344 32.0815L133.251 32.0421C133.287 32.0581 133.319 32.0771 133.352 32.098C133.414 32.1369 133.282 32.0347 133.335 32.0847C133.349 32.0982 133.364 32.1111 133.377 32.1254C133.402 32.1513 133.419 32.1995 133.366 32.1056C133.376 32.123 133.39 32.1389 133.4 32.1561C133.424 32.1939 133.443 32.2336 133.461 32.2742L133.421 32.1806C133.49 32.3471 133.517 32.5249 133.543 32.7023C133.551 32.761 133.602 32.8342 133.643 32.8751C133.705 32.9364 133.783 32.9715 133.868 32.9829C134.01 33.0019 134.194 32.9363 134.259 32.7958C134.406 32.474 134.444 32.1283 134.356 31.7831C134.318 31.6332 134.255 31.4828 134.17 31.3531C134.064 31.1903 133.94 31.0677 133.786 30.952C133.71 30.895 133.571 30.8886 133.484 30.9125C133.393 30.9376 133.295 31.0078 133.25 31.0926C133.202 31.1835 133.178 31.2936 133.21 31.3944C133.244 31.4977 133.304 31.5637 133.39 31.6285C133.277 31.5433 133.393 31.6341 133.42 31.661C133.437 31.6779 133.453 31.6954 133.469 31.7134C133.477 31.7224 133.484 31.7316 133.492 31.7409C133.451 31.6872 133.44 31.6726 133.458 31.697C133.509 31.7686 133.552 31.8424 133.586 31.9229L133.547 31.8293C133.586 31.9242 133.612 32.0224 133.626 32.1239L133.612 32.0198C133.624 32.1153 133.625 32.2107 133.613 32.3063L133.627 32.2021C133.614 32.2915 133.592 32.3776 133.557 32.4611L133.597 32.3675C133.592 32.3786 133.587 32.3895 133.582 32.4004C133.821 32.4316 134.059 32.4628 134.298 32.494C134.252 32.1718 134.177 31.8634 133.963 31.608C133.744 31.3464 133.365 31.2033 133.032 31.3063C132.837 31.3668 132.692 31.5824 132.759 31.7882C132.822 31.9849 133.031 32.1267 133.24 32.0618V32.0618L133.24 32.0617Z" fill="black"/>
<path d="M86.3953 149.162C86.3912 149.83 86.3835 150.568 86.0534 151.166C85.9344 151.382 85.7658 151.594 85.6022 151.718C85.3703 151.893 85.1793 151.952 84.9532 151.956C84.9223 151.955 84.8915 151.954 84.8608 151.95C84.9148 151.958 84.9058 151.955 84.8338 151.942C84.7741 151.924 84.7137 151.911 84.6557 151.888C84.7366 151.921 84.5874 151.851 84.5722 151.842C84.5367 151.822 84.5021 151.8 84.4684 151.776C84.5059 151.807 84.498 151.799 84.4447 151.754C84.4009 151.714 84.3558 151.67 84.3206 151.622C84.3752 151.697 84.2899 151.559 84.2819 151.543C84.3196 151.619 84.2492 151.432 84.2451 151.402C84.2578 151.496 84.2516 151.344 84.2538 151.326C84.2388 151.447 84.2718 151.293 84.2823 151.268C84.2263 151.404 84.3856 151.133 84.2999 151.242C84.3344 151.198 84.376 151.158 84.4176 151.122C84.3398 151.19 84.4736 151.088 84.4805 151.084C84.5428 151.053 84.5459 151.049 84.4896 151.071C84.515 151.061 84.5409 151.053 84.5672 151.046C84.5929 151.037 84.6191 151.031 84.6457 151.026C84.5774 151.033 84.5781 151.034 84.6477 151.03C84.7089 151.033 84.7177 151.032 84.674 151.027C84.6307 151.02 84.6389 151.023 84.6987 151.035C84.7632 151.057 84.7654 151.057 84.7052 151.037C84.7373 151.055 84.7678 151.076 84.7967 151.099L84.5267 150.748C84.5477 150.866 84.5315 150.743 84.5433 150.852C84.5502 150.917 84.5542 150.983 84.5566 151.048C84.5614 151.178 84.5567 151.307 84.5467 151.437C84.5365 151.569 84.464 151.89 84.3914 152.101C84.2476 152.518 83.9563 152.973 83.6362 153.306C83.3092 153.646 82.8878 153.947 82.4985 154.107C82.2604 154.205 82.0063 154.276 81.7516 154.314C81.7104 154.32 81.7091 154.32 81.7475 154.314C81.7153 154.318 81.6831 154.32 81.6508 154.323C81.586 154.328 81.5211 154.331 81.4562 154.331C81.3909 154.332 81.3257 154.331 81.2605 154.328C81.2374 154.327 81.0542 154.311 81.1219 154.32C80.8079 154.277 80.4911 154.396 80.3991 154.73C80.3238 155.005 80.493 155.41 80.8095 155.453C82.076 155.626 83.2788 155.211 84.23 154.365C85.1195 153.574 85.7149 152.41 85.7333 151.21C85.7389 150.852 85.7414 150.375 85.4493 150.13C85.2178 149.936 84.8957 149.838 84.595 149.857C83.9436 149.897 83.3663 150.342 83.1491 150.955C82.9361 151.556 83.2064 152.251 83.6832 152.644C84.1951 153.066 84.8748 153.238 85.5206 153.055C86.2257 152.854 86.8163 152.292 87.1305 151.638C87.5028 150.864 87.5653 150.009 87.5705 149.162C87.5752 148.405 86.4 148.405 86.3953 149.162V149.162V149.162Z" fill="black"/>
<path d="M126.669 162.724C127.619 162.811 128.493 163.652 128.703 164.635C128.702 164.632 128.735 164.818 128.724 164.737C128.732 164.802 128.736 164.868 128.739 164.933C128.741 165.009 128.74 165.085 128.736 165.161C128.735 165.192 128.733 165.223 128.729 165.254C128.736 165.201 128.733 165.211 128.721 165.284C128.657 165.551 128.628 165.681 128.447 165.825C128.52 165.767 128.384 165.855 128.37 165.861C128.41 165.842 128.41 165.839 128.371 165.852C128.323 165.864 128.332 165.864 128.397 165.852C128.328 165.849 128.331 165.85 128.406 165.855L128.358 165.84C128.421 165.867 128.423 165.865 128.363 165.833C128.413 165.876 128.412 165.875 128.362 165.831C128.338 165.805 128.269 165.693 128.324 165.793C128.311 165.772 128.299 165.75 128.288 165.728C128.268 165.689 128.273 165.698 128.301 165.756C128.319 165.622 128.282 165.854 128.298 165.731C128.285 165.834 128.258 165.873 128.178 165.934L127.882 166.014C127.812 166.007 128.019 166.04 128.044 166.045C128.116 166.062 128.187 166.083 128.257 166.106C128.403 166.155 128.425 166.167 128.577 166.254C128.843 166.406 128.999 166.542 129.217 166.791C129.568 167.191 129.81 167.726 129.922 168.292C130.041 168.896 129.947 169.685 129.758 170.35C129.539 171.127 129.189 171.853 128.812 172.563C128.663 172.844 128.741 173.203 129.022 173.367C129.288 173.523 129.677 173.438 129.826 173.157C130.561 171.772 131.239 170.238 131.14 168.634C131.06 167.331 130.412 166.045 129.305 165.321C129.036 165.146 128.729 165.009 128.418 164.928C128.257 164.886 128.08 164.848 127.914 164.843C127.662 164.835 127.464 164.977 127.317 165.17C126.886 165.739 127.236 166.558 127.814 166.873C128.482 167.238 129.23 166.871 129.597 166.262C129.95 165.677 129.976 164.943 129.829 164.291C129.493 162.809 128.167 161.685 126.669 161.549C126.352 161.52 126.081 161.839 126.081 162.136C126.081 162.478 126.351 162.695 126.669 162.724V162.724V162.724Z" fill="black"/>
<path d="M168.388 172.265H168.353C166.231 172.265 164.511 170.545 164.511 168.423V114.908H160.136V168.423C160.136 170.545 158.416 172.265 156.294 172.265V172.265L150.248 176.214H174.435L168.388 172.265V172.265Z" fill="#FFAD9D"/>
<circle cx="152.498" cy="181.437" r="3.52557" fill="#00BEAA"/>
<circle cx="170.909" cy="181.437" r="3.52557" fill="#00BEAA"/>
<path d="M129.81 24.2603C129.927 24.1806 130.049 24.1102 130.178 24.051C130.195 24.0431 130.212 24.0355 130.23 24.028C130.179 24.049 130.174 24.0514 130.214 24.0351C130.25 24.0222 130.285 24.0083 130.32 23.9961C130.387 23.9732 130.455 23.9532 130.524 23.9359C130.592 23.9187 130.661 23.9043 130.731 23.8928C130.75 23.8898 130.768 23.8869 130.787 23.8843C130.73 23.8919 130.723 23.893 130.767 23.8878C130.8 23.8852 130.833 23.8815 130.866 23.8792C131.012 23.8694 131.158 23.8732 131.303 23.8886C131.507 23.9103 131.703 23.6929 131.695 23.4969C131.684 23.2661 131.522 23.1284 131.303 23.1052C130.648 23.0356 129.958 23.2132 129.414 23.5838C129.245 23.699 129.154 23.9334 129.274 24.1198C129.382 24.288 129.629 24.3838 129.81 24.2603V24.2603V24.2603Z" fill="black"/>
<path d="M45.1276 86.932H47.9084C48.2157 86.932 48.5102 86.6618 48.496 86.3444C48.4817 86.0261 48.2378 85.7568 47.9084 85.7568C46.9815 85.7568 46.0546 85.7568 45.1276 85.7568C44.8203 85.7568 44.5258 86.0271 44.54 86.3444C44.5543 86.6628 44.7982 86.932 45.1276 86.932V86.932Z" fill="white"/>
<path d="M47.8186 83.4335H50.689C50.9963 83.4335 51.2908 83.1632 51.2766 82.8459C51.2623 82.5275 51.0184 82.2583 50.689 82.2583H47.8186C47.5112 82.2583 47.2168 82.5286 47.231 82.8459C47.2452 83.1643 47.4891 83.4335 47.8186 83.4335V83.4335Z" fill="white"/>
<path d="M62.6193 84.5995H65.4001C65.7074 84.5995 66.0019 84.3293 65.9877 84.0119C65.9734 83.6936 65.7295 83.4243 65.4001 83.4243H62.6193C62.312 83.4243 62.0175 83.6946 62.0317 84.0119C62.046 84.3303 62.2899 84.5995 62.6193 84.5995V84.5995Z" fill="white"/>
<path d="M85.6724 82.7157H86.4797C86.6304 82.7157 86.7887 82.6502 86.8952 82.5436C86.9525 82.4904 86.993 82.4274 87.0167 82.3545C87.0535 82.2845 87.0704 82.209 87.0673 82.1281C87.0605 81.9762 87.0106 81.8186 86.8952 81.7126C86.7803 81.6071 86.6389 81.5405 86.4797 81.5405H85.6724C85.5218 81.5405 85.3635 81.6061 85.2569 81.7126C85.1996 81.7659 85.1591 81.8289 85.1354 81.9017C85.0987 81.9718 85.0818 82.0472 85.0848 82.1281C85.0916 82.2801 85.1416 82.4377 85.2569 82.5436C85.3719 82.6492 85.5132 82.7157 85.6724 82.7157V82.7157Z" fill="white"/>
<path d="M92.1306 85.9452H95.0907C95.398 85.9452 95.6925 85.675 95.6783 85.3576C95.664 85.0393 95.4201 84.77 95.0907 84.77H92.1306C91.8232 84.77 91.5288 85.0403 91.543 85.3576C91.5572 85.676 91.8011 85.9452 92.1306 85.9452V85.9452Z" fill="white"/>
<path d="M43.2048 39.826H63.3472C64.2784 39.826 65.2146 39.8543 66.1455 39.826C66.1591 39.8255 66.1728 39.826 66.1864 39.826C66.9425 39.826 66.9438 38.6508 66.1864 38.6508H46.0439C45.1128 38.6508 44.1766 38.6225 43.2457 38.6508C43.2321 38.6512 43.2184 38.6508 43.2048 38.6508C42.4486 38.6508 42.4474 39.826 43.2048 39.826V39.826V39.826Z" fill="white"/>
<path d="M39.6794 43.939H63.4981C64.5946 43.939 65.6962 43.9702 66.7924 43.939C66.8081 43.9386 66.8238 43.939 66.8395 43.939C67.5956 43.939 67.5969 42.7638 66.8395 42.7638H43.0208C41.9243 42.7638 40.8226 42.7327 39.7265 42.7638C39.7108 42.7643 39.6951 42.7638 39.6794 42.7638C38.9232 42.7638 38.922 43.939 39.6794 43.939V43.939Z" fill="white"/>
<path d="M40.2014 48.1178H64.02C65.1165 48.1178 66.2182 48.1489 67.3144 48.1178C67.33 48.1173 67.3457 48.1178 67.3614 48.1178C68.1176 48.1178 68.1189 46.9426 67.3614 46.9426H43.5428C42.4463 46.9426 41.3446 46.9114 40.2484 46.9426C40.2328 46.943 40.2171 46.9426 40.2014 46.9426C39.4452 46.9426 39.444 48.1178 40.2014 48.1178V48.1178Z" fill="white"/>
<path d="M40.2014 52.1654H56.9119C57.6834 52.1654 58.4602 52.1916 59.2314 52.1654C59.2428 52.165 59.2542 52.1654 59.2656 52.1654C60.0218 52.1654 60.0231 50.9902 59.2656 50.9902H42.5552C41.7836 50.9902 41.0069 50.9639 40.2356 50.9902C40.2243 50.9906 40.2128 50.9902 40.2014 50.9902C39.4452 50.9902 39.444 52.1654 40.2014 52.1654V52.1654Z" fill="white"/>
<path d="M86.9995 26.5104C88.2714 27.5215 89.5433 28.5325 90.8153 29.5435C90.9936 29.6853 91.172 29.8271 91.3503 29.9688C91.7538 30.2895 92.1899 30.5669 92.7353 30.5425C93.2413 30.5199 93.7683 30.3539 94.1203 29.9688C94.9257 29.0879 95.7312 28.207 96.5366 27.326C97.8188 25.9235 99.1011 24.5211 100.383 23.1186C100.676 22.7989 100.968 22.4792 101.26 22.1596C101.609 21.7782 101.834 21.3001 101.834 20.7746C101.834 20.2942 101.62 19.7204 101.26 19.3896C100.887 19.047 100.397 18.7926 99.8752 18.8159C99.3693 18.8386 98.8423 19.0046 98.4902 19.3896C97.6848 20.2706 96.8794 21.1515 96.074 22.0325C94.7917 23.4349 93.5094 24.8374 92.2272 26.2399C91.9349 26.5595 91.6426 26.8792 91.3503 27.1989H94.1203C92.8484 26.1879 91.5764 25.1769 90.3045 24.1658C90.1261 24.024 89.9478 23.8823 89.7694 23.7405C89.347 23.4047 88.9467 23.1668 88.3845 23.1668C87.9041 23.1668 87.3302 23.3802 86.9995 23.7405C86.6568 24.1138 86.4024 24.6038 86.4258 25.1255C86.4475 25.6098 86.602 26.1945 86.9995 26.5104V26.5104H86.9995Z" fill="#FFAD9D"/>
<path d="M101.573 95.7782H12.877C11.6793 95.7782 10.479 95.7554 9.28144 95.7782C9.22907 95.7792 9.17661 95.7782 9.12425 95.7782C8.36807 95.7782 8.36681 96.9534 9.12425 96.9534H97.82C99.0177 96.9534 100.218 96.9762 101.416 96.9534C101.468 96.9524 101.52 96.9534 101.573 96.9534C102.329 96.9534 102.33 95.7782 101.573 95.7782V95.7782H101.573Z" fill="#00727A"/>
<path d="M15.0427 64.2335C15.5608 63.8189 16.079 63.4044 16.5971 62.9899C16.7071 62.9019 16.7692 62.7084 16.7692 62.5744C16.7692 62.4303 16.7052 62.2581 16.5971 62.1589C16.4852 62.0561 16.3381 61.9798 16.1816 61.9868L16.0254 62.0078C15.9259 62.0357 15.8395 62.0861 15.7661 62.1589C15.248 62.5734 14.7298 62.9879 14.2117 63.4025C14.1017 63.4904 14.0396 63.6839 14.0396 63.818C14.0396 63.9621 14.1036 64.1342 14.2117 64.2335C14.3236 64.3363 14.4707 64.4126 14.6272 64.4056L14.7834 64.3846C14.8829 64.3566 14.9693 64.3063 15.0427 64.2335V64.2335V64.2335Z" fill="#00BEAA"/>
<path d="M20.3278 72.0058C20.7423 71.4876 21.1569 70.9695 21.5714 70.4513C21.6723 70.3251 21.7435 70.204 21.7435 70.0358C21.7435 69.8917 21.6795 69.7195 21.5714 69.6203C21.4594 69.5175 21.3124 69.4412 21.1559 69.4482C21.0103 69.4547 20.8357 69.5012 20.7404 69.6203C20.3259 70.1385 19.9114 70.6566 19.4968 71.1748C19.3959 71.301 19.3247 71.4221 19.3247 71.5903C19.3247 71.7344 19.3887 71.9066 19.4968 72.0058C19.6088 72.1086 19.7558 72.1849 19.9123 72.1779C20.0579 72.1714 20.2325 72.1249 20.3278 72.0058V72.0058Z" fill="#00BEAA"/>
<path d="M30.7597 73.4561V71.9016C30.7597 71.5942 30.4894 71.2998 30.1721 71.314C29.8537 71.3282 29.5845 71.5721 29.5845 71.9016V73.4561C29.5845 73.7634 29.8547 74.0579 30.1721 74.0437C30.4904 74.0294 30.7597 73.7855 30.7597 73.4561V73.4561Z" fill="#00BEAA"/>
<path d="M111.001 30.4071C111.402 32.9136 110.471 35.6142 108.611 37.3948H109.442C109.17 37.1276 109.057 36.7612 109.122 36.4351L108.711 36.8455C108.666 36.8522 108.851 36.8445 108.883 36.8453C108.88 36.8452 108.986 36.8515 108.934 36.8461C108.876 36.8399 109.005 36.8587 109.016 36.8611C109.202 36.9012 109.276 36.9315 109.419 37.0129C109.657 37.1485 109.884 37.3636 110.031 37.5844C110.432 38.188 110.474 38.9621 110.332 39.7019C110.187 40.4623 109.908 41.26 109.602 41.9175C109.324 42.514 108.977 43.1077 108.564 43.5623C108.302 43.8512 108.075 44.0521 107.772 44.2349C107.635 44.3172 107.45 44.4093 107.368 44.4398C107.184 44.5078 106.996 44.5569 106.803 44.5917C106.491 44.648 106.314 45.0284 106.393 45.3145C106.483 45.6435 106.802 45.7814 107.115 45.7249C108.779 45.4252 109.92 43.9918 110.602 42.5417C111.371 40.9051 112.159 38.6148 111.026 36.9628C110.422 36.0813 109.477 35.5534 108.399 35.7123C108.214 35.7396 108.024 35.9441 107.989 36.1227C107.835 36.8901 108.047 37.672 108.611 38.2258C108.841 38.4518 109.211 38.4472 109.442 38.2258C111.613 36.1475 112.607 33.0498 112.134 30.0947C112.084 29.7811 111.693 29.6069 111.412 29.6843C111.078 29.7761 110.951 30.0926 111.001 30.4071V30.4071V30.4071Z" fill="#00BEAA"/>
</svg>
