<svg width="35" height="35" viewBox="0 0 35 35" fill="none" xmlns="http://www.w3.org/2000/svg">
<path d="M1.5 33.5H33.5M3.96154 1.5V33.5M21.1923 1.5V33.5M31.0385 9.5V33.5M8.88462 8.16667H10.1154M8.88462 13.5H10.1154M8.88462 18.8333H10.1154M15.0385 8.16667H16.2692M15.0385 13.5H16.2692M15.0385 18.8333H16.2692M8.88462 33.5V27.5C8.88462 26.3954 9.71117 25.5 10.7308 25.5H14.4231C15.4427 25.5 16.2692 26.3954 16.2692 27.5V33.5M2.73077 1.5H22.4231M21.1923 9.5H32.2692M26.1154 16.1667H26.1277V16.18H26.1154V16.1667ZM26.1154 21.5H26.1277V21.5133H26.1154V21.5ZM26.1154 26.8333H26.1277V26.8467H26.1154V26.8333Z" stroke="#0F0F0F" stroke-width="1.5" stroke-linecap="round" stroke-linejoin="round"/>
</svg>
