<svg width="27" height="26" viewBox="0 0 27 26" fill="none" xmlns="http://www.w3.org/2000/svg">
<path d="M12.9727 2.16529C13.0291 2.02774 13.1252 1.91006 13.2486 1.82724C13.3721 1.74442 13.5174 1.7002 13.6661 1.7002C13.8147 1.7002 13.96 1.74442 14.0835 1.82724C14.207 1.91006 14.303 2.02774 14.3594 2.16529L17.1927 8.97996C17.2458 9.10747 17.333 9.21789 17.4447 9.29904C17.5564 9.3802 17.6884 9.42896 17.8261 9.43996L25.1834 10.0293C25.8487 10.0826 26.1181 10.9133 25.6114 11.3466L20.0061 16.1493C19.9013 16.2389 19.8233 16.3556 19.7805 16.4866C19.7377 16.6176 19.7318 16.7578 19.7634 16.892L21.4767 24.072C21.5112 24.216 21.5022 24.367 21.4508 24.506C21.3995 24.6449 21.3081 24.7655 21.1882 24.8525C21.0684 24.9395 20.9255 24.9891 20.7775 24.9949C20.6295 25.0008 20.4831 24.9626 20.3567 24.8853L14.0567 21.0386C13.9391 20.9668 13.8039 20.9287 13.6661 20.9287C13.5282 20.9287 13.393 20.9668 13.2754 21.0386L6.9754 24.8866C6.84908 24.964 6.70268 25.0021 6.55468 24.9963C6.40669 24.9904 6.26374 24.9409 6.1439 24.8538C6.02405 24.7668 5.93269 24.6462 5.88134 24.5073C5.82999 24.3684 5.82097 24.2173 5.85541 24.0733L7.56874 16.892C7.60051 16.7578 7.59467 16.6175 7.55186 16.4865C7.50904 16.3555 7.43092 16.2388 7.32607 16.1493L1.72074 11.3466C1.60786 11.2504 1.52608 11.1229 1.48575 10.9801C1.44542 10.8374 1.44836 10.6859 1.49419 10.5448C1.54002 10.4038 1.62669 10.2795 1.74321 10.1877C1.85973 10.0959 2.00086 10.0408 2.14874 10.0293L9.50607 9.43996C9.64374 9.42896 9.7757 9.3802 9.88744 9.29904C9.99918 9.21789 10.0864 9.10747 10.1394 8.97996L12.9727 2.16529Z" stroke="#0F0F0F" stroke-width="1.5" stroke-linecap="round" stroke-linejoin="round"/>
</svg>
