<svg width="29" height="27" viewBox="0 0 29 27" fill="none" xmlns="http://www.w3.org/2000/svg">
<path d="M25.3335 8.848C26.5122 9.22667 27.3335 10.352 27.3335 11.644V17.3587C27.3335 18.8733 26.2042 20.1587 24.6935 20.2827C24.2402 20.3187 23.7868 20.352 23.3335 20.3787V24.5L19.3335 20.5C17.5282 20.5 15.7415 20.4267 13.9735 20.2827C13.5886 20.2516 13.2142 20.1417 12.8735 19.96M25.3335 8.848C25.1275 8.78169 24.9145 8.73919 24.6988 8.72134C21.1281 8.42491 17.5389 8.42491 13.9682 8.72134C12.4602 8.84667 11.3335 10.1307 11.3335 11.644V17.3587C11.3335 18.4747 11.9468 19.4653 12.8735 19.96M25.3335 8.848V6.34934C25.3335 4.188 23.7975 2.31467 21.6535 2.036C18.8946 1.67839 16.1155 1.49935 13.3335 1.5C10.5135 1.5 7.73616 1.68267 5.0135 2.036C2.8695 2.31467 1.3335 4.188 1.3335 6.34934V14.6507C1.3335 16.812 2.8695 18.6853 5.0135 18.964C5.78283 19.064 6.55616 19.1507 7.3335 19.2227V25.5L12.8735 19.96" stroke="#0F0F0F" stroke-width="1.5" stroke-linecap="round" stroke-linejoin="round"/>
</svg>
