<svg width="25" height="27" viewBox="0 0 25 27" fill="none" xmlns="http://www.w3.org/2000/svg">
<path d="M16.0585 20.276C18.5428 19.9819 20.9837 19.3956 23.3305 18.5293C21.343 16.3277 20.2448 13.466 20.2492 10.5V9.5C20.2492 7.37827 19.4063 5.34344 17.906 3.84315C16.4057 2.34286 14.3709 1.5 12.2492 1.5C10.1274 1.5 8.09261 2.34286 6.59232 3.84315C5.09203 5.34344 4.24917 7.37827 4.24917 9.5V10.5C4.25319 13.4662 3.15449 16.3279 1.1665 18.5293C3.47717 19.3827 5.91317 19.976 8.43984 20.276M16.0585 20.276C13.5278 20.5762 10.9705 20.5762 8.43984 20.276M16.0585 20.276C16.2506 20.8758 16.2984 21.5125 16.198 22.1343C16.0975 22.7561 15.8516 23.3453 15.4803 23.8541C15.1091 24.3629 14.6229 24.7768 14.0614 25.0621C13.4999 25.3475 12.879 25.4962 12.2492 25.4962C11.6193 25.4962 10.9984 25.3475 10.4369 25.0621C9.87543 24.7768 9.38927 24.3629 9.018 23.8541C8.64673 23.3453 8.40086 22.7561 8.30039 22.1343C8.19992 21.5125 8.2477 20.8758 8.43984 20.276" stroke="#0F0F0F" stroke-width="1.5" stroke-linecap="round" stroke-linejoin="round"/>
</svg>
