<svg width="35" height="35" viewBox="0 0 35 35" fill="none" xmlns="http://www.w3.org/2000/svg">
<path fill-rule="evenodd" clip-rule="evenodd" d="M17.5 0.65625C18.3457 0.65625 19.0312 1.34181 19.0312 2.1875V15.9688H32.8125C33.6582 15.9688 34.3438 16.6543 34.3438 17.5C34.3438 18.3457 33.6582 19.0312 32.8125 19.0312H19.0312V32.8125C19.0312 33.6582 18.3457 34.3438 17.5 34.3438C16.6543 34.3438 15.9688 33.6582 15.9688 32.8125V19.0312H2.1875C1.34181 19.0312 0.65625 18.3457 0.65625 17.5C0.65625 16.6543 1.34181 15.9687 2.1875 15.9687H15.9688V2.1875C15.9688 1.34181 16.6543 0.65625 17.5 0.65625Z" fill="#0F172A"/>
</svg>
