<svg width="47" height="22" viewBox="0 0 47 22" fill="none" xmlns="http://www.w3.org/2000/svg">
<path d="M10.9978 21.5C2.42175 21.5 0.53375 17.116 0.53375 11.26C0.53375 5.66 2.45375 0.796 10.2938 0.796C18.1658 0.796 19.9258 5.468 19.9258 10.972C19.9258 14.14 18.9018 17.756 16.5978 18.876L20.1818 19.548V21.5H10.9978ZM4.11775 11.26C4.11775 15.452 5.20575 18.588 10.2938 18.588C15.4458 18.588 16.5018 15.452 16.5018 11.292C16.5018 7.068 15.4458 3.708 10.2938 3.708C5.20575 3.708 4.11775 7.068 4.11775 11.26ZM24.8905 21.724C23.3865 21.724 22.3945 21.308 22.3945 19.676C22.3945 17.98 23.3865 17.596 24.8905 17.596C26.3305 17.596 27.3225 17.98 27.3225 19.676C27.3225 21.308 26.3305 21.724 24.8905 21.724ZM39.485 21.5V17.212H28.669V14.012L38.333 1.02H43.005V14.396H46.589V17.212H43.005V21.5H39.485ZM32.029 14.396H39.485V4.508L32.029 14.396Z" fill="#1A1A1A"/>
</svg>
