<svg width="36" height="22" viewBox="0 0 36 22" fill="none" xmlns="http://www.w3.org/2000/svg">
<path d="M10.9821 21.5C2.40613 21.5 0.518125 17.116 0.518125 11.26C0.518125 5.66 2.43813 0.796 10.2781 0.796C18.1501 0.796 19.9101 5.468 19.9101 10.972C19.9101 14.14 18.8861 17.756 16.5821 18.876L20.1661 19.548V21.5H10.9821ZM4.10213 11.26C4.10213 15.452 5.19013 18.588 10.2781 18.588C15.4301 18.588 16.4861 15.452 16.4861 11.292C16.4861 7.068 15.4301 3.708 10.2781 3.708C5.19013 3.708 4.10213 7.068 4.10213 11.26ZM24.8749 21.724C23.3709 21.724 22.3789 21.308 22.3789 19.676C22.3789 17.98 23.3709 17.596 24.8749 17.596C26.3149 17.596 27.3069 17.98 27.3069 19.676C27.3069 21.308 26.3149 21.724 24.8749 21.724ZM32.3334 21.5V3.9H28.4294V1.5L32.4294 1.02H35.8534V21.5H32.3334Z" fill="#1A1A1A"/>
</svg>
