<svg width="29" height="25" viewBox="0 0 29 25" fill="none" xmlns="http://www.w3.org/2000/svg">
<path d="M21.0791 16.6947C21.7029 16.2687 22.4344 16.0281 23.1892 16.0006C23.944 15.9731 24.6911 16.1598 25.3442 16.5392C25.9973 16.9186 26.5296 17.4752 26.8796 18.1445C27.2295 18.8138 27.3829 19.5685 27.3218 20.3213C25.722 20.8804 24.0228 21.098 22.3338 20.96C22.3286 19.4488 21.8934 17.969 21.0791 16.696C20.3563 15.5624 19.3593 14.6294 18.1802 13.9833C17.0012 13.3373 15.6782 12.9991 14.3338 13C12.9896 12.9993 11.6669 13.3376 10.4881 13.9837C9.30931 14.6297 8.31247 15.5626 7.5898 16.696M22.3325 20.9587L22.3338 21C22.3338 21.3 22.3178 21.596 22.2845 21.888C19.8649 23.2762 17.1233 24.0045 14.3338 24C11.4405 24 8.72447 23.232 6.38314 21.888C6.34886 21.5794 6.33238 21.2691 6.3338 20.9587M6.3338 20.9587C4.64531 21.1017 2.94701 20.8849 1.34847 20.3227C1.2876 19.5701 1.44099 18.8156 1.79091 18.1465C2.14082 17.4774 2.67296 16.9211 3.3258 16.5417C3.97865 16.1624 4.72553 15.9755 5.48009 16.0028C6.23466 16.0301 6.96608 16.2705 7.5898 16.696M6.3338 20.9587C6.33859 19.4476 6.77597 17.9692 7.5898 16.696M18.3338 5C18.3338 6.06087 17.9124 7.07828 17.1622 7.82843C16.4121 8.57857 15.3947 9 14.3338 9C13.2729 9 12.2555 8.57857 11.5054 7.82843C10.7552 7.07828 10.3338 6.06087 10.3338 5C10.3338 3.93913 10.7552 2.92172 11.5054 2.17157C12.2555 1.42143 13.2729 1 14.3338 1C15.3947 1 16.4121 1.42143 17.1622 2.17157C17.9124 2.92172 18.3338 3.93913 18.3338 5ZM26.3338 9C26.3338 9.39397 26.2562 9.78407 26.1054 10.1481C25.9547 10.512 25.7337 10.8427 25.4551 11.1213C25.1765 11.3999 24.8458 11.6209 24.4819 11.7716C24.1179 11.9224 23.7278 12 23.3338 12C22.9398 12 22.5497 11.9224 22.1858 11.7716C21.8218 11.6209 21.4911 11.3999 21.2125 11.1213C20.9339 10.8427 20.7129 10.512 20.5622 10.1481C20.4114 9.78407 20.3338 9.39397 20.3338 9C20.3338 8.20435 20.6499 7.44129 21.2125 6.87868C21.7751 6.31607 22.5382 6 23.3338 6C24.1295 6 24.8925 6.31607 25.4551 6.87868C26.0177 7.44129 26.3338 8.20435 26.3338 9ZM8.3338 9C8.3338 9.39397 8.25621 9.78407 8.10544 10.1481C7.95468 10.512 7.7337 10.8427 7.45512 11.1213C7.17655 11.3999 6.84583 11.6209 6.48185 11.7716C6.11788 11.9224 5.72777 12 5.3338 12C4.93984 12 4.54973 11.9224 4.18575 11.7716C3.82177 11.6209 3.49106 11.3999 3.21248 11.1213C2.93391 10.8427 2.71293 10.512 2.56216 10.1481C2.4114 9.78407 2.3338 9.39397 2.3338 9C2.3338 8.20435 2.64987 7.44129 3.21248 6.87868C3.77509 6.31607 4.53815 6 5.3338 6C6.12945 6 6.89251 6.31607 7.45512 6.87868C8.01773 7.44129 8.3338 8.20435 8.3338 9Z" stroke="#0F0F0F" stroke-width="1.5" stroke-linecap="round" stroke-linejoin="round"/>
</svg>
