<svg width="197" height="197" viewBox="0 0 197 197" fill="none" xmlns="http://www.w3.org/2000/svg">
<path d="M73.6266 51.0181C73.6266 51.0181 73.8948 55.4938 76.1154 58.0105C77.8932 60.0252 69.7156 61.6845 67.8193 59.6697C67.4638 56.7068 68.8769 56.0964 70.5999 55.4535C72.3229 54.8106 73.6266 51.0181 73.6266 51.0181V51.0181Z" fill="black"/>
<path d="M73.0935 51.018C73.1496 51.9406 73.3186 52.8698 73.5373 53.7661C73.7394 54.5947 74.0095 55.4032 74.3549 56.1833C74.5352 56.5906 74.7407 56.9874 74.9774 57.365C75.1981 57.717 75.4483 58.1296 75.7579 58.41C75.8328 58.4778 75.7023 58.3251 75.7359 58.3804C75.7476 58.3995 75.7628 58.4165 75.7739 58.4361C75.7904 58.465 75.8123 58.5236 75.835 58.5468C75.7459 58.456 75.8195 58.4558 75.8293 58.5509C75.8443 58.6956 75.8441 58.4572 75.8325 58.5496C75.8292 58.5751 75.8274 58.714 75.8373 58.5957C75.8471 58.4799 75.8266 58.6038 75.8254 58.6297C75.8245 58.6495 75.8029 58.6729 75.8045 58.6918C75.7933 58.5553 75.8633 58.5881 75.8316 58.626C75.8057 58.657 75.7821 58.711 75.7618 58.7471C75.6992 58.8577 75.8453 58.6621 75.754 58.7574C75.7234 58.7894 75.6945 58.8227 75.6627 58.8537C75.629 58.8865 75.5929 58.9163 75.5579 58.9477C75.4609 59.035 75.6436 58.8946 75.5107 58.9831C75.3137 59.1142 75.111 59.2297 74.8957 59.3285C74.8728 59.339 74.8493 59.3487 74.8265 59.3596C74.7076 59.4166 74.936 59.3176 74.8113 59.3665C74.7493 59.3909 74.6877 59.4161 74.6253 59.4395C74.4949 59.4886 74.3629 59.5336 74.23 59.5755C73.9302 59.6699 73.6252 59.7479 73.3178 59.8132C73.1642 59.8458 73.0099 59.8751 72.8551 59.9014C72.7765 59.9148 72.6979 59.9273 72.6191 59.9391C72.5874 59.9438 72.5557 59.9483 72.524 59.9529C72.3951 59.9717 72.5933 59.9455 72.4748 59.9593C72.1385 59.9983 71.802 60.0293 71.4636 60.0424C71.1028 60.0563 70.741 60.0533 70.3808 60.0281C70.2978 60.0223 70.2149 60.0153 70.1322 60.007C70.0934 60.0032 69.8552 59.9734 69.9875 59.992C69.8186 59.9683 69.6505 59.939 69.4841 59.9018C69.3405 59.8697 69.1981 59.832 69.058 59.7868C68.9853 59.7634 68.914 59.7369 68.8423 59.7106C68.819 59.7021 68.7963 59.6922 68.7733 59.683C68.9115 59.738 68.7802 59.6854 68.7509 59.6707C68.6323 59.6111 68.5159 59.5504 68.4058 59.4759C68.3831 59.4605 68.3612 59.4438 68.3385 59.4284C68.3166 59.4135 68.4252 59.5067 68.3327 59.4219C68.2864 59.3795 68.2402 59.3379 68.1966 59.2925L68.3528 59.6696C68.3188 59.3745 68.2961 59.0782 68.2977 58.7809C68.299 58.546 68.3186 58.2881 68.3483 58.1278C68.4297 57.6886 68.5081 57.4991 68.7416 57.1508C68.7574 57.1272 68.8209 57.0503 68.7513 57.1356C68.7789 57.1018 68.8071 57.0685 68.8363 57.036C68.8943 56.9715 68.9557 56.9101 69.0199 56.8517C69.0519 56.8225 69.0854 56.795 69.1181 56.7665C69.2233 56.6746 69.0605 56.8073 69.1298 56.7558C69.2064 56.699 69.2849 56.6452 69.3657 56.5945C69.506 56.5064 69.6521 56.4277 69.8009 56.3548C69.8846 56.3138 69.9694 56.2749 70.0547 56.2373C70.0665 56.2321 70.211 56.1712 70.102 56.2165C70.1614 56.1918 70.221 56.1677 70.2807 56.144C70.6372 56.0024 71.0079 55.8906 71.3247 55.6681C71.6726 55.4237 71.9702 55.1272 72.2342 54.7951C72.765 54.1274 73.1837 53.3836 73.5423 52.6115C73.7622 52.1378 73.9707 51.6539 74.141 51.1598C74.2349 50.8875 74.0337 50.5766 73.7685 50.5037C73.4755 50.4232 73.2067 50.6029 73.1125 50.8762C73.0414 51.0823 72.9609 51.2855 72.8785 51.4872C72.8596 51.5333 72.8405 51.5792 72.8213 51.6252C72.7926 51.6943 72.8593 51.5371 72.8285 51.6079C72.8175 51.6333 72.8067 51.6587 72.7957 51.6841C72.7455 51.8001 72.6939 51.9155 72.641 52.0303C72.522 52.2888 72.3961 52.5442 72.2621 52.7951C72.1185 53.064 71.9656 53.328 71.7997 53.5838C71.6278 53.8487 71.4976 54.028 71.3315 54.2207C71.2442 54.322 71.1531 54.42 71.0571 54.5131C71.0109 54.5579 70.9637 54.6015 70.9152 54.6438C70.8915 54.6644 70.8672 54.6845 70.8432 54.7047C70.7954 54.7449 70.9039 54.6631 70.8233 54.7206C70.7266 54.7895 70.6271 54.8498 70.5234 54.9074C70.4985 54.9212 70.4723 54.9321 70.4468 54.9447C70.5456 54.8959 70.4836 54.9301 70.4583 54.9391C70.3802 54.967 70.3028 54.9973 70.2254 55.0268C69.2097 55.4142 68.1492 55.9014 67.6335 56.9235C67.3226 57.5399 67.2194 58.2328 67.232 58.9181C67.2394 59.3272 67.2114 59.8405 67.5311 60.1342C67.6891 60.2794 67.8676 60.4079 68.0556 60.5116C68.92 60.9887 69.9676 61.1066 70.939 61.1167C72.0243 61.1279 73.1302 60.9881 74.1776 60.7025C74.9774 60.4844 75.9196 60.1684 76.4911 59.5311C76.7373 59.2565 76.9227 58.9076 76.8976 58.5281C76.8644 58.0268 76.5261 57.7021 76.2574 57.3499C75.4244 56.2575 74.952 54.9915 74.6136 53.6735C74.4746 53.1323 74.3632 52.5841 74.2773 52.0321C74.2612 51.9285 74.2466 51.8248 74.2318 51.7211C74.2539 51.8761 74.2328 51.7276 74.228 51.6892C74.2214 51.6371 74.2151 51.5849 74.2091 51.5327C74.1944 51.4066 74.1813 51.2803 74.1705 51.1538C74.1666 51.1086 74.1628 51.0633 74.16 51.018C74.1425 50.7304 73.9275 50.4847 73.6267 50.4847C73.3516 50.4847 73.0758 50.729 73.0934 51.018H73.0935Z" fill="black"/>
<path d="M69.2917 47.3519C69.1651 47.6096 69.096 47.8844 69.2034 48.1623C69.297 48.4043 69.4748 48.5852 69.6861 48.7302C70.0559 48.9841 70.5089 49.0705 70.9209 49.23C71.0537 49.2815 71.2732 49.3748 71.334 49.5082C71.3252 49.4831 71.3274 49.4915 71.3407 49.5333C71.3411 49.503 71.3418 49.5102 71.3427 49.5548C71.3457 49.5022 71.3249 49.6052 71.3428 49.5594C71.3602 49.5408 71.3537 49.5469 71.3233 49.5778C71.3434 49.5629 71.3353 49.5677 71.2988 49.5921C71.2524 49.6215 71.2004 49.6455 71.15 49.6671C70.7531 49.8372 70.2989 49.8883 69.8818 49.8148C69.6929 49.7815 69.4987 49.8657 69.4444 50.0631C69.3972 50.2348 69.5026 50.4669 69.6928 50.5005C70.1247 50.5767 70.5586 50.5722 70.9859 50.4671C71.3774 50.3707 71.8973 50.1938 72.024 49.763C72.1567 49.3119 71.8431 48.9056 71.4642 48.7018C71.1243 48.519 70.7465 48.4341 70.3886 48.2967C70.2512 48.244 70.0617 48.1449 69.9593 48.0433C69.9042 47.9886 69.8773 47.9528 69.8628 47.8997C69.8398 47.816 69.8575 47.8653 69.8578 47.8779C69.8578 47.8801 69.8644 47.817 69.8597 47.838C69.8702 47.7915 69.8854 47.7521 69.9057 47.7108C69.9903 47.5385 69.9522 47.3262 69.7781 47.2243C69.6215 47.1327 69.3766 47.1788 69.2917 47.3519V47.3519H69.2917Z" fill="black"/>
<path d="M167.323 71.2577C167.333 71.3127 167.333 71.3953 167.323 71.4203C167.331 71.3995 167.281 71.4843 167.294 71.468C167.31 71.4485 167.221 71.5324 167.258 71.5036C167.186 71.559 167.141 71.5768 167.085 71.5962C166.992 71.6283 166.895 71.6518 166.798 71.6666C166.421 71.7238 165.999 71.6869 165.607 71.7563C165.172 71.8333 164.741 72.1168 164.716 72.5968C164.693 73.0458 165.128 73.3603 165.47 73.5684C165.862 73.8074 166.298 73.9394 166.753 73.9883C166.944 74.0089 167.109 73.8102 167.109 73.6328C167.109 73.4234 166.945 73.2979 166.753 73.2772C166.372 73.2363 165.963 73.0741 165.634 72.8234C165.579 72.7816 165.478 72.7032 165.426 72.6317C165.437 72.6472 165.422 72.5718 165.426 72.6351C165.416 72.6655 165.417 72.659 165.429 72.6156C165.414 72.639 165.418 72.6315 165.439 72.5932C165.46 72.5592 165.502 72.5276 165.545 72.508C165.633 72.4683 165.754 72.4464 165.837 72.4349C166.322 72.3682 166.826 72.4461 167.296 72.2745C167.527 72.1897 167.734 72.0656 167.881 71.8635C168.055 71.6256 168.058 71.3477 168.009 71.0686C167.976 70.8794 167.744 70.7729 167.572 70.8203C167.372 70.8752 167.29 71.0679 167.323 71.2577V71.2577V71.2577Z" fill="black"/>
<path d="M88.4821 104.116C89.7841 102.525 96.7611 101.438 105.856 100.845C105.86 100.659 105.864 100.473 105.864 100.287C105.864 83.1237 90.2908 69.2104 71.0798 69.2104C51.8689 69.2104 36.2954 83.1237 36.2954 100.287C36.2954 111.387 42.8117 121.127 52.6119 126.623C49.6912 130.593 45.4784 135.104 41.4304 135.077C48.5038 135.398 57.2829 133.833 62.6676 130.446C65.3616 131.044 68.1788 131.363 71.0798 131.363C76.3762 131.363 81.3949 130.303 85.8882 128.412C85.6385 117.885 86.3077 106.774 88.4821 104.116H88.4821Z" fill="#00BEAA"/>
<path d="M158.851 104.117C156.605 100.653 126.023 99.5318 105.856 100.845C105.616 113.038 97.5156 123.517 85.8882 128.412C86.1195 138.164 87.1393 147.415 88.4821 148.981C90.2615 151.057 116.949 152.188 136.969 151.652C140.027 157.835 146.327 164.124 151.966 165.201C148.891 160.579 148.109 155.213 148.07 151.113C153.935 150.658 158.047 149.959 158.851 148.981C162.295 144.793 162.108 109.143 158.851 104.117V104.117Z" fill="#FFAD9D"/>
<path d="M105.857 100.845C96.7612 101.438 89.7842 102.525 88.4823 104.116C86.3079 106.774 85.6387 117.885 85.8884 128.412C97.5158 123.517 105.616 113.038 105.857 100.845Z" fill="#00727A"/>
<path d="M128.469 65.5954C130.446 63.9696 133.413 64.0863 135.766 64.5393C136.049 64.5937 136.342 64.4599 136.422 64.1668C136.494 63.9057 136.334 63.5655 136.05 63.5107C133.261 62.9739 130.021 62.9445 127.714 64.8412C127.492 65.0242 127.525 65.4057 127.714 65.5954C127.935 65.8156 128.245 65.7789 128.469 65.5954V65.5954H128.469Z" fill="black"/>
<path d="M120.192 123.951C116.891 115.876 116.675 107.127 117.776 98.5754C118.335 94.238 119.191 89.9373 120.123 85.6664C121.082 81.2678 122.181 76.8977 123.493 72.5904C123.823 71.5075 124.166 70.4286 124.524 69.3546C124.657 68.9576 124.875 68.5352 124.882 68.1134C124.888 67.6796 124.852 67.2409 124.837 66.8075L124.641 61.0644C124.565 58.8421 124.489 56.6199 124.413 54.3977C124.371 53.1669 124.372 51.926 124.287 50.6972C124.262 50.3273 124.162 50.0127 124.386 49.6742C124.789 49.0652 125.884 49.1243 126.129 49.8342C126.181 49.9847 126.163 50.198 126.178 50.3555L126.292 51.5639C126.481 53.5709 126.67 55.578 126.859 57.585L126.899 58.0106C126.964 58.6975 127.896 58.6948 127.966 58.0106C128.223 55.4859 128.48 52.9612 128.737 50.4365C128.779 50.0269 128.764 49.5267 129.029 49.196C129.184 49.0032 129.479 48.7951 129.744 48.8338C129.77 48.8376 129.777 48.8281 129.832 48.8967C130.04 49.1565 130.085 49.5813 130.124 49.8978C130.275 51.1066 130.159 52.3513 130.146 53.568C130.131 55.0093 130.115 56.4507 130.099 57.8921C130.093 58.4881 131.001 58.6236 131.147 58.0339C131.771 55.5146 132.396 52.9952 133.02 50.4759C133.138 50.0027 133.195 49.4406 133.67 49.1905C134.488 48.761 135.19 49.5636 135.067 50.3349C134.853 51.6788 134.553 53.0148 134.297 54.3513C134.05 55.6423 133.803 56.9334 133.555 58.2244C133.427 58.8948 134.368 59.1664 134.584 58.508C135.068 57.0279 135.553 55.5478 136.038 54.0677C136.317 53.2155 136.596 52.3633 136.875 51.5112C136.925 51.3589 136.963 51.1941 137.027 51.047C137.146 50.7735 137.385 50.5225 137.626 50.3418C137.845 50.1777 138.359 49.8732 138.602 49.9088C138.91 49.9537 139.133 50.4364 139.158 50.6999C139.177 50.8926 139.117 51.0564 139.065 51.2371C139.027 51.3691 138.991 51.5018 138.954 51.6341C138.773 52.2862 138.591 52.9383 138.41 53.5905C137.845 55.6196 137.28 57.6487 136.716 59.6778C136.334 61.05 135.952 62.4223 135.57 63.7946C135.471 64.1519 135.836 64.6084 136.226 64.4506C136.914 64.1722 137.602 63.8937 138.29 63.6152C138.566 63.5033 138.847 63.3628 139.137 63.2863C139.784 63.1152 140.428 63.4921 140.517 64.1749C140.619 64.9525 139.912 65.3263 139.388 65.7225C138.637 66.2901 137.885 66.8577 137.134 67.4252C136.592 67.835 136.03 68.2283 135.503 68.6575C135.268 68.8491 135.207 69.0386 135.181 69.3135C135.116 70.0017 135.061 70.691 135 71.3797C134.73 74.4706 134.459 77.5615 134.188 80.6525C133.843 84.5949 133.498 88.5374 133.153 92.4798C132.878 95.6106 132.604 98.7415 132.33 101.872L132.136 104.084C132.104 104.458 132.045 104.823 131.898 105.174C131.633 105.807 130.921 106.705 130.125 106.455C129.353 106.213 129.684 105.182 129.852 104.638C130.379 102.935 131.442 101.442 132.572 100.087C133.608 98.8456 134.739 97.6839 135.945 96.6071C138.37 94.4425 141.101 92.6373 143.992 91.1577C146.928 89.6549 150.078 88.4126 153.288 87.6314C155.064 87.199 156.879 87.1431 158.698 87.1453C160.265 87.1472 162.045 87.3758 163.482 86.6178C164.649 86.0016 165.413 84.8502 165.851 83.6359C166.391 82.1407 166.162 80.7817 165.184 79.5388C164.206 78.295 163.59 76.5886 163.637 74.9292C163.718 72.0279 165.731 69.3266 167.995 67.6645C170.002 66.1908 172.467 65.492 174.947 65.5936C177.035 65.6792 179.221 66.3234 180.873 67.6412C182.218 68.7144 183.203 70.3392 182.809 72.1084C182.577 73.1458 181.94 74.056 181.501 75.0137C180.939 76.2413 180.454 77.5048 180.038 78.789C179.174 81.4514 178.566 84.2333 178.406 87.0324C178.277 89.3072 178.407 91.8838 179.647 93.8733C179.81 94.1354 179.989 94.3634 180.196 94.5858C180.284 94.6793 180.368 94.7758 180.451 94.8734C180.506 94.9384 180.56 95.0042 180.614 95.0706C180.669 95.1389 180.777 95.2784 180.74 95.2297C182.717 97.8261 183.817 101.032 184.334 104.227C184.787 107.034 184.763 109.916 184.441 112.736C184.075 115.939 183.341 119.119 182.013 122.066C179.538 127.557 175.324 132.246 170.071 135.208C163.993 138.635 156.852 139.446 149.992 138.854C148.215 138.701 146.449 138.453 144.695 138.131C142.972 137.813 141.216 137.476 139.54 136.959C137.927 136.462 136.182 136.61 134.698 137.43C134.322 137.638 133.968 137.89 133.609 138.125C131.023 139.822 128.472 141.595 125.841 143.222C124.847 143.837 123.514 142.902 124.039 141.747C124.236 141.313 124.733 141.074 125.114 140.824C126.599 139.85 128.083 138.875 129.568 137.901C130.532 137.269 131.496 136.636 132.46 136.004C132.944 135.685 132.651 134.84 132.049 135.029C130 135.673 127.951 136.316 125.902 136.96L122.953 137.886C122.461 138.041 121.956 138.076 121.532 137.707C120.776 137.051 121.181 136.01 121.987 135.668C123.05 135.216 124.132 134.805 125.204 134.375C125.836 134.121 125.606 133.22 124.921 133.346C123.996 133.517 123.071 133.687 122.146 133.858C121.815 133.919 121.46 134.026 121.121 134.023C120.073 134.016 119.572 132.773 120.247 132.002C120.525 131.684 120.398 131.256 120.012 131.111C118.983 130.725 118.955 129.233 120.003 128.85C120.181 128.784 120.382 128.758 120.567 128.72C121.47 128.535 122.372 128.351 123.274 128.167C125.842 127.643 128.409 127.119 130.976 126.595C131.626 126.462 132.276 126.33 132.926 126.197C133.332 126.114 133.426 125.577 133.162 125.306C132.513 124.638 131.858 123.976 131.215 123.303C130.725 122.79 130.525 122.041 130.924 121.403C131.424 120.604 132.363 120.587 133.093 121.039C135.224 122.36 137.434 123.547 139.732 124.552C145.861 127.234 153.23 129.03 159.628 126.186C163.277 124.564 166.355 121.397 167.906 117.723C168.279 116.84 168.608 115.928 168.85 115C169.083 114.113 169.414 112.843 168.851 112.012C168.195 111.043 166.786 111.609 166.077 112.203C165.11 113.013 164.508 114.257 164.013 115.39C162.861 118.025 162.159 120.824 161.445 123.602C159.44 131.405 157.256 139.695 152.095 146.083C151.458 146.872 150.777 147.623 150.058 148.338C149.571 148.822 150.325 149.577 150.812 149.092C156.687 143.25 159.409 135.193 161.544 127.383C162.332 124.5 162.989 121.572 163.904 118.726C164.36 117.306 164.868 115.881 165.597 114.575C166.047 113.768 166.732 112.626 167.777 112.557C167.919 112.547 167.944 112.562 167.982 112.619C167.975 112.609 168.053 112.826 168.065 112.935C168.116 113.413 168.013 113.911 167.907 114.374C167.704 115.255 167.403 116.114 167.074 116.956C165.653 120.59 162.654 123.686 159.089 125.265C152.863 128.025 145.503 126.021 139.612 123.338C138.369 122.771 137.149 122.153 135.954 121.49C135.05 120.987 134.185 120.345 133.252 119.902C131.55 119.092 129.512 120.441 129.652 122.34C129.744 123.588 130.793 124.399 131.603 125.233C131.871 125.508 132.14 125.784 132.408 126.06L132.643 125.168C128.431 126.028 124.204 126.833 120.004 127.748C119.205 127.922 118.545 128.453 118.271 129.236C117.839 130.47 118.555 131.699 119.728 132.139L119.493 131.248C118.699 132.155 118.633 133.489 119.484 134.39C120.098 135.04 120.934 135.16 121.772 135.008C122.917 134.8 124.06 134.586 125.204 134.375L124.92 133.346C123.852 133.776 122.785 134.21 121.715 134.635C120.794 135 120.105 135.704 120.068 136.747C120.026 137.928 120.937 138.927 122.096 139.059C123.007 139.162 124.058 138.657 124.907 138.39C126.395 137.922 127.883 137.455 129.371 136.988C130.358 136.678 131.345 136.367 132.332 136.057L131.921 135.083C129.497 136.673 127.074 138.263 124.65 139.854C124.331 140.063 123.988 140.258 123.692 140.501C122.663 141.346 122.595 142.962 123.561 143.886C124.337 144.628 125.497 144.692 126.391 144.136C126.772 143.899 127.142 143.643 127.516 143.397C129.968 141.788 132.403 140.15 134.873 138.57C136.296 137.659 137.83 137.573 139.417 138.043C141.073 138.534 142.801 138.865 144.499 139.175C147.874 139.791 151.308 140.149 154.742 140.098C161.206 140.001 167.683 138.374 173.009 134.609C177.754 131.255 181.461 126.515 183.566 121.098C184.704 118.171 185.303 115.046 185.591 111.926C185.841 109.227 185.788 106.501 185.343 103.826C184.817 100.664 183.71 97.471 181.795 94.8702C181.481 94.4435 181.131 94.0624 180.787 93.6634C180.843 93.7284 180.774 93.642 180.755 93.6166C180.678 93.5141 180.609 93.403 180.542 93.2936C180.412 93.0811 180.296 92.8597 180.194 92.6325C179.987 92.1722 179.843 91.6815 179.731 91.1903C179.47 90.0464 179.414 88.8634 179.445 87.6937C179.517 84.974 180.083 82.2684 180.877 79.6735C181.257 78.4302 181.696 77.2009 182.218 76.0094C182.665 74.9869 183.291 74.0254 183.667 72.976C185.11 68.9544 181.173 65.8769 177.726 64.9482C175.51 64.3513 173.11 64.3672 170.911 65.0322C168.244 65.8387 166.029 67.6004 164.411 69.8469C162.962 71.8576 162.227 74.3192 162.743 76.7774C162.92 77.6198 163.243 78.4397 163.669 79.1869C164.122 79.9804 164.866 80.6368 165.054 81.5555C165.31 82.8087 164.556 84.3544 163.65 85.1982C162.515 86.2543 160.94 86.0826 159.503 86.0805C157.764 86.0779 156.028 86.0715 154.305 86.3429C152.666 86.6012 151.062 87.1265 149.498 87.6685C143.574 89.7207 137.963 92.9138 133.555 97.4136C132.421 98.5712 131.345 99.8106 130.428 101.149C129.566 102.407 128.711 103.942 128.583 105.493C128.454 107.043 129.929 107.981 131.317 107.327C132.469 106.784 133.062 105.513 133.184 104.303C133.342 102.733 133.459 101.156 133.597 99.5838L134.496 89.3206C134.826 85.5477 135.156 81.7747 135.487 78.0018C135.712 75.4255 135.938 72.8492 136.164 70.2728C136.196 69.8989 136.229 69.525 136.262 69.1511L135.998 69.6116C137.383 68.5647 138.769 67.5179 140.154 66.471C140.95 65.8697 141.698 65.2271 141.581 64.1043C141.425 62.6042 139.908 61.8317 138.558 62.3632C137.683 62.7078 136.814 63.0692 135.942 63.4221C136.161 63.6408 136.38 63.8595 136.598 64.0782C137.549 60.6639 138.499 57.2496 139.449 53.8354L140.012 51.8119C140.25 50.956 140.344 50.1036 139.67 49.3901C139.42 49.1255 139.054 48.8589 138.679 48.8606C138.235 48.8626 137.788 49.0173 137.401 49.2232C136.78 49.5532 136.243 50.1064 135.996 50.7698C135.775 51.3645 135.6 51.9805 135.402 52.5833C134.787 54.4637 134.171 56.344 133.555 58.2244L134.584 58.5079C135.091 55.8576 135.642 53.212 136.108 50.554C136.283 49.5495 135.825 48.5254 134.839 48.1461C133.608 47.6723 132.41 48.4905 132.115 49.6964C131.806 50.958 131.49 52.2179 131.177 53.4786C130.824 54.9026 130.471 56.3265 130.118 57.7503C130.467 57.7976 130.817 57.8448 131.166 57.8921C131.181 56.504 131.196 55.1159 131.211 53.7278C131.226 52.3427 131.355 50.9265 131.145 49.5536C131.029 48.7927 130.699 47.7974 129.776 47.7686C128.559 47.7306 127.824 48.7832 127.727 49.8799C127.613 51.1667 127.465 52.4515 127.334 53.7367C127.189 55.1613 127.044 56.586 126.899 58.0106H127.966C127.805 56.3014 127.644 54.5923 127.483 52.8831L127.227 50.1655C127.123 49.0657 126.305 48.1357 125.126 48.1721C124.314 48.1972 123.584 48.7325 123.295 49.4856C123.135 49.9027 123.179 50.3095 123.22 50.6972C123.267 51.1266 123.25 51.5724 123.265 52.0037C123.333 53.9935 123.401 55.9833 123.469 57.9731L123.702 64.8135L123.784 67.2087C123.794 67.5132 123.873 67.898 123.818 68.1999C123.792 68.3424 123.669 68.5544 123.619 68.7034C123.526 68.979 123.434 69.255 123.343 69.5312C123.161 70.0842 122.983 70.6384 122.809 71.1937C122.46 72.3058 122.125 73.4224 121.804 74.5429C121.161 76.7859 120.572 79.0442 120.026 81.3128C118.958 85.7543 118.015 90.2371 117.273 94.7452C115.84 103.446 115.35 112.488 118.003 121.015C118.342 122.105 118.731 123.178 119.163 124.235C119.419 124.862 120.452 124.587 120.192 123.951V123.951L120.192 123.951Z" fill="black"/>
<path d="M122.478 135.204C123.456 134.91 124.434 134.615 125.412 134.32C126.961 133.853 128.511 133.386 130.06 132.919C130.417 132.812 130.773 132.704 131.13 132.597C131.785 132.399 131.506 131.369 130.846 131.568C129.868 131.863 128.891 132.158 127.913 132.452C126.363 132.919 124.814 133.386 123.264 133.853C122.908 133.961 122.551 134.068 122.195 134.176C121.539 134.373 121.818 135.403 122.478 135.204V135.204Z" fill="black"/>
<path d="M119.989 132.123C121.06 131.869 122.13 131.615 123.2 131.361C124.898 130.957 126.596 130.554 128.293 130.151C128.686 130.058 129.078 129.965 129.471 129.871C130.138 129.713 129.856 128.684 129.187 128.843C128.117 129.097 127.047 129.351 125.976 129.605C124.279 130.009 122.581 130.412 120.883 130.815C120.491 130.908 120.098 131.001 119.706 131.095C119.038 131.253 119.321 132.282 119.989 132.123V132.123Z" fill="black"/>
<path d="M151.575 97.3544C147.683 100.53 143.325 103.072 139.39 106.192C138.409 106.97 137.482 107.812 136.506 108.595C135.572 109.342 134.602 110.044 133.609 110.71C131.569 112.078 129.427 113.291 127.227 114.383C125.012 115.482 122.735 116.504 120.393 117.305C117.968 118.134 115.419 118.693 112.843 118.514C108.762 118.231 105.125 115.944 102.465 112.933C99.4133 109.478 97.7873 105.177 97.0257 100.677C96.6029 98.1781 96.4057 95.6493 96.1408 93.131C95.8996 90.8383 95.5137 88.5764 95.1647 86.2994C94.602 82.6273 94.033 78.6585 91.4155 75.812C88.4147 72.5487 83.3593 71.58 79.2303 72.9826C78.2205 73.3257 77.1648 73.8692 76.6749 74.8711C76.2501 75.7398 76.2638 76.9285 77.0592 77.5875C77.7204 78.1353 78.8247 78.177 79.4568 77.5538C80.1777 76.8431 79.9106 75.7672 79.2449 75.1291C78.4978 74.413 77.4703 74.1449 76.4732 74.0072C75.5178 73.8753 74.5636 73.8978 73.6119 74.05C71.7003 74.3557 69.876 75.2458 68.4476 76.5503C67.7481 77.1891 67.151 77.9412 66.681 78.7632C66.3398 79.36 67.261 79.898 67.602 79.3015C69.4122 76.1358 73.3728 74.3628 76.9425 75.17C77.3942 75.2722 77.8281 75.4028 78.2158 75.6644C78.5054 75.8597 78.9401 76.2288 78.8085 76.6269C78.7182 76.9001 78.4001 76.9724 78.141 76.9388C77.752 76.8883 77.5125 76.5892 77.4628 76.2078C77.3283 75.1734 78.3068 74.4861 79.1429 74.1466C80.1536 73.7361 81.269 73.5173 82.3547 73.4499C84.4774 73.318 86.6354 73.7679 88.4842 74.8328C90.094 75.7602 91.334 77.1294 92.1663 78.7842C92.9541 80.3506 93.3667 82.0842 93.6833 83.7992C94.0273 85.663 94.3007 87.5441 94.6004 89.4155C95.36 94.1586 95.3885 99.0115 96.5625 103.688C97.5784 107.735 99.5371 111.528 102.48 114.511C105.174 117.242 108.672 119.199 112.53 119.556C117.33 120 122.03 118.002 126.284 116.016C130.478 114.059 134.516 111.689 138.057 108.692C139.889 107.142 141.762 105.682 143.729 104.306C145.662 102.953 147.628 101.646 149.535 100.257C150.484 99.5648 151.419 98.8515 152.329 98.1086C152.861 97.6745 152.103 96.9238 151.575 97.3544V97.3544L151.575 97.3544Z" fill="black"/>
<path d="M166.047 82.5819C165.566 83.5498 168.208 82.9419 169.229 82.5871C167.298 81.8361 165.137 80.0827 163.936 78.3955C163.936 78.3955 166.499 81.6721 166.047 82.5819Z" fill="black"/>
<path d="M165.586 82.3125C165.389 82.7326 165.421 83.1956 165.846 83.4617C166.15 83.6522 166.563 83.6517 166.908 83.628C167.74 83.5709 168.583 83.3721 169.371 83.1011C169.893 82.9215 169.858 82.2647 169.371 82.0726C168.392 81.6867 167.473 81.096 166.655 80.4399C165.816 79.7675 165.025 79.0012 164.396 78.1261C164.117 78.3415 163.838 78.5569 163.558 78.7724C163.614 78.843 163.468 78.6525 163.508 78.7077C163.535 78.7433 163.562 78.778 163.589 78.8132C163.682 78.9357 163.773 79.0591 163.863 79.1834C164.141 79.5653 164.408 79.9545 164.661 80.3535C164.935 80.7876 165.194 81.2335 165.401 81.7038C165.347 81.5818 165.419 81.7502 165.428 81.773C165.447 81.8229 165.465 81.8732 165.482 81.9239C165.512 82.0167 165.535 82.1104 165.558 82.2051C165.593 82.349 165.568 82.1399 165.563 82.2223C165.56 82.2579 165.563 82.303 165.567 82.3387C165.581 82.4753 165.586 82.2485 165.571 82.3275C165.562 82.3755 165.51 82.477 165.586 82.3125C165.465 82.5737 165.513 82.8871 165.778 83.0422C166.008 83.1769 166.386 83.1134 166.507 82.8509C166.852 82.1072 166.39 81.2364 166.035 80.5828C165.65 79.8721 165.191 79.1996 164.714 78.5482C164.583 78.3696 164.449 78.1927 164.313 78.0182C163.943 77.5456 163.122 78.1723 163.475 78.6645C164.175 79.6395 165.024 80.4988 165.963 81.2443C166.92 82.0029 167.949 82.6523 169.087 83.1012V82.0726C168.802 82.1708 168.511 82.2534 168.218 82.3266C168.047 82.3694 167.875 82.4088 167.701 82.4441C167.548 82.4752 167.289 82.5204 167.202 82.5324C167.265 82.5238 167.12 82.5421 167.123 82.5417C167.083 82.5462 167.043 82.5503 167.003 82.5539C166.926 82.5607 166.85 82.566 166.773 82.5685C166.703 82.5709 166.633 82.5714 166.563 82.5684C166.531 82.5671 166.499 82.5632 166.468 82.5624C166.367 82.56 166.547 82.5819 166.487 82.5654C166.455 82.5563 166.305 82.5139 166.391 82.5479C166.476 82.5817 166.404 82.5532 166.384 82.5407C166.314 82.4955 166.473 82.615 166.429 82.5737C166.495 82.6359 166.523 82.7407 166.523 82.7918C166.523 82.7291 166.498 82.934 166.515 82.8433C166.522 82.8064 166.568 82.7209 166.507 82.8509C166.63 82.5903 166.58 82.2757 166.316 82.1212C166.085 81.9858 165.709 82.0506 165.586 82.3125L165.586 82.3125Z" fill="black"/>
<path d="M88.2023 95.1424C85.4306 101.138 80.7597 106.286 74.7082 109.063C72.7264 109.973 70.5914 110.436 68.598 111.319C67.7101 111.712 66.8267 112.155 66.0613 112.759C65.5012 113.2 64.8989 113.858 65.0827 114.635C65.3215 115.643 66.6214 116.024 67.4806 116.259C68.3356 116.493 69.1923 116.722 70.0481 116.953L69.8128 116.062C68.1147 117.639 66.4166 119.217 64.7185 120.794C63.5926 121.84 62.4666 122.886 61.3407 123.932C60.7738 124.458 60.0103 124.998 59.5779 125.653C58.7944 126.839 59.5055 128.51 60.8913 128.789C61.9745 129.007 62.697 128.297 63.4611 127.668L62.7069 126.914C61.7944 127.793 60.5075 128.727 61.0102 130.184C61.3328 131.119 62.2789 131.703 63.2574 131.565C63.7626 131.493 64.1507 131.229 64.5243 130.901C66.2171 129.417 67.9101 127.932 69.6029 126.448C70.2008 125.924 70.7987 125.399 71.3966 124.875L70.6424 124.121C68.537 126.294 66.4316 128.468 64.3262 130.641C63.8774 131.105 63.4925 131.542 63.4302 132.234C63.292 133.77 64.9151 134.899 66.3113 134.289C66.8344 134.061 67.2084 133.576 67.5921 133.167C68.1823 132.538 68.7725 131.908 69.3627 131.279C70.4753 130.092 71.5878 128.906 72.7003 127.719L71.8627 127.073C70.555 129.226 69.2473 131.378 67.9397 133.531C67.7643 133.819 67.579 134.104 67.4127 134.398C66.9138 135.28 67.0636 136.402 67.8618 137.059C68.8309 137.857 70.235 137.566 70.9236 136.559C71.7514 135.348 72.489 134.075 73.3262 132.868C76.7064 127.994 80.6631 123.538 84.9391 119.435C89.3582 115.194 94.1272 111.353 99.0395 107.703C102.513 105.121 106.229 102.367 107.769 98.148C109.635 93.0352 107.83 87.2809 105.189 82.7936C103.826 80.4778 102.166 78.3388 100.473 76.2562C98.8756 74.2897 97.1805 72.3962 95.328 70.6652C91.6869 67.263 87.3838 64.5066 82.4962 63.3325C79.1162 62.5206 75.6224 62.7985 72.2309 62.0946C71.0104 61.8413 69.5148 61.4763 68.6872 60.4739C67.8492 59.4589 68.4657 58.02 69.1496 56.9609C70.1846 55.3582 71.6986 54.2255 72.8728 52.7482C74.237 51.0319 74.5367 48.9437 74.3757 46.8008C74.2035 44.5091 73.5426 42.2617 72.0041 40.5111C70.8564 39.2052 69.2892 38.2986 67.6123 37.8641C64.1873 36.9767 60.34 37.9615 57.7826 40.4106C56.1849 41.9407 55.248 43.9769 54.827 46.1306C54.2421 49.1222 54.6367 52.1545 54.8556 55.1611C55.0463 57.7807 55.2701 60.8852 53.896 63.2473C52.8867 64.9822 51.1185 66.0033 49.4552 67.0193C47.5332 68.1934 45.7154 69.4811 44.4531 71.3887C43.0768 73.4683 42.5685 75.9843 42.6479 78.4507C42.7285 80.9564 43.3485 83.4078 44.131 85.7772C44.865 87.9999 45.6764 90.2017 46.6726 92.3217C47.7029 94.5141 48.9462 96.6491 50.5898 98.4425C51.3469 99.2686 52.2017 100.015 53.1495 100.616C53.8893 101.084 54.7393 101.549 55.6264 101.629C56.5014 101.708 57.1801 101.186 57.3147 100.315C57.4834 99.2228 57.0825 98.0917 56.653 97.1057C55.674 94.8588 54.1485 92.8939 52.9157 90.787C51.285 87.9998 49.5717 85.2912 47.6673 82.6821C45.7737 80.0877 43.8068 77.5466 41.7811 75.0541C39.8233 72.6454 37.8155 70.2745 35.7475 67.9595L35.8309 68.6058C36.6119 67.0377 37.3929 65.4696 38.1739 63.9015C38.3873 63.4731 38.5489 63.0355 38.53 62.5459C38.4969 61.6885 37.9823 60.887 37.2075 60.5143C36.4875 60.168 35.6094 60.2005 34.9289 60.6295C34.5561 60.8646 34.3081 61.1978 34.0409 61.5358C33.408 62.3367 32.775 63.1375 32.1421 63.9383L33.0525 64.3154C32.6382 61.1308 32.224 57.9462 31.8097 54.7615C31.7434 54.2518 31.6772 53.7421 31.6108 53.2324C31.4591 52.0695 30.5855 51.1285 29.3344 51.291C28.1921 51.4394 27.5001 52.4647 27.5973 53.5702C27.6602 54.2859 27.7333 55.0008 27.8013 55.716C27.9688 57.4763 28.1362 59.2366 28.3036 60.997L29.3512 60.8552C28.8657 59.5573 28.3801 58.2594 27.8946 56.9615C27.5864 56.1376 27.2782 55.3137 26.97 54.4897C26.7703 53.9558 26.6072 53.3317 26.2117 52.909C25.6929 52.3544 24.8505 52.1385 24.1295 52.3775C23.3112 52.6486 22.8377 53.3495 22.7382 54.1799L23.6486 53.8028C22.5955 52.7258 20.7474 53.0831 20.2532 54.5363C20.0331 55.1834 20.2447 55.7717 20.4447 56.3788C20.9932 58.0437 21.5417 59.7087 22.0902 61.3737C22.2562 61.8774 22.4222 62.3812 22.5881 62.885L23.6167 62.6014C22.8354 60.6652 22.0542 58.7289 21.273 56.7927C20.9066 55.8846 20.6346 54.8889 19.5933 54.5377C17.936 53.9787 16.5062 55.7061 17.122 57.2527C18.6466 61.0817 20.2063 64.8971 21.7483 68.7191C22.7242 71.1379 23.8389 73.5074 24.9474 75.867C27.6742 81.6714 30.6066 87.3883 33.8517 92.921C35.6537 95.9935 37.5553 99.0122 39.6263 101.911C41.4917 104.523 43.4903 107.065 45.7642 109.336C46.2595 109.83 46.7692 110.31 47.2948 110.772C47.8086 111.223 48.5658 110.472 48.0491 110.018C45.8081 108.047 43.8467 105.765 42.0398 103.396C39.9806 100.697 38.102 97.8627 36.3257 94.9711C32.9215 89.4295 29.881 83.6649 27.0515 77.8112C25.5914 74.7905 24.1825 71.7429 22.8653 68.657C22.8145 68.5379 22.9273 68.8125 22.8733 68.6746C22.7992 68.4855 22.7213 68.2977 22.6452 68.1093C22.2896 67.2279 21.934 66.3464 21.5784 65.465C20.6453 63.1523 19.7122 60.8397 18.7791 58.527C18.5637 57.9932 18.3363 57.4625 18.1324 56.924C17.8958 56.2993 18.1535 55.5433 18.9186 55.5056C19.4049 55.4816 19.7276 55.795 19.8883 56.1933C20.7131 58.2376 21.5379 60.2819 22.3627 62.3262C22.4378 62.5125 22.513 62.6987 22.5881 62.885C22.838 63.5044 23.8363 63.268 23.6167 62.6014C22.8508 60.2767 22.0709 57.9562 21.319 55.6269C21.2323 55.3584 21.1709 55.0981 21.2818 54.8198C21.557 54.1288 22.4089 54.0605 22.8944 54.557C23.2484 54.919 23.753 54.6123 23.8048 54.1799C23.9315 53.1235 25.2943 53.1394 25.6582 54.0161C25.8401 54.4542 25.9917 54.9076 26.1579 55.3519C26.7272 56.8737 27.2965 58.3956 27.8658 59.9175C28.0181 60.3246 28.1703 60.7317 28.3226 61.1388C28.5164 61.6568 29.4315 61.6415 29.3702 60.997C29.2412 59.6407 29.1122 58.2844 28.9832 56.9281C28.8995 56.0477 28.8158 55.1673 28.732 54.2869C28.6873 53.8163 28.5221 53.1606 28.8095 52.7455C29.1771 52.2147 29.9826 52.2048 30.3623 52.7285C30.4894 52.9039 30.5244 53.0991 30.5534 53.3042C30.6269 53.8229 30.6886 54.3435 30.7562 54.863C30.995 56.6982 31.2337 58.5335 31.4724 60.3687C31.6436 61.6843 31.8147 62.9999 31.9859 64.3155C32.0368 64.7066 32.5722 65.1026 32.8963 64.6926C33.3806 64.0798 33.865 63.467 34.3493 62.8542C34.8474 62.2239 35.3805 61.2418 36.3161 61.3459C37.0243 61.4247 37.5545 62.0977 37.4568 62.8069C37.4202 63.0729 37.2801 63.3086 37.1625 63.5447C36.7496 64.3737 36.3367 65.2026 35.9239 66.0316C35.5859 66.7102 35.2479 67.3889 34.9099 68.0675C34.798 68.2922 34.8264 68.527 34.9933 68.7138C39.1191 73.3324 43.0401 78.1482 46.694 83.1488C48.5298 85.6613 50.1967 88.2606 51.7712 90.9439C52.9799 93.0036 54.4284 94.9454 55.4775 97.0942C55.9061 97.9721 56.411 99.0926 56.2743 100.099C56.1709 100.86 55.3456 100.534 54.8446 100.322C52.9644 99.5234 51.4259 97.9596 50.2363 96.3388C48.8359 94.4309 47.7575 92.2895 46.8524 90.1087C45.9879 88.0258 45.2181 85.8785 44.6071 83.7069C43.9607 81.4097 43.5426 79.0088 43.7661 76.6171C43.9919 74.2006 45.0137 71.9509 46.7724 70.2662C48.2228 68.8769 50.0318 67.9867 51.6873 66.8798C53.3428 65.7729 54.7316 64.3986 55.411 62.487C56.3318 59.8959 56.0699 56.9292 55.8506 54.2435C55.6136 51.3417 55.2971 48.3624 56.0645 45.5098C56.5799 43.5941 57.5665 41.9 59.1222 40.65C60.4021 39.6215 61.9701 38.9785 63.5852 38.7195C66.8129 38.2018 70.2828 39.4447 72.0096 42.312C72.5668 43.2372 72.9093 44.258 73.1146 45.3158C73.3656 46.6097 73.4639 48.0206 73.2543 49.3288C72.9753 51.0699 71.9726 52.2462 70.7593 53.4458C68.9249 55.2594 65.4688 58.9959 68.1961 61.5009C69.199 62.4221 70.6012 62.8403 71.9049 63.1144C73.4063 63.43 74.9435 63.5651 76.4723 63.6632C78.217 63.7752 79.9444 63.8671 81.6611 64.2357C84.0259 64.7435 86.2895 65.6258 88.3953 66.8122C92.597 69.1794 96.0736 72.6253 99.1397 76.306C102.528 80.3731 105.859 84.8177 107.035 90.0816C107.568 92.4649 107.647 95.0052 106.913 97.3549C106.302 99.3086 105.126 101.004 103.709 102.461C102.194 104.018 100.45 105.332 98.7103 106.626C96.4826 108.284 94.2719 109.962 92.1152 111.711C87.5177 115.441 83.1345 119.45 79.1636 123.845C77.2683 125.943 75.4696 128.129 73.7873 130.401C72.9272 131.563 72.0992 132.749 71.307 133.959C70.918 134.553 70.5376 135.152 70.1664 135.757C69.8836 136.218 69.4635 136.598 68.8801 136.422C68.1566 136.204 68.0455 135.422 68.3873 134.848C68.6114 134.472 68.8421 134.1 69.0694 133.726C69.8544 132.433 70.6393 131.141 71.4243 129.849C71.8774 129.103 72.3306 128.357 72.7837 127.612C73.0953 127.099 72.3642 126.519 71.9461 126.965C70.0907 128.944 68.2302 130.918 66.3799 132.902C66.2048 133.089 66.0382 133.274 65.7829 133.355C65.1793 133.546 64.5408 133.11 64.4894 132.482C64.446 131.951 64.8184 131.666 65.1477 131.326C66.2944 130.143 67.441 128.959 68.5876 127.775C69.524 126.808 70.4603 125.842 71.3967 124.875C71.8789 124.377 71.1552 123.671 70.6425 124.121C69.372 125.235 68.1015 126.349 66.8311 127.463C66.0388 128.158 65.2465 128.852 64.4542 129.547C63.9998 129.946 63.4347 130.639 62.7658 130.505C61.8697 130.325 61.7876 129.291 62.3557 128.733C62.7203 128.374 63.0928 128.023 63.4612 127.668C63.965 127.184 63.2273 126.486 62.707 126.914C62.2127 127.321 61.6535 127.979 60.9428 127.698C60.1228 127.373 60.2045 126.444 60.7534 125.932C61.3278 125.396 61.9046 124.863 62.4802 124.328C64.6065 122.353 66.7328 120.378 68.8591 118.403C69.4284 117.874 69.9978 117.345 70.5671 116.816C70.8634 116.541 70.7091 116.027 70.3318 115.925C69.5646 115.717 68.7974 115.51 68.0301 115.303C67.6586 115.202 67.2834 115.107 66.9262 114.962C66.5953 114.827 66.2439 114.621 66.1254 114.412C66.1773 114.503 66.1198 114.36 66.107 114.33C66.1458 114.422 66.1437 114.268 66.1089 114.358C66.1622 114.22 66.1279 114.227 66.2485 114.053C66.3726 113.874 66.6919 113.6 66.938 113.427C67.6957 112.895 68.5469 112.488 69.3966 112.127C71.3566 111.292 73.4343 110.829 75.3726 109.926C78.2283 108.596 80.8238 106.718 83.0421 104.485C85.5705 101.941 87.6197 98.9337 89.1234 95.6808C89.4096 95.0619 88.4905 94.5194 88.2024 95.1425V95.1425L88.2023 95.1424Z" fill="black"/>
<path d="M62.6526 128.337C63.4362 127.654 64.2197 126.971 65.0032 126.289C66.2533 125.2 67.5033 124.111 68.7534 123.022L69.6189 122.268C69.8362 122.078 69.8128 121.707 69.6189 121.513C69.4034 121.298 69.0825 121.324 68.8647 121.513C68.0812 122.196 67.2977 122.879 66.5142 123.561C65.2641 124.65 64.0141 125.739 62.764 126.828C62.4755 127.08 62.187 127.331 61.8984 127.582C61.6811 127.772 61.7046 128.143 61.8984 128.337C62.114 128.552 62.4348 128.526 62.6526 128.337V128.337Z" fill="black"/>
<path d="M22.7481 54.2653C23.0437 55.1403 23.3393 56.0152 23.6349 56.8902C24.1034 58.2769 24.5719 59.6636 25.0404 61.0503C25.1488 61.3711 25.2571 61.6919 25.3655 62.0127C25.4577 62.2855 25.7325 62.4646 26.0216 62.3852C26.2876 62.3121 26.4866 62.0032 26.3941 61.7291C26.0985 60.8542 25.8029 59.9792 25.5073 59.1042C25.0388 57.7176 24.5703 56.3309 24.1018 54.9442C23.9934 54.6234 23.8851 54.3026 23.7767 53.9818C23.6845 53.709 23.4097 53.5298 23.1206 53.6093C22.8546 53.6824 22.6556 53.9913 22.7481 54.2653V54.2653Z" fill="black"/>
<path d="M25.9535 67.064C27.8304 65.7052 30.0826 64.9422 32.4016 64.9119C33.0875 64.903 33.0894 63.8363 32.4016 63.8453C29.9078 63.8778 27.437 64.6792 25.4151 66.143C25.1822 66.3117 25.0683 66.6068 25.2238 66.8727C25.3584 67.1027 25.7189 67.2338 25.9535 67.064V67.064H25.9535Z" fill="black"/>
<path d="M66.7847 57.9821C65.6508 57.7304 64.6051 57.0859 63.8789 56.1783C66.0621 56.2768 67.8198 56.944 70.7827 54.9292C70.7827 54.9292 68.0569 57.0625 67.9731 58.0607C67.8697 58.4619 67.6568 58.4217 67.4861 58.3044C67.2718 58.157 67.0386 58.0385 66.7847 57.9821H66.7847Z" fill="black"/>
<path d="M66.9265 57.4679C65.8643 57.2239 64.9432 56.6469 64.256 55.8012L63.8789 56.7116C64.9512 56.7625 66.0192 56.9569 67.095 56.8755C68.5408 56.7661 69.8587 56.1946 71.0519 55.3897L70.4056 54.5521C69.9825 54.8837 69.5751 55.2377 69.1814 55.6034C68.5936 56.1493 67.9227 56.7683 67.5889 57.5123C67.5422 57.6164 67.4957 57.7234 67.4713 57.8355C67.4682 57.8495 67.4664 57.8637 67.4638 57.8777C67.4545 57.928 67.4607 58.0251 67.4397 58.0134C67.3714 57.9752 67.6954 57.8519 67.7015 57.8516C67.7665 57.8484 67.8649 57.9204 67.7726 57.8551C67.6931 57.7987 67.6089 57.7478 67.5231 57.7015C67.3352 57.6002 67.1337 57.5193 66.9265 57.4679C66.2602 57.3026 65.976 58.331 66.6429 58.4964C66.95 58.5726 67.1715 58.7985 67.4688 58.883C67.829 58.9854 68.1968 58.8237 68.3732 58.4941C68.4152 58.4156 68.4527 58.3261 68.4763 58.2397C68.4925 58.1804 68.4953 58.1209 68.5064 58.0607C68.4682 58.268 68.4909 58.1398 68.4998 58.1191C68.5108 58.0936 68.5171 58.0583 68.5233 58.0311C68.5513 57.9076 68.4928 58.0719 68.5311 58.0028C68.6205 57.8416 68.7098 57.6883 68.8176 57.5381C68.8872 57.4412 68.803 57.5528 68.8612 57.4813C68.8916 57.4439 68.9219 57.4066 68.9528 57.3698C69.0279 57.2804 69.1053 57.193 69.1842 57.107C69.3481 56.9284 69.5187 56.7559 69.693 56.5874C69.9983 56.2922 70.3152 56.009 70.639 55.7343C70.8103 55.5889 70.983 55.4449 71.1599 55.3063C71.3662 55.1446 71.35 54.7924 71.2016 54.6061C71.0456 54.4102 70.7376 54.3176 70.5136 54.4687C69.9162 54.8717 69.2849 55.2388 68.6033 55.4796C68.046 55.6765 67.5142 55.785 66.9821 55.8164C65.9438 55.8778 64.9137 55.6941 63.8789 55.645C63.6707 55.6351 63.4665 55.7866 63.3915 55.9729C63.3057 56.1862 63.3606 56.3816 63.5018 56.5555C64.2931 57.5292 65.4219 58.2159 66.6429 58.4964C67.3111 58.6499 67.5963 57.6218 66.9265 57.4679H66.9265Z" fill="black"/>
<path d="M75.5222 40.7369C75.211 37.7576 67.3129 29.0449 56.8647 34.1446C46.4165 39.2443 46.2921 54.9166 50.7699 58.7725C56.1184 62.1309 58.8121 60.9736 60.1158 58.9588C60.9132 57.7264 60.2633 54.4415 59.6383 52.0762C59.306 50.8189 58.801 49.6175 58.1807 48.4746C57.6488 47.4946 57.2165 45.9401 58.6936 44.6185C61.0569 42.504 61.9644 47.0805 62.5863 47.0805C62.3376 46.0854 63.3638 42.971 64.8564 42.7222C64.8564 42.7222 75.9957 45.27 75.5222 40.737L75.5222 40.7369Z" fill="black"/>
<path d="M76.0556 40.7368C75.9628 39.8917 75.5594 39.1068 75.0991 38.4039C74.4623 37.4314 73.6727 36.5548 72.8037 35.785C70.559 33.7963 67.7672 32.475 64.7803 32.1287C61.2684 31.7215 57.5745 32.7902 54.6904 34.8042C52.2894 36.481 50.4458 38.8435 49.2561 41.5096C48.1108 44.0763 47.5073 46.8739 47.4425 49.6825C47.3878 52.0553 47.7013 54.5092 48.6716 56.6921C49.0458 57.5341 49.5471 58.3489 50.2165 58.9893C50.5452 59.3037 50.958 59.5184 51.3512 59.742C51.8165 60.0065 52.2923 60.253 52.7802 60.4733C53.5826 60.8354 54.4163 61.145 55.2848 61.3035C56.5393 61.5323 57.8659 61.4638 58.9855 60.8004C59.4333 60.535 59.838 60.1853 60.1677 59.7828C60.5971 59.2585 60.8669 58.7248 60.9593 58.0461C61.082 57.1441 60.9914 56.2327 60.8665 55.336C60.7289 54.3484 60.5173 53.3715 60.2741 52.405C59.997 51.3037 59.6291 50.2403 59.1486 49.2104C58.9402 48.7637 58.6891 48.3379 58.4844 47.8901C58.479 47.8783 58.444 47.7975 58.4756 47.8728C58.4583 47.8317 58.4423 47.79 58.4266 47.7482C58.3978 47.6715 58.3712 47.5941 58.3471 47.5158C58.3198 47.4269 58.2957 47.337 58.2753 47.2462C58.2494 47.131 58.2353 47.0431 58.2306 46.9943C58.1501 46.1569 58.506 45.4435 59.1983 44.8867C59.1384 44.9348 59.2053 44.8812 59.215 44.8742C59.2548 44.8452 59.2953 44.8173 59.3368 44.7907C59.3944 44.7538 59.4534 44.7194 59.5143 44.6882C59.5459 44.672 59.5779 44.6567 59.6104 44.6422C59.5016 44.6909 59.5718 44.6567 59.5957 44.6511C59.6677 44.6341 59.7418 44.6122 59.8135 44.5931C59.6679 44.6319 59.8237 44.5936 59.8793 44.5937C59.9008 44.5937 59.9253 44.5976 59.9463 44.5958C60.0561 44.5861 59.8508 44.5749 59.9192 44.5898C59.9671 44.6002 60.0148 44.6088 60.0619 44.6229C60.0931 44.6323 60.1231 44.645 60.1541 44.6548C60.0873 44.6336 60.0745 44.615 60.1462 44.6548C60.1949 44.6819 60.2434 44.7082 60.29 44.7389C60.3088 44.7513 60.3268 44.7657 60.3459 44.7774C60.4433 44.8375 60.2773 44.7181 60.3334 44.7676C60.4278 44.851 60.519 44.935 60.6032 45.0291C60.6447 45.0754 60.6832 45.1241 60.7234 45.1716C60.7411 45.1925 60.7808 45.2521 60.7096 45.1536C60.7283 45.1795 60.7476 45.2049 60.7662 45.2308C60.8455 45.3413 60.9198 45.4552 60.9909 45.5711C61.243 45.9819 61.4463 46.4187 61.6804 46.8393C61.8803 47.1985 62.1314 47.5936 62.5864 47.6137C62.9458 47.6296 63.1762 47.2613 63.1007 46.9386C63.0963 46.9201 63.0721 46.7931 63.0885 46.8934C63.1052 46.9954 63.0866 46.8536 63.0855 46.8341C63.0814 46.7604 63.0819 46.6865 63.0848 46.6127C63.0887 46.5154 63.098 46.4185 63.11 46.3218C63.0935 46.455 63.1144 46.3014 63.1174 46.2843C63.1256 46.2376 63.1337 46.191 63.1428 46.1446C63.1853 45.928 63.2408 45.714 63.3061 45.5033C63.3434 45.3829 63.3841 45.2636 63.4278 45.1454C63.4469 45.094 63.4666 45.0428 63.4868 44.9919C63.5004 44.9578 63.5142 44.9238 63.5284 44.8899C63.5142 44.9242 63.5144 44.9245 63.529 44.8906C63.6252 44.6737 63.7318 44.4616 63.8531 44.2576C63.9118 44.1588 63.9737 44.0618 64.0395 43.9676C64.0691 43.9252 64.0992 43.883 64.1307 43.842C64.0724 43.9178 64.1774 43.7877 64.1899 43.7733C64.2584 43.6939 64.3305 43.6175 64.4074 43.546C64.4415 43.5143 64.4765 43.4837 64.5122 43.4539C64.5907 43.3883 64.4547 43.4839 64.5665 43.4158C64.6469 43.3669 64.7246 43.3183 64.8105 43.2792C64.6946 43.332 64.8095 43.2814 64.8388 43.2742C64.8922 43.2611 64.9441 43.2464 64.9983 43.2364H64.7147C66.0171 43.5338 67.353 43.7273 68.6814 43.8558C69.7409 43.9584 70.8121 44.0099 71.8751 43.9345C72.8456 43.8657 73.8684 43.7124 74.7277 43.2264C75.6382 42.7114 76.1588 41.7879 76.0556 40.7368C76.0275 40.4502 75.8307 40.2035 75.5223 40.2035C75.2557 40.2035 74.9607 40.4484 74.989 40.7368C75.0022 40.8713 75.0077 41.0063 75 41.1413C74.9983 41.1729 74.9937 41.2047 74.9927 41.2362C74.9891 41.3492 75.0231 41.109 74.9958 41.2171C74.9787 41.2846 74.9702 41.354 74.9516 41.4214C74.9387 41.4681 74.9214 41.5132 74.9076 41.5595C74.896 41.5988 74.846 41.6816 74.9191 41.538C74.9063 41.5631 74.8967 41.5898 74.8833 41.6147C74.8565 41.6641 74.8311 41.7137 74.8014 41.7615C74.7723 41.8082 74.6338 41.9645 74.7552 41.8356C74.6837 41.9116 74.6186 41.9912 74.541 42.0616C74.5075 42.092 74.3467 42.209 74.4922 42.1078C74.435 42.1476 74.3795 42.1892 74.3206 42.2267C74.2157 42.2936 74.1063 42.3532 73.9942 42.407C73.9456 42.4303 73.8963 42.4519 73.847 42.4736C74.0045 42.4042 73.7699 42.501 73.7262 42.5165C73.4571 42.612 73.1795 42.6828 72.8995 42.7379C72.7496 42.7673 72.5988 42.791 72.4476 42.8132C72.6045 42.7902 72.3567 42.8237 72.3163 42.8282C72.23 42.8377 72.1436 42.8461 72.0572 42.8536C71.3822 42.9119 70.7027 42.913 70.0262 42.8844C69.3615 42.8563 68.6981 42.7981 68.0375 42.7198C67.8832 42.7015 67.7291 42.6817 67.5751 42.6616C67.7375 42.6828 67.4971 42.6507 67.4571 42.6451C67.385 42.6349 67.313 42.6245 67.2411 42.6139C66.9665 42.5735 66.6924 42.5298 66.4189 42.483C66.046 42.4193 65.674 42.35 65.3035 42.2734C65.2161 42.2553 65.1291 42.235 65.0416 42.2175C64.7813 42.1655 64.5487 42.2359 64.3107 42.3416C63.4041 42.7446 62.8608 43.7325 62.4999 44.6063C62.1774 45.3872 61.8734 46.3728 62.0722 47.2222L62.5865 46.5471C62.621 46.5486 62.7477 46.5808 62.7748 46.596C62.6876 46.5471 62.8994 46.6889 62.8107 46.6235C62.7899 46.6083 62.7765 46.5734 62.7546 46.5622C62.8133 46.5923 62.8161 46.6532 62.7538 46.5554C62.6522 46.3959 62.5619 46.2308 62.4741 46.0634C62.2442 45.6251 62.0239 45.1798 61.7427 44.7713C61.4457 44.3399 61.0835 43.9112 60.5954 43.6923C60.0097 43.4296 59.381 43.5124 58.8384 43.8446C58.0642 44.3188 57.4176 45.1303 57.2262 46.0266C57.0481 46.8604 57.2235 47.6888 57.5742 48.452C57.7762 48.8916 58.0229 49.3099 58.2276 49.7488C58.4643 50.2559 58.6721 50.7754 58.8503 51.3059C59.166 52.2453 59.3917 53.2208 59.5896 54.1912C59.7713 55.0823 59.9197 55.9852 59.9478 56.8957C59.9539 57.0939 59.954 57.2923 59.945 57.4904C59.941 57.5781 59.9354 57.6658 59.9274 57.7532C59.9231 57.8 59.9184 57.8467 59.9126 57.8932C59.908 57.932 59.9083 57.93 59.9134 57.8871C59.9095 57.9135 59.9052 57.9398 59.9006 57.9661C59.8709 58.1217 59.8358 58.2733 59.7871 58.4242C59.7777 58.4532 59.7666 58.482 59.7556 58.5105C59.8005 58.3949 59.7477 58.5267 59.7381 58.5443C59.7057 58.6039 59.6728 58.6624 59.6359 58.7194C59.5745 58.8143 59.5079 58.9056 59.4406 58.9963C59.3942 59.0587 59.5252 58.8958 59.4472 58.987C59.4318 59.005 59.4173 59.0241 59.4022 59.0424C59.3566 59.0976 59.3098 59.1517 59.2617 59.2047C59.1076 59.3742 58.9397 59.527 58.7625 59.6719C58.881 59.575 58.7256 59.6977 58.695 59.7192C58.6448 59.7545 58.5938 59.7885 58.5419 59.8213C58.4367 59.8879 58.3281 59.9494 58.2168 60.0053C58.16 60.0338 58.1019 60.0592 58.0445 60.0865C58.0194 60.0985 57.9507 60.1217 58.0653 60.0779C58.0412 60.0871 58.0173 60.0976 57.993 60.1064C57.8614 60.1535 57.7301 60.1988 57.5949 60.2347C57.4672 60.2686 57.3382 60.2939 57.2083 60.3181C57.1802 60.3233 57.1518 60.3269 57.1236 60.3315C57.2607 60.3092 57.1155 60.3324 57.0925 60.3346C57.0182 60.3417 56.9441 60.349 56.8697 60.3536C56.5474 60.3735 56.2235 60.3618 55.9027 60.3261C55.8681 60.3223 55.8336 60.3183 55.7991 60.3138C55.8945 60.3263 55.7795 60.3105 55.7565 60.3067C55.6755 60.2933 55.5945 60.2801 55.5138 60.2648C55.3245 60.2288 55.1366 60.1855 54.9504 60.1363C54.5326 60.0259 54.1229 59.8854 53.7219 59.7247C53.2847 59.5494 52.8595 59.3428 52.4428 59.1237C52.0057 58.8939 51.4578 58.6248 51.1025 58.3564C50.9443 58.2368 50.8048 58.0736 50.6741 57.9254C50.6114 57.8543 50.5512 57.7812 50.4917 57.7074C50.3977 57.5908 50.5462 57.7839 50.4571 57.6619C50.425 57.6179 50.3926 57.574 50.3611 57.5294C50.0969 57.1547 49.8719 56.7531 49.677 56.3385C49.627 56.2321 49.5797 56.1246 49.5329 56.0167C49.593 56.1553 49.513 55.967 49.4999 55.9343C49.4761 55.875 49.4528 55.8155 49.4301 55.7558C49.3364 55.5098 49.2514 55.2606 49.1742 55.009C49.0139 54.487 48.8867 53.955 48.7865 53.4183C48.7623 53.2888 48.7397 53.159 48.7187 53.029C48.7068 52.9559 48.6955 52.8827 48.6846 52.8095C48.6802 52.78 48.6761 52.7505 48.6717 52.7211C48.6675 52.6915 48.6633 52.6619 48.6592 52.6323C48.6672 52.6924 48.6686 52.7025 48.6633 52.6626C48.6248 52.3679 48.5933 52.0724 48.569 51.7762C48.4653 50.5125 48.4865 49.2387 48.6176 47.9778C48.6341 47.8191 48.6524 47.6607 48.6724 47.5024C48.6766 47.469 48.6809 47.4356 48.6853 47.4021C48.672 47.5039 48.6865 47.3934 48.6901 47.3682C48.7032 47.276 48.7165 47.1839 48.7306 47.0918C48.7822 46.7548 48.8418 46.419 48.9096 46.0848C49.0433 45.4249 49.2084 44.7713 49.4059 44.1276C49.8159 42.7908 50.2887 41.6692 50.9882 40.4495C51.6988 39.2104 52.4586 38.1993 53.4696 37.1994C55.7161 34.9777 58.8977 33.4572 62.0921 33.1644C65.1153 32.8874 68.0174 33.7 70.5253 35.3671C70.8066 35.5541 71.0818 35.7505 71.3497 35.9564C71.2746 35.8987 71.4346 36.0235 71.4562 36.0408C71.5138 36.0866 71.571 36.1328 71.6278 36.1795C71.7522 36.2817 71.8749 36.3858 71.9959 36.492C72.4456 36.8865 72.8718 37.3083 73.2677 37.7569C73.3561 37.8572 73.4431 37.9589 73.5284 38.0619C73.5679 38.1095 73.6069 38.1574 73.6456 38.2056C73.6688 38.2345 73.8071 38.4129 73.7243 38.3042C73.8788 38.5072 74.0279 38.7139 74.1681 38.9271C74.4062 39.2891 74.5889 39.6681 74.7864 40.0515C74.7014 39.8864 74.8177 40.1335 74.8364 40.1851C74.866 40.2665 74.8932 40.3489 74.9172 40.4321C74.9371 40.5012 74.955 40.571 74.9698 40.6414C74.9776 40.678 74.9827 40.7153 74.9908 40.7518C75.0181 40.8747 74.9752 40.6115 74.989 40.7368C75.0204 41.0231 75.2116 41.2702 75.5223 41.2702C75.7863 41.2702 76.0873 41.025 76.0556 40.7368L76.0556 40.7368Z" fill="black"/>
<path d="M66.9205 46.5387C66.9849 46.519 67.0501 46.5023 67.1164 46.4898C67.1329 46.4867 67.1495 46.4838 67.1661 46.4811C67.2059 46.4752 67.1994 46.476 67.1466 46.4835C67.1636 46.4738 67.2014 46.4779 67.222 46.4764C67.2891 46.4714 67.3566 46.4702 67.4239 46.4727C67.4575 46.4739 67.4912 46.4761 67.5247 46.4792C67.5415 46.4807 67.5583 46.4824 67.575 46.4844C67.5264 46.4776 67.5158 46.4762 67.543 46.4803C67.668 46.5028 67.7898 46.531 67.9091 46.5755C67.9961 46.608 67.8636 46.5517 67.9293 46.5827C67.9597 46.597 67.9903 46.611 68.0202 46.6265C68.0801 46.6575 68.1378 46.6922 68.1939 46.7295C68.3491 46.8328 68.5942 46.765 68.6803 46.602C68.7747 46.4233 68.7184 46.2257 68.5528 46.1155C68.0258 45.765 67.336 45.6686 66.7315 45.853C66.5538 45.9072 66.4229 46.1042 66.4831 46.2904C66.5411 46.4696 66.73 46.5968 66.9205 46.5387V46.5387H66.9205Z" fill="black"/>
<path d="M71.2151 46.348C71.2558 46.324 71.2973 46.3016 71.34 46.2814C71.3522 46.2756 71.3644 46.27 71.3768 46.2646C71.3227 46.287 71.3131 46.2912 71.3478 46.2771C71.37 46.269 71.3919 46.2604 71.4143 46.2528C71.5071 46.2213 71.6023 46.1994 71.6992 46.1853L71.6047 46.198C71.7457 46.1792 71.8871 46.1788 72.0281 46.1972L71.9336 46.1845C72.0072 46.1951 72.0795 46.2105 72.1509 46.2311C72.3296 46.2825 72.546 46.1685 72.5883 45.9827C72.6315 45.793 72.5313 45.6004 72.3399 45.5454C71.8457 45.4031 71.2993 45.4735 70.8562 45.734C70.6958 45.8282 70.6244 46.0588 70.7286 46.2204C70.8328 46.382 71.0435 46.4489 71.2151 46.348V46.348H71.2151Z" fill="black"/>
<path d="M71.5089 47.7238C71.7172 47.6821 71.9255 47.6404 72.1338 47.5988C72.2176 47.582 72.3042 47.5072 72.3462 47.4354C72.3908 47.3592 72.4097 47.2468 72.3821 47.1614C72.3542 47.0754 72.3009 46.9924 72.2187 46.9489L72.1338 46.9131C72.0707 46.8962 72.0077 46.8962 71.9447 46.9131C71.7364 46.9548 71.5281 46.9964 71.3199 47.0381C71.236 47.0548 71.1494 47.1297 71.1074 47.2015C71.0628 47.2777 71.0439 47.39 71.0715 47.4754C71.0994 47.5615 71.1527 47.6445 71.2349 47.6879L71.3199 47.7238C71.3829 47.7407 71.4459 47.7407 71.5089 47.7238V47.7238Z" fill="black"/>
<path d="M67.1754 48.3024C67.1963 48.2982 67.2173 48.2946 67.2385 48.2916L67.144 48.3043C67.2332 48.2927 67.3227 48.2931 67.412 48.3049L67.3174 48.2922C67.4065 48.3051 67.4928 48.329 67.5758 48.3639L67.4909 48.328C67.5616 48.3588 67.628 48.3969 67.6901 48.4428C67.7596 48.4942 67.8844 48.5006 67.964 48.4786C68.0465 48.4559 68.1359 48.3922 68.1765 48.3152C68.2201 48.2327 68.2419 48.1328 68.2123 48.0413L68.1765 47.9563C68.1449 47.9029 68.1024 47.8604 68.0489 47.8288C67.9904 47.7855 67.9279 47.7488 67.8615 47.7191C67.7709 47.6786 67.6793 47.641 67.5821 47.6199C67.3815 47.5764 67.1873 47.5766 66.9864 47.6167C66.9025 47.6334 66.8158 47.7083 66.7739 47.7801C66.7293 47.8563 66.7104 47.9686 66.738 48.054C66.7659 48.1401 66.8192 48.2231 66.9014 48.2665C66.9894 48.313 67.0774 48.3219 67.1754 48.3024V48.3024V48.3024Z" fill="black"/>
<path d="M67.5856 51.1494L66.608 50.907C66.4481 50.8674 66.2882 50.8277 66.1283 50.7881C65.9707 50.749 65.7939 50.6801 65.6302 50.6881C65.3728 50.7008 65.1807 50.915 65.1962 51.1725C65.2049 51.3176 65.2371 51.4679 65.2856 51.6049C65.3814 51.8753 65.5278 52.12 65.7246 52.3294C65.9461 52.5651 66.2263 52.7365 66.5322 52.8384C66.7087 52.8973 66.9284 52.7705 66.9695 52.5901C67.0142 52.3939 66.9102 52.2158 66.7212 52.1527C66.6858 52.1409 66.6508 52.1285 66.6163 52.1143C66.7018 52.1494 66.5902 52.0993 66.5749 52.0913C66.5087 52.0565 66.4471 52.0158 66.3855 51.9737C66.3537 51.9501 66.3556 51.9517 66.391 51.9784C66.3765 51.9667 66.3622 51.9548 66.3482 51.9426C66.3271 51.9243 66.3064 51.9055 66.2863 51.8861C66.2325 51.8345 66.1825 51.7791 66.1361 51.7207C66.1919 51.7909 66.1189 51.6934 66.1097 51.6796C66.0892 51.6485 66.0696 51.6168 66.0513 51.5844C66.0375 51.5601 66.0244 51.5354 66.0119 51.5105C66.0037 51.4942 65.9592 51.3822 65.9908 51.4681C65.9651 51.3981 65.9413 51.3282 65.9243 51.2554C65.9164 51.2216 65.9027 51.1807 65.9031 51.1458C65.9088 51.1933 65.9098 51.198 65.9061 51.1599C65.9077 51.0964 65.8998 51.1255 65.8825 51.2474L65.7549 51.3749C65.7036 51.3996 65.6521 51.4048 65.6002 51.3903C65.6149 51.3934 65.6296 51.3968 65.6441 51.4005C65.6811 51.4094 65.7179 51.4188 65.7548 51.428L65.9946 51.4875L66.4557 51.6018C66.7693 51.6795 67.0829 51.7573 67.3965 51.8351C67.5767 51.8797 67.7905 51.7772 67.8339 51.5867C67.8758 51.4028 67.7787 51.1973 67.5856 51.1494V51.1494L67.5856 51.1494Z" fill="black"/>
<path d="M176.143 74.6027C176.143 74.6027 178.158 70.6917 179.817 72.9435C181.476 75.1953 178.395 78.2767 177.446 78.0397C177.209 79.3434 178.513 82.6618 179.58 82.4248C179.343 83.9655 186.809 78.9878 187.757 74.8398C188.468 70.6917 185.743 69.9806 185.743 69.9806C185.743 69.9806 185.98 63.5808 183.017 62.0401C180.054 60.4994 171.639 62.3956 169.743 59.4328C167.847 56.4699 163.817 62.0401 166.306 63.4623C164.765 64.5289 165.595 66.6622 167.61 66.8992C167.373 69.8621 170.81 69.5066 172.35 69.151C173.891 68.7955 175.787 73.4176 174.721 76.6175C176.024 74.8398 176.143 74.6027 176.143 74.6027V74.6027Z" fill="black"/>
<path d="M176.603 74.8718C176.66 74.7615 176.723 74.654 176.787 74.5475C176.857 74.4307 176.93 74.3154 177.006 74.202C177.047 74.1407 177.088 74.0799 177.131 74.0197C177.153 73.9881 177.176 73.9566 177.199 73.9253C177.215 73.9036 177.303 73.7854 177.265 73.8352C177.224 73.8887 177.3 73.7913 177.312 73.7762C177.338 73.7437 177.364 73.7115 177.391 73.6795C177.45 73.6093 177.51 73.5404 177.572 73.4732C177.697 73.3388 177.828 73.2124 177.968 73.0945C178.005 73.064 178.066 73.023 177.99 73.0763C178.023 73.0529 178.056 73.0287 178.089 73.0061C178.16 72.9584 178.234 72.9143 178.31 72.8752C178.362 72.8483 178.437 72.8215 178.338 72.8574C178.374 72.8445 178.408 72.8308 178.444 72.8196C178.479 72.8085 178.515 72.8002 178.55 72.7904C178.568 72.7856 178.587 72.7844 178.604 72.7794C178.67 72.7602 178.501 72.7844 178.57 72.7832C178.606 72.7826 178.642 72.7795 178.678 72.7781C178.698 72.7773 178.818 72.7839 178.734 72.7765C178.653 72.7694 178.781 72.7867 178.809 72.7938C178.831 72.7997 178.956 72.8422 178.891 72.8165C178.824 72.7901 178.936 72.8405 178.954 72.8506C178.992 72.8713 179.027 72.8949 179.063 72.9179C179.082 72.9298 179.1 72.9432 179.118 72.9567C179.11 72.951 179.055 72.9052 179.1 72.9464C179.143 72.9854 179.186 73.024 179.226 73.0657C179.38 73.2251 179.482 73.3799 179.597 73.6088C179.618 73.6511 179.65 73.7286 179.683 73.8379C179.698 73.889 179.712 73.9407 179.724 73.9927C179.731 74.0265 179.76 74.1983 179.749 74.1105C179.762 74.2141 179.766 74.3191 179.765 74.4234C179.765 74.4756 179.763 74.5278 179.76 74.5799C179.757 74.6135 179.743 74.7467 179.747 74.7169C179.728 74.8521 179.651 75.1462 179.582 75.3355C179.528 75.4841 179.436 75.6793 179.318 75.8842C179.264 75.9764 179.208 76.0669 179.149 76.1555C179.12 76.1995 179.09 76.243 179.059 76.2861C179.045 76.3061 178.954 76.4283 179.001 76.367C178.854 76.5593 178.689 76.74 178.515 76.9083C178.436 76.984 178.355 77.0571 178.272 77.127C178.244 77.1504 178.141 77.2302 178.224 77.1675C178.179 77.2012 178.134 77.2341 178.088 77.2657C178.013 77.3169 177.936 77.3653 177.856 77.409C177.82 77.4291 177.782 77.4463 177.745 77.4661C177.642 77.5223 177.813 77.4512 177.736 77.4709C177.702 77.4797 177.669 77.4946 177.635 77.5041C177.614 77.51 177.48 77.5465 177.585 77.5207C177.682 77.497 177.582 77.514 177.557 77.5191C177.453 77.5404 177.63 77.5345 177.588 77.5253C177.329 77.4679 176.982 77.602 176.932 77.8978C176.749 78.9822 177.142 80.1534 177.587 81.1295C177.959 81.9475 178.652 83.1451 179.722 82.9389L179.066 82.2829C178.991 82.824 179.299 83.2579 179.874 83.2434C180.338 83.2317 180.801 82.9917 181.201 82.7808C182.49 82.1013 183.666 81.1561 184.729 80.1679C185.935 79.0472 187.099 77.7503 187.81 76.2511C188.54 74.7136 188.685 72.7413 187.886 71.1964C187.49 70.4304 186.742 69.6929 185.884 69.4663C186.015 69.6377 186.146 69.8091 186.276 69.9805C186.296 69.4359 186.272 68.8872 186.233 68.344C186.152 67.1765 185.984 65.9974 185.632 64.8784C185.266 63.7107 184.687 62.5647 183.68 61.8258C182.79 61.1727 181.6 61.0174 180.532 60.9132C179.201 60.7832 177.86 60.7863 176.524 60.752C175.836 60.7344 175.149 60.7105 174.464 60.6596C173.774 60.6083 173.304 60.5594 172.661 60.4292C172.384 60.373 172.108 60.3056 171.838 60.221C171.711 60.1812 171.585 60.1378 171.461 60.0897C171.421 60.0745 171.284 60.0145 171.39 60.0619C171.326 60.0332 171.262 60.0047 171.2 59.9738C171.091 59.9201 170.984 59.8619 170.881 59.7981C170.83 59.7672 170.781 59.735 170.733 59.7015C170.711 59.6868 170.691 59.6714 170.669 59.6566C170.571 59.5885 170.688 59.6735 170.656 59.6466C170.574 59.5778 170.494 59.5082 170.419 59.4314C170.38 59.3914 170.345 59.3482 170.307 59.3078C170.285 59.2841 170.232 59.2104 170.309 59.3149C170.287 59.2853 170.266 59.2555 170.245 59.2251C169.912 58.7425 169.549 58.3365 168.98 58.1387C168.526 57.9806 168.009 58.0305 167.569 58.2065C166.591 58.5972 165.814 59.4742 165.381 60.4183C164.942 61.3756 164.755 62.5613 165.465 63.4411C165.622 63.6363 165.821 63.7961 166.037 63.9227V63.0017C165.195 63.6004 164.726 64.6215 165.11 65.6335C165.517 66.7046 166.511 67.2913 167.61 67.4324C167.432 67.2547 167.254 67.0769 167.077 66.8991C167.001 67.9524 167.398 68.986 168.371 69.4893C169.198 69.9169 170.18 69.9674 171.091 69.8859C171.517 69.8478 171.943 69.7845 172.361 69.6945C172.403 69.6853 172.451 69.6792 172.492 69.6652C172.568 69.6398 172.367 69.6577 172.481 69.666C172.509 69.6681 172.558 69.6748 172.584 69.6674C172.506 69.6898 172.486 69.6422 172.59 69.6737C172.624 69.6842 172.658 69.6975 172.693 69.7071C172.758 69.725 172.596 69.6556 172.654 69.6918C172.668 69.7005 172.685 69.7056 172.699 69.7142C172.738 69.7382 172.778 69.7607 172.817 69.7849C172.832 69.7944 172.846 69.8057 172.861 69.8154C172.917 69.852 172.767 69.7287 172.856 69.8109C172.924 69.874 172.994 69.9334 173.058 70.0008C173.092 70.0367 173.125 70.0736 173.158 70.1111C173.177 70.1333 173.195 70.1561 173.214 70.1785C173.265 70.2393 173.165 70.1124 173.214 70.1773C173.364 70.3753 173.494 70.5875 173.611 70.8059C173.876 71.3009 174.045 71.7643 174.2 72.3391C174.562 73.6866 174.642 75.1416 174.207 76.4756C174.125 76.7254 174.281 77.0105 174.515 77.1048C174.778 77.2105 175.02 77.1071 175.181 76.8866C175.587 76.333 175.994 75.7793 176.381 75.2127C176.457 75.1024 176.543 74.9915 176.603 74.8718C176.734 74.6151 176.671 74.2935 176.412 74.1421C176.174 74.0031 175.813 74.0757 175.682 74.3334C175.622 74.4531 175.536 74.564 175.46 74.6743C175.073 75.2409 174.666 75.7946 174.26 76.3482L175.235 76.7592C175.657 75.4681 175.637 74.0625 175.385 72.7399C175.17 71.6098 174.764 70.4472 174.052 69.5306C173.769 69.1664 173.428 68.85 172.991 68.6842C172.596 68.5342 172.224 68.642 171.828 68.7161C171.738 68.7329 171.648 68.7484 171.558 68.7627C171.504 68.7712 171.45 68.7789 171.396 68.7869C171.516 68.7691 171.376 68.7893 171.329 68.7948C171.11 68.8204 170.89 68.8381 170.67 68.8459C170.444 68.8539 170.218 68.8516 169.993 68.8353C169.941 68.8315 169.888 68.8269 169.836 68.8215C169.795 68.8173 169.669 68.7986 169.779 68.8159C169.67 68.7988 169.562 68.78 169.455 68.7551C169.337 68.7277 169.22 68.6945 169.106 68.654C169.064 68.6392 168.935 68.5823 169.039 68.6307C168.983 68.6047 168.928 68.5786 168.873 68.5493C168.825 68.5235 168.779 68.4961 168.733 68.4669C168.706 68.4494 168.561 68.3351 168.661 68.4209C168.579 68.3504 168.508 68.2727 168.431 68.1971C168.413 68.1796 168.371 68.117 168.438 68.2096C168.422 68.1874 168.405 68.1655 168.39 68.1424C168.357 68.0889 168.323 68.0362 168.294 67.9802C168.284 67.9612 168.275 67.9418 168.265 67.9228C168.202 67.8014 168.286 67.9846 168.258 67.9092C168.235 67.8447 168.213 67.7801 168.195 67.7137C168.178 67.6516 168.165 67.5888 168.153 67.5257C168.15 67.5079 168.139 67.4228 168.15 67.5176C168.146 67.483 168.143 67.4481 168.14 67.4133C168.127 67.2419 168.131 67.0704 168.143 66.8991C168.166 66.5859 167.878 66.4003 167.61 66.3658C167.484 66.3497 167.231 66.2822 167.068 66.218C167.024 66.2009 167.079 66.2257 167.01 66.1923C166.959 66.1679 166.909 66.1422 166.86 66.1147C166.781 66.07 166.704 66.0212 166.63 65.9674C166.687 66.0089 166.612 65.9527 166.592 65.9357C166.56 65.907 166.527 65.8783 166.495 65.8482C166.458 65.8126 166.423 65.7756 166.388 65.7375C166.38 65.7289 166.296 65.6288 166.333 65.6752C166.334 65.6766 166.249 65.5518 166.221 65.5045C166.201 65.4695 166.181 65.434 166.163 65.3978C166.157 65.3866 166.1 65.2455 166.139 65.35C166.111 65.2763 166.087 65.2013 166.069 65.1247C166.06 65.0867 166.053 65.0485 166.046 65.0102C166.035 64.9494 166.043 65.0924 166.046 64.9906C166.048 64.9057 166.044 64.8213 166.048 64.7361C166.051 64.6742 166.025 64.8161 166.051 64.7169C166.061 64.6792 166.068 64.6406 166.078 64.6029C166.088 64.5649 166.1 64.5275 166.113 64.4902C166.161 64.3495 166.065 64.5747 166.134 64.4406C166.172 64.3668 166.213 64.2955 166.26 64.2273C166.349 64.0988 166.198 64.2916 166.305 64.1724C166.329 64.1458 166.353 64.1195 166.378 64.0941C166.453 64.0186 166.531 63.9541 166.575 63.9227C166.894 63.6964 166.944 63.2177 166.575 63.0017C166.526 62.9726 166.479 62.9399 166.431 62.9093C166.37 62.8706 166.504 62.974 166.451 62.9256C166.434 62.9093 166.414 62.8954 166.397 62.8786C166.359 62.8415 166.322 62.8049 166.285 62.7664C166.192 62.6686 166.307 62.8175 166.253 62.7259C166.227 62.6821 166.198 62.6408 166.174 62.5959C166.153 62.5582 166.105 62.4285 166.156 62.5708C166.122 62.4736 166.094 62.3778 166.07 62.2775C166.035 62.1355 166.067 62.3368 166.063 62.2476C166.06 62.1945 166.054 62.1418 166.052 62.0885C166.049 61.9784 166.058 61.8701 166.065 61.7605C166.075 61.6255 166.045 61.8502 166.072 61.7158C166.084 61.6594 166.094 61.6027 166.107 61.5464C166.134 61.4313 166.167 61.3175 166.205 61.2057C166.222 61.1548 166.242 61.1048 166.26 61.0544C166.311 60.9175 166.246 61.0727 166.285 60.994C166.34 60.8828 166.391 60.7706 166.451 60.662C166.509 60.5588 166.57 60.4579 166.635 60.3595C166.669 60.3074 166.705 60.2559 166.741 60.2052C166.757 60.1827 166.774 60.1607 166.79 60.1382C166.855 60.0475 166.73 60.2071 166.809 60.1152C166.96 59.9399 167.111 59.769 167.285 59.6156C167.324 59.5808 167.365 59.5481 167.405 59.5138C167.502 59.4302 167.339 59.5611 167.404 59.5139C167.425 59.4989 167.446 59.4836 167.466 59.4688C167.558 59.4039 167.653 59.3439 167.752 59.2903C167.8 59.2643 167.85 59.2428 167.898 59.217C167.975 59.1754 167.798 59.2482 167.934 59.203C168.033 59.1703 168.13 59.1433 168.231 59.1199C168.364 59.0893 168.173 59.1153 168.254 59.116C168.298 59.1164 168.342 59.1103 168.386 59.1104C168.435 59.1104 168.484 59.1169 168.533 59.1182C168.603 59.1201 168.421 59.093 168.489 59.1129C168.515 59.1206 168.543 59.1233 168.569 59.1297C168.618 59.1415 168.665 59.1592 168.713 59.173C168.822 59.2042 168.629 59.1215 168.758 59.1951C168.799 59.2186 168.839 59.2431 168.88 59.2669C168.901 59.2791 168.92 59.2952 168.94 59.3083C168.829 59.2364 168.927 59.2968 168.951 59.3187C169.032 59.3925 169.108 59.4691 169.179 59.5525C169.242 59.6269 169.189 59.5644 169.177 59.5486C169.195 59.5731 169.213 59.5979 169.23 59.6232C169.269 59.6799 169.305 59.738 169.345 59.7938C169.969 60.6729 170.981 61.1228 172.001 61.3736C173.223 61.6742 174.499 61.7488 175.752 61.795C177.054 61.8431 178.357 61.8389 179.658 61.9136C179.958 61.9308 180.258 61.9527 180.557 61.9823C180.695 61.996 180.833 62.0121 180.971 62.0289C180.992 62.0314 181.077 62.0434 180.971 62.0287C181.002 62.033 181.034 62.0374 181.065 62.042C181.141 62.0532 181.217 62.0652 181.294 62.078C181.544 62.1204 181.793 62.1718 182.038 62.2386C182.147 62.2686 182.256 62.3014 182.364 62.3384C182.412 62.355 182.46 62.3724 182.508 62.3908C182.532 62.3997 182.555 62.4096 182.578 62.4183C182.697 62.4627 182.476 62.3657 182.587 62.4225C182.68 62.47 182.774 62.5123 182.865 62.5647C182.916 62.5943 182.966 62.6255 183.015 62.6581C183.04 62.6744 183.212 62.8021 183.122 62.7307C183.328 62.8936 183.508 63.0826 183.677 63.2835C183.694 63.3038 183.755 63.3853 183.692 63.3017C183.711 63.3262 183.729 63.3507 183.747 63.3758C183.782 63.4264 183.818 63.4768 183.852 63.5284C183.931 63.6461 184.004 63.7673 184.072 63.8909C184.138 64.01 184.2 64.1314 184.258 64.2545C184.286 64.3132 184.313 64.3724 184.339 64.4318C184.349 64.4542 184.39 64.5535 184.352 64.4622C184.368 64.5002 184.383 64.5382 184.398 64.5764C184.607 65.1096 184.761 65.664 184.879 66.224C184.94 66.5094 184.991 66.7968 185.034 67.0853C185.043 67.1475 185.052 67.2097 185.061 67.272C185.045 67.1592 185.067 67.3214 185.072 67.3599C185.089 67.4934 185.104 67.6271 185.117 67.7609C185.188 68.4624 185.225 69.1705 185.212 69.8758C185.211 69.9107 185.211 69.9456 185.209 69.9806C185.201 70.2112 185.381 70.4367 185.601 70.4948C185.645 70.5064 185.687 70.5238 185.729 70.5383C185.823 70.5699 185.727 70.577 185.679 70.5159C185.691 70.5309 185.736 70.5404 185.755 70.5497C185.82 70.5826 185.886 70.6146 185.95 70.651C186.02 70.6908 186.088 70.7336 186.154 70.779C186.191 70.8043 186.226 70.8319 186.263 70.8572C186.114 70.7546 186.277 70.8709 186.311 70.9004C186.391 70.9691 186.466 71.0419 186.538 71.1184C186.577 71.1595 186.614 71.2017 186.651 71.2449C186.67 71.2673 186.688 71.2902 186.706 71.3128C186.731 71.3436 186.721 71.3312 186.678 71.2758C186.692 71.2954 186.707 71.3151 186.721 71.3349C186.793 71.4421 186.864 71.5491 186.926 71.6626C186.96 71.7232 186.99 71.7854 187.021 71.8473C187.033 71.8728 187.044 71.8993 187.056 71.9252C187.001 71.805 187.078 71.9804 187.086 72.003C187.142 72.1523 187.188 72.3052 187.225 72.46C187.246 72.5437 187.264 72.628 187.279 72.7127C187.285 72.7479 187.291 72.7832 187.297 72.8185C187.306 72.883 187.308 72.8904 187.301 72.8405C187.305 72.8685 187.308 72.8966 187.311 72.9248C187.389 73.7255 187.339 74.5511 187.06 75.31C187.032 75.384 187.004 75.4576 186.973 75.5305C187.013 75.4339 186.925 75.6367 186.91 75.6685C186.833 75.834 186.749 75.9965 186.661 76.1561C186.483 76.476 186.284 76.7843 186.072 77.0826C185.845 77.4017 185.682 77.6072 185.412 77.9233C185.158 78.2214 184.892 78.5099 184.617 78.7898C184.09 79.326 183.532 79.8314 182.95 80.3056C182.649 80.5499 182.495 80.6691 182.171 80.9034C181.911 81.0912 181.646 81.2724 181.375 81.444C181.118 81.6066 180.856 81.7615 180.585 81.9002C180.475 81.9565 180.362 82.006 180.25 82.0593C180.151 82.1066 180.372 82.0159 180.271 82.0502C180.245 82.0589 180.22 82.0704 180.194 82.08C180.147 82.0977 180.099 82.1146 180.051 82.1297C180.007 82.1432 179.964 82.1557 179.92 82.1661C179.888 82.1734 179.759 82.2117 179.874 82.1789C179.981 82.1483 179.875 82.1721 179.842 82.178C179.726 82.1985 179.873 82.1854 179.884 82.1883C179.772 82.1579 180 82.2533 179.933 82.2128C179.983 82.2431 180.038 82.2985 180.064 82.3447C180.109 82.4211 180.101 82.4138 180.109 82.5259C180.105 82.4707 180.123 82.3558 180.094 82.5664C180.151 82.1536 179.87 81.8272 179.438 81.9104C179.344 81.9286 179.584 81.8977 179.438 81.9025C179.49 81.9008 179.563 81.9165 179.466 81.9028C179.422 81.8967 179.352 81.8452 179.478 81.9148C179.444 81.8964 179.41 81.8783 179.376 81.8604C179.345 81.8438 179.246 81.7589 179.355 81.8514C179.326 81.8267 179.296 81.8025 179.268 81.7765C179.197 81.7104 179.133 81.6381 179.07 81.5642C178.997 81.4787 179.117 81.6325 179.042 81.5296C179.015 81.4912 178.987 81.4529 178.961 81.4137C178.895 81.3172 178.834 81.2179 178.776 81.1168C178.66 80.9142 178.556 80.704 178.462 80.4899C178.441 80.4406 178.4 80.3393 178.358 80.2268C178.315 80.1123 178.275 79.9969 178.237 79.8806C178.164 79.6543 178.101 79.4246 178.05 79.1922C177.993 78.9318 177.978 78.8393 177.962 78.6462C177.954 78.545 177.95 78.4434 177.952 78.3419C177.953 78.3019 177.956 78.2622 177.958 78.2223C177.963 78.0651 177.946 78.2687 177.961 78.1814C177.742 78.3056 177.524 78.4297 177.305 78.5539C178.138 78.7384 178.977 77.9969 179.492 77.4337C180.228 76.6288 180.801 75.5868 180.831 74.4757C180.861 73.399 180.224 72.1016 179.129 71.7755C178.232 71.5086 177.38 72.106 176.804 72.7347C176.368 73.2101 175.979 73.7592 175.683 74.3335C175.368 74.9424 176.288 75.4825 176.604 74.8718L176.603 74.8718Z" fill="black"/>
<path d="M166.068 69.5589C166.081 69.5564 166.093 69.5543 166.106 69.5526L166.012 69.5653C166.076 69.5575 166.139 69.5578 166.203 69.5653L166.109 69.5526C166.193 69.5644 166.273 69.5875 166.352 69.6197L166.267 69.5839C166.368 69.6279 166.461 69.6859 166.549 69.7533L166.477 69.6977C166.61 69.8019 166.727 69.9233 166.842 70.0461C166.969 70.1821 167.218 70.1845 167.345 70.0461C167.478 69.9004 167.481 69.6884 167.345 69.5433C167.17 69.3568 166.986 69.1725 166.765 69.0405C166.648 68.9707 166.516 68.9135 166.384 68.8825C166.212 68.8425 166.051 68.8421 165.879 68.8732C165.796 68.8882 165.708 68.9662 165.666 69.0366C165.622 69.1128 165.603 69.2251 165.631 69.3106C165.658 69.3966 165.712 69.4796 165.794 69.523C165.883 69.57 165.969 69.5767 166.068 69.5589V69.5589H166.068Z" fill="black"/>
<path d="M169.432 71.0186L169.449 71.0159L169.355 71.0286C169.462 71.0143 169.568 71.0147 169.675 71.0286L169.58 71.0159C169.669 71.0288 169.756 71.05 169.84 71.0809C169.927 71.1131 169.782 71.0525 169.838 71.0788C169.859 71.0891 169.881 71.099 169.902 71.11C169.939 71.1291 169.975 71.1501 170.01 71.1729C170.03 71.1859 170.049 71.1999 170.069 71.2135C170.125 71.2523 170.002 71.1569 170.053 71.2017C170.089 71.2332 170.125 71.2643 170.158 71.2988C170.17 71.3117 170.182 71.3248 170.194 71.3382C170.215 71.3622 170.252 71.4297 170.194 71.3356C170.219 71.3763 170.249 71.4138 170.272 71.4553C170.365 71.6167 170.598 71.6863 170.759 71.5829C170.922 71.4778 170.985 71.2691 170.886 71.0964C170.735 70.8323 170.497 70.6069 170.221 70.4761C170.082 70.4103 169.939 70.3567 169.787 70.3327C169.599 70.3031 169.431 70.3045 169.243 70.3328C169.161 70.3452 169.07 70.4279 169.03 70.4962C168.986 70.5724 168.967 70.6848 168.994 70.7702C169.022 70.8562 169.076 70.9392 169.158 70.9827C169.248 71.0303 169.332 71.0336 169.432 71.0185V71.0185L169.432 71.0186Z" fill="black"/>
<path d="M169.021 72.6649C169.113 72.7058 169.152 72.7203 169.254 72.7277C169.305 72.7315 169.358 72.7224 169.408 72.7103C169.505 72.6867 169.6 72.6283 169.67 72.5584C169.739 72.4902 169.801 72.3915 169.821 72.2956C169.841 72.1958 169.838 72.1496 169.823 72.051C169.815 72.0011 169.791 71.9543 169.77 71.9092C169.727 71.8183 169.646 71.7484 169.565 71.693C169.477 71.6328 169.376 71.6122 169.273 71.6016C169.168 71.5909 169.069 71.624 168.976 71.6683C168.884 71.7121 168.813 71.7935 168.757 71.8756C168.727 71.9187 168.707 71.9733 168.69 72.0205C168.67 72.0728 168.666 72.1326 168.66 72.1867C168.655 72.2403 168.666 72.2975 168.674 72.3491C168.683 72.4035 168.708 72.455 168.731 72.5042C168.754 72.5457 168.784 72.5789 168.823 72.604C168.857 72.6354 168.898 72.6566 168.944 72.6676C168.991 72.6824 169.038 72.6846 169.086 72.674C169.133 72.6718 169.177 72.6578 169.218 72.6318C169.294 72.5828 169.361 72.5099 169.381 72.4193L169.394 72.3248C169.394 72.2606 169.378 72.2008 169.345 72.1453C169.344 72.1419 169.342 72.1385 169.341 72.135L169.377 72.2199C169.368 72.1988 169.362 72.1771 169.359 72.1545L169.372 72.249C169.369 72.2244 169.369 72.2 169.373 72.1755L169.36 72.27C169.364 72.2455 169.37 72.2219 169.379 72.199L169.344 72.2839C169.353 72.2614 169.366 72.2404 169.38 72.221L169.325 72.2929C169.338 72.2769 169.352 72.2626 169.368 72.25L169.296 72.3056C169.312 72.2944 169.328 72.2851 169.345 72.2777L169.26 72.3135C169.276 72.3074 169.291 72.3031 169.308 72.3005L169.213 72.3132C169.233 72.3106 169.253 72.3105 169.273 72.3128L169.179 72.3001C169.202 72.3033 169.225 72.3096 169.247 72.3189L169.162 72.2831C169.183 72.2921 169.202 72.3032 169.219 72.3167L169.147 72.2611C169.163 72.2737 169.177 72.2876 169.189 72.3034L169.134 72.2315C169.144 72.246 169.153 72.2613 169.16 72.2779L169.124 72.193C169.13 72.2083 169.135 72.2238 169.137 72.2401L169.124 72.1456C169.126 72.1606 169.126 72.1752 169.124 72.1902L169.137 72.0957C169.134 72.1123 169.13 72.1281 169.123 72.1436L169.159 72.0586C169.152 72.0758 169.142 72.0916 169.131 72.1065L169.186 72.0345C169.174 72.0493 169.161 72.0624 169.146 72.0743L169.218 72.0187C169.202 72.0313 169.184 72.0417 169.165 72.05L169.25 72.0142C169.233 72.0211 169.216 72.026 169.197 72.0286L169.292 72.0159C169.277 72.0175 169.263 72.0176 169.249 72.0161L169.343 72.0288C169.328 72.0267 169.314 72.0229 169.3 72.0174L169.385 72.0532L169.38 72.0509C169.339 72.0249 169.295 72.0109 169.248 72.0087C169.201 71.9982 169.154 72.0003 169.106 72.0151C169.06 72.0261 169.02 72.0473 168.985 72.0787C168.947 72.1038 168.916 72.137 168.894 72.1785C168.85 72.261 168.828 72.3609 168.858 72.4524L168.894 72.5374C168.925 72.5908 168.968 72.6333 169.021 72.6649V72.6649V72.6649Z" fill="black"/>
<path d="M165.127 70.6361C165.136 70.6502 165.144 70.6647 165.151 70.68L165.115 70.5951C165.126 70.6221 165.134 70.6499 165.138 70.6789L165.125 70.5844C165.129 70.6135 165.129 70.6425 165.125 70.6717L165.138 70.5772C165.134 70.6083 165.126 70.6383 165.114 70.6674L165.149 70.5824C165.139 70.6073 165.125 70.6305 165.109 70.6521L165.164 70.5801C165.154 70.5932 165.143 70.6053 165.13 70.6167L165.476 70.5252L165.47 70.5228L165.555 70.5587C165.527 70.5466 165.5 70.5313 165.475 70.5127L165.547 70.5683C165.525 70.5507 165.504 70.531 165.487 70.5086L165.542 70.5805C165.526 70.5599 165.513 70.538 165.503 70.514L165.539 70.599C165.531 70.5791 165.526 70.5588 165.523 70.5375L165.536 70.632C165.534 70.6153 165.534 70.5988 165.536 70.582L165.523 70.6765C165.525 70.6607 165.529 70.6456 165.535 70.6306L165.499 70.7156C165.506 70.6989 165.515 70.6835 165.526 70.6689L165.47 70.7408C165.483 70.725 165.497 70.7109 165.512 70.6985L165.44 70.7541C165.455 70.7435 165.47 70.7347 165.486 70.7276L165.401 70.7635C165.415 70.7578 165.43 70.7539 165.445 70.7517L165.351 70.7644C165.364 70.7631 165.377 70.7632 165.39 70.7649L165.296 70.7522C165.307 70.7542 165.318 70.7573 165.329 70.7617C165.376 70.7765 165.424 70.7786 165.471 70.768C165.518 70.7659 165.562 70.7518 165.603 70.7259C165.645 70.7035 165.678 70.673 165.703 70.6343C165.734 70.5999 165.755 70.5596 165.766 70.5134C165.787 70.4224 165.783 70.3202 165.731 70.2394L165.675 70.1675C165.631 70.1234 165.578 70.0929 165.518 70.076C165.433 70.042 165.338 70.051 165.25 70.0668C165.193 70.0773 165.134 70.1029 165.086 70.1365C165.008 70.1914 164.954 70.2427 164.902 70.3248C164.878 70.3619 164.861 70.4081 164.847 70.4472C164.837 70.4758 164.835 70.5044 164.831 70.5347C164.827 70.5662 164.822 70.5944 164.824 70.6257C164.827 70.669 164.832 70.7201 164.845 70.764C164.862 70.8225 164.888 70.8841 164.924 70.9342C164.95 70.9701 164.978 71.0087 165.01 71.0408C165.041 71.0725 165.082 71.1012 165.116 71.1267C165.168 71.165 165.227 71.1869 165.287 71.2109C165.35 71.2278 165.413 71.2278 165.476 71.2109C165.536 71.194 165.589 71.1635 165.633 71.1195C165.668 71.0869 165.696 71.0466 165.724 71.0084C165.736 70.9926 165.747 70.976 165.756 70.9583C165.777 70.9143 165.798 70.8684 165.812 70.8212C165.822 70.7878 165.825 70.7534 165.83 70.7189C165.835 70.6843 165.84 70.6504 165.839 70.6155C165.837 70.5661 165.83 70.5167 165.82 70.4683C165.816 70.4489 165.81 70.4302 165.803 70.4118C165.786 70.367 165.768 70.3185 165.741 70.2772C165.692 70.1999 165.619 70.1385 165.529 70.1138C165.482 70.099 165.434 70.0968 165.387 70.1074C165.34 70.1096 165.296 70.1236 165.255 70.1496C165.179 70.1986 165.112 70.2714 165.091 70.3621C165.071 70.4533 165.075 70.555 165.127 70.6361V70.6361L165.127 70.6361Z" fill="black"/>
<path d="M167.119 75.9931C167.88 76.0643 168.66 75.9681 169.382 75.7163C169.557 75.6551 169.692 75.4702 169.63 75.2789C169.574 75.1057 169.381 74.965 169.193 75.0306C168.502 75.2718 167.852 75.3506 167.119 75.282C166.934 75.2646 166.756 75.458 166.764 75.6376C166.773 75.845 166.921 75.9745 167.119 75.9931V75.9931H167.119Z" fill="black"/>
<path d="M169.257 75.736C169.715 75.736 169.715 75.0249 169.257 75.0249C168.799 75.0249 168.799 75.736 169.257 75.736V75.736Z" fill="black"/>
<path d="M168.91 75.6385C168.908 75.6738 168.904 75.7089 168.9 75.7439L168.912 75.6494C168.903 75.7162 168.888 75.7821 168.869 75.8466C168.859 75.8775 168.848 75.9077 168.837 75.938C168.815 75.9959 168.874 75.8583 168.845 75.9179C168.839 75.9311 168.833 75.9445 168.826 75.9577C168.797 76.0184 168.762 76.0768 168.724 76.1325C168.716 76.1447 168.707 76.1564 168.698 76.1685C168.674 76.2033 168.754 76.1008 168.716 76.1456C168.694 76.1728 168.671 76.1998 168.647 76.2257C168.603 76.2731 168.555 76.3165 168.505 76.3582C168.453 76.4017 168.577 76.3071 168.521 76.3457C168.509 76.354 168.498 76.3628 168.485 76.3711C168.459 76.3894 168.432 76.4067 168.404 76.4229C168.373 76.4407 168.342 76.4572 168.311 76.4725C168.297 76.4788 168.284 76.4847 168.271 76.4908C168.232 76.5087 168.354 76.4589 168.299 76.4784C168.232 76.502 168.165 76.5227 168.096 76.5368C167.913 76.5738 167.791 76.8001 167.847 76.9741C167.91 77.1678 168.089 77.2621 168.285 77.2225C169.026 77.0723 169.578 76.3818 169.621 75.6385C169.631 75.4525 169.45 75.2747 169.265 75.283C169.063 75.292 168.921 75.4393 168.91 75.6385V75.6385L168.91 75.6385Z" fill="black"/>
<path d="M168.131 76.1566L168.139 76.1668L168.083 76.0948C168.159 76.1941 168.222 76.3021 168.272 76.4172L168.236 76.3322C168.286 76.4517 168.32 76.5764 168.338 76.7048L168.374 76.7897L168.429 76.8617C168.485 76.9173 168.556 76.9491 168.633 76.9595C168.698 76.9682 168.757 76.9607 168.818 76.9352C168.892 76.9038 168.942 76.8569 168.988 76.7897C169.066 76.6761 169.147 76.564 169.221 76.4483C169.33 76.2797 169.381 76.0894 169.34 75.8908C169.319 75.7924 169.265 75.6983 169.196 75.6263C169.105 75.532 168.984 75.4852 168.855 75.4777C168.761 75.4723 168.654 75.5015 168.575 75.5515C168.476 75.6136 168.382 75.7213 168.363 75.84C168.348 75.8873 168.346 75.9345 168.357 75.9818C168.359 76.0291 168.373 76.0732 168.399 76.114C168.442 76.1877 168.526 76.2581 168.611 76.2774C168.702 76.2981 168.804 76.2936 168.885 76.2415C168.958 76.1946 169.034 76.1185 169.049 76.029C169.05 76.0202 169.052 76.0125 169.055 76.004L169.019 76.089C169.022 76.0811 169.026 76.0743 169.031 76.067L168.975 76.139C168.982 76.1299 168.99 76.1223 168.999 76.115L168.927 76.1706C168.936 76.1637 168.946 76.1581 168.956 76.153L168.871 76.1889C168.885 76.1832 168.899 76.1794 168.914 76.1769L168.819 76.1896C168.834 76.188 168.849 76.1881 168.864 76.1899L168.769 76.1772C168.781 76.1794 168.792 76.1825 168.803 76.1869L168.718 76.1511C168.73 76.1567 168.74 76.1633 168.75 76.1712L168.678 76.1156C168.689 76.1244 168.698 76.1337 168.706 76.1442L168.65 76.0723C168.66 76.0861 168.669 76.1002 168.675 76.1157L168.64 76.0308C168.647 76.0502 168.653 76.0695 168.656 76.0901L168.643 75.9956C168.646 76.02 168.646 76.0436 168.644 76.0681L168.657 75.9736C168.652 76.0069 168.642 76.0384 168.629 76.0694L168.665 75.9845C168.631 76.0623 168.58 76.131 168.532 76.2009C168.479 76.2775 168.426 76.3542 168.374 76.4309C168.59 76.4592 168.807 76.4875 169.024 76.5158C169.001 76.3549 168.95 76.2069 168.886 76.0583C168.821 75.9094 168.733 75.7813 168.634 75.6539C168.581 75.5872 168.462 75.5497 168.382 75.5497C168.295 75.5497 168.191 75.5885 168.131 75.6539C168.069 75.7216 168.022 75.8106 168.027 75.9053L168.039 75.9998C168.056 76.06 168.087 76.1123 168.131 76.1567V76.1567L168.131 76.1566Z" fill="black"/>
<path d="M144.596 48.3042C145.695 47.7122 146.794 47.1201 147.893 46.528C148.138 46.3955 148.236 46.0346 148.084 45.7983C147.923 45.5486 147.617 45.4652 147.354 45.607C146.255 46.1991 145.157 46.7911 144.058 47.3832C143.812 47.5158 143.714 47.8766 143.867 48.1129C144.028 48.3626 144.333 48.446 144.596 48.3042V48.3042Z" fill="#00727A"/>
<path d="M146.582 56.1378C147.08 56.3371 147.578 56.5363 148.076 56.7355C148.196 56.7836 148.38 56.7442 148.487 56.6817C148.597 56.617 148.703 56.4902 148.732 56.363C148.763 56.2265 148.756 56.0732 148.678 55.9521C148.598 55.8282 148.496 55.7614 148.359 55.707C147.861 55.5077 147.363 55.3085 146.865 55.1093C146.745 55.0612 146.561 55.1006 146.454 55.1631C146.344 55.2278 146.238 55.3546 146.209 55.4818C146.178 55.6183 146.185 55.7716 146.263 55.8927C146.343 56.0167 146.446 56.0834 146.582 56.1378V56.1378Z" fill="#00727A"/>
<path d="M139.915 42.4752V45.1646C139.915 45.4436 140.16 45.7109 140.448 45.698C140.737 45.685 140.982 45.4636 140.982 45.1646V42.4752C140.982 42.1962 140.736 41.9289 140.448 41.9419C140.159 41.9548 139.915 42.1762 139.915 42.4752V42.4752Z" fill="#00727A"/>
<path d="M9.07933 57.1395C8.3688 58.7364 8.4816 60.5262 9.22382 62.0923C9.91785 63.5567 11.2949 64.9002 12.9216 65.2421C13.8439 65.4359 15.1095 65.2279 15.3637 64.1554C15.435 63.8545 15.2691 63.6055 14.9912 63.4994C14.4837 63.3055 13.9954 63.6359 13.7457 64.0659C13.5094 64.4728 13.4684 64.935 13.4442 65.3949C13.3965 66.3059 13.4955 67.2297 13.7106 68.1156C14.1412 69.888 15.073 71.5503 16.3542 72.8476C17.0744 73.5769 17.9145 74.1959 18.832 74.6534C19.0897 74.7819 19.4096 74.7222 19.5617 74.4621C19.6999 74.2259 19.6292 73.8614 19.3704 73.7324C16.5981 72.35 14.6935 69.4219 14.5141 66.3526C14.4888 65.9197 14.4953 65.4847 14.5358 65.0529C14.5502 64.8992 14.5766 64.7595 14.6667 64.6043C14.6868 64.5697 14.7091 64.5372 14.7315 64.504C14.6924 64.562 14.7837 64.4484 14.7466 64.4949C14.708 64.5433 14.848 64.4358 14.7415 64.4998C14.7051 64.5217 14.5923 64.4838 14.7076 64.5279C14.5835 64.3092 14.4593 64.0905 14.3351 63.8719C14.3269 63.9066 14.3192 63.9424 14.307 63.9761C14.3369 63.8937 14.2986 63.9906 14.2842 64.0107C14.2348 64.0803 14.3348 63.9594 14.2778 64.0222C14.2553 64.0469 14.2317 64.0701 14.2066 64.0921C14.1435 64.1471 14.2655 64.055 14.1929 64.0992C14.1558 64.1218 14.1188 64.1436 14.0796 64.1623C14.145 64.1311 13.9559 64.2008 13.9268 64.2081C13.8215 64.2347 13.8175 64.2343 13.7596 64.2393C13.682 64.2459 13.6039 64.248 13.526 64.2466C13.3263 64.243 13.2866 64.2374 13.0951 64.1876C12.479 64.0276 11.8789 63.6814 11.4138 63.2672C10.8869 62.7979 10.5145 62.2973 10.1977 61.6624C9.93211 61.1303 9.72329 60.4022 9.67574 59.8311C9.66005 59.6426 9.65408 59.4534 9.65862 59.2643C9.6628 59.0902 9.68199 58.8548 9.69755 58.7535C9.72777 58.557 9.77091 58.3622 9.82591 58.1711C9.87384 58.0046 9.95203 57.7865 10.0004 57.6779C10.1174 57.4149 10.0768 57.1048 9.80905 56.9482C9.58172 56.8152 9.19706 56.875 9.07937 57.1395V57.1395H9.07933Z" fill="#FFAD9D"/>
<path d="M14.2008 79.1476C14.6989 79.3468 15.1969 79.546 15.695 79.7453C15.8151 79.7933 15.9992 79.7539 16.1059 79.6915C16.2166 79.6268 16.3221 79.4999 16.351 79.3728C16.3821 79.2362 16.3754 79.083 16.2973 78.9618C16.2174 78.8379 16.1146 78.7712 15.9786 78.7167C15.4805 78.5175 14.9825 78.3183 14.4844 78.1191C14.3643 78.071 14.1802 78.1104 14.0734 78.1728C13.9628 78.2376 13.8573 78.3644 13.8284 78.4916C13.7972 78.6281 13.804 78.7813 13.8821 78.9025C13.962 79.0264 14.0647 79.0932 14.2008 79.1476V79.1476Z" fill="#FFAD9D"/>
<path d="M29.2008 45.6051C29.4 45.0074 29.5992 44.4098 29.7984 43.8121C29.8867 43.5472 29.6965 43.2177 29.4259 43.1561C29.1316 43.089 28.8644 43.245 28.7699 43.5286C28.5707 44.1262 28.3715 44.7239 28.1722 45.3216C28.084 45.5864 28.2741 45.916 28.5447 45.9776C28.8391 46.0446 29.1063 45.8887 29.2008 45.6051V45.6051Z" fill="#FFAD9D"/>
<path d="M33.737 50.1078C34.5338 49.7094 35.3307 49.3109 36.1276 48.9125C36.3777 48.7875 36.468 48.414 36.3189 48.1828C36.154 47.9271 35.8567 47.8577 35.5892 47.9915C34.7924 48.3899 33.9955 48.7884 33.1986 49.1868C32.9485 49.3118 32.8582 49.6853 33.0073 49.9165C33.1722 50.1722 33.4695 50.2415 33.737 50.1078V50.1078V50.1078Z" fill="#FFAD9D"/>
<path d="M19.2607 45.1349C19.46 45.4337 19.6592 45.7325 19.8584 46.0313C19.9356 46.1472 20.04 46.2387 20.1771 46.2764C20.3048 46.3116 20.4748 46.2957 20.5881 46.2227C20.7019 46.1493 20.8022 46.0399 20.8332 45.904C20.864 45.7687 20.8589 45.6123 20.7794 45.493C20.5802 45.1942 20.381 44.8953 20.1818 44.5965C20.1045 44.4806 20.0002 44.3892 19.863 44.3514C19.7354 44.3163 19.5654 44.3321 19.4521 44.4052C19.3382 44.4786 19.238 44.5879 19.207 44.7239C19.1762 44.8591 19.1812 45.0156 19.2607 45.1349V45.1349Z" fill="#FFAD9D"/>
</svg>
