<svg width="228" height="159" viewBox="0 0 228 159" fill="none" xmlns="http://www.w3.org/2000/svg">
<path d="M117.466 32.805C103.464 23.8093 90.9859 9.95623 76.9837 0.960449L77.6928 20.2348L58.0317 12.177L67.7011 29.1951L46.3639 34.6745L56.2912 45.5042L40.0466 50.4034L47.3953 58.01L35.6631 68.324L95.1622 81.1521L120.572 63.3974L117.466 32.805L117.466 32.805Z" fill="#FFAD9D"/>
<path d="M126.998 59.6863L92.6614 79.5183L84.5334 52.8845C84.2092 51.8221 84.6607 50.6765 85.6225 50.1209L115.716 32.7397C117.046 31.9716 118.745 32.641 119.193 34.1098L126.998 59.6863L126.998 59.6863Z" fill="#00727A"/>
<path d="M126.126 66.4132L79.6938 93.2311C78.2204 94.0821 76.3469 93.2334 76.0149 91.5646L75.9283 91.1293C75.7206 90.0856 76.2008 89.0256 77.1223 88.4934L126.998 59.6865L127.736 62.6004C128.112 64.0884 127.455 65.6455 126.126 66.4132H126.126Z" fill="#00727A"/>
<path d="M109.269 53.6105C109.645 52.9451 110.015 52.179 110.095 51.6297C108.27 51.365 107.714 52.9132 107.52 53.7297C107.486 53.7387 107.451 53.7466 107.417 53.7564C107.405 53.7598 107.393 53.764 107.381 53.7676C106.785 53.1758 105.497 52.1566 104.087 53.3436C104.44 53.7629 105.146 54.2122 105.809 54.577C104.36 55.7164 103.664 57.6573 104.201 59.5391C104.91 62.0239 107.499 63.4635 109.984 62.7546C112.469 62.0457 113.908 59.4567 113.199 56.9719C112.668 55.1086 111.079 53.833 109.269 53.6105V53.6105Z" fill="#00BEAA"/>
<path d="M82.6138 53.8222C80.5916 54.982 78.5694 56.1418 76.5473 57.3015C73.9029 58.8182 71.2585 60.3348 68.6142 61.8514C68.321 62.0195 68.0281 62.218 67.696 62.2962C66.2286 62.6421 65.1642 60.8881 66.1558 59.7471C66.6082 59.2266 66.1696 58.4949 65.5006 58.6215C64.0479 58.8965 63.0679 57.1526 64.0313 56.0428C64.4833 55.5222 64.0454 54.7906 63.3761 54.9173C61.6514 55.2437 60.8437 52.9172 62.2998 52.0231C63.0373 51.5703 62.3749 50.4272 61.62 50.8601C59.7167 51.9517 57.8135 53.0432 55.9103 54.1348C55.1755 54.5562 54.3126 55.257 53.4173 55.0223C52.5158 54.786 52.0077 53.7977 52.3729 52.9277C52.5267 52.5613 52.8101 52.3212 53.1361 52.116C57.0074 49.6803 60.8597 47.2138 64.7213 44.7627C66.193 43.8286 67.6648 42.8944 69.1366 41.9603C69.3622 41.8171 69.5618 41.4762 69.4461 41.1998C69.1477 40.4869 68.8493 39.774 68.5508 39.0612C68.2175 38.2648 67.7104 37.3869 67.8259 36.4975C68.0169 35.0267 69.5191 34.1137 70.9248 34.5833C71.7038 34.8436 72.2591 35.6053 72.8058 36.1824C73.4165 36.827 74.0272 37.4716 74.6378 38.1162C74.8211 38.3096 75.2258 38.3972 75.4539 38.2215C76.4484 37.4554 77.4667 36.7189 78.4864 35.987C81.1175 34.0983 83.7959 32.2751 86.5114 30.5101C90.2962 28.05 94.1563 25.7037 98.098 23.5032C102.53 21.0288 107.068 18.7331 111.736 16.7353C116.288 14.7871 120.99 13.1174 125.823 12.0184C130.136 11.0376 134.622 10.5081 139.035 11.0483C140.93 11.2802 142.916 11.7718 144.714 12.5296C146.821 13.4176 148.781 14.8055 150.511 16.3576C154.908 20.3004 157.804 25.614 158.162 31.557C158.483 36.8857 156.95 42.2005 154.393 46.8428C152.102 51.0032 148.927 54.9095 144.933 57.5415C144.105 58.0872 143.238 58.5733 142.331 58.9759C141.54 59.3269 142.225 60.4878 143.011 60.1389C147.293 58.2374 150.787 54.6454 153.457 50.8737C156.602 46.4308 158.781 41.2204 159.392 35.7935C160.035 30.08 158.648 24.2869 155.263 19.612C152.212 15.3972 147.91 11.9071 142.863 10.4584C138.627 9.24223 134.131 9.30697 129.801 9.91552C124.898 10.6046 120.114 12.0364 115.491 13.7812C110.617 15.6207 105.886 17.8301 101.275 20.2505C97.0164 22.4863 92.8559 24.908 88.7815 27.4635C85.6269 29.442 82.5222 31.5011 79.4744 33.6404C77.9553 34.7067 76.4458 35.7888 74.9674 36.9111C74.9029 36.9601 74.8383 37.0091 74.7742 37.0585C75.0462 37.0936 75.3182 37.1287 75.5903 37.1638C74.99 36.5302 74.3897 35.8966 73.7895 35.263C73.0405 34.4724 72.3596 33.6377 71.2829 33.2846C69.6219 32.7398 67.7043 33.5199 66.8976 35.0704C66.4881 35.8574 66.3679 36.7541 66.5549 37.6215C66.637 38.0024 66.8088 38.3602 66.9586 38.7181C67.3549 39.6647 67.7511 40.6113 68.1474 41.5579C68.2505 41.3043 68.3537 41.0509 68.4569 40.7973C64.6392 43.2205 60.8215 45.6436 57.0038 48.0668C55.4759 49.0366 53.9529 50.0147 52.4198 50.9763C50.8879 51.9372 50.384 53.9647 51.6023 55.4116C52.312 56.2544 53.4939 56.5871 54.5523 56.3343C54.9757 56.2332 55.3427 56.0133 55.7147 55.7999C57.9097 54.541 60.1048 53.2821 62.2998 52.0232L61.62 50.8602C60.4402 51.5846 59.8411 53.0411 60.3384 54.3692C60.8652 55.7763 62.2852 56.4903 63.7342 56.2161C63.5158 55.8409 63.2974 55.4657 63.079 55.0905C62.2301 56.0684 62.0151 57.4669 62.7127 58.5995C63.3839 59.6893 64.6264 60.1536 65.8587 59.9203C65.6403 59.5451 65.4219 59.17 65.2035 58.7948C64.1874 59.9639 64.1284 61.7512 65.2831 62.8659C66.2415 63.7911 67.6813 63.9032 68.829 63.2811C69.5955 62.8657 70.3437 62.4123 71.0999 61.9786C74.2979 60.1445 77.4959 58.3104 80.6939 56.4762C81.5605 55.9792 82.427 55.4822 83.2936 54.9852C84.0453 54.5541 83.3677 53.3899 82.6138 53.8222V53.8222V53.8222Z" fill="black"/>
<path d="M46.2975 51.4453C50.5325 51.8119 54.985 50.8152 58.3338 48.1047C61.2748 45.7243 62.706 42.2309 62.8597 38.5099C63.1259 32.0626 59.8818 25.2724 54.3704 21.8065C51.3342 19.8971 47.7196 19.1953 44.1767 19.6543C40.0585 20.1879 35.3901 21.9728 32.9778 25.5158C30.1627 29.6506 30.2659 35.1109 30.9656 39.8521C31.3423 42.4045 31.9109 44.9182 32.6577 47.3871C33.4555 50.0244 34.4085 52.6675 34.7051 55.4225C35.3296 61.2223 32.0277 65.8151 28.0109 69.6139C24.0302 73.3786 19.6891 76.7462 15.6998 80.5061C8.11967 87.6503 1.51183 96.4783 0.476927 107.172C-0.431323 116.557 3.75998 126.254 11.507 131.711C19.816 137.563 31.2994 137.175 39.3386 131.059C47.5682 124.797 51.3889 114.817 55.4511 105.688C57.6726 100.696 60.0687 95.2316 63.8312 91.1797C65.6237 89.2493 68.1301 88.039 70.5076 89.7263C72.1143 90.8665 73.1742 93.093 75.5068 92.2153C77.3464 91.5231 77.865 89.2509 76.7458 87.7246L75.6882 88.5407C78.2107 91.1499 82.3349 87.7901 80.1636 84.838L79.1059 85.6541C80.3862 86.9745 82.577 86.9754 83.67 85.3965C84.5324 84.1507 84.1995 82.7017 83.2961 81.6021C81.8945 79.8961 80.4456 78.2271 79.021 76.5402L78.2049 77.5979C79.7345 78.5627 81.2642 79.5275 82.7938 80.4922C84.4098 81.5115 86.3578 82.9939 88.1463 81.3066C89.1983 80.3142 89.3627 78.6676 88.5278 77.49C88.1558 76.9653 87.6269 76.6599 87.0969 76.3273C85.3226 75.2139 83.5482 74.1005 81.7739 72.9871C80.3024 72.0637 78.831 71.1404 77.3595 70.217V71.38C78.4339 70.7654 79.8254 70.2305 80.4031 69.0611C81.2594 67.3276 80.1431 65.2065 78.2404 64.911C77.0936 64.7329 75.7541 65.2828 74.6574 65.5557C73.4972 65.8443 72.3368 66.1316 71.177 66.4216C63.9363 68.2323 56.7966 70.8032 50.2767 74.4643C43.7804 78.1121 37.4438 83.146 34.3163 90.095C30.7297 98.064 32.7176 106.861 35.8952 114.639C39.7549 124.086 46.4558 132.413 55.6165 137.148C65.4029 142.205 76.6255 142.02 86.7543 138.057C97.5777 133.822 106.825 126.538 116.445 120.188C121.45 116.884 126.604 113.696 132.156 111.386C136.896 109.413 142.078 107.921 147.203 109.231C149.523 109.824 151.665 111 153.239 112.828C155.024 114.9 155.918 117.574 156.45 120.216C157.679 126.326 157.414 132.753 156.65 138.904C156.262 142.017 155.554 145.082 155.179 148.193C154.887 150.615 155.019 153.234 156.593 155.219C159.229 158.545 164.484 158.981 168.093 157.173C170.106 156.165 171.733 154.473 172.613 152.4C172.788 151.988 172.661 151.563 172.21 151.411C171.353 151.121 170.543 151.225 169.778 151.702C169.441 151.913 169.39 152.279 169.536 152.624C171.592 157.456 178.341 158.49 183.005 158.684C186.854 158.844 191.629 158.66 194.957 156.461C196.216 155.629 197.186 154.402 197.228 152.841C197.282 150.806 195.889 148.955 194.588 147.532C193.463 146.301 192.191 145.271 191.276 143.854C190.397 142.492 189.796 140.983 189.393 139.416C188.576 136.242 188.539 132.929 188.504 129.672C188.338 114.557 186.349 98.747 177.338 86.126C173.297 80.4657 167.987 75.7203 161.611 72.857C154.941 69.8619 147.52 68.882 140.261 69.3946C132.629 69.9335 125.269 72.1048 118.303 75.2117C114.578 76.8731 110.973 78.7917 107.458 80.8575C104.905 82.3577 102.131 83.403 99.5668 84.878C97.3077 86.1777 94.9804 88.074 94.8771 90.9078C94.7832 93.4813 97.1141 94.6774 99.3398 93.6983C102.6 92.2641 104.76 88.6194 107.001 86.0167C109.443 83.1787 112.077 80.502 114.91 78.0531C126.718 67.8488 142.986 61.7102 158.502 66.1452C174.014 70.579 185.417 83.1723 195.546 95.006C198.304 98.2288 201.02 101.488 203.768 104.72C205.141 106.335 206.519 107.945 207.919 109.537C209.056 110.83 210.266 112.154 211.842 112.912C215.421 114.633 219.569 113.31 223.346 113.733C226.957 114.138 226.522 117.872 225.33 120.275C224.119 122.715 222.313 124.6 220.506 126.595C218.059 129.296 215.583 132.473 212.36 134.29C211.082 135.011 209.562 135.337 208.218 134.675C207.744 134.442 207.269 134.177 206.845 133.861C206.734 133.778 206.482 133.478 206.369 133.451C206.368 133.451 206.27 133.329 206.274 133.328C205.284 133.541 206.326 133.882 206.358 133.924C206.779 134.485 207.186 134.58 207.094 135.401C207.026 135.999 206.701 136.581 206.394 137.085C205.761 138.125 204.934 139.047 204.064 139.893C203.425 140.514 202.643 141.276 201.69 141.282C200.738 141.287 199.799 140.528 199.025 140.057C197.161 138.921 195.298 137.786 193.434 136.651C192.692 136.199 192.015 137.363 192.755 137.814C194.68 138.987 196.606 140.16 198.531 141.333C199.937 142.189 201.331 143.042 202.995 142.336C204.179 141.834 205.146 140.775 205.99 139.829C206.804 138.915 207.585 137.914 208.066 136.781C208.456 135.864 208.654 134.783 208.152 133.865C207.692 133.025 206.564 132.173 205.578 132.61C203.437 133.561 207.058 135.624 207.811 135.969C210.578 137.237 213.402 135.426 215.486 133.673C218.3 131.306 220.658 128.414 223.15 125.723C225.757 122.907 230.18 116.531 225.854 113.309C224.445 112.26 222.804 112.335 221.129 112.366C219.094 112.403 217.011 112.568 214.982 112.373C212.733 112.157 211.094 111.016 209.596 109.394C208.202 107.885 206.882 106.301 205.548 104.739C199.939 98.1703 194.486 91.4631 188.585 85.151C178.193 74.0351 164.934 63.7948 149.08 63.3606C133.457 62.9326 119.18 71.0826 108.684 82.1463C106.063 84.9085 103.889 88.1382 101.128 90.7533C100.213 91.6195 98.0565 93.6269 96.7124 92.4023C95.5947 91.3839 96.4858 89.332 97.2411 88.384C99.0627 86.0976 102.28 84.9763 104.843 83.7738C108.121 82.2361 111.162 80.2263 114.388 78.577C128.22 71.5037 144.949 67.4809 159.906 73.5799C174.016 79.3335 182.062 93.6239 185.106 107.92C186.808 115.913 186.974 123.968 187.198 132.096C187.286 135.282 187.533 138.561 188.654 141.572C189.172 142.961 189.861 144.276 190.765 145.453C191.761 146.749 193.049 147.76 194.096 149.009C195.175 150.294 196.49 152.256 195.575 153.967C194.785 155.447 192.863 156.123 191.354 156.542C187.305 157.666 182.656 157.691 178.56 156.793C175.516 156.126 172.023 155.057 170.699 151.944L170.458 152.865C170.922 152.575 171.342 152.537 171.852 152.71L171.45 151.72C169.55 156.197 164.061 158.181 159.7 156.006C157.422 154.869 156.426 152.751 156.394 150.264C156.355 147.247 157.248 144.199 157.682 141.224C158.52 135.482 158.922 129.646 158.329 123.858C157.856 119.246 156.851 114.203 153.274 110.933C145.82 104.117 134.568 108.422 126.891 112.369C117.103 117.401 108.465 124.327 99.1548 130.138C90.031 135.832 79.8002 140.516 68.7899 139.604C58.4665 138.749 49.1578 132.836 43.0224 124.634C40.1577 120.805 37.93 116.512 36.3273 112.011C34.8682 107.912 33.6189 103.456 33.6658 99.0725C33.7447 91.7088 37.8486 85.4571 43.3264 80.831C49.013 76.0286 55.9482 72.7457 62.9279 70.2936C65.8473 69.268 68.8162 68.3977 71.8183 67.65C73.0911 67.333 74.3641 67.0166 75.637 66.6998C76.878 66.3911 79.2343 65.5677 79.3541 67.6906C79.4306 69.0466 77.6521 69.6608 76.6797 70.2171C76.2291 70.4749 76.2583 71.1157 76.6797 71.3801C79.3327 73.045 81.9857 74.7097 84.6388 76.3746C85.4981 76.9138 87.2716 77.6245 87.631 78.6737C88.1905 80.3076 86.3662 81.0964 85.1365 80.3782C84.5124 80.0137 83.9101 79.6047 83.2989 79.2192C81.8275 78.2912 80.3561 77.3631 78.8847 76.4351C78.2023 76.0047 77.5987 76.9365 78.0686 77.4928C79.0871 78.6987 80.1056 79.9047 81.1241 81.1106C81.5571 81.6233 82.0416 82.1193 82.4351 82.6629C83.6395 84.3267 81.5437 86.2338 80.0583 84.7019C79.5411 84.1685 78.5378 84.8887 79.0006 85.518C80.2382 87.2007 78.1345 89.1337 76.6405 87.5884C76.1237 87.0539 75.1212 87.7749 75.5828 88.4045C76.4248 89.5528 75.7399 91.3925 74.1107 91.0177C73.1208 90.7899 72.3586 89.4701 71.5731 88.8526C70.0357 87.644 68.151 87.1721 66.2734 87.8436C64.3199 88.5422 62.8754 90.1035 61.6516 91.715C60.0836 93.7798 58.7319 96.0037 57.5133 98.2898C52.8624 107.015 50.1094 116.818 43.8856 124.656C41.0093 128.278 37.3923 131.415 33.0364 133.097C28.4475 134.869 23.2817 135.036 18.5702 133.648C9.6302 131.013 3.42587 122.739 2.00625 113.717C0.443506 103.785 5.09661 93.9935 11.5351 86.685C15.0707 82.6716 19.1223 79.1348 23.1664 75.6494C26.7434 72.5666 30.5792 69.5862 33.2797 65.6573C34.5705 63.7794 35.5843 61.6565 35.9549 59.3949C36.3469 57.002 36.0527 54.5908 35.4857 52.2511C34.8739 49.7265 33.9624 47.2867 33.3148 44.7718C32.7189 42.4575 32.2744 40.0728 32.0459 37.6937C31.6029 33.0828 32.0065 27.5428 35.8223 24.3457C37.5131 22.929 39.8211 22.0573 41.9262 21.4777C43.706 20.9876 45.548 20.762 47.3926 20.8916C54.0064 21.3565 59.0147 26.6803 60.794 32.8044C61.6161 35.634 61.8227 38.7202 61.0565 41.5867C59.9567 45.7012 56.48 48.4741 52.4849 49.5814C50.4657 50.141 48.3801 50.2789 46.2975 50.0986C45.4341 50.0239 45.4391 51.3712 46.2975 51.4455V51.4455L46.2975 51.4453Z" fill="black"/>
<path d="M52.1583 36.5151C51.8578 38.0247 54.4329 37.8271 53.9303 36.32C53.5872 35.291 52.3502 35.5559 52.1583 36.5151Z" fill="black"/>
<path d="M51.7251 36.3959C51.6643 36.7118 51.6761 37.0126 51.8094 37.3078C51.9044 37.5182 52.0794 37.696 52.2777 37.8119C52.6605 38.0356 53.1732 38.0645 53.5823 37.8969C53.842 37.7905 54.0525 37.6398 54.2204 37.4129C54.3694 37.2114 54.4406 36.9546 54.4442 36.7058C54.4533 36.07 54.0369 35.3648 53.3784 35.2419C52.6087 35.0982 51.8831 35.6405 51.7251 36.3959C51.6772 36.6251 51.7921 36.892 52.0387 36.9482C52.2636 36.9994 52.5395 36.8804 52.591 36.6346C52.6038 36.5735 52.62 36.5133 52.6418 36.4547C52.6444 36.4475 52.6519 36.4202 52.6564 36.4173C52.6601 36.4148 52.6033 36.5308 52.6352 36.4702C52.6503 36.4415 52.6642 36.4124 52.6807 36.3844C52.6936 36.3625 52.7072 36.3412 52.7216 36.3203C52.7835 36.2303 52.6553 36.3941 52.7135 36.3296C52.7523 36.2867 52.7908 36.2451 52.835 36.2076C52.9094 36.1445 52.7588 36.2574 52.8143 36.2234C52.8367 36.2097 52.8577 36.194 52.8804 36.1806C52.9028 36.1673 52.9258 36.1556 52.9489 36.1435C53.0374 36.097 52.8403 36.1803 52.936 36.1487C52.9789 36.1345 53.0216 36.1227 53.0656 36.1123C53.1671 36.0883 52.9534 36.1199 53.0369 36.115C53.0645 36.1133 53.0918 36.1111 53.1195 36.1112C53.1444 36.1113 53.1689 36.114 53.1937 36.1148C53.2594 36.117 53.0627 36.0877 53.156 36.1108C53.1801 36.1168 53.2043 36.1218 53.2282 36.129C53.2389 36.1322 53.2493 36.1361 53.2599 36.1393C53.3398 36.1635 53.1729 36.097 53.2149 36.119C53.2582 36.1416 53.2991 36.1669 53.3415 36.1908C53.3922 36.2195 53.2944 36.1555 53.293 36.1523C53.2955 36.1579 53.3145 36.1701 53.3204 36.1753C53.3435 36.1955 53.3654 36.2169 53.3862 36.2394C53.3969 36.251 53.4064 36.2638 53.4173 36.2751C53.4529 36.3119 53.3553 36.1863 53.3829 36.2302C53.399 36.2557 53.4174 36.2797 53.433 36.3057C53.4474 36.3297 53.4609 36.3544 53.4735 36.3795C53.4801 36.3925 53.4859 36.4058 53.4923 36.4189C53.5296 36.4946 53.4548 36.3126 53.4815 36.3952C53.4986 36.4477 53.5168 36.4992 53.5298 36.553C53.5359 36.578 53.5404 36.6033 53.5457 36.6285C53.5661 36.7268 53.5367 36.5075 53.5425 36.606C53.545 36.6493 53.5473 36.6921 53.5453 36.7355C53.5443 36.7561 53.5386 36.7799 53.5399 36.8003C53.5404 36.8073 53.5634 36.6673 53.5499 36.7227C53.5466 36.7361 53.5448 36.7499 53.5418 36.7634C53.5339 36.7985 53.522 36.8319 53.5113 36.8661C53.4934 36.9235 53.5723 36.739 53.5284 36.8247C53.5187 36.8438 53.5091 36.8627 53.4981 36.8811C53.4884 36.8976 53.4777 36.9132 53.4673 36.9292C53.4221 36.9988 53.5394 36.8438 53.4994 36.8885C53.4728 36.9183 53.4468 36.9478 53.4172 36.9748C53.4053 36.9857 53.383 36.9985 53.3742 37.0115C53.3704 37.0172 53.4789 36.9355 53.4351 36.9643C53.4281 36.9689 53.4214 36.9741 53.4145 36.9789C53.3832 37.0005 53.3506 37.0202 53.317 37.038C53.3001 37.0469 53.2826 37.0547 53.2656 37.0634C53.1963 37.0985 53.3897 37.0161 53.3079 37.0454C53.2714 37.0585 53.2351 37.071 53.1976 37.0811C53.1601 37.0911 53.1221 37.0984 53.0839 37.1055C52.9986 37.1212 53.1897 37.095 53.1391 37.0981C53.1176 37.0993 53.0962 37.1021 53.0746 37.1032C53.0381 37.105 53.0016 37.1052 52.9651 37.1037C52.9458 37.1029 52.9266 37.1016 52.9075 37.0998C52.8028 37.09 53.0024 37.1164 52.951 37.1061C52.8779 37.0915 52.81 37.0717 52.7396 37.0479C52.6931 37.0322 52.8626 37.1042 52.8071 37.0761C52.798 37.0715 52.7885 37.0674 52.7794 37.0628C52.7611 37.0537 52.7432 37.0439 52.7256 37.0335C52.7081 37.0231 52.6917 37.0112 52.6744 37.0004C52.6116 36.961 52.7784 37.0891 52.7077 37.026C52.6771 36.9987 52.6499 36.9697 52.6221 36.9396C52.5718 36.8853 52.699 37.0521 52.6479 36.9713C52.6367 36.9536 52.6255 36.9362 52.6154 36.9179C52.6045 36.898 52.5691 36.8171 52.6074 36.9082C52.646 37 52.6119 36.9163 52.6048 36.8939C52.598 36.8723 52.5921 36.8503 52.5872 36.8281C52.5823 36.8059 52.5682 36.7101 52.5819 36.8108C52.5958 36.9122 52.5841 36.813 52.5832 36.7889C52.5822 36.7628 52.5823 36.7366 52.5832 36.7105C52.5843 36.6829 52.5876 36.6557 52.5894 36.6282C52.593 36.5738 52.5683 36.7607 52.5814 36.6875C52.5846 36.6699 52.5875 36.6522 52.5909 36.6345C52.6351 36.4046 52.5265 36.139 52.2773 36.0823C52.0556 36.0318 51.7725 36.1492 51.725 36.3958L51.7251 36.3959Z" fill="black"/>
<path d="M58.6046 35.0972C58.3041 36.6068 60.8792 36.4092 60.3766 34.902C60.0335 33.8731 58.7965 34.1379 58.6046 35.0972Z" fill="black"/>
<path d="M58.1714 34.9779C58.1106 35.2938 58.1224 35.5946 58.2557 35.8899C58.3507 36.1003 58.5257 36.2781 58.724 36.394C59.1068 36.6177 59.6195 36.6465 60.0286 36.4789C60.2882 36.3725 60.4988 36.2218 60.6666 35.9949C60.8157 35.7934 60.8869 35.5367 60.8904 35.2878C60.8996 34.6521 60.4832 33.9468 59.8247 33.8239C59.055 33.6803 58.3294 34.2225 58.1714 34.9779C58.1235 35.2072 58.2384 35.474 58.485 35.5302C58.7099 35.5814 58.9858 35.4625 59.0372 35.2166C59.05 35.1555 59.0663 35.0953 59.0881 35.0367C59.0907 35.0295 59.0982 35.0023 59.1027 34.9993C59.1064 34.9968 59.0496 35.1128 59.0815 35.0522C59.0966 35.0235 59.1105 34.9944 59.127 34.9664C59.1398 34.9446 59.1535 34.9232 59.1678 34.9023C59.2298 34.8123 59.1016 34.9762 59.1598 34.9117C59.1986 34.8688 59.2371 34.8271 59.2813 34.7896C59.3557 34.7265 59.2051 34.8395 59.2606 34.8054C59.283 34.7917 59.304 34.7761 59.3267 34.7626C59.3491 34.7493 59.3721 34.7376 59.3951 34.7255C59.4837 34.679 59.2866 34.7623 59.3823 34.7307C59.4252 34.7165 59.4679 34.7047 59.5119 34.6943C59.6134 34.6703 59.3997 34.7019 59.4832 34.697C59.5108 34.6954 59.5381 34.6931 59.5658 34.6933C59.5907 34.6934 59.6152 34.6961 59.64 34.6969C59.7057 34.6991 59.509 34.6697 59.6022 34.6929C59.6264 34.6989 59.6506 34.7038 59.6745 34.7111C59.6852 34.7143 59.6956 34.7182 59.7062 34.7214C59.7861 34.7455 59.6192 34.6791 59.6612 34.701C59.7045 34.7236 59.7454 34.7489 59.7878 34.7729C59.8385 34.8015 59.7407 34.7375 59.7393 34.7344C59.7418 34.74 59.7608 34.7521 59.7667 34.7574C59.7898 34.7775 59.8117 34.7989 59.8325 34.8214C59.8432 34.833 59.8527 34.8459 59.8636 34.8571C59.8992 34.8939 59.8015 34.7684 59.8292 34.8122C59.8453 34.8378 59.8637 34.8617 59.8793 34.8877C59.8937 34.9118 59.9072 34.9364 59.9198 34.9615C59.9263 34.9746 59.9322 34.9878 59.9386 35.0009C59.9759 35.0766 59.9011 34.8947 59.9278 34.9772C59.9448 35.0297 59.9631 35.0812 59.9761 35.135C59.9822 35.1601 59.9867 35.1853 59.992 35.2106C60.0124 35.3088 59.983 35.0895 59.9888 35.188C59.9913 35.2313 59.9936 35.2741 59.9916 35.3175C59.9906 35.3382 59.9849 35.3619 59.9862 35.3823C59.9867 35.3893 60.0096 35.2493 59.9961 35.3048C59.9929 35.3181 59.9911 35.332 59.9881 35.3454C59.9802 35.3805 59.9683 35.4139 59.9576 35.4482C59.9397 35.5056 60.0186 35.3211 59.9747 35.4067C59.965 35.4258 59.9554 35.4448 59.9444 35.4632C59.9347 35.4796 59.924 35.4952 59.9136 35.5112C59.8683 35.5809 59.9857 35.4258 59.9457 35.4705C59.9191 35.5003 59.8931 35.5298 59.8635 35.5568C59.8516 35.5677 59.8293 35.5805 59.8205 35.5935C59.8167 35.5992 59.9252 35.5175 59.8814 35.5463C59.8744 35.5509 59.8677 35.5562 59.8608 35.5609C59.8295 35.5825 59.7969 35.6022 59.7633 35.62C59.7464 35.629 59.7289 35.6367 59.7119 35.6454C59.6426 35.6806 59.836 35.5981 59.7542 35.6274C59.7177 35.6405 59.6814 35.6531 59.6439 35.6631C59.6063 35.6732 59.5684 35.6804 59.5302 35.6875C59.4449 35.7033 59.636 35.6771 59.5854 35.6801C59.5639 35.6814 59.5424 35.6841 59.5209 35.6852C59.4844 35.6871 59.4479 35.6873 59.4114 35.6857C59.3921 35.6849 59.3729 35.6836 59.3538 35.6818C59.2491 35.6721 59.4487 35.6985 59.3972 35.6882C59.3242 35.6735 59.2563 35.6537 59.1859 35.6299C59.1394 35.6142 59.3089 35.6862 59.2534 35.6581C59.2443 35.6535 59.2348 35.6494 59.2257 35.6448C59.2074 35.6357 59.1895 35.6259 59.1719 35.6155C59.1544 35.6051 59.1379 35.5933 59.1207 35.5824C59.0579 35.543 59.2247 35.6711 59.154 35.608C59.1233 35.5807 59.0962 35.5517 59.0684 35.5216C59.0181 35.4673 59.1453 35.6341 59.0942 35.5534C59.083 35.5357 59.0718 35.5183 59.0617 35.4999C59.0508 35.48 59.0154 35.3992 59.0537 35.4902C59.0923 35.582 59.0582 35.4984 59.0511 35.476C59.0443 35.4543 59.0384 35.4323 59.0335 35.4101C59.0285 35.3879 59.0145 35.2922 59.0282 35.3928C59.0421 35.4942 59.0304 35.395 59.0295 35.3709C59.0285 35.3448 59.0285 35.3187 59.0295 35.2925C59.0306 35.2649 59.0338 35.2377 59.0357 35.2102C59.0393 35.1558 59.0146 35.3427 59.0277 35.2696C59.0309 35.2519 59.0338 35.2342 59.0372 35.2166C59.0814 34.9867 58.9727 34.721 58.7236 34.6643C58.5019 34.6138 58.2188 34.7313 58.1713 34.9779L58.1714 34.9779Z" fill="black"/>
<path d="M56.8567 36.2905C56.5805 36.5937 56.3699 36.9515 56.4048 37.3762C56.4369 37.7665 56.6233 38.1083 56.87 38.4047C57.3103 38.9339 57.9324 39.2488 58.4704 39.6616C58.6848 39.826 58.9695 40.0394 59.0446 40.3113C59.1234 40.5965 58.8829 40.6287 58.65 40.6597C57.9292 40.7557 57.1774 40.6278 56.526 40.3078C56.3085 40.201 56.0403 40.249 55.9118 40.4689C55.796 40.6667 55.8543 40.9758 56.0728 41.0831C56.8453 41.4625 57.7113 41.6507 58.5724 41.566C58.968 41.5271 59.4024 41.4664 59.6842 41.1541C59.963 40.8452 60.0213 40.3883 59.887 40.0023C59.6289 39.2606 58.8502 38.8345 58.241 38.4124C57.9683 38.2234 57.6898 38.0166 57.4888 37.7486C57.2673 37.4531 57.2417 37.1996 57.4916 36.9254C57.8801 36.499 57.2469 35.8622 56.8567 36.2905V36.2905L56.8567 36.2905Z" fill="black"/>
<path d="M75.2296 80.3222C76.3344 81.8395 77.4392 83.3568 78.544 84.8741C78.7009 85.0896 78.8578 85.3051 79.0147 85.5205C79.2284 85.8141 79.5998 85.9588 79.9361 85.7621C80.2259 85.5926 80.3929 85.1364 80.1776 84.8407C79.0728 83.3234 77.968 81.8061 76.8632 80.2888C76.7063 80.0733 76.5494 79.8579 76.3925 79.6424C76.1788 79.3488 75.8074 79.2041 75.4712 79.4008C75.1814 79.5703 75.0143 80.0266 75.2296 80.3222V80.3222Z" fill="black"/>
<path d="M71.835 83.0231C72.9022 84.5646 73.9695 86.1062 75.0367 87.6477C75.1896 87.8685 75.3424 88.0893 75.4952 88.3101C75.702 88.6087 76.0856 88.7452 76.4166 88.5516C76.7124 88.3787 76.8663 87.9308 76.6582 87.6303C75.591 86.0887 74.5237 84.5471 73.4565 83.0056C73.3037 82.7848 73.1508 82.564 72.998 82.3433C72.7912 82.0446 72.4076 81.9081 72.0766 82.1017C71.7808 82.2747 71.627 82.7225 71.835 83.0231V83.0231Z" fill="black"/>
<path d="M46.3682 50.7898C46.3682 50.7898 48.6186 53.2502 51.2672 54.7799C50.7065 53.784 50.3776 52.0692 53.5549 50.5283C55.8538 49.0236 56.1622 48.7271 56.1622 48.7271C56.1622 48.7271 50.1434 51.8282 46.3682 50.7898H46.3682Z" fill="black"/>
<path d="M45.8919 51.2661C47.3424 52.8488 49.0738 54.2823 50.9272 55.3616C51.5176 55.7055 52.1731 55.0241 51.8486 54.4402C51.804 54.36 51.7676 54.2754 51.7235 54.1952C51.6781 54.1127 51.7709 54.3326 51.7123 54.1665C51.6936 54.1134 51.6743 54.0607 51.6578 54.0068C51.628 53.9093 51.6118 53.8099 51.5867 53.7116C51.5629 53.6188 51.5912 53.8504 51.5831 53.6687C51.5804 53.6075 51.5768 53.5466 51.5776 53.4853C51.5783 53.4303 51.5853 53.3756 51.5863 53.3208C51.5882 53.2267 51.5615 53.4498 51.5807 53.3562C51.5856 53.3321 51.5882 53.3075 51.5937 53.2836C51.609 53.2176 51.6234 53.1522 51.6429 53.0873C51.6569 53.0407 51.7238 52.8668 51.6674 52.9981C51.7208 52.8739 51.7868 52.7546 51.86 52.641C51.8745 52.6184 52.0047 52.4393 51.9422 52.5185C51.9993 52.446 52.0613 52.377 52.1247 52.3099C52.7768 51.619 53.6693 51.2614 54.4503 50.7442C55.0077 50.3751 55.5649 50.0042 56.1063 49.6119C56.2856 49.4821 56.4776 49.3562 56.6383 49.2034C57.2109 48.659 56.4842 47.8053 55.8222 48.1457C55.6219 48.2487 55.4176 48.3442 55.2131 48.4384C54.9869 48.5425 54.759 48.6426 54.5303 48.7409C54.3809 48.805 54.5921 48.7163 54.4356 48.7805C54.3631 48.8102 54.2908 48.8403 54.2182 48.8697C54.0532 48.9365 53.8876 49.0018 53.7213 49.0655C52.252 49.6282 50.6171 50.1238 49.1223 50.2754C48.6673 50.3215 48.209 50.3414 47.7518 50.3217C47.2889 50.3017 47.0163 50.2662 46.5471 50.1406C45.7088 49.9162 45.3512 51.2151 46.189 51.4393C47.8977 51.8967 49.741 51.6362 51.4287 51.2124C52.8902 50.8454 54.3097 50.3139 55.683 49.6968C55.9584 49.573 56.2334 49.4468 56.502 49.3087L55.6859 48.251C55.6645 48.2714 55.6402 48.2949 55.6152 48.3102C55.4808 48.3926 55.7577 48.2051 55.6208 48.3059C55.556 48.3535 55.4917 48.4017 55.4266 48.4489C54.8284 48.8824 54.2115 49.2906 53.595 49.6973C52.732 50.2665 51.774 50.6643 51.0773 51.4619C50.5977 52.011 50.2767 52.6566 50.234 53.3917C50.199 53.9956 50.3954 54.5978 50.6856 55.12C50.9927 54.8129 51.2998 54.5057 51.607 54.1986C49.8466 53.1734 48.2212 51.8161 46.8443 50.3137C46.2573 49.6733 45.3069 50.6278 45.8919 51.2661L45.8919 51.2661Z" fill="black"/>
<path d="M61.064 51.9905L66.2186 48.7275Z" fill="black"/>
<path d="M61.4038 52.572C62.9107 51.6181 64.4176 50.6642 65.9245 49.7102C66.1358 49.5765 66.3471 49.4427 66.5584 49.309C66.8654 49.1146 66.9882 48.7093 66.8 48.3876C66.621 48.0815 66.1872 47.9506 65.8786 48.146C64.3717 49.0999 62.8648 50.0538 61.3579 51.0077C61.1466 51.1415 60.9353 51.2752 60.724 51.409C60.417 51.6033 60.2942 52.0086 60.4824 52.3304C60.6614 52.6364 61.0952 52.7673 61.4038 52.572V52.572Z" fill="black"/>
<path d="M63.2554 55.8582L68.41 52.5952Z" fill="black"/>
<path d="M63.5952 56.4396C65.1021 55.4857 66.609 54.5318 68.1159 53.5779C68.3272 53.4442 68.5385 53.3104 68.7498 53.1766C69.0568 52.9823 69.1796 52.577 68.9914 52.2552C68.8124 51.9492 68.3786 51.8183 68.07 52.0137C66.5631 52.9676 65.0562 53.9215 63.5493 54.8754C63.338 55.0091 63.1267 55.1429 62.9154 55.2767C62.6084 55.471 62.4856 55.8763 62.6738 56.1981C62.8528 56.5041 63.2866 56.635 63.5952 56.4396V56.4396Z" fill="black"/>
<path d="M65.1895 59.597L70.3441 56.334Z" fill="black"/>
<path d="M65.5293 60.1784C67.0362 59.2245 68.5431 58.2706 70.05 57.3167C70.2613 57.1829 70.4726 57.0492 70.6839 56.9154C70.9909 56.7211 71.1137 56.3158 70.9255 55.994C70.7465 55.688 70.3127 55.5571 70.0041 55.7524C68.4972 56.7063 66.9903 57.6602 65.4834 58.6141C65.2721 58.7479 65.0608 58.8817 64.8495 59.0154C64.5425 59.2098 64.4196 59.615 64.6079 59.9368C64.7869 60.2429 65.2207 60.3738 65.5293 60.1784V60.1784Z" fill="black"/>
<path d="M37.6675 46.8488C38.3668 45.5858 38.5202 44.0994 38.5929 42.6575C37.0501 42.4999 35.8016 41.2499 35.1565 39.8395C34.8772 39.2289 34.6833 38.5549 34.7725 37.8894C34.9334 36.6887 36.0556 35.7444 37.2596 35.6106C38.4637 35.4768 39.6782 36.0591 40.4878 36.9604C41.2974 37.8616 41.7377 39.0459 41.9302 40.242C42.8929 39.1493 42.7136 37.4692 42.2556 36.0869C41.7977 34.7045 41.1095 33.3269 41.236 31.8762C41.2603 31.5971 41.3183 31.3127 41.4728 31.0791C42.2168 29.9536 43.2654 30.9432 44.0456 31.251C44.9885 31.6229 46.133 30.9662 46.7604 30.2491C47.5206 29.3801 47.8383 28.1846 47.8019 27.0306C47.794 26.7835 47.7672 26.525 47.63 26.3194C47.4928 26.1137 47.2132 25.9836 46.99 26.0898C46.7375 26.2099 46.6829 26.5468 46.7163 26.8243C46.8687 28.0927 48.1178 28.9766 49.3672 29.2429C50.4639 29.4765 51.6475 29.3527 52.635 28.8216C53.6225 28.2904 54.3934 27.3394 54.6298 26.2433C54.7927 25.4881 54.6764 24.6283 54.1396 24.0727C53.9659 23.8928 53.7347 23.7448 53.4849 23.7546C53.235 23.7643 52.9874 23.9862 53.0235 24.2336C53.0364 24.3221 53.0817 24.4022 53.1284 24.4784C53.9995 25.8992 55.738 26.7356 57.3918 26.5297C62.7726 25.8595 60.9464 19.5567 58.0233 17.1646C56.0519 15.5513 53.5191 14.785 51.0068 14.364C46.3776 13.5883 41.435 13.9104 37.2855 16.1041C32.8759 18.4354 29.6689 22.8003 28.4423 27.635C26.3839 35.749 28.3987 45.9899 34.1859 52.2506C34.8446 51.1353 34.9735 50.0734 34.2158 48.9651C35.6834 48.9908 36.9653 48.1169 37.6675 46.8487V46.8488Z" fill="black"/>
<path d="M38.2487 47.1888C39.0037 45.7931 39.1852 44.2186 39.2661 42.6577C39.2865 42.2644 38.9387 42.0244 38.5927 41.9843C37.7261 41.8839 36.9446 41.2886 36.4012 40.6058C35.8425 39.9038 35.2693 38.8287 35.4502 37.9028C35.6097 37.0872 36.3426 36.4866 37.1465 36.3089C38.0402 36.1114 39.0659 36.5313 39.7427 37.1632C40.6538 38.0139 41.08 39.2184 41.2806 40.4212C41.3618 40.9079 42.0947 41.0846 42.4062 40.7184C43.1287 39.869 43.3797 38.7856 43.278 37.6872C43.1691 36.5119 42.7309 35.4547 42.3476 34.3508C42.1554 33.7974 41.9635 33.2186 41.912 32.6318C41.871 32.164 41.8334 31.6259 42.1867 31.2729C42.2144 31.2452 42.2069 31.2511 42.2744 31.233C42.4155 31.195 42.3244 31.2277 42.2969 31.2287C42.341 31.2271 42.3894 31.2282 42.4336 31.2337C42.3452 31.2227 42.5561 31.2738 42.6012 31.2887C42.6742 31.3128 42.7437 31.3444 42.857 31.4013C43.2671 31.6071 43.6656 31.8781 44.1202 31.9757C45.2488 32.2182 46.4278 31.6025 47.1797 30.7887C47.9819 29.9202 48.3779 28.7746 48.4634 27.6096C48.507 27.015 48.506 26.325 48.106 25.8435C47.6789 25.3294 46.8926 25.2107 46.3948 25.6992C45.5526 26.5257 46.2699 28.0006 46.9369 28.6842C48.5215 30.308 51.3869 30.441 53.2486 29.2414C54.1833 28.6391 54.9163 27.7181 55.2235 26.6426C55.5253 25.5862 55.3839 24.2595 54.5114 23.5004C53.9902 23.0469 53.2026 22.9004 52.6718 23.4301C52.1392 23.9616 52.3812 24.6257 52.7732 25.1493C53.4346 26.033 54.3544 26.6795 55.409 27.0087C57.0341 27.516 59.1013 27.1612 60.3428 25.9449C62.4509 23.8792 61.3823 20.3187 59.8941 18.2285C57.3829 14.7014 52.5759 13.6977 48.5141 13.3856C43.89 13.0302 39.0354 13.8909 35.1901 16.6005C31.7129 19.0507 29.1715 22.719 27.9745 26.7921C26.8212 30.7165 26.7387 34.9556 27.3729 38.9765C28.0125 43.0311 29.4756 47.0348 31.8433 50.4051C32.4144 51.2179 33.0367 51.9961 33.7094 52.7271C34.0041 53.0473 34.5573 52.9543 34.7671 52.5908C35.1191 51.9812 35.3795 51.3163 35.4052 50.6056C35.4308 49.8974 35.1835 49.2102 34.7971 48.6256C34.6032 48.9633 34.4094 49.3011 34.2156 49.6389C35.9189 49.6474 37.421 48.6497 38.2487 47.1889C38.6766 46.4337 37.5135 45.7542 37.0857 46.5091C36.4821 47.5745 35.441 48.2982 34.2155 48.292C33.7257 48.2896 33.3486 48.8735 33.6341 49.3053C33.8989 49.7061 34.0758 50.1195 34.0583 50.6056C34.0414 51.0743 33.8346 51.5118 33.6041 51.9111C33.9567 51.8656 34.3092 51.8202 34.6618 51.7748C32.213 49.1139 30.5276 45.8147 29.5113 42.36C28.4705 38.8218 28.1043 35.086 28.4627 31.414C28.8179 27.7744 29.9978 24.2551 32.2238 21.3076C34.5672 18.2048 37.9084 16.0778 41.6855 15.1904C43.7479 14.7059 45.8789 14.577 47.9908 14.6976C50.0718 14.8164 52.1789 15.1505 54.1544 15.8293C55.7512 16.378 57.3332 17.2162 58.4344 18.5249C58.4789 18.5778 58.5223 18.6316 58.5658 18.6854C58.6623 18.8047 58.5525 18.6611 58.6426 18.7864C58.737 18.9176 58.8308 19.0488 58.9194 19.184C59.0931 19.4491 59.2525 19.7237 59.3968 20.0059C59.4622 20.1338 59.5245 20.2633 59.5836 20.3942C59.6005 20.4315 59.617 20.469 59.6334 20.5066C59.6224 20.4814 59.5875 20.3934 59.6371 20.5154C59.6679 20.591 59.6979 20.6669 59.7266 20.7433C59.8363 21.0355 59.9298 21.3339 60.0038 21.6371C60.0388 21.7807 60.0694 21.9253 60.0952 22.0707C60.1071 22.1378 60.1175 22.2049 60.1275 22.2722C60.143 22.3759 60.1159 22.1614 60.1259 22.2652C60.1304 22.3128 60.1364 22.3603 60.1407 22.4079C60.1661 22.6863 60.1717 22.967 60.1516 23.2459C60.1464 23.3183 60.1387 23.3903 60.1309 23.4624C60.1461 23.3228 60.1293 23.4657 60.119 23.5224C60.094 23.6612 60.0618 23.7987 60.0215 23.9338C60.004 23.9923 59.9853 24.0503 59.9648 24.1078C59.9526 24.1421 59.8639 24.3412 59.9363 24.1881C59.8771 24.3133 59.8159 24.4363 59.7433 24.5545C59.7115 24.6062 59.6765 24.6556 59.6433 24.7064C59.553 24.8448 59.6825 24.6676 59.6061 24.7576C59.5137 24.8664 59.4173 24.9705 59.312 25.0668C59.258 25.1161 59.2023 25.1637 59.1449 25.209C59.2485 25.1272 59.1138 25.2281 59.0767 25.2531C58.9465 25.341 58.8101 25.4196 58.6694 25.4895C58.64 25.5041 58.47 25.5822 58.5759 25.5372C58.4966 25.5709 58.4154 25.6005 58.334 25.6286C58.1605 25.6885 57.9834 25.7377 57.8045 25.7782C57.3992 25.8698 57.0832 25.9066 56.6361 25.8796C55.8367 25.8315 55.0117 25.4869 54.4055 24.9514C54.2394 24.8046 54.0809 24.6453 53.9415 24.4728C53.8936 24.4135 53.849 24.352 53.8063 24.2888C53.7795 24.249 53.7452 24.1753 53.7097 24.1388L53.6646 24.0611C53.7218 24.1974 53.7067 24.3023 53.6194 24.3759C53.5802 24.4075 53.5025 24.4354 53.5007 24.4243C53.5002 24.4212 53.7208 24.6115 53.7233 24.6146C53.8363 24.7527 53.9086 24.919 53.9563 25.0896C54.1724 25.863 53.8695 26.7233 53.3806 27.3392C52.7993 28.0713 51.9357 28.5234 51.0142 28.649C50.1317 28.7693 49.1871 28.6189 48.4236 28.1539C48.0978 27.9555 47.8029 27.6937 47.6113 27.3778C47.5148 27.2187 47.4653 27.1042 47.4208 26.9343C47.3964 26.8411 47.3833 26.751 47.3817 26.7083C47.3813 26.6961 47.3906 26.5947 47.3841 26.5899C47.4007 26.6023 47.3693 26.6386 47.3582 26.6427C47.3337 26.6517 47.2123 26.6995 47.1847 26.7182C47.2206 26.6938 47.1125 26.7226 47.1078 26.7285C47.0801 26.7633 47.113 26.7944 47.1149 26.8388C47.1244 27.0641 47.1351 27.2868 47.1227 27.5132C47.097 27.9804 46.9963 28.4513 46.8196 28.8854C46.5104 29.6448 45.8848 30.3554 45.0835 30.6058C44.8936 30.6651 44.7171 30.7026 44.5159 30.6812C44.317 30.66 44.2625 30.6202 44.1053 30.5402C43.7271 30.3477 43.3639 30.1264 42.9593 29.99C41.9332 29.6443 40.9398 30.2539 40.6566 31.2821C40.3582 32.3656 40.661 33.5727 41.0129 34.6047C41.3387 35.5604 41.7673 36.4986 41.9114 37.5058C42.0217 38.2756 41.9754 39.153 41.4539 39.7661L42.5794 40.0633C42.3521 38.7007 41.8134 37.3436 40.8327 36.3449C39.8674 35.362 38.4695 34.7687 37.0861 34.9601C35.8268 35.1344 34.7125 35.9946 34.2591 37.1859C33.7619 38.4921 34.3426 40.0166 35.1023 41.1022C35.9393 42.2985 37.1211 43.1607 38.5928 43.3313C38.3683 43.1068 38.1438 42.8823 37.9193 42.6579C37.8511 43.9734 37.7233 45.3306 37.0858 46.5092C36.6734 47.2717 37.8358 47.9525 38.2488 47.189L38.2487 47.1888Z" fill="black"/>
<path d="M31.7658 30.0696C32.3771 29.1465 32.5278 27.9339 32.1612 26.8893C31.7945 25.8447 30.919 24.9923 29.8649 24.6538C28.2873 24.1471 26.5786 24.7737 25.108 25.5372C24.5808 25.8109 23.9787 26.2902 24.1431 26.861C24.2055 27.0779 24.4583 27.2675 24.6513 27.1506C24.7832 27.0708 24.8151 26.8943 24.8125 26.7402C24.7458 22.8224 17.0541 25.6683 15.6113 26.9663C12.1001 30.1248 12.5661 36.2653 15.8997 39.3887C16.2076 39.6772 16.6578 39.9523 17.0236 39.7419C17.2754 39.597 17.367 39.2577 17.2914 38.9772C17.2158 38.6966 17.0065 38.4703 16.7743 38.2951C14.1336 36.3035 8.9416 39.2407 6.88252 41.0046C4.59919 42.9605 3.08189 45.8967 3.18352 48.9016C3.25933 51.1423 4.83959 55.4663 7.68388 55.3628C8.5177 55.3325 9.33012 54.4147 8.92796 53.6837C7.89386 54.5185 7.38659 55.8937 7.40953 57.2225C7.43247 58.5514 7.93559 59.8352 8.62924 60.9688C10.6445 64.2624 14.3936 66.4239 18.2537 66.5176C20.409 66.5699 22.8609 65.7703 23.672 63.7727C23.9155 63.173 23.9673 62.4321 23.567 61.9234C23.1667 61.4148 22.2193 61.3803 21.9461 61.9672C21.7667 62.3527 21.9344 62.812 22.1704 63.1658C22.8711 64.2164 24.1404 64.7922 25.3996 64.8871C26.6589 64.9819 27.9141 64.6494 29.0922 64.1946C31.9208 63.1029 34.6264 61.0481 35.3911 58.1142C35.9127 56.1129 35.4655 53.9988 34.9642 51.9923C34.1037 48.5475 33.0849 45.1429 31.9384 41.7825" fill="black"/>
<path d="M32.3475 30.4094C33.3431 28.858 33.2208 26.8295 32.0769 25.3971C30.9116 23.9379 29.0232 23.5604 27.2675 23.97C26.3645 24.1806 25.4604 24.5604 24.6545 25.0177C23.9263 25.431 23.199 26.2094 23.5214 27.1109C23.6969 27.6015 24.2354 27.9731 24.7643 27.8279C25.2736 27.6881 25.4986 27.1751 25.4846 26.6859C25.4709 26.2062 25.3545 25.6978 25.0834 25.2949C23.9247 23.5723 21.2958 24.0164 19.6006 24.4593C18.5983 24.7211 17.6172 25.0845 16.6825 25.5309C15.8776 25.9154 15.1725 26.3786 14.578 27.0529C12.6741 29.212 12.1511 32.246 12.7494 35.0107C13.0392 36.35 13.6095 37.6563 14.4382 38.7504C14.8822 39.3367 15.4148 40.0247 16.1002 40.3339C16.5821 40.5512 17.1563 40.5486 17.5647 40.1739C17.9202 39.8478 18.0512 39.342 17.9575 38.8759C17.8089 38.1371 17.113 37.6233 16.46 37.3379C15.8496 37.0711 15.1952 36.9532 14.5294 36.9551C13.1096 36.959 11.7242 37.427 10.4425 38.001C7.84766 39.1629 5.45439 40.9417 3.98851 43.4157C3.11629 44.8878 2.57998 46.5658 2.5123 48.2795C2.46446 49.4904 2.70836 50.709 3.12747 51.8421C3.56669 53.0296 4.19682 54.2429 5.17673 55.0755C6.18655 55.9335 7.75891 56.4726 8.91836 55.5721C9.61389 55.0319 9.90953 54.1544 9.50965 53.3438C9.3019 52.9226 8.76036 52.9517 8.45196 53.2075C6.54131 54.7917 6.39708 57.5751 7.26552 59.7417C8.10608 61.8387 9.61823 63.6087 11.4511 64.9099C13.2344 66.1759 15.3502 66.9496 17.5262 67.149C19.5035 67.3301 21.7098 66.947 23.2192 65.5679C23.9756 64.8769 24.5836 63.8193 24.5331 62.7678C24.5033 62.1476 24.2572 61.5356 23.7334 61.1742C23.3155 60.8859 22.7541 60.7859 22.2624 60.9201C21.6827 61.0783 21.2775 61.5597 21.2128 62.1542C21.1396 62.8269 21.493 63.4316 21.9096 63.9293C22.6046 64.7596 23.6718 65.2882 24.727 65.4743C26.0067 65.6999 27.308 65.5043 28.5347 65.1067C29.607 64.7592 30.6545 64.2926 31.6191 63.7083C33.4626 62.5916 35.0531 61.0096 35.8259 58.9674C36.7586 56.5024 36.1236 53.8149 35.4995 51.3593C34.8268 48.7122 34.0613 46.0889 33.2171 43.4915C33.012 42.8606 32.802 42.2315 32.5881 41.6036C32.4709 41.2594 32.1254 41.0327 31.7597 41.1332C31.4244 41.2253 31.1715 41.6158 31.2894 41.9616C32.0695 44.2515 32.7922 46.561 33.4452 48.8904C33.7709 50.0523 34.0811 51.2189 34.3696 52.3907C34.6396 53.4873 34.8873 54.5972 34.94 55.7287C34.9883 56.7658 34.8712 57.8106 34.4626 58.7729C34.125 59.5682 33.6161 60.2854 33.0187 60.9055C31.7539 62.2183 30.1042 63.1485 28.389 63.737C26.6086 64.3479 24.3052 64.6165 22.9203 63.0447C22.7931 62.9003 22.6718 62.7333 22.5985 62.5542C22.5703 62.4854 22.5597 62.4084 22.5447 62.3388C22.5294 62.2681 22.4979 62.6311 22.5604 62.2364C22.5575 62.2545 22.5089 62.3139 22.5547 62.2527C22.5949 62.1991 22.5626 62.2434 22.5428 62.2555C22.6496 62.1905 22.5894 62.2283 22.5573 62.2384C22.5997 62.2252 22.6415 62.2114 22.6855 62.2037C22.6522 62.2095 22.5747 62.21 22.7092 62.2079C22.8041 62.2065 22.9126 62.2265 23.0259 62.3164C22.9689 62.2712 23.056 62.3644 23.064 62.3761C23.1113 62.4446 23.1349 62.5085 23.1564 62.5866C23.2058 62.7663 23.1972 62.9631 23.1607 63.1463C23.0843 63.5297 22.8981 63.893 22.6664 64.1927C21.7065 65.4342 19.9095 65.8602 18.3771 65.8461C16.5717 65.8296 14.7791 65.3112 13.2087 64.4293C11.6139 63.5338 10.2292 62.2615 9.25891 60.7065C8.25384 59.0958 7.58479 56.9783 8.55239 55.1902C8.77084 54.7866 9.05127 54.4526 9.4044 54.1598C9.05183 54.1144 8.69928 54.069 8.34671 54.0236C8.34509 54.0203 8.36167 54.1291 8.36801 54.0895C8.34953 54.2048 8.33873 54.2294 8.27909 54.3162C8.19919 54.4324 8.04054 54.5761 7.90187 54.634C7.70344 54.7168 7.55571 54.6985 7.32728 54.6788C7.20665 54.6683 7.48258 54.7109 7.28636 54.6726C7.24518 54.6646 7.20417 54.6567 7.16326 54.6473C7.05111 54.6215 6.94307 54.5865 6.83432 54.5493C6.8048 54.5392 6.68151 54.4835 6.79312 54.5344C6.75517 54.5171 6.71748 54.499 6.68025 54.4802C6.58645 54.4328 6.49507 54.3804 6.40635 54.3241C6.18884 54.1859 6.20195 54.194 6.00619 54.0142C5.84933 53.8701 5.70314 53.7146 5.56639 53.5514C5.47136 53.4379 5.34432 53.2649 5.2175 53.0691C4.70843 52.2833 4.41248 51.5612 4.16357 50.6752C4.05109 50.2748 3.96275 49.8681 3.9016 49.4567C3.92304 49.6009 3.88965 49.3517 3.88565 49.3123C3.87719 49.2287 3.87006 49.145 3.86488 49.0611C3.84784 48.7852 3.84859 48.5078 3.86102 48.2317C3.96786 45.8598 5.14755 43.6089 6.82748 41.9672C7.01904 41.78 7.21728 41.5996 7.42212 41.4271C7.48824 41.3713 7.55508 41.3165 7.6225 41.2623C7.66178 41.2308 7.70127 41.1996 7.74091 41.1685C7.77754 41.1399 7.77308 41.1433 7.72756 41.1786C7.75286 41.1593 7.77823 41.14 7.80368 41.1209C8.16852 40.8494 8.54196 40.5907 8.92643 40.3477C9.74644 39.8293 10.6576 39.3388 11.5243 38.9934C11.9955 38.8056 12.4774 38.6427 12.9694 38.5182C13.4607 38.3938 13.8114 38.3303 14.2784 38.3082C14.4907 38.2982 14.7036 38.2994 14.9155 38.3152C14.9729 38.3194 15.0301 38.3247 15.0873 38.3312C15.2156 38.3459 14.932 38.3022 15.1446 38.3402C15.2547 38.3599 15.3643 38.3821 15.4726 38.4103C15.8287 38.5032 16.1537 38.6327 16.434 38.8825C16.5207 38.9598 16.609 39.0424 16.6495 39.1551C16.6249 39.0867 16.6393 39.275 16.6477 39.1861C16.6478 39.1851 16.7014 39.1467 16.6948 39.1409C16.6612 39.1113 16.5191 39.0372 16.455 38.9861C16.1106 38.7114 15.7592 38.2873 15.5314 37.9773C14.9433 37.1769 14.5263 36.3363 14.2464 35.416C13.6833 33.5644 13.6884 31.5593 14.4473 29.7456C14.5924 29.3986 14.8591 28.9124 15.1093 28.5462C15.3585 28.1814 15.6727 27.8228 16.0285 27.4962C16.0698 27.4583 16.1374 27.4129 16.1745 27.3684C16.2331 27.298 16.0357 27.4655 16.1643 27.3772C16.2657 27.3076 16.366 27.2378 16.4707 27.173C16.7217 27.0177 16.983 26.8791 17.248 26.7492C17.3884 26.6804 17.5303 26.6142 17.6731 26.5504C17.748 26.5169 17.8232 26.4842 17.8986 26.4518C17.7627 26.51 18.0354 26.3962 18.0767 26.3797C18.4255 26.2403 18.7792 26.1129 19.1368 25.9979C19.5152 25.8761 19.8981 25.768 20.285 25.6768C20.4621 25.6351 20.6399 25.597 20.8186 25.5631C20.9067 25.5463 20.995 25.5307 21.0834 25.5161C21.1321 25.508 21.1809 25.5006 21.2296 25.4929C21.2637 25.4876 21.4389 25.4662 21.2826 25.4849C21.6333 25.4429 21.9855 25.4156 22.3389 25.4221C22.4939 25.4249 22.647 25.4404 22.8014 25.4509C22.9251 25.4594 22.7901 25.4492 22.7696 25.4458C22.8174 25.4537 22.8653 25.4607 22.913 25.4696C22.9901 25.4839 23.0668 25.5007 23.1428 25.5204C23.2088 25.5376 23.2743 25.5569 23.3389 25.5787C23.3896 25.5957 23.5768 25.6865 23.4032 25.5985C23.5299 25.6627 23.6471 25.7308 23.7665 25.8076C23.6016 25.7015 23.7739 25.8181 23.8169 25.8603C23.8557 25.8983 23.8894 25.9411 23.9273 25.9797C23.7921 25.8421 23.9337 25.9927 23.9649 26.0447C24.0015 26.1056 24.0319 26.1692 24.0621 26.2333C23.9758 26.0506 24.0704 26.2785 24.0832 26.3249C24.0999 26.3858 24.1087 26.4486 24.1248 26.5095C24.1661 26.6656 24.1238 26.3618 24.1276 26.5284C24.1284 26.5629 24.1336 26.5981 24.1353 26.6325C24.1369 26.6636 24.1328 26.7084 24.1391 26.7401C24.1764 26.9274 24.1332 26.6444 24.2453 26.5971L24.5852 26.5051C24.701 26.4923 24.7517 26.6353 24.7898 26.7004C24.7871 26.6133 24.7886 26.5963 24.7942 26.6493C24.7708 26.6877 24.7807 26.6694 24.824 26.5946C24.9434 26.471 25.0603 26.3475 25.22 26.2481C25.6649 25.971 26.1649 25.7509 26.6549 25.567C27.6367 25.1985 28.707 24.974 29.7285 25.3174C30.5072 25.5791 31.1736 26.2243 31.4811 26.984C31.8483 27.8915 31.7063 28.9164 31.1845 29.7296C30.715 30.4613 31.8803 31.1374 32.3475 30.4094V30.4094L32.3475 30.4094Z" fill="black"/>
<path d="M51.7307 44.0631C52.4214 44.2783 53.1121 44.4935 53.8028 44.7087C54.0271 44.7786 54.3025 44.6262 54.3551 44.3952C54.4106 44.1513 54.2817 43.9177 54.0415 43.8429C53.3508 43.6277 52.6601 43.4125 51.9694 43.1973C51.7451 43.1274 51.4697 43.2798 51.4171 43.5108C51.3616 43.7547 51.4905 43.9883 51.7307 44.0631V44.0631V44.0631Z" fill="black"/>
<path d="M50.7323 33.189C50.8057 33.108 50.8833 33.0312 50.9665 32.9603C50.9909 32.9394 51.0156 32.919 51.0409 32.8992C51.0074 32.9254 51.0083 32.9235 51.0423 32.9001C51.0846 32.8709 51.1267 32.8416 51.1702 32.8142C51.2626 32.7561 51.3588 32.704 51.4578 32.6578C51.4931 32.6414 51.5336 32.6255 51.4742 32.6491C51.4981 32.6396 51.522 32.6302 51.5461 32.6212C51.6004 32.6009 51.6553 32.5826 51.7107 32.5659C51.8153 32.5344 51.9219 32.5092 52.0296 32.4907C52.055 32.4864 52.0804 32.4823 52.1058 32.4788C52.0649 32.4845 52.0533 32.4848 52.1013 32.4811C52.159 32.4766 52.2164 32.4718 52.2743 32.47C52.3836 32.4667 52.4922 32.4721 52.6011 32.4809C52.6493 32.4847 52.6371 32.4852 52.5964 32.4788C52.6218 32.4828 52.6471 32.4867 52.6724 32.4912C52.7357 32.5025 52.7983 32.5169 52.8607 32.5327C53.0879 32.5907 53.3584 32.4587 53.4129 32.2192C53.4661 31.9857 53.3428 31.729 53.0994 31.6669C52.0325 31.3949 50.8404 31.7349 50.0973 32.554C49.9396 32.728 49.9127 33.0195 50.0973 33.189C50.2694 33.3469 50.5638 33.3747 50.7323 33.189V33.189H50.7323Z" fill="black"/>
<path d="M58.3391 33.279C58.5143 33.2178 58.6921 33.1651 58.8729 33.1231C58.9504 33.1051 59.0282 33.0889 59.1064 33.0746C59.1585 33.0651 59.2109 33.0571 59.2632 33.0484C59.362 33.0321 59.1925 33.0552 59.3014 33.0433C59.6582 33.0042 60.0148 32.998 60.3724 33.031C60.607 33.0527 60.8316 32.8091 60.8214 32.5821C60.8096 32.3203 60.6237 32.1563 60.3724 32.1331C59.6091 32.0626 58.824 32.1603 58.1004 32.4131C57.8792 32.4904 57.7087 32.7239 57.7869 32.9654C57.8576 33.1841 58.1017 33.3619 58.3391 33.279V33.279L58.3391 33.279Z" fill="black"/>
</svg>
