<svg width="197" height="197" viewBox="0 0 197 197" fill="none" xmlns="http://www.w3.org/2000/svg">
<path d="M151.365 76.7402H148.215C147.332 76.7402 146.616 77.4561 146.616 78.3392V80.604C145.187 79 143.106 77.989 140.789 77.989C136.479 77.989 132.984 81.4831 132.984 85.7934C132.984 90.1037 136.479 93.5979 140.789 93.5979C143.106 93.5979 145.187 92.5868 146.616 90.9829V91.4786C146.616 92.3617 147.332 93.0776 148.215 93.0776H151.365C152.248 93.0776 152.964 92.3617 152.964 91.4786V78.3392C152.964 77.4561 152.248 76.7402 151.365 76.7402V76.7402Z" fill="#FFAD9D"/>
<path d="M144.181 84.8568V52.1467C144.181 51.7051 144.192 51.2618 144.181 50.8204C144.181 50.8012 144.181 50.782 144.181 50.7629C144.181 50.1603 143.245 50.1593 143.245 50.7629V83.473C143.245 83.9146 143.234 84.3579 143.245 84.7993C143.245 84.8185 143.245 84.8377 143.245 84.8568C143.245 85.4594 144.181 85.4604 144.181 84.8568V84.8568Z" fill="#00BEAA"/>
<path d="M128.597 84.9294C128.727 84.6158 128.856 84.3023 128.985 83.9887C129.334 83.1427 129.683 82.2967 130.032 81.4507C130.548 80.1993 131.065 78.948 131.581 77.6967C132.207 76.1777 132.834 74.6587 133.461 73.1397C134.139 71.4953 134.817 69.8509 135.496 68.2065C136.176 66.5568 136.857 64.9072 137.537 63.2576C138.159 61.7508 138.78 60.244 139.402 58.7372C139.914 57.4946 140.427 56.252 140.94 55.0095C141.285 54.1731 141.63 53.3367 141.975 52.5003C142.067 52.2773 142.159 52.0543 142.251 51.8313C142.274 51.775 142.297 51.7186 142.32 51.6623C142.326 51.6495 142.331 51.6366 142.336 51.6238C142.337 51.6211 142.338 51.6182 142.34 51.6154C142.29 51.7295 142.391 51.5166 142.412 51.4791C142.987 50.4369 144.406 50.1923 145.263 51.0415C145.502 51.2786 145.65 51.5671 145.76 51.8791C145.952 52.4275 146.144 52.9759 146.337 53.5242C146.703 54.5672 147.069 55.6101 147.434 56.6531C147.928 58.0591 148.421 59.4652 148.914 60.8713C149.482 62.4886 150.049 64.1059 150.616 65.7232C151.213 67.4253 151.81 69.1274 152.408 70.8295C152.98 72.4619 153.553 74.0944 154.126 75.7268C154.63 77.1634 155.134 78.5999 155.638 80.0364C156.021 81.1286 156.404 82.2208 156.787 83.313C156.999 83.9186 157.212 84.5241 157.424 85.1296C157.452 85.2085 157.48 85.2874 157.507 85.3663C157.591 85.6048 157.828 85.7637 158.083 85.6934C158.315 85.6298 158.495 85.3571 158.41 85.1173C158.295 84.7884 158.18 84.4594 158.064 84.1304C157.754 83.2449 157.443 82.3593 157.132 81.4737C156.674 80.168 156.216 78.8623 155.758 77.5567C155.207 75.9855 154.656 74.4143 154.105 72.8431C153.506 71.1371 152.908 69.4311 152.309 67.7251C151.716 66.0352 151.123 64.3453 150.531 62.6554C149.996 61.1324 149.462 59.6094 148.928 58.0864C148.498 56.8613 148.068 55.6363 147.638 54.4112C147.367 53.638 147.096 52.8647 146.825 52.0915C146.763 51.9158 146.702 51.7401 146.64 51.5646C146.417 50.9319 146.043 50.3918 145.477 50.0185C144.312 49.2514 142.713 49.5436 141.859 50.6302C141.644 50.9043 141.501 51.2091 141.37 51.5273C141.141 52.0828 140.912 52.6382 140.683 53.1937C140.252 54.2385 139.821 55.2834 139.39 56.3282C138.817 57.7173 138.244 59.1064 137.671 60.4955C137.011 62.0956 136.351 63.6958 135.69 65.296C134.997 66.9776 134.303 68.6592 133.609 70.3408C132.942 71.9588 132.275 73.5768 131.607 75.1948C131.025 76.6052 130.444 78.0155 129.862 79.4259C129.418 80.5028 128.973 81.5797 128.529 82.6565C128.283 83.2534 128.037 83.8502 127.791 84.4471C127.758 84.5249 127.726 84.6027 127.694 84.6805C127.598 84.9144 127.799 85.1953 128.021 85.2565C128.29 85.3304 128.5 85.1642 128.597 84.9294V84.9294L128.597 84.9294Z" fill="#00BEAA"/>
<path d="M128.133 84.8569C126.925 84.8569 126.002 85.9513 126.225 87.1383C127.512 93.985 134.498 99.2172 142.922 99.2172C151.347 99.2172 158.333 93.985 159.62 87.1383C159.843 85.9513 158.92 84.8569 157.712 84.8569H128.133H128.133Z" fill="#00BEAA"/>
<path d="M33.6109 81.7352H33.087V78.6443C33.087 77.6693 32.2966 76.8789 31.3216 76.8789H23.3018C22.3268 76.8789 21.5364 77.6693 21.5364 78.6443V81.7352H18.3069C17.3319 81.7352 16.5415 82.5256 16.5415 83.5007V93.6016C16.5415 94.5767 17.3319 95.3671 18.3069 95.3671H33.6109C34.5859 95.3671 35.3763 94.5767 35.3763 93.6016V83.5007C35.3763 82.5256 34.5859 81.7352 33.6109 81.7352H33.6109Z" fill="#FFAD9D"/>
<path d="M27.1143 87.0419V79.9873C27.1143 78.4913 27.1143 76.9953 27.1143 75.4992V65.6661C27.1143 64.1234 27.1143 62.5806 27.1143 61.0379C27.1143 59.7402 27.1143 58.4424 27.1143 57.1446V54.3317C27.1143 53.8901 27.1254 53.4469 27.1143 53.0054C27.1138 52.9863 27.1143 52.9671 27.1143 52.9479C27.1143 52.3453 26.1778 52.3443 26.1778 52.9479V85.6581C26.1778 86.0997 26.1667 86.5429 26.1778 86.9844C26.1783 87.0035 26.1778 87.0227 26.1778 87.0419C26.1778 87.6445 27.1143 87.6455 27.1143 87.0419V87.0419Z" fill="#00BEAA"/>
<path d="M11.5299 87.1145C11.6593 86.8009 11.7886 86.4873 11.918 86.1738C12.2669 85.3278 12.6159 84.4818 12.9649 83.6357C13.4811 82.3844 13.9973 81.1331 14.5135 79.8818C15.14 78.3628 15.7667 76.8438 16.3933 75.3248C17.0716 73.6804 17.7499 72.0359 18.4283 70.3915C19.1087 68.7419 19.7892 67.0923 20.4697 65.4426C21.0913 63.9358 21.7129 62.429 22.3344 60.9222C22.847 59.6796 23.3596 58.4371 23.8721 57.1945C24.2171 56.3582 24.5621 55.5218 24.9072 54.6854C24.9991 54.4624 25.0911 54.2394 25.1831 54.0164C25.2064 53.96 25.2296 53.9037 25.2528 53.8474C25.2581 53.8346 25.2632 53.8216 25.2687 53.8089C25.2699 53.8061 25.271 53.8033 25.2722 53.8005C25.2227 53.9146 25.3235 53.7016 25.3442 53.6642C25.9192 52.622 27.3388 52.3773 28.1953 53.2266C28.4345 53.4637 28.5828 53.7521 28.6922 54.0641C28.8846 54.6125 29.077 55.1609 29.2694 55.7093C29.6352 56.7523 30.0011 57.7952 30.367 58.8381C30.8603 60.2442 31.3535 61.6503 31.8468 63.0563C32.4141 64.6736 32.9815 66.2909 33.5489 67.9082C34.146 69.6103 34.7431 71.3124 35.3402 73.0145C35.9129 74.647 36.4856 76.2794 37.0583 77.9119C37.5623 79.3484 38.0662 80.7849 38.5701 82.2214C38.9533 83.3137 39.3365 84.4059 39.7196 85.4981C39.9321 86.1036 40.1445 86.7092 40.3569 87.3147C40.3846 87.3936 40.4123 87.4725 40.44 87.5514C40.5236 87.7899 40.7601 87.9488 41.016 87.8784C41.2474 87.8149 41.4272 87.5422 41.343 87.3024C41.2276 86.9734 41.1122 86.6445 40.9968 86.3155C40.6862 85.4299 40.3755 84.5443 40.0648 83.6587C39.6068 82.3531 39.1487 81.0474 38.6907 79.7417C38.1395 78.1705 37.5883 76.5994 37.0371 75.0282C36.4386 73.3222 35.8401 71.6161 35.2416 69.9101C34.6488 68.2202 34.056 66.5304 33.4631 64.8405C32.9289 63.3175 32.3946 61.7945 31.8603 60.2715L30.571 56.5963L29.7572 54.2765C29.6956 54.1009 29.6342 53.9252 29.5724 53.7496C29.3493 53.117 28.9756 52.5768 28.4092 52.2036C27.245 51.4365 25.6453 51.7287 24.7916 52.8152C24.5762 53.0894 24.434 53.3942 24.3028 53.7124C24.0736 54.2678 23.8445 54.8233 23.6154 55.3788C23.1844 56.4236 22.7534 57.4684 22.3224 58.5132C21.7494 59.9023 21.1764 61.2914 20.6033 62.6806C19.9432 64.2807 19.2832 65.8809 18.6231 67.481C17.9294 69.1626 17.2357 70.8443 16.5421 72.5259C15.8746 74.1439 15.2072 75.7619 14.5398 77.3799C13.958 78.7902 13.3762 80.2006 12.7944 81.611C12.3502 82.6879 11.906 83.7647 11.4617 84.8416C11.2155 85.4385 10.9693 86.0353 10.7231 86.6322C10.691 86.7099 10.6589 86.7877 10.6269 86.8655C10.5304 87.0994 10.7313 87.3804 10.9539 87.4416C11.2229 87.5155 11.4331 87.3493 11.53 87.1145V87.1145L11.5299 87.1145Z" fill="#00BEAA"/>
<path d="M21.8351 121.844C30.9652 126.931 40.7258 130.821 50.7856 133.635C60.8989 136.465 71.2942 138.223 81.7446 139.195C92.3807 140.185 103.084 140.355 113.755 139.961C124.445 139.567 135.172 138.746 145.727 136.966C156.283 135.185 166.72 132.332 176.374 127.64C177.585 127.051 178.781 126.433 179.964 125.788C180.493 125.5 180.021 124.691 179.491 124.98C170.093 130.099 159.81 133.319 149.335 135.362C138.835 137.41 128.131 138.343 117.456 138.866C106.974 139.379 96.4566 139.372 85.9862 138.61C75.5391 137.85 65.1343 136.329 54.9696 133.776C44.8375 131.232 34.9537 127.652 25.6706 122.844C24.5402 122.259 23.4198 121.654 22.3078 121.035C21.7808 120.741 21.308 121.55 21.8351 121.844V121.844L21.8351 121.844Z" fill="#FFAD9D"/>
<path d="M98.4332 78.9015C99.7132 84.4406 102.203 89.5985 103.666 95.0835C105.197 100.82 106.016 106.71 106.829 112.582C107.235 115.51 107.641 118.439 108.139 121.354C108.386 122.801 108.648 124.248 108.959 125.682C109.197 126.78 109.502 127.954 110.259 128.819C111.176 129.866 113.197 130.305 113.484 131.812C113.679 132.837 113.248 133.807 112.374 134.35C111.456 134.922 110.422 135.372 109.456 135.86C108.305 136.442 107.118 136.948 105.846 137.196C104.9 137.38 103.358 137.771 102.497 137.169C102.23 136.983 101.986 136.728 101.758 136.497C101.664 136.403 101.196 135.843 101.207 135.839C100.786 135.966 101.304 136.201 101.308 136.207C101.39 136.319 101.487 136.314 101.564 136.459C101.732 136.775 101.55 137.159 101.339 137.398C100.868 137.931 100.036 138.048 99.3665 138.12C98.7453 138.186 97.9863 138.26 97.3789 138.08C96.707 137.881 96.3928 137.119 96.1368 136.523C95.6594 135.411 95.4248 134.194 95.2941 132.996C95.0351 130.623 95.0171 128.178 94.9832 125.792C94.8986 119.834 94.1163 113.965 93.1632 108.094C92.9209 106.601 92.7054 105.104 92.4743 103.609C92.2597 102.222 91.8866 100.915 91.5583 99.5545C91.3112 98.5307 91.2112 97.5517 91.695 96.5874C91.7678 96.4424 92.0008 95.9739 92.1719 95.9829C92.5731 96.0041 92.8157 97.2807 92.8769 97.5671C93.167 98.9262 93.0448 100.373 92.9677 101.749C92.8903 103.13 92.7656 104.508 92.5944 105.88C92.2483 108.654 91.7011 111.405 90.9758 114.105C90.2584 116.775 89.3633 119.4 88.2914 121.949C87.7429 123.253 87.146 124.537 86.5063 125.799C85.9251 126.946 85.3338 128.074 84.9764 129.316C84.6454 130.466 84.5056 131.668 84.516 132.863C84.5263 134.059 84.7284 135.238 84.7788 136.43C84.8306 137.656 84.6166 138.828 83.7268 139.733C82.9285 140.546 81.8362 140.744 80.7377 140.667C79.655 140.592 78.599 140.269 77.5703 139.942C76.4835 139.595 75.1989 139.365 74.2925 138.641C74.0603 138.455 74.0121 138.386 73.8205 138.066C73.6255 137.74 73.4432 137.405 73.2776 137.064C73.1829 136.868 73.1039 136.411 72.9662 136.261L72.964 136.256C72.9703 136.081 72.9161 136.169 72.8015 136.519C72.8288 136.586 73.07 136.575 73.1105 136.643C73.1641 136.734 73.0731 137.049 73.0286 137.132C72.7879 137.583 72.1426 137.373 71.7732 137.221C71.0884 136.94 70.4691 136.447 69.9925 135.886C69.4157 135.206 69.176 134.494 69.3421 133.606C69.6001 132.228 70.3661 130.917 70.9939 129.679C72.2666 127.168 73.6577 124.716 74.7346 122.111C75.7158 119.737 76.2604 117.234 76.5333 114.685C77.1096 109.302 76.4362 103.948 75.4369 98.6591C74.8879 95.7537 74.2842 92.8525 73.9504 89.9121C73.6177 86.981 73.6272 84.0556 73.9496 81.124C74.1143 79.6261 74.3751 78.1463 74.601 76.6575C74.8148 75.2483 74.9184 73.8267 75.0211 72.4061C75.1269 70.9413 75.2609 69.4859 75.459 68.0305C75.5581 67.3028 75.6571 66.5752 75.7562 65.8475C75.795 65.5624 75.8149 65.2691 75.8759 64.988C75.9073 64.8435 76.0203 64.6604 75.9681 64.5167C75.9056 64.3442 75.8463 64.5616 75.7519 64.6696C74.5754 66.0163 72.5762 66.4037 70.8912 66.6364C69.0024 66.8974 67.0905 66.9087 65.1988 67.137C64.1225 67.267 63.065 67.513 61.995 67.6847C60.5173 67.9219 59.0287 68.0899 57.5352 68.1868C54.5889 68.3781 51.6142 68.2972 48.6913 67.8676C42.9834 67.0288 37.4969 64.9842 31.8796 63.7131C30.5485 63.4118 29.2094 63.1442 27.8615 62.9287C27.4849 62.8685 27.1076 62.8125 26.7297 62.7604C26.4323 62.7195 26.0528 62.7362 25.7938 62.5868C25.1851 62.2355 25.488 61.2846 26.1731 61.3135C26.6938 61.3354 26.819 60.5006 26.2976 60.3937C25.4939 60.2288 25.6183 59.005 26.4505 59.0386C26.9711 59.0597 27.0967 58.2258 26.575 58.1188C25.7713 57.9539 25.8957 56.7301 26.7279 56.7637C27.2483 56.7848 27.3745 55.9501 26.8524 55.8439C26.247 55.7208 26.0638 54.8437 26.665 54.5451C26.8412 54.4576 27.0246 54.4936 27.208 54.5136C27.738 54.5711 28.2667 54.6427 28.7959 54.7072C29.8132 54.8312 30.8304 54.9553 31.8477 55.0794C32.1573 55.1171 32.3714 54.7507 32.2993 54.4866C32.0985 53.7515 31.6967 52.4638 32.9047 52.3633C33.5098 52.3129 33.9422 52.8792 34.3733 53.2246C34.7913 53.5594 35.2246 53.8745 35.6732 54.1671C37.5974 55.4222 39.7663 56.303 41.9653 56.9452C44.2973 57.6262 46.7125 58.0407 49.135 58.2137C51.4773 58.3809 53.7532 58.221 56.0743 57.9114C59.1429 57.5021 62.2289 57.1534 65.2445 56.4325C68.346 55.6911 71.4062 54.6782 74.4615 53.7652C75.9815 53.311 77.5523 52.9065 79.0291 52.3245C79.915 51.9754 80.6833 51.4033 81.193 50.5908C82.2471 48.9106 82.0601 46.7236 82.0783 44.8288C82.084 44.2285 82.1008 43.6335 82.0782 43.0333C82.0448 42.151 82.2845 41.4205 82.7312 40.6644C83.534 39.3055 84.4765 38.3022 86.0834 38.0084C88.4374 37.5781 90.8556 38.6363 92.1582 40.6246C93.0951 42.0548 93.6009 43.8926 93.2922 45.5964C93.1536 46.3618 92.8455 47.102 92.3232 47.6859C91.6568 48.431 90.848 48.6759 89.9352 48.9824C89.0081 49.2936 88.2375 50.2814 88.7753 51.2525C89.2826 52.1686 90.4507 52.4616 91.4062 52.5917C92.4252 52.7304 93.4491 52.6945 94.4741 52.7153C95.8325 52.7428 97.1935 52.8526 98.5245 53.1337C100.937 53.6431 103.138 54.7743 105.47 55.537C107.64 56.2466 109.87 56.7737 112.126 57.1274C116.77 57.856 121.565 57.8956 126.177 56.919C128.42 56.4442 130.613 55.7128 132.662 54.6817C133.638 54.1909 134.577 53.6294 135.467 52.9957C135.899 52.6878 136.32 52.3631 136.728 52.0239C137.216 51.6183 137.734 50.9183 138.451 51.1508C139.453 51.4758 139.046 52.5189 138.852 53.2302C138.78 53.4943 138.994 53.8607 139.303 53.8229C140.321 53.6989 141.338 53.5748 142.355 53.4508C142.876 53.3873 143.396 53.3178 143.918 53.2602C144.077 53.2426 144.222 53.2133 144.381 53.2589C145.073 53.457 144.957 54.4536 144.299 54.5875C143.782 54.6925 143.898 55.5285 144.423 55.5073C145.249 55.4739 145.387 56.696 144.576 56.8623C144.06 56.9683 144.175 57.8034 144.701 57.7821C145.526 57.7488 145.664 58.9709 144.854 59.1372C144.337 59.2431 144.452 60.0792 144.978 60.057C145.518 60.0343 145.894 60.6517 145.582 61.1294C145.293 61.5718 144.299 61.5188 143.823 61.5902C142.544 61.7816 141.273 62.022 140.008 62.2947C137.667 62.8 135.326 63.3732 133.011 63.9907C131.923 64.2811 130.847 64.6177 129.811 65.0624C128.849 65.4752 127.951 66.0064 126.968 66.3723C125.039 67.0898 122.992 67.4746 120.949 67.6741C116.631 68.0956 112.147 67.875 107.929 66.8456C105.483 66.2487 103.139 65.3842 100.81 64.4362C99.8961 64.0638 98.8375 63.8733 97.9753 63.3991C97.53 63.1541 97.1131 62.7285 96.9923 62.2201C96.9428 62.0115 96.9214 61.4775 97.2387 61.4003C97.4272 61.3544 97.3361 61.446 97.3299 61.6248C97.323 61.8208 97.3051 62.0143 97.2732 62.208C97.1704 62.8305 96.9868 63.4364 96.8973 64.0618C96.7991 64.7474 96.8362 65.4454 96.852 66.1357C96.8853 67.6003 96.9689 69.0636 97.103 70.5224C97.3622 73.3412 97.8094 76.1406 98.4333 78.9014C98.566 79.4891 99.4692 79.2404 99.3363 78.6525C98.671 75.7078 98.2086 72.722 97.9703 69.7122C97.8478 68.1659 97.7728 66.6117 97.7729 65.0603C97.7729 63.7871 98.4615 62.4639 98.2449 61.198C98.0651 60.1472 96.8194 60.2563 96.306 61.0075C95.6594 61.9538 96.2064 63.1897 96.9989 63.8594C97.7993 64.5358 98.8705 64.6734 99.8202 65.0385C101.207 65.5713 102.564 66.1717 103.97 66.6544C108.944 68.362 114.155 69.0179 119.401 68.7284C121.808 68.5956 124.239 68.263 126.536 67.5127C127.616 67.1602 128.605 66.6672 129.622 66.1723C130.875 65.5624 132.221 65.1623 133.567 64.813C136.654 64.0118 139.767 63.2218 142.911 62.6803C143.717 62.5414 144.556 62.4876 145.354 62.3184C145.883 62.2062 146.319 61.8609 146.512 61.3474C146.912 60.2838 146.139 59.0715 144.978 59.1205C145.02 59.4271 145.061 59.7337 145.103 60.0403C146.945 59.6624 146.576 56.7698 144.701 56.8456C144.742 57.1522 144.784 57.4588 144.825 57.7654C146.668 57.3875 146.299 54.4949 144.423 54.5707C144.465 54.8773 144.506 55.184 144.548 55.4906C145.757 55.2447 146.177 53.6928 145.359 52.8009C144.822 52.2148 144.172 52.2928 143.474 52.3778C142.084 52.5473 140.694 52.7169 139.304 52.8864C139.454 53.084 139.605 53.2816 139.755 53.4792C139.969 52.6969 140.257 51.9121 139.818 51.142C139.257 50.158 137.959 49.8875 137.036 50.5283C136.6 50.8312 136.227 51.236 135.812 51.5691C135.333 51.9537 134.833 52.3119 134.319 52.6482C133.358 53.2773 132.345 53.8259 131.298 54.2981C126.869 56.2953 121.879 56.895 117.061 56.689C112.329 56.4867 107.585 55.4994 103.196 53.7103C101.894 53.1798 100.6 52.6611 99.2288 52.3334C97.9022 52.0162 96.5415 51.8625 95.1805 51.8025C94.0724 51.7536 92.9584 51.8143 91.8532 51.7077C91.3323 51.6574 90.7855 51.5741 90.3035 51.3602C89.6746 51.0812 89.2142 50.419 89.9855 49.9769C90.419 49.7284 90.989 49.6721 91.4504 49.4606C91.8691 49.2686 92.2534 49.0208 92.6029 48.7206C93.2446 48.1693 93.7031 47.4384 93.9835 46.6446C94.5604 45.0122 94.3421 43.1365 93.6968 41.5592C92.9334 39.6931 91.5558 38.1811 89.6536 37.4478C88.4143 36.9701 87.0388 36.8602 85.738 37.1233C84.3266 37.4087 83.3152 38.1738 82.4885 39.3291C82.1043 39.866 81.7522 40.4291 81.4944 41.0383C81.1634 41.8203 81.1244 42.5216 81.1579 43.3606C81.2035 44.5048 81.1599 45.6788 81.1247 46.8242C81.0943 47.8134 81.0204 48.8661 80.5783 49.7699C80.0519 50.8461 79.1073 51.3288 78.0119 51.6845C74.8157 52.7223 71.5789 53.6279 68.3577 54.5836C65.2398 55.5086 62.1304 56.1638 58.9071 56.6014C56.2249 56.9655 53.55 57.4061 50.8355 57.3546C48.365 57.3077 45.8996 56.9792 43.5007 56.3882C41.1019 55.7972 38.7395 54.943 36.621 53.6574C36.1698 53.3836 35.729 53.0905 35.3073 52.7729C34.8558 52.4329 34.4583 51.9732 33.9701 51.6894C33.0012 51.1262 31.7365 51.5267 31.2648 52.5386C30.9217 53.2748 31.1971 54.0062 31.3964 54.7356C31.5469 54.538 31.6974 54.3404 31.8479 54.1428C30.4576 53.9733 29.0673 53.8037 27.677 53.6342C27.012 53.5531 26.3808 53.465 25.8453 53.9969C24.9636 54.8725 25.362 56.4945 26.6036 56.747C26.6451 56.4404 26.6866 56.1338 26.7281 55.8272C24.8538 55.7514 24.4825 58.6437 26.3262 59.0218C26.3677 58.7152 26.4092 58.4086 26.4507 58.102C24.5764 58.0262 24.205 60.9185 26.0488 61.2967C26.0902 60.9901 26.1317 60.6835 26.1732 60.3769C25.0133 60.328 24.2375 61.5401 24.6394 62.6038C24.8213 63.0852 25.2252 63.4329 25.7206 63.5589C26.5422 63.768 27.4489 63.799 28.2882 63.9441C31.4947 64.4987 34.6435 65.3312 37.7794 66.1905C41.0037 67.0741 44.2325 68.0585 47.5315 68.6254C50.7558 69.1793 54.0408 69.3334 57.3051 69.1377C58.9592 69.0385 60.6082 68.8507 62.2441 68.5878C63.4322 68.3969 64.6028 68.1235 65.8019 68.0091C68.0137 67.7981 70.2538 67.7816 72.4345 67.3148C73.4061 67.1069 74.3844 66.8019 75.2402 66.2866C75.8149 65.9406 77.0391 65.1067 76.9086 64.3161C76.8346 63.8678 76.3534 63.5772 75.9184 63.6252C75.3461 63.6882 75.0757 64.2339 74.973 64.739C74.649 66.3329 74.4935 68.013 74.3181 69.6304C74.1431 71.244 74.0702 72.8663 73.9225 74.4822C73.7648 76.2071 73.4322 77.9044 73.1995 79.6194C72.75 82.9319 72.6223 86.2399 72.9763 89.5681C73.6578 95.9751 75.5327 102.192 75.7795 108.655C75.8964 111.714 75.7482 114.813 75.0964 117.811C74.4315 120.869 73.0794 123.651 71.6395 126.409C70.8757 127.872 70.0957 129.328 69.3926 130.822C68.8385 132 68.1606 133.363 68.3794 134.704C68.6397 136.3 70.2365 137.717 71.7201 138.195C72.3413 138.395 73.1053 138.426 73.5995 137.928C74.1416 137.383 74.2528 136.349 73.5973 135.873C72.9199 135.382 71.8438 135.503 72.0653 136.516C72.2291 137.265 72.6837 138.012 73.0836 138.657C73.6206 139.524 74.5659 139.958 75.5052 140.269C76.6583 140.652 77.8282 141.047 79.011 141.328C81.4151 141.898 84.1026 141.653 85.2707 139.14C85.7859 138.032 85.7666 136.806 85.6572 135.615C85.5248 134.173 85.3646 132.744 85.5287 131.297C85.6987 129.796 86.225 128.383 86.9147 127.048C87.6166 125.69 88.2839 124.316 88.8907 122.912C91.3808 117.151 92.9897 111.036 93.6566 104.796C93.8263 103.207 93.9423 101.608 93.9759 100.011C94.0053 98.6111 93.9722 96.9413 93.186 95.7206C92.7364 95.0224 91.9655 94.8223 91.3488 95.4436C90.7466 96.0503 90.4265 97.069 90.3957 97.9065C90.341 99.3977 91.0087 100.831 91.3074 102.265C91.6514 103.918 91.8332 105.614 92.0921 107.281C92.6239 110.706 93.2091 114.112 93.5586 117.562C93.8881 120.815 93.9805 124.068 94.1105 127.332C94.2204 130.093 94.0768 132.941 94.8363 135.628C95.1302 136.668 95.5939 138.141 96.5669 138.746C97.158 139.113 97.9285 139.119 98.6012 139.105C99.3154 139.09 100.071 139.021 100.755 138.802C101.832 138.456 102.983 137.355 102.437 136.123C102.154 135.485 100.705 134.648 100.323 135.646C100.074 136.295 100.941 137.023 101.346 137.403C102.075 138.087 102.761 138.399 103.802 138.384C105.267 138.363 106.795 138.024 108.151 137.482C109.411 136.978 110.58 136.298 111.798 135.706C112.737 135.249 113.693 134.762 114.147 133.763C114.56 132.854 114.598 131.663 114.089 130.782C113.666 130.05 112.922 129.606 112.225 129.17C111.27 128.572 110.633 127.968 110.247 126.875C109.702 125.332 109.488 123.632 109.203 122.026C108.903 120.339 108.636 118.647 108.386 116.953C107.898 113.645 107.473 110.327 106.977 107.02C106.479 103.702 105.91 100.392 105.142 97.1236C104.379 93.87 103.326 90.7268 102.184 87.5892C101.115 84.6494 100.042 81.7054 99.3364 78.6524C99.2008 78.0654 98.2975 78.3139 98.4333 78.9014L98.4332 78.9015Z" fill="black"/>
<path d="M90.1151 49.401C88.6709 49.7621 88.4094 49.6691 87.7941 49.6456C87.1788 49.6221 86.5506 49.4512 86.0796 49.0547C86.8449 49.7252 87.5877 50.773 89.0319 50.9897C89.0319 50.9897 88.2376 49.6176 90.1151 49.401V49.401Z" fill="black"/>
<path d="M89.9908 48.9497C89.3348 49.1124 88.8846 49.2284 88.2421 49.2013C87.6072 49.1745 86.9274 49.1448 86.4109 48.7238C86.2151 48.5641 85.9403 48.5322 85.7487 48.7238C85.5781 48.8944 85.5584 49.2179 85.7487 49.386C86.1793 49.7665 86.5609 50.1989 87.0119 50.5569C87.5704 51 88.1975 51.328 88.9077 51.4414C89.2951 51.5033 89.6554 51.1354 89.4365 50.7535C89.4271 50.7371 89.4185 50.7201 89.4103 50.703C89.4064 50.6949 89.3908 50.647 89.3834 50.6441C89.4217 50.6592 89.4299 50.7746 89.3936 50.6611C89.3731 50.5971 89.3561 50.5336 89.3402 50.4683C89.3088 50.3398 89.3364 50.5405 89.337 50.452C89.3373 50.4107 89.3344 50.369 89.3345 50.3276C89.3345 50.3072 89.3413 50.2839 89.3393 50.264C89.3418 50.2888 89.3096 50.3647 89.3347 50.3116C89.352 50.275 89.3603 50.2226 89.3725 50.1836C89.3319 50.3133 89.3826 50.187 89.4044 50.1457C89.4414 50.0754 89.3568 50.19 89.397 50.157C89.4147 50.1425 89.4398 50.1168 89.4535 50.0997C89.5044 50.036 89.4086 50.126 89.453 50.0969C89.4792 50.0798 89.5043 50.0621 89.5312 50.046C89.5541 50.0324 89.5777 50.0203 89.601 50.0077C89.7155 49.9459 89.5176 50.0342 89.6488 49.9852C89.7977 49.9297 89.9575 49.8891 90.1153 49.8695C90.3662 49.8383 90.5836 49.6766 90.5836 49.4012C90.5836 49.1724 90.368 48.9015 90.1153 48.9329C89.3685 49.0259 88.5306 49.3258 88.4144 50.1762C88.3658 50.5315 88.449 50.9143 88.6278 51.2262C88.8041 50.9969 88.9804 50.7676 89.1566 50.5383C88.5635 50.4436 88.0254 50.1849 87.5914 49.8279C87.1745 49.485 86.8149 49.0807 86.4109 48.7238L85.7487 49.386C86.9994 50.4056 88.7814 50.2144 90.2398 49.8527C90.8245 49.7077 90.5768 48.8043 89.9908 48.9496V48.9497Z" fill="black"/>
<path d="M29.7335 60.8516C28.5893 60.712 27.4451 60.5725 26.3009 60.4329C26.1384 60.4131 25.9759 60.3933 25.8135 60.3735C25.562 60.3428 25.3452 60.6107 25.3452 60.8418C25.3452 61.1203 25.5613 61.2793 25.8135 61.3101C26.9577 61.4496 28.1019 61.5891 29.2461 61.7287C29.4086 61.7485 29.571 61.7683 29.7335 61.7881C29.985 61.8188 30.2018 61.5509 30.2018 61.3198C30.2018 61.0413 29.9857 60.8823 29.7335 60.8516V60.8516Z" fill="black"/>
<path d="M30.152 58.5986C29.0077 58.4591 27.8635 58.3196 26.7193 58.18C26.5569 58.1602 26.3944 58.1404 26.2319 58.1206C25.9805 58.0899 25.7637 58.3578 25.7637 58.5888C25.7637 58.8674 25.9798 59.0264 26.2319 59.0571C27.3762 59.1967 28.5204 59.3362 29.6646 59.4757C29.827 59.4956 29.9895 59.5154 30.152 59.5352C30.4034 59.5658 30.6202 59.298 30.6202 59.0669C30.6202 58.7883 30.4041 58.6294 30.152 58.5986V58.5986Z" fill="black"/>
<path d="M30.2247 56.2314C29.0805 56.0919 27.9363 55.9524 26.7921 55.8128C26.6296 55.793 26.4672 55.7732 26.3047 55.7534C26.0532 55.7227 25.8364 55.9906 25.8364 56.2217C25.8364 56.5002 26.0525 56.6592 26.3047 56.6899C27.4489 56.8295 28.5931 56.969 29.7373 57.1086C29.8998 57.1284 30.0623 57.1482 30.2247 57.168C30.4762 57.1987 30.693 56.9308 30.693 56.6997C30.693 56.4211 30.4769 56.2622 30.2247 56.2314V56.2314V56.2314Z" fill="black"/>
<path d="M82.61 129.883C82.0818 130.007 81.6608 130.4 81.4477 130.892C81.207 131.448 81.2553 132.044 81.5071 132.588C81.7421 133.097 82.2007 133.607 82.7306 133.812C83.3425 134.049 83.9801 133.704 84.0583 133.048C84.0805 132.861 83.8981 132.629 83.7145 132.596C83.1399 132.491 82.6583 132.751 82.3357 133.224C82.0383 133.661 81.9663 134.195 82.0381 134.708C82.1872 135.773 82.95 136.669 83.9596 137.022C84.1983 137.105 84.4718 136.927 84.5356 136.695C84.6065 136.437 84.4482 136.203 84.2085 136.119C83.6038 135.908 83.1503 135.366 82.9954 134.751C82.9273 134.481 82.9119 134.184 83.0186 133.921C83.0719 133.79 83.159 133.647 83.2747 133.561C83.3455 133.508 83.4097 133.489 83.4655 133.499L83.1217 133.048C83.1366 132.922 83.1532 132.981 83.0469 132.935C82.92 132.881 82.8092 132.778 82.7127 132.683C82.5064 132.48 82.3393 132.234 82.2626 131.953C82.1315 131.473 82.3415 130.908 82.8589 130.786C83.4452 130.647 83.197 129.744 82.61 129.883V129.883V129.883Z" fill="black"/>
<path d="M109.014 126.876C108.989 126.5 108.739 126.214 108.364 126.15C107.965 126.083 107.607 126.267 107.408 126.617C107.226 126.938 107.214 127.339 107.206 127.698C107.198 128.089 107.232 128.496 107.376 128.862C107.631 129.514 108.248 130.097 108.994 130.017C109.395 129.974 109.771 129.725 109.853 129.31C109.936 128.887 109.715 128.528 109.326 128.374C109.175 128.313 108.98 128.386 108.871 128.494C108.235 129.121 108.427 130.169 109.034 130.745C109.787 131.46 110.923 131.328 111.843 131.095C112.427 130.947 112.18 130.043 111.594 130.192C111.028 130.335 110.228 130.501 109.745 130.127C109.575 129.996 109.475 129.812 109.422 129.6C109.42 129.591 109.405 129.503 109.409 129.542C109.414 129.581 109.408 129.492 109.408 129.484C109.408 129.452 109.408 129.421 109.41 129.389C109.416 129.312 109.395 129.449 109.413 129.374C109.421 129.344 109.428 129.314 109.438 129.285C109.463 129.212 109.412 129.338 109.446 129.269C109.485 129.191 109.456 129.232 109.533 129.156C109.381 129.196 109.229 129.237 109.077 129.277C108.997 129.245 108.941 129.209 108.939 129.123C108.938 129.113 108.975 129.055 108.979 129.067C108.994 129.11 108.736 129.069 108.725 129.064C108.453 128.961 108.285 128.68 108.211 128.412C108.114 128.062 108.118 127.636 108.165 127.295C108.171 127.252 108.188 127.162 108.21 127.106C108.215 127.093 108.247 127.067 108.245 127.043C108.246 127.054 108.221 127.057 108.221 127.062C108.221 127.065 108.16 127.085 108.231 127.061C108.207 127.069 108.182 127.07 108.158 127.059C108.26 127.103 108.157 127.051 108.153 127.041C108.118 126.96 108.088 127.037 108.077 126.876C108.094 127.128 108.281 127.344 108.546 127.344C108.786 127.344 109.031 127.13 109.014 126.876V126.876H109.014Z" fill="black"/>
<path d="M83.9693 42.1679C83.4936 42.2929 83.11 42.7152 83.0314 43.2008C82.9647 43.6124 83.1031 44.0327 83.3051 44.3974C83.6651 45.0476 84.3718 45.5408 84.2502 46.3652C84.1812 46.833 83.8563 47.2549 83.4215 47.441C83.0293 47.609 82.452 47.4962 82.3642 47.0786C82.3482 47.3758 82.1198 47.6407 81.8363 47.7315C81.5529 47.8223 81.2307 47.7505 80.9905 47.5747C80.8414 47.4656 80.7176 47.3126 80.6754 47.1327C80.631 46.943 80.6798 46.7458 80.7112 46.5535C80.9119 45.326 80.3997 44.1096 79.9666 42.9435C79.5335 41.7775 79.1734 40.4628 79.6578 39.3171C79.7849 39.0165 79.9741 38.7328 80.2453 38.551C80.5164 38.3692 80.8782 38.3038 81.1763 38.4366C81.0505 38.2071 80.8513 38.0193 80.7553 37.7758C80.6593 37.5322 80.7254 37.1873 80.9773 37.1159C81.2746 37.0316 81.5046 37.3717 81.6265 37.6557C81.6328 37.2969 81.7186 36.9397 81.8761 36.6172C81.9211 36.525 81.9767 36.4307 82.0676 36.383C82.2618 36.2812 82.5073 36.4616 82.5561 36.6754C82.6049 36.8891 82.521 37.1084 82.4386 37.3116C84.4451 35.5776 86.9469 34.4732 89.5368 33.9027C90.5968 33.6692 91.7182 33.5242 92.7553 33.8444C93.1668 33.9713 93.5871 34.2027 93.7474 34.6023C93.9077 35.0019 93.6451 35.5649 93.2147 35.5535C93.7418 35.3671 94.3781 35.599 94.6832 36.0675C94.9884 36.536 94.9519 37.1936 94.6175 37.6417C94.2832 38.0899 93.6816 38.3121 93.1309 38.2157C93.7148 38.3284 94.1991 38.8404 94.2792 39.4297C94.3115 39.6673 94.2771 39.9268 94.1233 40.1109C94.0122 40.2439 93.8506 40.3245 93.6876 40.3836C92.6405 40.7637 91.9671 40.0849 90.9938 40.0849C89.8299 40.085 88.6623 40.3288 87.5935 40.7884C87.2571 40.9331 86.9046 41.1249 86.7599 41.4613C86.6849 41.6355 86.6751 41.8303 86.6783 42.0199C86.6948 42.9942 86.9981 44.0839 86.4158 44.8652C86.6132 44.6004 85.7429 43.2244 85.5863 42.9864C85.2186 42.4275 84.6967 41.9769 83.9693 42.1679V42.1679Z" fill="black"/>
<path d="M83.845 41.7166C83.1364 41.9245 82.6112 42.542 82.5527 43.2834C82.495 44.0149 82.8796 44.659 83.3067 45.2156C83.6135 45.6154 83.9601 46.059 83.6972 46.5746C83.5878 46.7891 83.3801 46.9949 83.1358 47.041C83.0749 47.0525 82.9597 47.0511 82.877 47.0199C82.8339 47.0036 82.8305 47.0083 82.816 46.9543C82.6707 46.4132 81.9488 46.5779 81.8962 47.0788C81.8792 47.2411 81.6632 47.319 81.5219 47.3017C81.2326 47.2663 81.1034 47.0726 81.1416 46.8024C81.196 46.4174 81.2425 46.0467 81.2106 45.657C81.1778 45.2571 81.1018 44.8613 80.9944 44.475C80.6053 43.0757 79.7504 41.6835 79.9112 40.1831C79.9688 39.6459 80.3246 38.6055 81.0521 38.8884C81.4472 39.042 81.7726 38.5286 81.5809 38.2005C81.4962 38.0555 81.3908 37.9266 81.2971 37.7878C81.2908 37.7785 81.1336 37.4798 81.1841 37.4933C81.2244 37.504 81.001 37.6416 81.0145 37.5576C81.0156 37.5509 81.1093 37.6718 81.1026 37.6622C81.1516 37.7328 81.1873 37.8141 81.2224 37.8922C81.4248 38.3421 82.0803 38.0819 82.095 37.6558C82.1059 37.3415 82.207 37.089 82.3091 36.7986L82.3413 36.7452C82.2785 36.8224 82.1996 36.8407 82.1048 36.8002C82.1071 36.7983 82.1064 36.7984 82.1048 36.8C82.0936 36.8109 82.0882 36.8977 82.0844 36.9131C82.0612 37.0072 82.0231 37.0974 81.9873 37.1873C81.9116 37.3766 82.0379 37.6198 82.2025 37.7161C82.391 37.8264 82.6109 37.7794 82.7699 37.6429C84.0444 36.5482 85.5341 35.7042 87.1036 35.1111C87.8989 34.8106 88.7159 34.5684 89.545 34.3805C90.3955 34.1877 91.306 34.0263 92.1759 34.1854C92.5323 34.2505 93.0084 34.35 93.2449 34.6569C93.3354 34.7743 93.3444 34.8468 93.313 34.9506C93.3064 34.9723 93.2654 35.052 93.2613 35.057C93.2265 35.0993 93.236 35.0848 93.2149 35.0854C93.2564 35.392 93.2979 35.6986 93.3394 36.0052C93.8794 35.8319 94.4223 36.22 94.4237 36.7926C94.4251 37.3959 93.8489 37.8536 93.2556 37.7643C93.0058 37.7267 92.7522 37.827 92.6795 38.0913C92.6151 38.3257 92.7585 38.6129 93.0066 38.6674C93.3434 38.7413 93.6359 38.9598 93.7651 39.2883C93.809 39.3999 93.8394 39.5459 93.8197 39.6661C93.7878 39.861 93.6196 39.9191 93.4473 39.9702C93.0806 40.0789 92.7328 40.014 92.3747 39.9068C91.9765 39.7876 91.5906 39.6591 91.1731 39.6246C90.6804 39.5839 90.1673 39.6476 89.6801 39.7178C89.1731 39.7908 88.6731 39.9062 88.1863 40.0659C87.7516 40.2084 87.2752 40.365 86.897 40.6291C86.4677 40.9289 86.2379 41.3304 86.2119 41.8569C86.1675 42.7585 86.5812 43.8274 86.0117 44.6291C86.2813 44.7866 86.5508 44.9442 86.8204 45.1018C87.0316 44.7607 86.8407 44.3295 86.696 44.0035C86.544 43.661 86.3544 43.3343 86.1584 43.0153C85.958 42.689 85.743 42.3602 85.4484 42.1107C84.9872 41.7201 84.4359 41.5773 83.845 41.7166C83.2587 41.8548 83.5069 42.7581 84.094 42.6197C84.7196 42.4722 85.0897 43.0616 85.3716 43.5237C85.529 43.7816 85.6801 44.0444 85.8125 44.3161C85.882 44.4587 85.8951 44.4745 85.9463 44.6374C85.962 44.6874 85.9655 44.7503 85.9863 44.797C85.9598 44.7374 85.9694 44.6975 86.0117 44.6291C85.8785 44.8441 85.9654 45.1445 86.1797 45.2698C86.4145 45.4072 86.6735 45.3086 86.8204 45.1018C87.4049 44.279 87.217 43.2534 87.1592 42.3154C87.1467 42.1122 87.1055 41.8557 87.1834 41.6618C87.2521 41.4908 87.4236 41.394 87.5782 41.3119C88.0219 41.0763 88.5237 40.9257 89.0085 40.8024C89.5203 40.6722 90.0409 40.5914 90.5683 40.5643C91.0356 40.5403 91.4282 40.5922 91.8735 40.7314C92.2921 40.8622 92.7246 40.9935 93.1689 40.9637C93.6819 40.9292 94.2807 40.7488 94.5705 40.2901C95.2032 39.2888 94.2729 37.9878 93.2556 37.7644C93.1726 38.0654 93.0896 38.3664 93.0066 38.6675C94.188 38.8453 95.3607 38.0563 95.3602 36.7927C95.3598 35.6351 94.2115 34.7425 93.0904 35.1022C92.6042 35.2582 92.667 36.0391 93.2149 36.022C93.6933 36.0072 94.0706 35.6794 94.2084 35.227C94.3504 34.761 94.1939 34.2815 93.8576 33.9412C93.1327 33.2077 91.861 33.134 90.8977 33.2149C89.846 33.3033 88.8007 33.5658 87.7963 33.8823C86.8221 34.1894 85.8692 34.5775 84.9626 35.0488C83.9396 35.5806 82.9823 36.2295 82.1077 36.9807C82.3686 37.1326 82.6295 37.2844 82.8904 37.4363C83.0279 37.0917 83.1151 36.7003 82.9293 36.3548C82.7633 36.0459 82.4079 35.8302 82.0529 35.9027C81.3516 36.0458 81.1789 37.0642 81.1585 37.6559C81.4494 37.5772 81.7402 37.4984 82.0311 37.4196C81.9057 37.1408 81.7164 36.8664 81.4366 36.7258C81.1118 36.5626 80.7184 36.6337 80.4755 36.9045C80.25 37.1558 80.2006 37.5284 80.286 37.8469C80.3709 38.164 80.6111 38.3973 80.7723 38.6732C80.9485 38.4439 81.1248 38.2146 81.3011 37.9853C80.2948 37.594 79.4529 38.4798 79.1469 39.3466C78.8236 40.2624 78.9599 41.2788 79.2221 42.1911C79.4928 43.1334 79.9269 44.0215 80.157 44.9766C80.2644 45.4224 80.3204 45.8816 80.2709 46.3398C80.2453 46.5765 80.1754 46.8113 80.1938 47.0512C80.2137 47.3112 80.3156 47.5407 80.4838 47.7386C80.8255 48.141 81.414 48.332 81.9253 48.193C82.449 48.0506 82.7778 47.6032 82.8328 47.0788C82.5262 47.1203 82.2196 47.1618 81.913 47.2033C82.1231 47.9856 83.0765 48.141 83.7195 47.8174C84.4143 47.4678 84.8255 46.6724 84.7068 45.9065C84.6012 45.2253 84.0753 44.7829 83.7413 44.2167C83.5659 43.9193 83.4136 43.5429 83.512 43.1948C83.5917 42.9127 83.8165 42.7011 84.094 42.6197C84.6711 42.4504 84.4255 41.5463 83.845 41.7166L83.845 41.7166Z" fill="black"/>
<path d="M91.2569 42.8931C91.1274 43.1841 91.1484 43.5032 91.3331 43.7686C91.5076 44.0193 91.7453 44.1794 92.034 44.2724C92.0889 44.2901 92.1433 44.309 92.1982 44.3267C92.2665 44.3486 92.163 44.3041 92.2195 44.3354C92.249 44.3516 92.2787 44.3662 92.3059 44.3862C92.2633 44.3549 92.2964 44.3812 92.3149 44.4033C92.2913 44.3726 92.289 44.3723 92.3079 44.4022L92.2967 44.3753C92.3052 44.4108 92.3065 44.408 92.3006 44.3671C92.302 44.384 92.3022 44.401 92.3011 44.4179C92.3007 44.3656 92.3009 44.4033 92.293 44.4365C92.2786 44.4964 92.3162 44.4123 92.2814 44.4587C92.2724 44.4742 92.2627 44.4892 92.2522 44.5038C92.2735 44.476 92.2725 44.4755 92.2491 44.5022C92.239 44.5104 92.1794 44.554 92.2263 44.5241C92.1993 44.5412 92.1725 44.5566 92.1442 44.5714C92.1103 44.5874 92.1061 44.5893 92.1316 44.5772C92.1167 44.5828 92.1017 44.5879 92.0865 44.5926C92.0509 44.6041 92.0148 44.6138 91.9785 44.6224C91.9055 44.6396 91.8314 44.6522 91.7574 44.6646C91.5959 44.6917 91.4912 44.8996 91.5394 45.0486C91.5959 45.2231 91.7504 45.2957 91.9234 45.2666C92.2575 45.2106 92.5889 45.1113 92.7913 44.8189C92.9957 44.5234 92.9636 44.1115 92.6721 43.8863C92.5535 43.7947 92.4181 43.7406 92.276 43.6946C92.2173 43.6757 92.1588 43.6569 92.1007 43.6363C92.0798 43.6283 92.0839 43.6299 92.113 43.6411C92.0966 43.6332 92.0804 43.6247 92.0645 43.6158C92.0363 43.6001 92.0094 43.5826 91.9829 43.5642C91.965 43.5514 91.9677 43.5536 91.9909 43.571C91.9767 43.5593 91.9628 43.5471 91.9492 43.5346C91.9257 43.5127 91.9057 43.4866 91.8821 43.4653C91.8678 43.4483 91.8698 43.4517 91.8879 43.4754C91.8772 43.4609 91.8669 43.4461 91.8571 43.431C91.8402 43.4048 91.8272 43.3768 91.8115 43.3499C91.8018 43.3294 91.8037 43.3342 91.8173 43.3646C91.8114 43.3485 91.8061 43.3322 91.8015 43.3156C91.7969 43.2993 91.7931 43.2827 91.79 43.2661C91.7942 43.3033 91.7953 43.3102 91.7935 43.2866C91.7968 43.2726 91.8034 43.1756 91.7881 43.2568C91.791 43.2412 91.825 43.143 91.796 43.2082C91.8622 43.0593 91.8442 42.8657 91.684 42.781C91.5481 42.7092 91.3278 42.7337 91.2569 42.893V42.893L91.2569 42.8931Z" fill="black"/>
<path d="M88.9944 42.2716C89.0415 42.2415 89.0902 42.2154 89.1405 42.1911C89.1786 42.1726 89.1388 42.1962 89.1234 42.1979C89.1357 42.1965 89.1507 42.1874 89.1624 42.1832C89.1885 42.1738 89.215 42.1654 89.2418 42.1578C89.2956 42.1426 89.351 42.1365 89.405 42.1232C89.3891 42.1271 89.3415 42.1299 89.3842 42.127C89.3981 42.126 89.412 42.1246 89.4259 42.1237C89.4572 42.1218 89.4885 42.121 89.5199 42.1213C89.5477 42.1216 89.5756 42.1228 89.6034 42.1249C89.6173 42.126 89.6311 42.1279 89.645 42.1288C89.6873 42.1314 89.5825 42.1177 89.6241 42.1258C89.679 42.1366 89.7332 42.1467 89.7869 42.1626C89.8135 42.1705 89.8399 42.1793 89.866 42.189C89.8747 42.1923 89.9199 42.2106 89.877 42.1926C89.8342 42.1746 89.8789 42.1941 89.8873 42.1981C89.9409 42.2236 89.9919 42.2533 90.0411 42.2862C90.1772 42.3772 90.3927 42.3171 90.4682 42.1742C90.5513 42.017 90.5015 41.8442 90.3562 41.7471C89.865 41.4186 89.1765 41.4152 88.6792 41.7325C88.5417 41.8203 88.4734 42.0141 88.5672 42.1596C88.6559 42.2972 88.8471 42.3656 88.9944 42.2716V42.2716V42.2716Z" fill="black"/>
<path d="M92.3245 42.2239C92.3885 42.1846 92.4551 42.1502 92.5241 42.1206L92.4495 42.1521C92.569 42.1021 92.6937 42.0678 92.8219 42.0495L92.7389 42.0607C92.7844 42.0546 92.8299 42.0505 92.8757 42.0484C92.9581 42.0446 93.0373 42.0162 93.0965 41.957C93.1506 41.9028 93.1914 41.814 93.1879 41.7363C93.1843 41.6555 93.1578 41.5718 93.0965 41.5155C93.0371 41.4609 92.9589 41.4202 92.8757 41.4241C92.5704 41.4382 92.2705 41.5244 92.0094 41.6848C91.9416 41.7265 91.8873 41.794 91.866 41.8714C91.8454 41.9461 91.8547 42.0456 91.8974 42.1119C91.9404 42.1786 92.0044 42.2373 92.084 42.2554C92.1649 42.2738 92.2521 42.2685 92.3245 42.2239V42.2239V42.2239Z" fill="black"/>
<path d="M31.8014 54.4493C30.9769 56.0878 31.0521 58.1042 32.0441 59.6565C32.3676 60.1629 33.1786 59.6937 32.8527 59.1838C32.0457 57.9209 31.9327 56.2681 32.61 54.922C32.8802 54.385 32.0726 53.9103 31.8014 54.4493V54.4493V54.4493Z" fill="black"/>
<path d="M141.417 60.5318C142.562 60.3922 143.706 60.2527 144.85 60.1132C145.013 60.0933 145.175 60.0735 145.338 60.0537C145.589 60.0231 145.806 59.8604 145.806 59.5854C145.806 59.3561 145.59 59.0863 145.338 59.1172C144.193 59.2567 143.049 59.3962 141.905 59.5358C141.742 59.5556 141.58 59.5754 141.417 59.5952C141.166 59.6258 140.949 59.7885 140.949 60.0635C140.949 60.2928 141.165 60.5626 141.417 60.5318V60.5318Z" fill="black"/>
<path d="M140.999 58.2788C142.143 58.1393 143.287 57.9998 144.431 57.8602C144.594 57.8404 144.756 57.8206 144.919 57.8008C145.17 57.7702 145.387 57.6075 145.387 57.3325C145.387 57.1032 145.171 56.8334 144.919 56.8642C143.774 57.0038 142.63 57.1433 141.486 57.2829C141.323 57.3027 141.161 57.3225 140.999 57.3423C140.748 57.3729 140.53 57.5356 140.53 57.8106C140.53 58.0399 140.746 58.3097 140.999 58.2788V58.2788Z" fill="black"/>
<path d="M140.926 55.9112C142.07 55.7716 143.215 55.6321 144.359 55.4925C144.521 55.4727 144.684 55.4529 144.846 55.4331C145.097 55.4025 145.315 55.2398 145.315 54.9648C145.315 54.7355 145.099 54.4657 144.846 54.4966C143.702 54.6361 142.558 54.7756 141.414 54.9152C141.251 54.935 141.089 54.9548 140.926 54.9746C140.675 55.0052 140.458 55.1679 140.458 55.4429C140.458 55.6722 140.674 55.942 140.926 55.9112V55.9112Z" fill="black"/>
<path d="M138.541 53.6655C139.218 55.0116 139.105 56.6644 138.298 57.9273C137.973 58.4367 138.783 58.9069 139.107 58.4C140.099 56.8477 140.174 54.8313 139.35 53.1928C139.079 52.6543 138.271 53.128 138.541 53.6655V53.6655V53.6655Z" fill="black"/>
<path d="M89.2998 46.0405C88.9323 46.5819 89.9325 46.8589 90.09 46.2405C90.1814 45.8814 89.9181 45.762 89.6592 45.8146C89.5191 45.843 89.3803 45.9219 89.2998 46.0405V46.0405Z" fill="black"/>
<path d="M89.0304 45.8828C88.9555 45.9948 88.9082 46.1309 88.9072 46.2664C88.9062 46.4159 88.9648 46.5455 89.0574 46.6591C89.1943 46.827 89.4365 46.9105 89.6484 46.905C89.9129 46.8983 90.1539 46.77 90.297 46.5457C90.3341 46.4875 90.3611 46.4211 90.3819 46.3557C90.4084 46.2725 90.4233 46.1794 90.4206 46.0922C90.4143 45.8872 90.3207 45.7049 90.1479 45.592C89.986 45.4861 89.7885 45.4783 89.6038 45.5085C89.369 45.5468 89.1648 45.6906 89.0304 45.8828C88.9862 45.946 88.9791 46.0515 88.9989 46.1234C89.0189 46.1958 89.0748 46.2742 89.1424 46.3099C89.2148 46.3482 89.3026 46.3674 89.3829 46.3414C89.4639 46.3152 89.5207 46.2677 89.5695 46.1979C89.5741 46.1912 89.5789 46.1845 89.5838 46.178L89.535 46.2412C89.5633 46.2052 89.5954 46.1739 89.6316 46.146L89.5684 46.1948C89.6089 46.1648 89.6522 46.1404 89.6985 46.1205L89.6239 46.152C89.674 46.1316 89.7255 46.1171 89.7789 46.1092L89.6959 46.1203C89.7433 46.1141 89.7907 46.1131 89.8381 46.119L89.7551 46.1078C89.7883 46.1125 89.8203 46.1205 89.8514 46.1328L89.7769 46.1013C89.8013 46.1117 89.8241 46.1244 89.8454 46.1402L89.7823 46.0914C89.8008 46.106 89.8172 46.1223 89.8318 46.1409L89.783 46.0777C89.7959 46.0953 89.8064 46.1138 89.8151 46.1337L89.7837 46.0592C89.7937 46.0841 89.8002 46.1096 89.8042 46.1361L89.7931 46.0531C89.7977 46.0916 89.7967 46.1295 89.7921 46.1679L89.8032 46.0849C89.7958 46.1365 89.783 46.1867 89.7631 46.2349L89.7946 46.1603C89.7788 46.1969 89.7592 46.2312 89.7351 46.2629L89.7839 46.1997C89.7612 46.2287 89.7355 46.2545 89.7065 46.2772L89.7697 46.2284C89.7397 46.251 89.7075 46.2697 89.6731 46.2846L89.7477 46.2531C89.7076 46.2698 89.666 46.281 89.623 46.2872L89.706 46.276C89.6593 46.2821 89.6124 46.2822 89.5657 46.2764L89.6487 46.2875C89.6035 46.2814 89.5596 46.2699 89.5174 46.2525L89.5919 46.284C89.5575 46.2693 89.5251 46.2509 89.4953 46.2281L89.5585 46.2769C89.5363 46.2593 89.5164 46.2398 89.4989 46.2175L89.5477 46.2807C89.5332 46.2616 89.521 46.2413 89.5112 46.2194L89.5427 46.2939C89.5332 46.2715 89.5267 46.2483 89.5231 46.2242L89.5342 46.3072C89.5309 46.2813 89.531 46.2556 89.5341 46.2297L89.523 46.3127C89.5277 46.2788 89.5373 46.2464 89.5504 46.2148L89.5189 46.2894C89.5329 46.2572 89.55 46.227 89.5695 46.1979C89.6129 46.133 89.6212 46.0308 89.601 45.9573C89.581 45.8849 89.525 45.8065 89.4575 45.7708C89.3003 45.6877 89.1275 45.7376 89.0304 45.8828L89.0304 45.8828Z" fill="black"/>
<path d="M23.2534 163.438L35.4284 148.738L44.1694 159.926L57.4891 147.35L65.5017 158.048L73.5143 150.943L79.4457 156.905L88.0827 149.31L99.3211 161.315L107.646 152.821L115.763 159.436L123.359 148.983L131.476 159.926L139.072 150.617L142.922 155.843L149.27 145.472L156.866 157.231L166.336 145.472L174.348 156.905L179.759 149.555L187.876 164.254L23.2534 163.438V163.438Z" fill="#FFAD9D"/>
<path d="M11.0653 87.042C9.85761 87.042 8.93433 88.1364 9.15743 89.3233C10.4444 96.1701 17.4302 101.402 25.8549 101.402C34.2797 101.402 41.2655 96.1701 42.5524 89.3233C42.7755 88.1364 41.8523 87.042 40.6446 87.042H11.0653Z" fill="#00BEAA"/>
<path d="M16.5415 87.042V93.6013C16.5415 94.5764 17.3319 95.3668 18.3069 95.3668H33.6109C34.5859 95.3668 35.3763 94.5764 35.3763 93.6013V87.042H16.5415Z" fill="#00727A"/>
<path d="M133.042 84.857C133.006 85.1643 132.984 85.4763 132.984 85.7935C132.984 90.1038 136.479 93.598 140.789 93.598C143.106 93.598 145.187 92.5869 146.616 90.983V91.4787C146.616 92.3618 147.332 93.0777 148.215 93.0777H151.365C152.248 93.0777 152.964 92.3618 152.964 91.4787V84.8569H133.042V84.857Z" fill="#00727A"/>
<path d="M18.1131 104.039C20.7028 105.681 23.7863 106.509 26.8502 106.384C27.4508 106.36 27.4539 105.423 26.8502 105.448C23.9396 105.566 21.0461 104.79 18.5858 103.231C18.0752 102.907 17.6049 103.717 18.1131 104.039V104.039L18.1131 104.039Z" fill="#00727A"/>
<path d="M13.8926 104.949C14.4186 105.475 14.9447 106.001 15.4707 106.527C15.6441 106.7 15.9618 106.713 16.1329 106.527C16.3045 106.34 16.318 106.05 16.1329 105.864C15.6069 105.338 15.0809 104.812 14.5548 104.286C14.3814 104.113 14.0637 104.1 13.8926 104.286C13.721 104.473 13.7075 104.763 13.8926 104.949V104.949Z" fill="#00727A"/>
<path d="M164.903 82.991C165.639 82.7789 166.375 82.5668 167.111 82.3548C167.346 82.287 167.517 82.0214 167.438 81.7787C167.361 81.5396 167.114 81.379 166.862 81.4517C166.126 81.6637 165.39 81.8758 164.654 82.0879C164.419 82.1557 164.248 82.4213 164.327 82.6639C164.404 82.903 164.651 83.0636 164.903 82.991V82.991Z" fill="#00727A"/>
<path d="M164.509 88.0224C165.147 88.4338 165.784 88.8452 166.421 89.2567C166.627 89.3898 166.947 89.3055 167.062 89.0887C167.185 88.8559 167.114 88.5901 166.894 88.448C166.257 88.0366 165.619 87.6251 164.982 87.2137C164.776 87.0806 164.456 87.1649 164.341 87.3817C164.218 87.6145 164.289 87.8803 164.509 88.0224V88.0224Z" fill="#00727A"/>
<path d="M162.581 76.8585C163.001 76.3324 163.422 75.8064 163.843 75.2804C163.924 75.1798 163.98 75.0833 163.98 74.9492C163.98 74.8344 163.929 74.6972 163.843 74.6181C163.673 74.4621 163.344 74.4138 163.181 74.6181C162.76 75.1442 162.339 75.6702 161.918 76.1962C161.838 76.2968 161.781 76.3933 161.781 76.5273C161.781 76.6422 161.832 76.7794 161.918 76.8585C162.088 77.0144 162.417 77.0627 162.581 76.8585V76.8585Z" fill="#00727A"/>
</svg>
