<svg width="197" height="197" viewBox="0 0 197 197" fill="none" xmlns="http://www.w3.org/2000/svg">
<rect x="12.9609" y="30.5439" width="170.201" height="24.4786" fill="#00BEAA"/>
<ellipse cx="183.105" cy="42.7833" rx="3.84992" ry="12.2393" fill="#00BEAA"/>
<ellipse cx="13.0184" cy="42.7833" rx="3.84992" ry="12.2393" fill="#FFAD9D"/>
<path d="M42.726 33.3019L35.3709 38.3585L30.8005 22.66C30.4424 21.4301 31.3649 20.2007 32.6459 20.2007H33.1779C33.8289 20.2007 34.4356 20.5302 34.79 21.0762L42.726 33.3019L42.726 33.3019Z" fill="#00BEAA"/>
<path d="M19.7135 71.3414H18.8915C17.1959 71.3414 16.113 69.5331 16.9134 68.0383L24.6833 53.5283H35.3711L21.4492 70.5197C21.023 71.0398 20.386 71.3414 19.7135 71.3414V71.3414Z" fill="#00BEAA"/>
<path d="M75.8686 37.1186C83.276 37.0462 90.6835 36.9993 98.091 36.9418C99.9438 36.9274 101.797 36.8749 103.646 36.7503C105.408 36.6314 107.217 36.5134 108.946 36.1364C112.167 35.4343 115.22 33.6769 118.603 33.9702C121.874 34.2536 124.747 36.1457 127.965 36.6855C131.501 37.2787 135.101 36.9556 138.661 36.8521C142.457 36.7418 146.26 36.7727 150.057 36.7173C153.89 36.6613 157.722 36.5865 161.554 36.4863C163.35 36.4393 165.154 36.3271 166.95 36.3579C168.585 36.386 170.217 36.5305 171.854 36.5079C173.442 36.4861 174.951 36.2597 176.438 35.6907C178.11 35.0506 179.716 34.3494 181.521 34.1815C182.407 34.0992 183.293 34.118 184.176 34.2192C184.836 34.2948 184.831 33.2599 184.176 33.1849C182.465 32.9887 180.72 33.1242 179.065 33.6066C177.407 34.0897 175.88 34.9712 174.171 35.2824C172.597 35.5691 170.964 35.4879 169.374 35.4172C167.692 35.3424 166.031 35.3246 164.348 35.3743C156.72 35.5993 149.09 35.7169 141.46 35.7798C137.813 35.8099 134.14 36.16 130.497 35.933C128.784 35.8263 127.148 35.5222 125.524 34.9657C123.999 34.4428 122.513 33.7993 120.956 33.3707C119.382 32.9375 117.79 32.7929 116.172 33.0297C114.545 33.2676 112.992 33.8259 111.438 34.341C109.762 34.8969 108.115 35.2863 106.357 35.4782C104.52 35.6788 102.674 35.7947 100.828 35.8547C97.2016 35.9726 93.5678 35.9357 89.9402 35.9628C86.2203 35.9906 82.5004 36.0219 78.7805 36.0565C77.8099 36.0656 76.8393 36.0748 75.8686 36.0843C75.2035 36.0908 75.2018 37.1252 75.8686 37.1186V37.1186L75.8686 37.1186Z" fill="white"/>
<path d="M20.1438 37.9648C22.9959 37.9008 25.848 37.8414 28.7002 37.7857C31.6636 37.7279 34.6271 37.674 37.5906 37.6233C40.6565 37.5709 43.7225 37.5219 46.7885 37.4759C49.9044 37.4291 53.0203 37.3854 56.1363 37.3443C59.2639 37.3031 62.3916 37.2646 65.5193 37.2286C65.9016 37.2242 66.2838 37.2198 66.6661 37.2155C67.3312 37.208 67.3329 36.1736 66.6661 36.1812C63.5395 36.2166 60.413 36.2544 57.2866 36.2949C54.1823 36.3352 51.0781 36.378 47.974 36.4239C44.8995 36.4693 41.825 36.5176 38.7506 36.5693C35.7594 36.6196 32.7682 36.6731 29.7771 36.7305C26.9074 36.7856 24.0378 36.8443 21.1682 36.9076C20.8267 36.9152 20.4853 36.9228 20.1438 36.9304C19.4793 36.9453 19.4769 37.9797 20.1438 37.9648V37.9648L20.1438 37.9648Z" fill="white"/>
<path d="M20.1434 44.3606C31.8526 44.0984 43.5634 43.9077 55.2746 43.7516C58.0524 43.7145 60.815 43.7377 63.5914 43.7878C64.8105 43.8098 66.1189 43.8231 67.3008 43.4764C68.2738 43.191 69.0869 42.5978 69.9406 42.0755C71.2072 41.3006 72.3874 41.0751 73.8299 41.5266C75.0743 41.9161 76.1826 42.6299 77.4335 43.0116C79.5817 43.6673 81.8134 43.5446 84.0276 43.4653C89.6755 43.2631 95.3353 43.4178 100.985 43.2754C103.758 43.2055 106.567 43.1553 109.294 43.7424C110.66 44.0366 111.963 44.5425 113.307 44.917C114.593 45.2751 115.898 45.554 117.221 45.7287C119.818 46.0715 122.4 45.9144 124.919 45.1872C127.281 44.5054 129.576 43.4572 132.057 43.288C134.976 43.0889 137.953 43.2336 140.879 43.2103C143.801 43.1871 146.722 43.1572 149.644 43.1166C155.453 43.0359 161.282 43.0045 167.084 42.7055C169.606 42.5756 172.146 42.3411 174.668 42.5994C176.026 42.7385 177.37 43.0429 178.621 43.5967C179.759 44.1006 180.817 44.6903 182.067 44.8719C183.343 45.0573 184.621 44.9344 185.895 44.7982C186.55 44.7281 186.557 43.693 185.895 43.7639C184.534 43.9094 183.116 44.0775 181.765 43.7697C180.512 43.4842 179.42 42.7615 178.22 42.3247C175.857 41.4646 173.273 41.3938 170.787 41.4787C165.171 41.6705 159.564 41.9142 153.943 42.0143C148.101 42.1185 142.257 42.1719 136.414 42.2068C133.726 42.2228 131.151 42.1581 128.551 42.9325C126.1 43.6626 123.748 44.6561 121.167 44.8391C118.397 45.0356 115.638 44.5351 112.99 43.7489C111.647 43.3502 110.345 42.8772 108.962 42.6247C107.656 42.3861 106.33 42.2681 105.004 42.2241C102.254 42.1328 99.4982 42.2943 96.7483 42.3116C93.8953 42.3295 91.0423 42.3496 88.1894 42.3717C85.6509 42.3915 83.0786 42.6035 80.5433 42.4855C79.4006 42.4323 78.2739 42.2341 77.1968 41.8435C75.956 41.3936 74.8409 40.6673 73.5396 40.376C72.406 40.1223 71.3305 40.213 70.2773 40.7102C69.2862 41.1781 68.446 41.9258 67.4271 42.3363C66.2373 42.8157 64.8536 42.7763 63.5914 42.7535C62.2489 42.7292 60.9101 42.6462 59.5668 42.6617C47.8997 42.796 36.2325 42.9867 24.5671 43.2304C23.0925 43.2613 21.6179 43.2932 20.1434 43.3263C19.4788 43.3412 19.4764 44.3755 20.1434 44.3606V44.3606V44.3606Z" fill="white"/>
<path d="M20.1438 50.7562C31.0648 50.5116 41.9964 50.4871 52.9147 50.1647C55.5775 50.086 58.2377 49.9313 60.9012 49.8701C63.5427 49.8095 66.2915 49.7245 68.899 50.2124C71.3104 50.6637 73.5295 51.2253 75.9852 50.7063C77.1433 50.4615 78.2764 50.0934 79.4525 49.9379C80.8176 49.7573 82.23 49.791 83.6049 49.7636C88.9814 49.6564 94.3655 49.7203 99.7429 49.7288C102.373 49.733 105.014 49.8005 107.623 50.1641C110.246 50.5298 112.786 51.2854 115.369 51.8493C117.844 52.3895 120.4 52.7719 122.934 52.482C125.39 52.201 127.694 51.3064 130.055 50.6297C135.186 49.1592 140.736 49.621 146.017 49.5608C156.963 49.4362 167.911 49.1907 178.843 48.5979C180.18 48.5255 181.515 48.448 182.851 48.3665C183.512 48.3262 183.517 47.2916 182.851 47.3322C171.981 47.9952 161.098 48.3114 150.21 48.4719C147.472 48.5123 144.734 48.5535 141.996 48.5639C139.292 48.5742 136.58 48.5393 133.888 48.8312C131.398 49.1012 129.082 49.8606 126.696 50.5829C124.142 51.3564 121.642 51.7152 118.974 51.425C116.378 51.1426 113.853 50.4164 111.318 49.8207C108.821 49.2343 106.292 48.9059 103.732 48.7804C98.3792 48.5182 92.9734 48.6724 87.6147 48.6873C84.9426 48.6947 82.1804 48.5807 79.5238 48.8922C77.0249 49.1852 74.7901 50.2008 72.2239 49.8164C71.0036 49.6337 69.8103 49.3058 68.5916 49.1137C67.393 48.9248 66.1745 48.8737 64.963 48.8373C62.2997 48.7575 59.635 48.8619 56.9742 48.9737C46.0575 49.4322 35.1135 49.404 24.1894 49.6339C22.8409 49.6623 21.4923 49.6917 20.1438 49.7219C19.4793 49.7368 19.4769 50.7711 20.1438 50.7562V50.7562L20.1438 50.7562Z" fill="white"/>
<path d="M116.475 37.6113C115.585 37.6251 114.677 37.4698 113.838 37.8558C113.398 38.0582 112.946 38.4526 112.771 38.9129C112.532 39.5405 113.017 40.0256 113.471 40.3804C114.329 41.0505 115.373 41.3978 116.416 41.6631C117.529 41.9461 118.701 42.1417 119.852 42.0375C120.418 41.9863 120.98 41.8777 121.511 41.6708C121.977 41.4889 122.445 41.2623 122.768 40.8656C123.17 40.3718 123.316 39.6795 122.935 39.1309C122.618 38.6741 122.098 38.4242 121.589 38.2405C121.035 38.0404 120.449 37.9275 119.868 37.8419C118.749 37.6773 117.606 37.5888 116.475 37.6113C115.81 37.6246 115.808 38.6589 116.475 38.6456C117.275 38.6297 118.08 38.6761 118.875 38.7541C119.006 38.7669 119.136 38.7809 119.266 38.7963C119.336 38.8046 119.405 38.8133 119.475 38.8223C119.557 38.8331 119.395 38.8111 119.477 38.8227C119.523 38.8293 119.569 38.8358 119.616 38.8427C119.882 38.8823 120.147 38.9289 120.41 38.9859C120.664 39.0408 120.915 39.105 121.161 39.1856C121.268 39.2205 121.373 39.2594 121.478 39.3005C121.552 39.3296 121.365 39.2459 121.475 39.2998C121.497 39.3105 121.52 39.3199 121.542 39.3303C121.595 39.3555 121.648 39.382 121.7 39.4103C121.782 39.4554 121.858 39.5087 121.937 39.5585C121.993 39.5939 121.858 39.4895 121.905 39.5338C121.924 39.5507 121.944 39.5648 121.962 39.5822C121.996 39.6156 122.03 39.6492 122.063 39.6833C122.143 39.7651 122.046 39.6358 122.065 39.6857C122.075 39.7115 122.1 39.7546 122.118 39.7757C122.166 39.8338 122.056 39.6547 122.118 39.7826C122.172 39.8964 122.09 39.8467 122.127 39.7963C122.119 39.8062 122.124 39.8977 122.126 39.9159C122.134 39.985 122.159 39.7988 122.122 39.9179C122.081 40.0495 122.025 40.1588 121.927 40.2588C121.662 40.5282 121.275 40.6722 120.922 40.7839C120.008 41.0729 119.031 41.0832 118.088 40.9505C117.148 40.8183 116.191 40.5824 115.306 40.2389C114.861 40.0663 114.415 39.8334 114.048 39.5253C113.961 39.4516 113.854 39.372 113.782 39.2815C113.763 39.2577 113.741 39.2331 113.732 39.2022C113.753 39.2746 113.723 39.247 113.774 39.2157C113.841 39.1753 113.909 39.0542 113.969 38.998C114.033 38.9372 114.089 38.896 114.17 38.8476C114.485 38.6591 114.827 38.6249 115.201 38.6194C115.626 38.613 116.05 38.6522 116.475 38.6456C117.14 38.6354 117.142 37.601 116.475 37.6113H116.475Z" fill="white"/>
<path d="M89.9412 33.1999C92.5878 33.6291 95.3091 33.2231 97.7178 32.0437C98.3898 31.7147 99.0284 31.3227 99.6282 30.8756C99.8517 30.7089 99.9659 30.4282 99.8137 30.168C99.6848 29.9476 99.3314 29.8146 99.1061 29.9825C96.5865 31.8608 93.3287 32.7073 90.2162 32.2026C89.9408 32.1579 89.6597 32.274 89.58 32.5638C89.5122 32.8105 89.664 33.155 89.9412 33.1999V33.1999V33.1999Z" fill="white"/>
<path d="M126.278 30.5098C129.219 31.887 132.335 32.8715 135.539 33.4013C136.467 33.5546 137.4 33.672 138.336 33.7543C138.615 33.7788 138.853 33.4991 138.853 33.2371C138.853 32.937 138.615 32.7445 138.336 32.72C135.223 32.4465 132.151 31.739 129.226 30.64C128.403 30.3311 127.595 29.9891 126.8 29.6167C126.547 29.4983 126.242 29.5459 126.093 29.8022C125.961 30.0265 126.024 30.3908 126.278 30.5098V30.5098V30.5098Z" fill="white"/>
<path d="M70.6713 45.421C70.3927 45.6207 70.2647 45.9456 70.44 46.2636C70.5365 46.4387 70.7091 46.5637 70.8763 46.6644C71.2409 46.8843 71.6553 47.0352 72.055 47.1773C73.1632 47.5715 74.3726 47.2253 75.4457 46.862C75.8358 46.7299 75.926 46.3036 75.6739 45.9976C74.4612 44.5255 72.2139 44.4422 70.6713 45.4209C70.1108 45.7766 70.6291 46.6721 71.1933 46.314C71.8086 45.9237 72.4759 45.7527 73.2049 45.8111C73.8616 45.8636 74.4895 46.1791 74.9425 46.729C75.0186 46.4408 75.0946 46.1527 75.1707 45.8646C74.3684 46.1363 73.3184 46.509 72.5228 46.2464C72.3951 46.2042 72.2685 46.1588 72.1426 46.1114C72.0673 46.0831 71.9925 46.0536 71.9178 46.0238C71.8756 46.007 71.8051 45.9765 71.8875 46.0121C71.8431 45.9929 71.7987 45.9736 71.7547 45.9536C71.6123 45.8888 71.4778 45.8148 71.3427 45.7367C71.2825 45.7019 71.2932 45.6675 71.3525 45.7494C71.3388 45.7304 71.3134 45.7186 71.2983 45.6999C71.4129 45.8421 71.4331 46.1421 71.1933 46.314C71.42 46.1515 71.5292 45.8635 71.3789 45.6065C71.2479 45.3825 70.8995 45.2573 70.6713 45.421H70.6713Z" fill="white"/>
<path d="M46.4023 80.3564C46.4023 80.3564 49.3928 82.825 52.341 81.8183C51.6938 83.1127 49.7247 84.0423 49.7247 84.0423C49.7247 84.0423 49.5366 82.3217 48.6018 82.0341C47.667 81.7464 46.4023 80.3564 46.4023 80.3564H46.4023Z" fill="black"/>
<path d="M46.0368 80.7219C46.6432 81.2206 47.3411 81.6233 48.0595 81.9349C49.4507 82.5382 51.0085 82.8048 52.4786 82.3167C52.2839 82.0635 52.0893 81.8103 51.8946 81.5571C51.5842 82.1594 51.0303 82.6292 50.4842 82.9997C50.1594 83.22 49.8189 83.4271 49.4638 83.5955C49.7232 83.7444 49.9826 83.8932 50.242 84.042C50.1455 83.1814 49.8404 82.1089 49.0321 81.6585C48.7257 81.4878 48.5641 81.4832 48.2753 81.3023C48.0207 81.1429 47.8274 80.9902 47.6055 80.7985C47.3125 80.5454 47.0293 80.2766 46.7682 79.9905C46.3185 79.4978 45.5887 80.2308 46.0368 80.7219C46.6795 81.4262 47.4658 82.1627 48.37 82.5001C48.3897 82.5075 48.5716 82.5804 48.4695 82.5308C48.5106 82.5508 48.5498 82.574 48.5882 82.5988C48.6366 82.6329 48.6381 82.6337 48.5928 82.6013C48.6162 82.6215 48.6388 82.6425 48.6606 82.6644C48.6733 82.6785 48.7926 82.8208 48.7323 82.7396C48.8926 82.9555 48.9589 83.1195 49.023 83.3054C49.0897 83.4989 49.1413 83.6975 49.1806 83.8983C49.1927 83.9598 49.2019 84.0217 49.213 84.0834C49.2345 84.202 49.1959 83.9367 49.2077 84.042C49.253 84.4457 49.6084 84.6676 49.9859 84.4886C50.3738 84.3046 50.7452 84.0758 51.0967 83.8305C51.7598 83.3678 52.4117 82.8089 52.7877 82.0791C52.9814 81.7031 52.6566 81.169 52.2037 81.3194C50.9591 81.7325 49.6049 81.5015 48.4735 80.9942C48.0229 80.7921 47.5888 80.5519 47.1768 80.2796C47.051 80.1964 46.928 80.1093 46.8064 80.0201C46.7903 80.0084 46.7749 79.9956 46.7586 79.9842C46.6919 79.9374 46.8772 80.0794 46.8047 80.0197C46.7927 80.0098 46.7802 80.0004 46.7682 79.9905C46.5526 79.8132 46.2478 79.7795 46.0368 79.9905C45.854 80.1733 45.8201 80.5436 46.0368 80.7218L46.0368 80.7219Z" fill="black"/>
<path d="M45.6264 72.8373C44.7273 72.7628 42.3772 72.4328 42.374 71.1574C42.3733 70.867 42.5545 70.5988 42.7904 70.4294C43.0263 70.2599 43.3116 70.1749 43.5947 70.1099C44.5932 69.8804 45.6405 69.866 46.645 70.0679C46.4163 70.0219 47.7274 68.4825 47.8422 68.3563C48.3752 67.7705 49.0103 67.2683 49.7455 66.9624C50.6862 66.571 51.7353 66.517 52.751 66.5961C53.6961 66.6697 54.6633 66.8667 55.4407 67.4092C56.2883 68.0006 56.832 68.9586 57.0808 69.9617C57.3297 70.9649 57.3072 72.0162 57.2006 73.0442C57.1901 73.1451 57.1778 73.2491 57.1275 73.3372C56.8438 73.8328 55.3562 73.5245 54.9177 73.4934C53.8756 73.4197 52.8333 73.3503 51.7909 73.281C49.7354 73.1441 47.6797 73.0074 45.6264 72.8373V72.8373Z" fill="black"/>
<path d="M45.6262 72.3202C45.5568 72.3143 45.4874 72.3079 45.4181 72.3006C45.3789 72.2965 45.3397 72.2922 45.3006 72.2876C45.2701 72.284 45.1068 72.2625 45.2256 72.279C45.0261 72.2512 44.8274 72.2177 44.6303 72.1768C44.4177 72.1326 44.2067 72.0801 43.9994 72.0153C43.7475 71.9365 43.6693 71.9098 43.4606 71.8005C43.3758 71.756 43.2939 71.707 43.2143 71.6539C43.1872 71.636 43.1067 71.5692 43.173 71.6254C43.1338 71.5922 43.0956 71.5581 43.0595 71.5215C43.0327 71.4943 42.9575 71.4007 43.016 71.4812C42.9916 71.4475 42.9701 71.4124 42.9484 71.377C42.9242 71.3373 42.9022 71.2675 42.9312 71.3519C42.9154 71.3058 42.9047 71.2593 42.8919 71.2124C42.8764 71.1554 42.8942 71.2384 42.8949 71.2449C42.8926 71.2252 42.8887 71.1992 42.8914 71.1795C42.8963 71.145 42.8922 71.1154 42.9045 71.0775C42.9384 70.9727 43.029 70.8915 43.1167 70.8318C43.3875 70.6473 43.7601 70.5948 44.076 70.5383C44.8754 70.3954 45.7112 70.4117 46.5072 70.5666C47.1584 70.6933 47.4179 69.7821 46.7822 69.5692L46.8889 69.613L47.0744 69.7985C47.1405 69.889 47.1417 70.0571 47.1217 70.1341C47.1351 70.0828 47.1571 70.0989 47.0942 70.1914C47.1141 70.1621 47.1276 70.1252 47.1453 70.0942C47.2043 69.9908 47.2733 69.8928 47.3425 69.796C47.3816 69.7414 47.4214 69.6874 47.4617 69.6337C47.4803 69.6089 47.4992 69.5841 47.518 69.5594C47.6094 69.439 47.4821 69.6049 47.5385 69.5329C47.6291 69.4172 47.721 69.3026 47.814 69.1889C48.1994 68.7178 48.6053 68.2601 49.107 67.9081C49.9255 67.3339 50.8655 67.0988 51.857 67.0833C52.7757 67.0689 53.7919 67.1469 54.6354 67.5429C56.4887 68.4131 56.852 70.5806 56.7356 72.4252C56.7228 72.6279 56.6627 72.8659 56.6804 73.0672C56.6801 73.0642 56.7625 72.995 56.7198 73.034C56.6666 73.0825 56.7092 73.0442 56.7395 73.0318C56.7002 73.0479 56.6593 73.0566 56.6189 73.069C56.5906 73.0777 56.5597 73.0818 56.5306 73.0873C56.633 73.0677 56.5284 73.0881 56.5009 73.0899C56.4235 73.0949 56.3464 73.0991 56.2689 73.0995C56.0972 73.1002 55.9256 73.0889 55.7547 73.0731C54.9541 72.9989 54.1572 72.9227 53.3542 72.8684C50.7776 72.6943 48.2 72.5327 45.6262 72.3202C45.3474 72.2972 45.109 72.5743 45.109 72.8373C45.109 73.1363 45.3467 73.3314 45.6262 73.3545C48.1847 73.5658 50.7469 73.7267 53.3082 73.8997C53.873 73.9378 54.4422 73.9601 55.0052 74.0188C55.3368 74.0533 55.6655 74.1073 55.9987 74.126C56.3468 74.1456 56.7223 74.1414 57.051 74.014C57.2532 73.9356 57.4392 73.8149 57.5557 73.6265C57.7257 73.3515 57.7249 73.0038 57.7505 72.691C57.93 70.497 57.479 67.9119 55.3671 66.756C54.3734 66.2121 53.1882 66.0588 52.0702 66.0482C50.8945 66.0371 49.7099 66.2731 48.716 66.926C48.0073 67.3915 47.4486 67.9969 46.9247 68.6528C46.6018 69.057 45.5162 70.2347 46.5072 70.5666C46.5988 70.2341 46.6905 69.9017 46.7821 69.5692C45.863 69.3904 44.9437 69.3692 44.0177 69.5058C43.1899 69.6279 42.1709 69.8924 41.9066 70.8075C41.5347 72.0956 42.9751 72.8201 43.9766 73.0853C44.5148 73.2277 45.0719 73.3076 45.6261 73.3545C45.9048 73.3781 46.1433 73.1 46.1433 72.8374C46.1433 72.538 45.9056 72.3438 45.6261 72.3202L45.6262 72.3202Z" fill="black"/>
<path d="M55.1071 41.0966C55.3182 42.4065 55.5292 43.7164 55.7403 45.0263C55.7703 45.2122 55.8002 45.3982 55.8302 45.5842C55.8746 45.8602 56.2181 46.0136 56.4664 45.9454C56.7599 45.8647 56.8722 45.586 56.8275 45.3092C56.6165 43.9993 56.4054 42.6895 56.1944 41.3796C56.1644 41.1936 56.1344 41.0076 56.1045 40.8217C56.06 40.5457 55.7165 40.3922 55.4683 40.4605C55.1747 40.5411 55.0625 40.8199 55.1071 41.0966V41.0966Z" fill="black"/>
<path d="M57.3664 40.7329C57.5774 42.0427 57.7885 43.3526 57.9996 44.6625C58.0295 44.8485 58.0595 45.0344 58.0895 45.2204C58.1339 45.4964 58.4774 45.6498 58.7256 45.5816C59.0192 45.5009 59.1314 45.2222 59.0868 44.9454C58.8758 43.6356 58.6647 42.3257 58.4536 41.0158C58.4237 40.8298 58.3937 40.6439 58.3637 40.4579C58.3193 40.1819 57.9758 40.0285 57.7276 40.0967C57.434 40.1774 57.3218 40.4561 57.3664 40.7329V40.7329Z" fill="black"/>
<path d="M59.6261 40.3686C59.8372 41.6785 60.0483 42.9884 60.2593 44.2982C60.2893 44.4842 60.3193 44.6702 60.3492 44.8562C60.3937 45.1321 60.7372 45.2856 60.9854 45.2174C61.279 45.1367 61.3912 44.858 61.3466 44.5812C61.1355 43.2713 60.9245 41.9614 60.7134 40.6516C60.6834 40.4656 60.6535 40.2796 60.6235 40.0936C60.579 39.8177 60.2356 39.6642 59.9873 39.7324C59.6938 39.8131 59.5815 40.0918 59.6261 40.3686V40.3686Z" fill="black"/>
<path d="M48.6139 63.3735C48.0755 60.6267 47.494 57.5485 48.1584 54.777C48.3018 54.1791 48.5147 53.5628 48.905 53.0771C49.3885 52.4755 50.2185 52.4071 50.8997 52.1568C52.1318 51.7041 52.9489 50.4261 52.2978 49.1435C51.6707 47.9081 50.3997 48.1494 49.27 48.2944L49.7687 48.949C50.1432 47.13 50.5177 45.3111 50.8922 43.4921C51.0244 42.85 51.2899 42.1023 51.2493 41.4372C51.1344 39.5539 48.539 39.4518 48.036 41.1719C48.3746 41.2177 48.7132 41.2636 49.0519 41.3094C49.3023 39.2761 46.4093 38.7985 45.8488 40.7216C46.1874 40.7674 46.526 40.8133 46.8647 40.8591C47.1151 38.8258 44.2221 38.3482 43.6616 40.2713C44.0002 40.3171 44.3389 40.363 44.6775 40.4088C44.8438 39.0483 43.3441 38.0663 42.1774 38.8257C41.6415 39.1744 41.4931 39.7302 41.3742 40.3081C41.0403 41.9298 40.7064 43.5515 40.3725 45.1732C39.9333 47.3064 39.4551 49.4364 39.0541 51.5773C38.0747 56.805 37.5266 62.1543 37.621 67.4754C37.6797 70.7879 38.0782 74.0512 38.7072 77.3015C39.2891 80.3079 40.2389 83.2473 42.4013 85.4981C43.856 87.0121 46.7557 89.2471 48.9596 87.9004C50.6541 86.8649 50.6179 84.1287 49.7446 82.5848C49.1819 81.5898 48.1419 81.255 47.2959 80.5685C46.1406 79.631 46.2281 77.8026 46.4881 76.4859C46.9773 74.0082 48.2392 71.6775 50.6923 70.7063C52.8405 69.8558 54.9223 70.6661 55.7932 72.8399C56.4925 74.5856 56.5068 76.5541 56.5893 78.4065C56.6644 80.096 56.6935 81.7881 56.6547 83.479C56.4969 90.3636 55.0487 97.1337 51.6318 103.163C48.2267 109.172 43.3152 114.096 38.7105 119.174C33.9278 124.448 29.7383 130.141 26.0979 136.261C24.3058 139.274 22.5917 142.35 21.049 145.499C19.7335 148.184 18.5629 150.942 17.1164 153.561C15.665 156.189 13.9103 158.654 11.5905 160.588C10.5712 161.437 8.88317 162.138 8.63826 163.589C8.41857 164.891 9.4921 165.932 10.4966 166.563C11.9426 167.473 13.7181 168.026 15.3312 168.554C17.0316 169.111 18.7688 169.556 20.5279 169.884C21.9674 170.153 23.7393 170.447 24.7703 169.131C25.1152 168.691 25.3089 168.128 25.2018 167.568C25.0806 166.935 24.4601 166.72 23.8675 166.783C22.3636 166.944 21.9437 168.643 22.4454 169.86C22.8716 170.894 23.8334 171.583 24.8987 171.851C27.6901 172.554 29.9518 170.647 31.2791 168.371C32.0907 166.98 32.6859 165.458 33.3257 163.983C33.9888 162.454 34.6416 160.92 35.2949 159.387C36.6248 156.265 37.9569 153.144 39.3737 150.061C42.2055 143.899 45.3796 137.809 49.5733 132.45C53.9941 126.801 58.1035 120.89 61.083 114.339C64.0173 107.887 65.6904 101.008 66.2139 93.9458C66.4986 90.1042 66.5143 86.2343 66.5329 82.3837C66.5518 78.4593 66.5011 74.5346 66.3958 70.6116C66.2434 64.9318 65.8176 59.2899 65.2288 53.6395C65.1062 52.4635 64.9806 51.2877 64.8444 50.1131L64.6929 50.4788C65.7119 49.6354 67.4092 48.7112 67.1473 47.1625C66.9803 46.1754 66.0601 45.481 65.0683 45.5579C64.4092 45.6091 63.8084 46.0577 63.2465 46.3718C63.4997 46.4748 63.7529 46.5779 64.0062 46.6809C63.6789 44.8719 63.3515 43.0628 63.0242 41.2538C62.9092 40.6179 62.8795 39.8443 62.5971 39.2514C61.8118 37.603 59.3355 38.3376 59.5111 40.1313L60.5269 39.9938C60.0108 38.0497 57.113 38.4978 57.3137 40.5288L58.3295 40.3913C57.8134 38.4473 54.9156 38.8953 55.1163 40.9264C55.4549 40.8805 55.7935 40.8347 56.1322 40.7889C55.7737 39.4436 53.95 38.9873 53.1654 40.2527C52.8064 40.8317 52.9312 41.4274 53.0427 42.0433C53.3589 43.7911 53.6752 45.539 53.9914 47.2868C54.4925 50.0562 54.9348 52.7857 55.2236 55.5887C55.5301 58.5638 55.8087 61.5982 55.6028 64.5894C55.557 65.2538 56.5915 65.251 56.6371 64.5894C56.9377 60.2214 56.3472 55.743 55.7584 51.4188C55.4293 49.0017 54.9149 46.6033 54.4807 44.2035C54.3378 43.4139 54.1949 42.6242 54.052 41.8345C54.0189 41.6511 53.9624 41.4564 53.9499 41.2699C53.8968 40.4804 54.9172 40.2473 55.1348 41.0639C55.2803 41.6098 56.2094 41.5211 56.1507 40.9264C56.0694 40.1043 57.1086 39.824 57.3322 40.6663C57.4772 41.2126 58.4068 41.1233 58.348 40.5288C58.2668 39.7067 59.306 39.4264 59.5296 40.2687C59.6746 40.8151 60.6036 40.7257 60.5454 40.1312C60.4588 39.246 61.4973 39.0803 61.7372 39.9276C61.785 40.0964 61.8012 40.2814 61.8324 40.4538C61.9772 41.2538 62.1219 42.0539 62.2667 42.8539C62.5141 44.2212 62.7615 45.5885 63.0088 46.9558C63.0701 47.2945 63.4998 47.4151 63.7685 47.2649C64.1979 47.0249 64.7838 46.5421 65.3024 46.583C65.88 46.6286 66.2558 47.1959 66.1053 47.7421C66.0168 48.0633 65.7905 48.2337 65.5505 48.4323C65.0573 48.8406 64.4968 49.2221 64.0467 49.677C63.828 49.8981 63.8125 50.0645 63.8368 50.3465C64.1028 53.429 64.4982 56.5013 64.7648 59.5848C65.1799 64.3878 65.3499 69.193 65.4388 74.0125C65.5484 79.9587 65.5774 85.9263 65.3038 91.8688C65.0557 97.2576 64.2026 102.606 62.5437 107.746C60.8615 112.958 58.3829 117.869 55.4554 122.488C53.9978 124.787 52.4316 127.018 50.7943 129.192C49.195 131.317 47.521 133.372 46.0446 135.587C43.1902 139.87 40.8291 144.461 38.6709 149.127C36.5136 153.79 34.5613 158.544 32.5201 163.259C31.6038 165.376 30.7965 167.81 29.1733 169.508C27.8747 170.867 25.492 171.653 23.924 170.214C23.5918 169.909 23.3421 169.492 23.2731 169.042C23.1773 168.418 23.6368 167.46 24.3853 167.917C24.306 167.814 24.2268 167.711 24.1476 167.608C24.4818 168.776 22.9935 169.135 22.1525 169.085C21.0619 169.02 19.9538 168.734 18.8932 168.483C16.7 167.964 14.5454 167.264 12.4706 166.383C10.9925 165.756 8.36686 164.25 10.5083 162.676C11.9704 161.602 13.3441 160.514 14.5444 159.141C16.9063 156.439 18.5404 153.225 20.0602 150C21.7391 146.437 23.4803 142.93 25.4178 139.499C27.5728 135.682 29.8997 131.958 32.4704 128.407C34.9587 124.969 37.7234 121.773 40.5896 118.648C46.1148 112.624 51.7709 106.588 54.8254 98.8683C56.3036 95.1328 57.132 91.1792 57.4866 87.184C57.6668 85.1543 57.7253 83.1152 57.7006 81.0781C57.6748 78.9532 57.647 76.7787 57.3265 74.6748C57.085 73.0899 56.5501 71.3844 55.2738 70.3213C54.3578 69.5583 53.1757 69.2239 51.9928 69.3378C49.3727 69.5903 47.1365 71.5426 46.1808 73.9357C45.4747 75.7039 44.98 77.7863 45.5336 79.6655C45.9694 81.1447 47.1283 81.5904 48.2669 82.4377C49.1976 83.1302 49.4346 84.5591 49.2229 85.639C49.1213 86.1574 48.8993 86.71 48.4375 87.0073C47.8413 87.391 46.9977 87.2321 46.3698 87.0203C44.8 86.4909 43.4496 85.2403 42.4295 83.9702C41.2309 82.4778 40.5559 80.6411 40.0939 78.8034C39.1035 74.864 38.6682 70.7675 38.6465 66.7114C38.6166 61.1165 39.2266 55.4533 40.4279 49.9862C41.1006 46.9247 41.6997 43.8457 42.3318 40.7755C42.3725 40.5777 42.4035 40.3745 42.4546 40.179C42.6803 39.3162 43.7524 39.5142 43.6431 40.4088C43.5706 41.0018 44.5013 41.0873 44.6589 40.5463C44.9024 39.7107 45.9312 40.0399 45.8303 40.8591C45.7572 41.452 46.6885 41.5375 46.8461 40.9966C47.0896 40.161 48.1184 40.4902 48.0175 41.3094C47.9444 41.9026 48.8752 41.9875 49.0333 41.4469C49.2657 40.652 50.2791 40.9019 50.2078 41.6965C50.1917 41.8767 50.1325 42.0626 50.096 42.2395C49.9303 43.0445 49.7646 43.8496 49.5988 44.6546C49.323 45.9944 49.0471 47.3342 48.7712 48.674C48.7117 48.9633 48.9124 49.3746 49.2699 49.3287C49.7305 49.2696 50.2942 49.102 50.7592 49.17C51.6786 49.3044 51.6603 50.5475 50.9966 50.9831C50.3181 51.4284 49.4216 51.4203 48.7271 51.8609C48.0907 52.2648 47.6973 52.9587 47.4284 53.6436C46.8084 55.2231 46.8087 57.0396 46.9187 58.7082C47.0282 60.369 47.2967 62.0166 47.6165 63.6485C47.7444 64.301 48.7416 64.0248 48.6139 63.3735V63.3735L48.6139 63.3735Z" fill="black"/>
<path d="M43.6235 40.2918C43.3487 41.5423 43.0738 42.7929 42.799 44.0435C42.7598 44.2216 42.7207 44.3998 42.6815 44.578C42.6216 44.8505 42.7635 45.1374 43.0427 45.2142C43.3016 45.2853 43.6187 45.127 43.6789 44.853C43.9537 43.6024 44.2286 42.3518 44.5034 41.1013C44.5426 40.9231 44.5817 40.7449 44.6209 40.5667C44.6808 40.2942 44.5389 40.0073 44.2597 39.9306C44.0008 39.8594 43.6838 40.0178 43.6235 40.2918V40.2918Z" fill="black"/>
<path d="M45.856 40.7961C45.5811 42.0467 45.3063 43.2973 45.0314 44.5479C44.9923 44.726 44.9531 44.9042 44.9139 45.0824C44.854 45.3549 44.9959 45.6418 45.2751 45.7185C45.534 45.7897 45.8511 45.6314 45.9113 45.3574C46.1862 44.1068 46.461 42.8562 46.7358 41.6056C46.775 41.4275 46.8142 41.2493 46.8533 41.0711C46.9132 40.7986 46.7713 40.5117 46.4921 40.435C46.2333 40.3638 45.9162 40.5221 45.856 40.7961V40.7961Z" fill="black"/>
<path d="M48.0884 41.3005C47.8135 42.5511 47.5387 43.8017 47.2638 45.0522C47.2247 45.2304 47.1855 45.4086 47.1464 45.5868C47.0865 45.8593 47.2284 46.1462 47.5076 46.2229C47.7664 46.2941 48.0835 46.1357 48.1437 45.8617C48.4186 44.6112 48.6934 43.3606 48.9683 42.11C49.0074 41.9319 49.0466 41.7537 49.0857 41.5755C49.1456 41.303 49.0037 41.0161 48.7245 40.9393C48.4657 40.8682 48.1486 41.0265 48.0884 41.3005V41.3005Z" fill="black"/>
<path d="M44.1936 49.0325C45.6823 48.6104 47.2478 48.69 48.6933 49.2376C48.9546 49.3366 49.2604 49.1278 49.3295 48.8764C49.4094 48.5857 49.2305 48.3396 48.9683 48.2403C47.3616 47.6316 45.5701 47.567 43.9187 48.0351C43.2793 48.2163 43.5511 49.2146 44.1936 49.0325V49.0325H44.1936Z" fill="black"/>
<path d="M110.564 155.76C104.832 153.343 100.319 148.342 98.5751 142.364C97.6231 139.1 97.4538 135.597 98.1268 132.262C98.2754 131.526 98.4359 130.764 98.6991 130.058C98.7998 129.788 98.9731 129.333 99.2537 129.194C99.6396 129.002 99.8476 129.285 99.9615 129.615C100.167 130.209 100.021 130.846 99.8637 131.431C99.6424 132.256 99.3302 133.051 98.9443 133.812C97.5135 136.635 95.2622 138.886 93.0921 141.142C90.8141 143.51 88.8963 146.206 87.1526 148.983C85.368 151.826 83.7365 154.769 82.1314 157.716C80.409 160.878 78.7662 164.168 77.5614 167.568C76.8259 169.643 76.6362 171.879 75.8865 173.959C75.7147 174.435 75.5163 174.907 75.2434 175.336C74.9214 175.841 74.6559 176.068 74.0241 175.853C72.4489 175.318 71.3787 173.743 71.3592 172.101L70.842 172.618C71.3521 172.662 71.2893 173.49 71.1861 173.814C71.0336 174.293 70.6873 174.695 70.2791 174.978C69.3638 175.615 68.1717 175.597 67.1151 175.421C65.014 175.071 62.7861 174.274 60.9011 173.286C59.0849 172.333 57.6819 170.524 58.8423 168.496C59.3197 167.662 60.0027 166.975 60.6207 166.247C61.1891 165.578 61.7082 164.867 62.1768 164.124C64.2227 160.883 65.3529 157.179 66.8456 153.674C68.4904 149.814 70.7981 146.234 73.1994 142.805C78.2804 135.551 84.2544 128.991 89.7354 122.047C95.0651 115.295 99.9777 108.099 102.96 99.9737C104.471 95.855 105.416 91.6011 105.339 87.1966C105.302 85.0463 105.056 82.9042 104.706 80.7838C104.346 78.6031 103.983 76.3394 103.281 74.2387C102.768 72.7036 101.943 71.1138 100.467 70.3108C99.346 69.7013 98.0169 69.6529 96.8193 70.061C93.9329 71.0444 92.3629 73.7613 91.9732 76.6456C91.7399 78.3722 91.7623 80.5004 92.9293 81.9206C93.7687 82.9421 95.2334 82.937 96.1023 83.857C96.8863 84.687 97.252 86.1761 96.8693 87.2639C96.347 88.7483 94.4484 88.4017 93.2976 87.9605C89.7038 86.5828 87.6914 83.2677 86.4209 79.8201C85.0758 76.1698 84.0927 72.4389 83.5201 68.5898C82.7334 63.3023 82.5104 57.863 82.8441 52.5251C83.0382 49.4196 83.1557 46.3078 83.3078 43.1999C83.3184 42.9845 83.3101 42.7584 83.3399 42.5446C83.4488 41.7637 84.5131 41.7059 84.5407 42.5566C84.563 43.2413 85.4914 43.199 85.575 42.5566C85.6775 41.7697 86.7472 41.9106 86.7711 42.6658C86.7928 43.3506 87.7219 43.3081 87.8055 42.6658C87.9079 41.8788 88.9777 42.0197 89.0016 42.7749C89.0232 43.46 89.9517 43.4169 90.0359 42.7749C90.1474 41.9244 91.1882 42.2012 91.2287 42.9505C91.2385 43.131 91.2106 43.3214 91.2017 43.5017C91.1616 44.3222 91.1214 45.1428 91.0812 45.9634C91.0142 47.334 90.9471 48.7046 90.88 50.0752C90.8636 50.4104 91.2238 50.6639 91.5346 50.5739C91.9689 50.4482 92.5745 50.1502 93.038 50.2046C94.0513 50.3236 93.9101 51.6468 93.2536 52.0916C92.6266 52.5164 91.8621 52.6901 91.2898 53.2073C90.7512 53.694 90.4637 54.4432 90.316 55.1392C89.968 56.7792 90.2238 58.5196 90.5753 60.1364C90.9292 61.7641 91.4474 63.3507 92.0143 64.9151C92.2393 65.5361 93.2392 65.2681 93.0116 64.6402C92.0464 61.9765 91.0008 59.0222 91.2133 56.1477C91.2594 55.5242 91.3831 54.849 91.7165 54.3088C92.1065 53.6769 92.8787 53.4779 93.4991 53.1444C94.6434 52.5292 95.2576 51.1839 94.4854 50.0039C93.6905 48.7891 92.3866 49.2503 91.2596 49.5765C91.4779 49.7427 91.6961 49.909 91.9143 50.0752C92.0058 48.2056 92.0973 46.336 92.1888 44.4664C92.222 43.7888 92.3965 42.9155 92.151 42.2602C91.8841 41.5481 91.1415 41.101 90.3875 41.2195C89.5654 41.3487 89.1042 41.9915 89.0015 42.7749H90.0359C90.008 41.8931 89.3875 41.1138 88.4581 41.088C87.508 41.0616 86.8861 41.7828 86.7712 42.6658H87.8055C87.7776 41.7839 87.1572 41.0047 86.2277 40.9788C85.2776 40.9524 84.6557 41.6736 84.5408 42.5566H85.5751C85.5191 40.8336 83.1801 40.2065 82.4514 41.8716C82.2171 42.4071 82.2769 43.1319 82.2489 43.7034C82.1375 45.9798 82.0261 48.2561 81.9147 50.5325C81.746 53.9784 81.617 57.4082 81.7682 60.8607C81.9343 64.6521 82.3377 68.4468 83.1058 72.1655C83.5187 74.164 84.0583 76.1239 84.7165 78.055C85.3883 80.0256 86.0589 82.014 87.1182 83.8179C88.0196 85.3528 89.1842 86.6374 90.6352 87.6667C91.9624 88.6083 93.6479 89.4714 95.3235 89.3677C98.3789 89.1787 98.6412 85.5204 97.1235 83.4751C96.7033 82.9087 96.1819 82.5902 95.5436 82.3114C94.9455 82.0502 94.2585 81.8427 93.8021 81.3515C92.4376 79.8826 92.8133 77.1415 93.2584 75.3872C93.9038 72.8435 96.8337 69.8716 99.6768 71.0734C101.504 71.8458 102.214 74.0394 102.651 75.8009C103.23 78.132 103.677 80.5221 103.981 82.9044C104.585 87.6291 104.288 92.2615 102.919 96.8311C100.267 105.683 95.1135 113.513 89.4657 120.729C83.754 128.026 77.4682 134.875 72.1635 142.488C69.6612 146.078 67.3308 149.815 65.6521 153.867C64.125 157.553 62.9183 161.478 60.5195 164.723C59.4319 166.194 57.75 167.492 57.4107 169.387C57.067 171.305 58.3355 172.956 59.897 173.907C60.7792 174.444 61.7611 174.815 62.7218 175.185C63.8291 175.611 64.9541 176 66.111 176.269C67.9954 176.707 70.2703 176.796 71.6097 175.141C72.4848 174.059 72.688 171.742 70.842 171.584C70.5654 171.56 70.3218 171.84 70.3248 172.101C70.3432 173.644 71.0668 175.097 72.2795 176.053C73.2097 176.786 74.6393 177.459 75.6307 176.502C76.3532 175.805 76.7249 174.739 77.0294 173.809C77.4185 172.622 77.6898 171.398 77.9626 170.18C78.6711 167.016 80.0482 164.08 81.4887 161.184C83.1943 157.755 85.0924 154.398 87.0605 151.113C89.0231 147.838 91.1681 144.633 93.8235 141.873C96.2189 139.383 98.7396 136.86 100.161 133.654C100.725 132.38 101.399 130.75 100.959 129.34C100.543 128.008 99.0242 127.661 98.1724 128.837C97.7477 129.423 97.5697 130.163 97.3907 130.852C97.1447 131.799 96.9695 132.763 96.8507 133.734C96.6242 135.587 96.6412 137.462 96.8847 139.312C97.9062 147.075 103.098 153.724 110.289 156.758C110.901 157.016 111.169 156.016 110.564 155.76V155.76V155.76Z" fill="black"/>
<path d="M155.489 125.483C153.986 129.428 150.929 132.566 148.27 135.756C145.458 139.132 142.694 142.551 140.084 146.086C137.455 149.645 134.894 153.318 132.842 157.245C130.855 161.051 129.331 165.072 127.803 169.077C127.375 170.197 126.946 171.317 126.505 172.432C126.274 173.014 126.041 173.595 125.803 174.173C125.57 174.739 125.38 175.384 125.068 175.909C124.857 176.264 124.699 176.298 124.301 176.184C124.066 176.116 123.835 176.028 123.612 175.926C123.156 175.716 122.72 175.444 122.336 175.122C121.558 174.469 120.964 173.631 120.616 172.677C120.537 172.872 120.458 173.067 120.379 173.261C120.708 173.11 120.74 173.883 120.624 174.048C120.358 174.428 119.773 174.529 119.348 174.579C118.326 174.7 117.259 174.65 116.239 174.539C114.099 174.308 111.859 173.675 110.017 172.538C109.178 172.02 108.105 171.156 108.147 170.059C108.18 169.212 108.834 168.524 109.396 167.954C110.607 166.727 111.734 165.553 112.634 164.068C114.513 160.966 115.585 157.458 116.963 154.125C118.549 150.292 120.819 146.731 123.172 143.328C128.265 135.96 134.306 129.325 139.86 122.314C145.198 115.577 150.132 108.41 153.17 100.313C154.708 96.2121 155.708 91.9629 155.68 87.5639C155.666 85.4165 155.439 83.2765 155.103 81.1571C154.755 78.9638 154.377 76.7129 153.728 74.5858C153.242 72.9918 152.461 71.3343 150.997 70.4226C149.911 69.7472 148.578 69.6392 147.365 69.995C144.472 70.843 142.776 73.5535 142.345 76.3952C142.083 78.1217 142.053 80.1947 143.095 81.6952C143.457 82.2161 143.949 82.5761 144.518 82.8425C145.09 83.1094 145.766 83.2787 146.258 83.6836C147.151 84.4182 147.525 85.9158 147.275 87.0144C146.916 88.5921 145.167 88.4775 143.926 88.0644C140.215 86.8295 138.089 83.401 136.797 79.9266C135.434 76.2621 134.442 72.5079 133.864 68.6404C133.072 63.3378 132.846 57.8829 133.18 52.5294C133.374 49.4222 133.492 46.3091 133.644 43.1996C133.655 42.9844 133.647 42.758 133.676 42.5443C133.785 41.7634 134.85 41.7056 134.877 42.5563C134.9 43.241 135.828 43.1987 135.912 42.5563C136.014 41.7694 137.084 41.9103 137.108 42.6655C137.129 43.3503 138.058 43.3078 138.142 42.6655C138.244 41.8785 139.314 42.0194 139.338 42.7746C139.36 43.4597 140.288 43.4166 140.372 42.7746C140.484 41.9241 141.525 42.2009 141.565 42.9502C141.575 43.1307 141.547 43.3211 141.538 43.5014C141.498 44.322 141.458 45.1425 141.418 45.9631C141.351 47.3337 141.284 48.7043 141.217 50.0749C141.2 50.4101 141.56 50.6636 141.871 50.5736C142.305 50.4479 142.911 50.1499 143.374 50.2043C144.388 50.3233 144.247 51.6465 143.59 52.0913C142.963 52.5161 142.199 52.6898 141.626 53.207C141.088 53.6937 140.8 54.4429 140.652 55.1389C140.305 56.7789 140.56 58.5193 140.912 60.1361C141.266 61.7638 141.784 63.3504 142.351 64.9148C142.576 65.5358 143.576 65.2678 143.348 64.6399C142.383 61.9762 141.337 59.0219 141.55 56.1474C141.596 55.5239 141.72 54.8487 142.053 54.3085C142.443 53.6766 143.215 53.4776 143.836 53.1441C144.98 52.5289 145.594 51.1836 144.822 50.0036C144.027 48.7888 142.723 49.25 141.596 49.5762L142.251 50.0749C142.342 48.2053 142.434 46.3357 142.525 44.4661C142.558 43.7885 142.733 42.9152 142.487 42.2599C142.221 41.5478 141.478 41.1007 140.724 41.2192C139.902 41.3484 139.441 41.9912 139.338 42.7746H140.372C140.344 41.8928 139.724 41.1135 138.795 41.0877C137.844 41.0613 137.223 41.7825 137.108 42.6655H138.142C138.114 41.7836 137.494 41.0044 136.564 40.9785C135.614 40.9521 134.992 41.6733 134.877 42.5563H135.912C135.856 40.8329 133.517 40.2061 132.788 41.8713C132.554 42.4069 132.613 43.1313 132.585 43.7031C132.473 45.9965 132.361 48.2898 132.249 50.5831C132.076 54.1041 131.951 57.6082 132.117 61.1356C132.297 64.9681 132.72 68.8051 133.525 72.559C133.957 74.5741 134.54 76.5329 135.197 78.4846C135.859 80.4523 136.578 82.4354 137.688 84.2017C138.633 85.7057 139.864 86.9515 141.35 87.9244C142.72 88.8217 144.441 89.5959 146.117 89.3151C149.034 88.8261 148.82 84.8537 147.17 83.1253C146.232 82.1425 144.593 82.1806 143.859 80.9713C142.83 79.2762 143.133 76.714 143.731 74.9189C144.567 72.4068 147.778 69.6375 150.475 71.3157C152.224 72.4046 152.768 74.7629 153.181 76.6314C153.702 78.9868 154.16 81.3658 154.42 83.7656C154.932 88.5067 154.452 93.0981 153.005 97.6398C150.176 106.52 144.868 114.339 139.129 121.583C133.314 128.923 126.97 135.861 121.714 143.631C119.326 147.162 117.16 150.824 115.585 154.793C114.181 158.332 113.014 162.184 110.602 165.2C109.551 166.514 107.88 167.537 107.285 169.166C106.576 171.11 108.235 172.725 109.788 173.602C111.679 174.672 113.848 175.289 115.996 175.546C117.093 175.677 118.223 175.727 119.323 175.617C120.102 175.539 120.941 175.333 121.444 174.684C122.287 173.597 121.241 171.733 119.857 172.368C119.665 172.456 119.547 172.755 119.619 172.952C120.22 174.602 121.413 176.004 123.003 176.778C123.686 177.11 124.719 177.591 125.433 177.117C125.761 176.899 125.91 176.547 126.062 176.199C126.299 175.657 126.526 175.111 126.752 174.564C128.546 170.224 130.052 165.766 131.957 161.471C135.82 152.765 141.842 145.152 147.87 137.853C150.987 134.077 154.713 130.412 156.486 125.758C156.723 125.135 155.724 124.866 155.489 125.483V125.483H155.489Z" fill="black"/>
<path d="M40.5425 91.2002C42.7768 97.1596 39.8873 103.47 39.0623 109.426C38.2347 115.401 38.2268 121.756 40.4305 127.46C42.027 131.591 45.0798 135.249 49.4126 136.608C54.5799 138.229 60.144 136.233 64.2737 133.049C68.618 129.7 71.8126 125.085 74.558 120.398C77.2303 115.835 79.5811 111.092 82.3563 106.588C84.9264 102.417 87.9831 98.3039 92.2782 95.7805C96.6968 93.1846 102.319 92.5712 106.985 94.918C111.924 97.4025 113.907 102.653 113.94 107.929C113.977 113.989 111.59 119.59 110.329 125.427C109.738 128.164 109.188 131.247 109.972 133.999C110.626 136.292 112.381 138.43 114.852 138.772C117.118 139.085 119.291 137.866 121.022 136.53C123.067 134.952 124.801 132.985 126.41 130.976C130.026 126.46 132.885 121.41 135.436 116.233C136.733 113.602 137.955 110.936 139.174 108.27C140.209 106.005 141.177 103.7 142.314 101.484C143.387 99.3907 144.666 97.3656 146.45 95.8025C148.406 94.0891 150.948 93.0452 153.559 93.0408C156.366 93.0361 158.994 94.2707 160.652 96.5579C162.191 98.681 162.865 101.332 162.909 103.927C162.965 107.246 162.122 110.486 161.316 113.68C160.509 116.881 159.736 120.098 159.248 123.367C158.517 128.269 158.407 133.29 159.895 138.059C160.939 141.403 162.619 145.031 165.576 147.097C166.911 148.03 168.529 148.499 170.156 148.311C171.111 148.201 172.027 147.901 172.886 147.474C174.204 146.818 175.284 145.789 176.567 145.077C177.632 144.486 179.122 144.091 180.241 144.772C181.373 145.459 181.409 147.081 180.501 147.96L181.313 148.064C181.188 147.823 181.71 147.688 181.777 147.695C181.916 147.71 182.069 147.829 182.177 147.905C182.43 148.085 182.629 148.348 182.809 148.598C183.126 149.041 183.404 149.513 183.648 150C184.151 151.008 184.483 152.097 184.724 153.196C185.159 155.183 185.441 157.359 185.396 159.398C185.38 160.097 185.302 160.94 184.855 161.513C184.189 162.367 182.993 161.986 182.212 161.52C181.268 160.957 180.445 160.31 179.381 159.97C178.503 159.688 177.561 159.607 176.645 159.695C174.619 159.891 172.712 160.7 170.748 161.181C168.723 161.676 166.645 161.926 164.56 161.938C160.428 161.961 156.289 161.062 152.523 159.363C148.28 157.449 144.53 154.576 141.601 150.958C141.182 150.44 140.454 151.176 140.87 151.689C146.802 159.017 156.21 163.371 165.655 162.944C168.071 162.835 170.438 162.391 172.753 161.699C174.952 161.042 177.26 160.201 179.517 161.115C181.27 161.824 183.528 164.269 185.434 162.409C186.734 161.141 186.449 158.947 186.317 157.322C186.094 154.576 185.736 151.743 184.435 149.271C183.902 148.259 183.06 146.742 181.767 146.657C180.739 146.59 179.936 147.653 180.42 148.586C180.577 148.888 181.004 148.912 181.232 148.691C182.862 147.113 182.27 144.295 180.099 143.577C177.4 142.685 175.215 144.852 173.128 146.151C171.483 147.175 169.513 147.668 167.637 147.014C165.99 146.44 164.683 145.111 163.7 143.713C157.626 135.073 159.823 123.856 162.211 114.362C163.606 108.817 165.176 102.696 162.339 97.3205C161.15 95.067 159.216 93.2931 156.776 92.4984C154.286 91.6873 151.522 91.911 149.127 92.926C144.623 94.835 142.208 99.1158 140.27 103.362C137.933 108.48 135.675 113.641 133.063 118.627C130.33 123.843 127.17 128.889 123.123 133.195C121.499 134.924 119.582 136.714 117.288 137.482C114.625 138.373 112.171 136.952 111.184 134.372C110.113 131.573 110.754 128.266 111.384 125.437C112.077 122.328 113.086 119.303 113.856 116.214C115.12 111.147 115.685 105.503 113.584 100.571C111.576 95.8576 107.153 92.9994 102.126 92.4943C97.1119 91.9905 92.2722 93.9703 88.53 97.2317C84.8139 100.47 82.1663 104.751 79.7346 108.985C77.0139 113.722 74.6005 118.648 71.5999 123.22C68.5424 127.878 64.6805 132.411 59.4957 134.739C54.72 136.883 49.1149 136.643 45.1936 132.939C41.1734 129.141 39.8485 123.243 39.6216 117.916C39.4858 114.725 39.7498 111.518 40.2583 108.368C40.7451 105.353 41.6476 102.422 42.1121 99.4025C42.5506 96.5522 42.5641 93.6572 41.5398 90.9253C41.3083 90.3077 40.3081 90.5752 40.5425 91.2002V91.2002V91.2002Z" fill="black"/>
<path d="M93.4072 81.6856C93.4072 81.6856 96.7412 83.6658 99.4999 82.2183C99.0592 83.5967 97.2561 84.8176 97.2561 84.8176C97.2561 84.8176 96.8061 83.1463 95.8382 83.0056C94.8703 82.8649 93.4072 81.6855 93.4072 81.6855L93.4072 81.6856Z" fill="black"/>
<path d="M93.146 82.1324C93.8178 82.5296 94.5863 82.8138 95.3387 83.0087C96.8143 83.3909 98.3843 83.3725 99.7608 82.6651L99.0011 82.0811C98.7989 82.6868 98.3137 83.2317 97.8261 83.689C97.6261 83.8766 97.4168 84.0538 97.2009 84.2228C97.2918 84.1517 97.1971 84.2252 97.1601 84.2527C97.1306 84.2745 97.1004 84.2954 97.0712 84.3177C97.0466 84.3365 97.0206 84.3539 96.995 84.3714C97.2482 84.4744 97.5014 84.5774 97.7547 84.6804C97.5287 83.8506 97.0246 82.8446 96.1564 82.5527C95.9078 82.4691 95.65 82.4433 95.4053 82.3387C95.189 82.2463 94.8632 82.0614 94.6195 81.9092C94.3997 81.7718 94.1853 81.6256 93.9759 81.4728C93.9034 81.4199 93.8324 81.3648 93.7602 81.3114C93.9033 81.4172 93.8065 81.3472 93.7728 81.3201C93.5552 81.1453 93.2539 81.1076 93.0414 81.3201C92.8604 81.5011 92.8225 81.8756 93.0414 82.0515C93.3326 82.2855 93.6371 82.5049 93.9503 82.7084C94.4506 83.0335 95.0114 83.3654 95.6022 83.4871C95.6655 83.5001 95.7294 83.5088 95.7926 83.5228C95.8221 83.5293 95.9262 83.5699 95.8435 83.5333C95.9003 83.5585 95.9539 83.5918 96.0052 83.6265C96.0537 83.6611 96.0565 83.6631 96.0135 83.6324C96.0379 83.6532 96.0617 83.6748 96.0849 83.6971C96.2646 83.8696 96.3276 83.9726 96.4634 84.2256C96.5139 84.3198 96.5578 84.4166 96.6032 84.5133C96.6429 84.5979 96.5784 84.4427 96.6285 84.5766C96.6448 84.6202 96.6617 84.6634 96.6773 84.7072C96.7065 84.789 96.7345 84.8716 96.7573 84.9554C96.8402 85.26 97.2379 85.4542 97.517 85.2644C98.5516 84.561 99.5949 83.5654 99.9984 82.3561C100.15 81.9022 99.6156 81.5784 99.2388 81.772C98.068 82.3736 96.7195 82.3151 95.4997 81.981C95.2365 81.9089 94.9769 81.8243 94.7214 81.7286C94.6177 81.6897 94.5147 81.649 94.4123 81.6065C94.5246 81.6531 94.359 81.5831 94.3395 81.5744C94.2922 81.5535 94.2451 81.5322 94.1982 81.5104C94.0185 81.4271 93.8388 81.3402 93.6681 81.2393C93.0939 80.8996 92.573 81.7934 93.1461 82.1324H93.146Z" fill="black"/>
<path d="M95.954 41.4806C96.3632 42.7409 96.7723 44.0012 97.1814 45.2614C97.2401 45.4423 97.2988 45.6231 97.3575 45.8039C97.4438 46.0695 97.7157 46.2415 97.9937 46.1651C98.2543 46.0935 98.4415 45.7957 98.3549 45.5289C97.9458 44.2686 97.5366 43.0083 97.1275 41.7481C97.0688 41.5672 97.0101 41.3864 96.9514 41.2056C96.8652 40.94 96.5932 40.768 96.3152 40.8444C96.0547 40.916 95.8674 41.2138 95.954 41.4806V41.4806Z" fill="black"/>
<path d="M98.1308 40.774C98.5399 42.0343 98.9491 43.2946 99.3582 44.5549C99.4169 44.7357 99.4756 44.9165 99.5343 45.0974C99.6205 45.3629 99.8924 45.535 100.17 45.4586C100.431 45.3869 100.618 45.0891 100.532 44.8224C100.123 43.5621 99.7134 42.3018 99.3042 41.0415L99.1282 40.4991C99.0419 40.2335 98.77 40.0615 98.492 40.1379C98.2314 40.2095 98.0442 40.5073 98.1308 40.774V40.774Z" fill="black"/>
<path d="M100.307 40.0675C100.716 41.3278 101.125 42.5881 101.534 43.8484L101.711 44.3908C101.797 44.6564 102.069 44.8284 102.347 44.752C102.607 44.6804 102.795 44.3826 102.708 44.1158C102.299 42.8555 101.89 41.5953 101.481 40.335C101.422 40.1542 101.363 39.9733 101.304 39.7925C101.218 39.5269 100.946 39.3549 100.668 39.4313C100.408 39.5029 100.22 39.8007 100.307 40.0675V40.0675V40.0675Z" fill="black"/>
<path d="M115.112 95.0931C115.313 91.2271 115.001 87.3582 114.467 83.5301C113.923 79.6355 113.136 75.7803 112.333 71.9326C111.641 68.6179 111.022 65.2852 110.281 61.9812C109.658 59.2023 108.965 56.4388 108.248 53.6827C107.977 52.6411 107.702 51.6005 107.423 50.5612C107.283 50.0398 107.169 49.4985 106.995 48.9869C106.987 48.9625 106.982 48.9368 106.975 48.9119C106.93 49.0797 106.886 49.2474 106.842 49.4151C107.373 48.8159 107.923 48.2291 108.436 47.6146C109.079 46.8444 109.074 45.7103 108.374 44.9739C107.784 44.3522 106.822 44.2108 106.065 44.5971C105.607 44.8311 105.198 45.2382 104.794 45.5539L105.659 45.7821C105.256 44.6183 104.853 43.4545 104.451 42.2908C104.179 41.5052 103.907 40.7196 103.635 39.9341C103.494 39.5273 103.387 39.0491 103.165 38.6752C102.739 37.9568 101.833 37.6562 101.071 37.999C100.319 38.3374 99.9563 39.2034 100.197 39.9834C100.529 39.8918 100.862 39.8001 101.194 39.7085C100.875 38.8827 100.016 38.3689 99.1377 38.6572C98.2846 38.9372 97.8249 39.862 98.0865 40.7136C98.4189 40.622 98.7514 40.5303 99.0838 40.4387C98.7652 39.613 97.9058 39.0992 97.0274 39.3875C96.1743 39.6675 95.7146 40.5923 95.9762 41.4439C96.3086 41.3522 96.6411 41.2606 96.9735 41.1689C96.6783 40.4013 95.9512 39.9237 95.1198 40.068C94.3464 40.2022 93.7846 40.927 93.7951 41.7035C93.8012 42.1602 94.0228 42.6276 94.1698 43.0525C94.7698 44.7863 95.3698 46.5202 95.9698 48.2541C96.3296 49.294 96.7126 50.329 97.0492 51.3767C97.5381 52.8982 97.9495 54.4501 98.3542 55.9954C99.0217 58.5444 99.6654 61.1462 99.9832 63.7573C100.018 64.0424 100.048 64.328 100.071 64.6142C100.095 64.8925 100.292 65.1313 100.589 65.1313C100.85 65.1313 101.129 64.8941 101.106 64.6142C100.895 62.0887 100.32 59.5891 99.7121 57.1343C99.2443 55.2468 98.729 53.3703 98.1698 51.5079C97.9475 50.7676 97.6808 50.0414 97.428 49.3111C96.8243 47.5663 96.2205 45.8216 95.6168 44.0768C95.4059 43.4675 95.1951 42.8581 94.9842 42.2488C94.9484 42.1453 94.9097 42.0423 94.8766 41.9378C94.7458 41.5253 94.9849 41.017 95.4793 41.0734C95.6941 41.0979 95.8968 41.2375 95.9762 41.4439C96.0764 41.7044 96.324 41.8843 96.6123 41.805C96.8763 41.7325 97.0559 41.4369 96.9735 41.1689C96.8777 40.857 96.9806 40.5155 97.3023 40.3848C97.6007 40.2636 97.9687 40.4084 98.0864 40.7136C98.1869 40.974 98.4341 41.1541 98.7226 41.0748C98.9866 41.0023 99.1661 40.7067 99.0838 40.4386C98.988 40.1268 99.0908 39.7852 99.4126 39.6545C99.711 39.5334 100.079 39.6781 100.197 39.9834C100.297 40.2438 100.544 40.4238 100.833 40.3445C101.097 40.2721 101.277 39.9763 101.194 39.7084C101.07 39.306 101.324 38.8447 101.788 38.8843C102.051 38.9068 102.242 39.0967 102.334 39.3322C102.494 39.7388 102.621 40.1616 102.764 40.5743C103.265 42.0222 103.766 43.4701 104.267 44.918C104.399 45.2977 104.53 45.6773 104.661 46.057C104.798 46.4528 105.214 46.5292 105.526 46.2852C105.709 46.1419 105.892 45.9987 106.075 45.8554C106.178 45.7751 106.28 45.6939 106.383 45.6145C106.404 45.5987 106.423 45.5814 106.445 45.5665C106.326 45.6502 106.567 45.4971 106.592 45.4855C107.219 45.2014 107.976 45.7367 107.881 46.4504C107.82 46.9114 107.332 47.3058 107.041 47.6332C106.732 47.9823 106.41 48.3236 106.111 48.6823C105.88 48.9605 105.985 49.2155 106.066 49.511C106.167 49.8802 106.267 50.2496 106.367 50.6192C106.722 51.9345 107.069 53.2517 107.41 54.5706C108.292 57.988 109.154 61.4174 109.842 64.8799C110.772 69.5569 111.811 74.2145 112.67 78.9052C113.542 83.6652 114.204 88.4931 114.136 93.3425C114.128 93.9264 114.108 94.5099 114.078 95.093C114.043 95.7582 115.078 95.7563 115.112 95.093V95.093L115.112 95.0931Z" fill="black"/>
<path d="M84.5065 42.5821C84.427 43.8584 84.3475 45.1347 84.268 46.411L84.2337 46.9621C84.2163 47.2412 84.4838 47.4793 84.7509 47.4793C85.0453 47.4793 85.2506 47.242 85.268 46.9621C85.3475 45.6859 85.427 44.4096 85.5065 43.1333C85.5179 42.9496 85.5294 42.7658 85.5408 42.5821C85.5582 42.303 85.2907 42.0649 85.0236 42.0649C84.7292 42.0649 84.5239 42.3022 84.5065 42.5821V42.5821Z" fill="black"/>
<path d="M86.7897 42.7379C86.7102 44.0142 86.6307 45.2904 86.5512 46.5667C86.5398 46.7504 86.5284 46.9342 86.5169 47.1179C86.4995 47.397 86.767 47.6351 87.0341 47.6351C87.3285 47.6351 87.5338 47.3978 87.5512 47.1179C87.6307 45.8416 87.7102 44.5653 87.7897 43.289C87.8011 43.1053 87.8125 42.9216 87.824 42.7379C87.8414 42.4588 87.5739 42.2207 87.3068 42.2207C87.0124 42.2207 86.8071 42.458 86.7897 42.7379V42.7379Z" fill="black"/>
<path d="M89.0729 42.8941C88.9934 44.1704 88.9139 45.4467 88.8344 46.723L88.8001 47.2742C88.7827 47.5532 89.0502 47.7913 89.3173 47.7913C89.6117 47.7913 89.817 47.554 89.8344 47.2742C89.9139 45.9979 89.9934 44.7216 90.0729 43.4453C90.0843 43.2616 90.0958 43.0778 90.1072 42.8941C90.1246 42.6151 89.8571 42.377 89.59 42.377C89.2956 42.377 89.0903 42.6142 89.0729 42.8941V42.8941Z" fill="black"/>
<path d="M86.4636 51.0478C87.8127 50.4282 89.3639 50.2633 90.8146 50.5696C91.0877 50.6272 91.3736 50.4891 91.4508 50.2084C91.5214 49.9513 91.3641 49.6302 91.0896 49.5722C89.347 49.2043 87.5585 49.4122 85.9416 50.1547C85.6877 50.2712 85.6249 50.6381 85.756 50.8622C85.9085 51.1229 86.2088 51.1648 86.4636 51.0478V51.0478L86.4636 51.0478Z" fill="black"/>
<path d="M101.75 67.1615C103.424 67.3826 103.072 69.573 103.582 70.6786C103.65 70.4452 103.645 70.2069 103.693 69.9662C103.743 69.7148 103.947 69.4493 104.2 69.493C104.463 69.5385 104.556 69.8619 104.592 70.1261C105.084 73.7368 105.029 77.4216 104.428 81.0158C104.01 80.4722 103.666 79.7803 103.199 79.2861C103.104 79.186 102.191 78.449 102.208 78.4367C103.179 77.7249 103.533 76.2892 103.006 75.2073C102.815 74.8155 102.489 74.4529 102.06 74.3756C101.481 74.2713 100.944 74.7117 100.6 75.1886C100.161 75.7957 99.8772 76.5139 99.7827 77.2569C99.6541 76.4709 99.8267 75.359 99.2998 74.7222C98.6986 73.9956 97.7202 73.9544 96.8489 73.9507C95.5003 73.945 94.1517 73.9394 92.8031 73.9336C92.3481 72.4698 92.2418 70.6954 92.6269 69.1962C92.8019 68.5151 93.2087 67.8597 93.8413 67.5526C94.0693 67.442 94.3348 67.3798 94.577 67.4543C94.7085 67.4948 94.8257 67.5734 94.9265 67.667C95.2873 68.0021 95.4354 68.5488 95.2932 69.0202C95.2616 69.125 95.1864 69.2447 95.078 69.2301C95.0327 69.2239 94.9942 69.1942 94.9612 69.1626C94.546 68.765 94.7171 68.0525 95.0576 67.5893C95.6743 66.7506 97.3169 65.6531 98.4073 65.9606C98.8778 66.0933 99.2436 66.4808 99.4601 66.9191C99.6765 67.3575 99.7635 67.8467 99.8394 68.3296C100.315 67.707 100.973 67.059 101.75 67.1615H101.75Z" fill="black"/>
<path d="M101.613 67.66C101.712 67.6747 101.807 67.6972 101.903 67.724C101.934 67.7326 102.011 67.7646 101.942 67.7343C101.986 67.7535 102.027 67.777 102.068 67.8005C102.079 67.8065 102.182 67.8756 102.13 67.8376C102.081 67.8016 102.182 67.8838 102.182 67.8838C102.209 67.9097 102.234 67.9373 102.261 67.9637C102.29 67.9923 102.324 68.0393 102.28 67.9807C102.33 68.0475 102.373 68.1201 102.413 68.1937C102.431 68.228 102.448 68.2628 102.465 68.2979C102.53 68.435 102.433 68.2052 102.486 68.3498C102.547 68.5127 102.594 68.6793 102.634 68.8483C102.799 69.5501 102.838 70.2742 103.135 70.9394C103.321 71.3549 103.978 71.2197 104.08 70.8159C104.131 70.6179 104.147 70.4164 104.174 70.2147C104.181 70.163 104.208 70.0875 104.204 70.0409C104.197 69.9415 104.293 70.0128 104.138 70.0053C104.111 70.0041 104.016 69.9374 104.007 69.939C104.025 69.9357 104.046 70.0308 104.053 70.0595C104.093 70.2145 104.108 70.3742 104.128 70.5325C104.233 71.3762 104.309 72.2236 104.354 73.0727C104.444 74.7404 104.419 76.4144 104.279 78.0787C104.2 79.0164 104.083 79.9498 103.929 80.8781L104.874 80.7546C104.41 80.1413 104.075 79.3812 103.499 78.8599C103.329 78.7059 103.148 78.563 102.971 78.416C102.843 78.309 102.679 78.2047 102.574 78.0732L102.707 78.3014L102.707 78.299C102.627 78.4937 102.548 78.6884 102.469 78.883C103.521 78.0885 104.035 76.6779 103.634 75.3977C103.43 74.7426 102.966 74.0676 102.264 73.8913C101.495 73.698 100.765 74.1483 100.301 74.7339C99.757 75.4198 99.4022 76.2518 99.2839 77.1192H100.281C100.242 76.8654 100.241 76.4528 100.222 76.1395C100.2 75.7642 100.166 75.3735 100.039 75.0172C99.7599 74.238 99.0722 73.7381 98.2799 73.5588C97.4569 73.3726 96.5825 73.4323 95.7454 73.4288C94.7646 73.4246 93.7838 73.4205 92.8029 73.4163L93.3016 73.7959C92.8671 72.3745 92.744 70.7819 93.1254 69.3335C93.2665 68.7979 93.5773 68.2111 94.1195 67.9912C94.3792 67.8859 94.5512 67.9666 94.7003 68.1993C94.7642 68.299 94.8079 68.4166 94.8242 68.5341C94.8333 68.5998 94.8352 68.6808 94.8272 68.7461C94.8188 68.7922 94.8079 68.8377 94.7943 68.8826C94.8055 68.8411 94.8301 68.8069 94.8682 68.7801C94.9552 68.7566 95.0422 68.733 95.1292 68.7095L95.1523 68.707L95.3805 68.84C95.2781 68.7575 95.2462 68.6962 95.2369 68.6197C95.22 68.4794 95.2441 68.386 95.2875 68.252C95.3749 67.982 95.4897 67.8537 95.6645 67.6679C96.0771 67.2296 96.5917 66.8643 97.1469 66.6272C97.2597 66.579 97.3887 66.5353 97.5115 66.5008C97.637 66.4656 97.774 66.437 97.8524 66.4307C98.118 66.4095 98.328 66.4248 98.58 66.617C99.1329 67.0388 99.2394 67.8297 99.3406 68.4669C99.3717 68.6631 99.5895 68.8158 99.7705 68.8374C99.9949 68.8641 100.153 68.7627 100.286 68.5905C100.643 68.1276 101.127 67.6139 101.75 67.6784C102.028 67.7072 102.267 67.4202 102.267 67.1613C102.267 66.8577 102.029 66.673 101.75 66.6441C100.735 66.5391 99.9596 67.3346 99.3927 68.0684L100.338 68.192C100.214 67.413 100.026 66.6253 99.4685 66.0338C98.9473 65.4806 98.2381 65.3127 97.5081 65.4414C96.8662 65.5547 96.2471 65.8801 95.7236 66.2596C95.2243 66.6216 94.6952 67.0676 94.4277 67.6376C94.2752 67.9624 94.1726 68.3186 94.2087 68.6807C94.2488 69.084 94.4636 69.5649 94.8773 69.7044C95.3479 69.8631 95.7247 69.4943 95.8173 69.0554C95.9028 68.6497 95.8565 68.2429 95.6883 67.865C95.5384 67.5281 95.2697 67.2086 94.9334 67.0454C94.5134 66.8416 94.0663 66.8867 93.6496 67.0742C92.9587 67.3852 92.4973 68.0311 92.2348 68.7217C91.923 69.542 91.8574 70.5012 91.8759 71.371C91.8954 72.2826 92.0377 73.1989 92.3042 74.0709C92.3712 74.29 92.5709 74.4496 92.8029 74.4506C93.7224 74.4545 94.642 74.4584 95.5615 74.4623C96.2975 74.4654 97.0786 74.4055 97.8043 74.5174C98.3762 74.6056 98.9209 74.8676 99.0806 75.4136C99.2649 76.0436 99.1839 76.7396 99.2839 77.3941C99.3588 77.8846 100.213 77.8915 100.281 77.3941C100.377 76.6915 100.622 76.0041 101.055 75.4359C101.228 75.2092 101.482 74.9485 101.773 74.89C102.019 74.8407 102.224 74.9736 102.376 75.1644C103.027 75.9831 102.765 77.3725 101.947 77.9899C101.754 78.1354 101.652 78.3294 101.709 78.5739C101.758 78.7843 101.977 78.9273 102.132 79.0573C102.324 79.2182 102.519 79.3766 102.708 79.5399C103.252 80.0072 103.554 80.7118 103.981 81.2766C104.109 81.4455 104.273 81.5572 104.497 81.5235C104.682 81.4957 104.893 81.3545 104.927 81.1531C105.252 79.1896 105.431 77.2031 105.441 75.2126C105.446 74.2409 105.412 73.2689 105.339 72.2999C105.302 71.8154 105.256 71.3316 105.2 70.849C105.149 70.4061 105.147 69.8974 104.94 69.4927C104.699 69.0241 104.144 68.823 103.681 69.1115C103.156 69.4386 103.216 70.0182 103.083 70.5409L104.028 70.4174C104.079 70.5306 104.022 70.4004 104.016 70.3837C104.002 70.3418 103.987 70.3003 103.974 70.258C103.948 70.1772 103.927 70.0952 103.907 70.0128C103.863 69.8288 103.829 69.6425 103.797 69.4562C103.732 69.0791 103.675 68.6985 103.568 68.3303C103.327 67.5007 102.789 66.7955 101.888 66.6626C101.612 66.622 101.332 66.7313 101.252 67.0238C101.185 67.2674 101.335 67.619 101.613 67.66L101.613 67.66Z" fill="black"/>
<path d="M143.744 81.6856C143.744 81.6856 147.078 83.6658 149.836 82.2183C149.396 83.5967 147.593 84.8176 147.593 84.8176C147.593 84.8176 147.142 83.1463 146.175 83.0056C145.207 82.8649 143.744 81.6855 143.744 81.6855L143.744 81.6856Z" fill="black"/>
<path d="M143.482 82.1324C144.154 82.5296 144.923 82.8138 145.675 83.0087C147.151 83.3909 148.721 83.3725 150.097 82.6651L149.338 82.0811C149.135 82.6868 148.65 83.2317 148.163 83.689C147.963 83.8766 147.753 84.0538 147.537 84.2228C147.628 84.1517 147.534 84.2252 147.497 84.2527C147.467 84.2745 147.437 84.2954 147.408 84.3177C147.383 84.3365 147.357 84.3539 147.331 84.3714C147.585 84.4744 147.838 84.5774 148.091 84.6804C147.865 83.8506 147.361 82.8446 146.493 82.5527C146.244 82.4691 145.986 82.4433 145.742 82.3387C145.525 82.2463 145.2 82.0614 144.956 81.9092C144.736 81.7718 144.522 81.6256 144.312 81.4728C144.24 81.4199 144.169 81.3648 144.097 81.3114C144.24 81.4172 144.143 81.3472 144.109 81.3201C143.892 81.1453 143.59 81.1076 143.378 81.3201C143.197 81.5011 143.159 81.8756 143.378 82.0515C143.669 82.2855 143.973 82.5049 144.287 82.7084C144.787 83.0335 145.348 83.3654 145.939 83.4871C146.002 83.5001 146.066 83.5088 146.129 83.5228C146.159 83.5293 146.263 83.5699 146.18 83.5333C146.237 83.5585 146.29 83.5918 146.342 83.6265C146.39 83.6611 146.393 83.6631 146.35 83.6324C146.374 83.6532 146.398 83.6748 146.421 83.6971C146.601 83.8696 146.664 83.9726 146.8 84.2256C146.85 84.3198 146.894 84.4166 146.94 84.5133C146.979 84.5979 146.915 84.4427 146.965 84.5766C146.981 84.6202 146.998 84.6634 147.014 84.7072C147.043 84.789 147.071 84.8716 147.094 84.9554C147.177 85.26 147.574 85.4542 147.853 85.2644C148.888 84.561 149.931 83.5654 150.335 82.3561C150.486 81.9022 149.952 81.5784 149.575 81.772C148.404 82.3736 147.056 82.3151 145.836 81.981C145.573 81.9089 145.313 81.8243 145.058 81.7286C144.954 81.6897 144.851 81.649 144.749 81.6065C144.861 81.6531 144.695 81.5831 144.676 81.5744C144.629 81.5535 144.582 81.5322 144.535 81.5104C144.355 81.4271 144.175 81.3402 144.005 81.2393C143.43 80.8996 142.909 81.7934 143.483 82.1324H143.482Z" fill="black"/>
<path d="M146.29 41.4806C146.7 42.7409 147.109 44.0012 147.518 45.2614L147.694 45.8039C147.78 46.0695 148.052 46.2415 148.33 46.1651C148.591 46.0935 148.778 45.7957 148.691 45.5289C148.282 44.2686 147.873 43.0083 147.464 41.7481C147.405 41.5672 147.347 41.3864 147.288 41.2056C147.202 40.94 146.93 40.768 146.652 40.8444C146.391 40.916 146.204 41.2138 146.29 41.4806V41.4806Z" fill="black"/>
<path d="M148.467 40.774C148.876 42.0343 149.285 43.2946 149.694 44.5549C149.753 44.7357 149.812 44.9165 149.87 45.0974C149.956 45.3629 150.228 45.535 150.506 45.4586C150.767 45.3869 150.954 45.0891 150.868 44.8224C150.458 43.5621 150.049 42.3018 149.64 41.0415C149.581 40.8607 149.523 40.6799 149.464 40.4991C149.378 40.2335 149.106 40.0615 148.828 40.1379C148.567 40.2095 148.38 40.5073 148.467 40.774V40.774Z" fill="black"/>
<path d="M150.643 40.0675C151.053 41.3278 151.462 42.5881 151.871 43.8484C151.93 44.0292 151.988 44.21 152.047 44.3908C152.133 44.6564 152.405 44.8284 152.683 44.752C152.944 44.6804 153.131 44.3826 153.044 44.1158C152.635 42.8555 152.226 41.5953 151.817 40.335C151.758 40.1542 151.7 39.9733 151.641 39.7925C151.555 39.5269 151.283 39.3549 151.005 39.4313C150.744 39.5029 150.557 39.8007 150.643 40.0675V40.0675Z" fill="black"/>
<path d="M165.449 95.0931C165.649 91.2271 165.337 87.3582 164.803 83.5301C164.26 79.6355 163.473 75.7803 162.67 71.9326C161.978 68.6179 161.359 65.2852 160.618 61.9812C159.994 59.2023 159.302 56.4388 158.585 53.6827C158.314 52.6411 158.039 51.6005 157.759 50.5612C157.619 50.0398 157.506 49.4985 157.332 48.9869C157.323 48.9625 157.318 48.9368 157.311 48.9119L157.178 49.4151C157.709 48.8159 158.259 48.2291 158.772 47.6146C159.416 46.8444 159.411 45.7103 158.711 44.9739C158.12 44.3522 157.158 44.2108 156.402 44.5971C155.943 44.8311 155.534 45.2382 155.131 45.5539L155.995 45.7821C155.593 44.6183 155.19 43.4545 154.787 42.2908C154.515 41.5052 154.243 40.7196 153.972 39.9341C153.831 39.5273 153.723 39.0491 153.501 38.6752C153.076 37.9568 152.17 37.6562 151.408 37.999C150.656 38.3374 150.293 39.2034 150.533 39.9834C150.866 39.8918 151.198 39.8001 151.531 39.7085C151.212 38.8827 150.353 38.3689 149.474 38.6572C148.621 38.9372 148.161 39.862 148.423 40.7136C148.755 40.622 149.088 40.5303 149.42 40.4387C149.102 39.613 148.242 39.0992 147.364 39.3875C146.511 39.6675 146.051 40.5923 146.313 41.4439C146.645 41.3522 146.978 41.2606 147.31 41.1689C147.015 40.4013 146.288 39.9237 145.456 40.068C144.683 40.2022 144.121 40.927 144.131 41.7035C144.138 42.1602 144.359 42.6276 144.506 43.0525C145.106 44.7863 145.706 46.5202 146.306 48.2541C146.666 49.294 147.049 50.329 147.386 51.3767C147.875 52.8982 148.286 54.4501 148.691 55.9954C149.358 58.5444 150.002 61.1462 150.32 63.7573C150.354 64.0424 150.384 64.328 150.408 64.6142C150.431 64.8925 150.629 65.1313 150.925 65.1313C151.187 65.1313 151.465 64.8941 151.442 64.6142C151.231 62.0887 150.657 59.5891 150.048 57.1343C149.581 55.2468 149.065 53.3703 148.506 51.5079C148.284 50.7676 148.017 50.0414 147.764 49.3111C147.161 47.5663 146.557 45.8216 145.953 44.0768C145.742 43.4675 145.531 42.8581 145.321 42.2488C145.285 42.1453 145.246 42.0423 145.213 41.9378C145.082 41.5253 145.321 41.017 145.816 41.0734C146.031 41.0979 146.233 41.2375 146.313 41.4439C146.413 41.7044 146.66 41.8843 146.949 41.805C147.213 41.7325 147.392 41.4369 147.31 41.1689C147.214 40.857 147.317 40.5155 147.639 40.3848C147.937 40.2636 148.305 40.4084 148.423 40.7136C148.523 40.974 148.771 41.1541 149.059 41.0748C149.323 41.0023 149.503 40.7067 149.42 40.4386C149.324 40.1268 149.427 39.7852 149.749 39.6545C150.047 39.5334 150.415 39.6781 150.533 39.9834C150.634 40.2438 150.881 40.4238 151.169 40.3445C151.433 40.2721 151.613 39.9763 151.531 39.7084C151.406 39.306 151.66 38.8447 152.124 38.8843C152.387 38.9068 152.578 39.0967 152.671 39.3322C152.831 39.7388 152.958 40.1616 153.101 40.5743C153.602 42.0222 154.103 43.4701 154.604 44.918C154.735 45.2977 154.866 45.6773 154.998 46.057C155.135 46.4528 155.55 46.5292 155.862 46.2852C156.045 46.1419 156.228 45.9987 156.412 45.8554C156.514 45.7751 156.616 45.6939 156.72 45.6145C156.74 45.5987 156.76 45.5814 156.781 45.5665C156.663 45.6502 156.903 45.4971 156.929 45.4855C157.555 45.2014 158.313 45.7367 158.218 46.4504C158.156 46.9114 157.668 47.3058 157.378 47.6332C157.068 47.9823 156.746 48.3236 156.448 48.6823C156.216 48.9605 156.322 49.2155 156.403 49.511C156.504 49.8802 156.604 50.2496 156.703 50.6192C157.058 51.9345 157.406 53.2517 157.746 54.5706C158.629 57.988 159.49 61.4174 160.179 64.8799C161.109 69.5569 162.147 74.2145 163.006 78.9052C163.878 83.6652 164.54 88.4931 164.473 93.3425C164.464 93.9264 164.445 94.5099 164.414 95.093C164.38 95.7582 165.414 95.7563 165.449 95.093V95.093L165.449 95.0931Z" fill="black"/>
<path d="M134.843 42.5821C134.763 43.8584 134.684 45.1347 134.604 46.411C134.593 46.5947 134.582 46.7784 134.57 46.9621C134.553 47.2412 134.82 47.4793 135.087 47.4793C135.382 47.4793 135.587 47.242 135.604 46.9621C135.684 45.6859 135.763 44.4096 135.843 43.1333C135.854 42.9496 135.866 42.7658 135.877 42.5821C135.895 42.303 135.627 42.0649 135.36 42.0649C135.066 42.0649 134.86 42.3022 134.843 42.5821V42.5821Z" fill="black"/>
<path d="M137.126 42.7379C137.047 44.0142 136.967 45.2904 136.888 46.5667C136.876 46.7504 136.865 46.9342 136.853 47.1179C136.836 47.397 137.103 47.6351 137.371 47.6351C137.665 47.6351 137.87 47.3978 137.888 47.1179C137.967 45.8416 138.047 44.5653 138.126 43.289L138.16 42.7379C138.178 42.4588 137.91 42.2207 137.643 42.2207C137.349 42.2207 137.144 42.458 137.126 42.7379V42.7379Z" fill="black"/>
<path d="M139.409 42.8941C139.33 44.1704 139.25 45.4467 139.171 46.723C139.159 46.9067 139.148 47.0904 139.137 47.2742C139.119 47.5532 139.387 47.7913 139.654 47.7913C139.948 47.7913 140.153 47.554 140.171 47.2742C140.25 45.9979 140.33 44.7216 140.409 43.4453C140.421 43.2616 140.432 43.0778 140.444 42.8941C140.461 42.6151 140.194 42.377 139.926 42.377C139.632 42.377 139.427 42.6142 139.409 42.8941V42.8941Z" fill="black"/>
<path d="M136.8 51.0478C138.149 50.4282 139.7 50.2633 141.151 50.5696C141.424 50.6272 141.71 50.4891 141.787 50.2084C141.858 49.9513 141.701 49.6302 141.426 49.5722C139.683 49.2043 137.895 49.4122 136.278 50.1547C136.024 50.2712 135.961 50.6381 136.092 50.8622C136.245 51.1229 136.545 51.1648 136.8 51.0478V51.0478L136.8 51.0478Z" fill="black"/>
<path d="M151.655 68.768C153.142 69.165 154.511 70.1129 155.14 71.5067C155.565 72.4504 155.627 73.5145 155.625 74.5498C155.621 75.7743 155.537 76.9986 155.371 78.2119C155.305 78.6958 154.875 81.3206 154.086 80.8533C153.85 80.7134 153.748 79.9634 153.639 79.7243C153.385 79.1629 153.021 78.8427 152.55 78.4544C153.443 77.6369 153.908 76.3689 153.342 75.2073C153.151 74.8155 152.825 74.4529 152.396 74.3756C151.817 74.2713 151.28 74.7116 150.936 75.1886C150.498 75.7937 150.241 76.4885 150.118 77.221C149.932 76.0958 150.21 75.3258 148.846 75.4146C147.738 75.4866 146.621 75.4679 146.109 74.2843C145.929 74.8383 145.267 74.9994 144.747 74.9064C144.016 74.7755 143.353 74.3028 142.991 73.6538C142.628 73.0049 142.574 72.1924 142.847 71.501C143.343 70.2414 144.73 69.6015 146.022 69.1982C147.663 68.6863 149.405 68.3552 151.098 68.6462C151.285 68.6782 151.471 68.7189 151.655 68.768H151.655Z" fill="black"/>
<path d="M151.517 69.2667C152.624 69.5687 153.702 70.187 154.353 71.1564C155.139 72.328 155.133 73.7884 155.1 75.1467C155.071 76.3162 154.998 77.5039 154.775 78.6546C154.7 79.0475 154.608 79.4395 154.479 79.8186C154.464 79.8624 154.449 79.9059 154.433 79.9493C154.426 79.9684 154.381 80.0834 154.401 80.033C154.423 79.9809 154.368 80.1071 154.358 80.127C154.338 80.1689 154.316 80.2104 154.293 80.2509C154.275 80.2833 154.253 80.3141 154.235 80.3467C154.188 80.4328 154.248 80.3397 154.235 80.3525C154.21 80.3762 154.18 80.404 154.16 80.431C154.116 80.4914 154.249 80.3742 154.163 80.4221C154.116 80.4484 154.235 80.3931 154.228 80.3951C154.159 80.4134 154.284 80.3905 154.293 80.3908C154.214 80.388 154.426 80.4171 154.316 80.3957C154.29 80.3905 154.436 80.4414 154.416 80.4667C154.421 80.4611 154.432 80.5113 154.411 80.4518C154.4 80.4233 154.381 80.3962 154.369 80.3684C154.4 80.439 154.346 80.2931 154.338 80.2689C154.318 80.2063 154.301 80.143 154.283 80.0797C154.249 79.9562 154.221 79.8309 154.182 79.7087C153.968 79.0302 153.449 78.5288 152.916 78.0887V78.8201C153.909 77.8916 154.423 76.4488 153.878 75.1479C153.601 74.4881 153.074 73.9107 152.324 73.8481C151.582 73.7863 150.951 74.311 150.533 74.8681C150.05 75.5133 149.757 76.2933 149.62 77.0834H150.617C150.559 76.7215 150.576 76.1613 150.429 75.7421C150.246 75.2173 149.816 74.958 149.278 74.9026C148.997 74.8735 148.714 74.9097 148.432 74.918C148.296 74.922 148.159 74.9228 148.023 74.9176C147.894 74.9126 147.757 74.9016 147.678 74.888C147.124 74.7925 146.797 74.5584 146.556 74.0232C146.473 73.8401 146.223 73.7488 146.04 73.7763C145.826 73.8084 145.683 73.9461 145.61 74.1467C145.579 74.2335 145.492 74.3033 145.409 74.3418C145.272 74.4059 145.132 74.418 144.977 74.4131C144.677 74.4034 144.251 74.2317 143.958 74.0027C143.263 73.4588 143.007 72.4952 143.332 71.6744C143.631 70.921 144.352 70.445 145.059 70.1111C145.942 69.6938 146.932 69.4386 147.887 69.2498C149.081 69.0138 150.331 68.9582 151.517 69.2666C152.162 69.4343 152.437 68.4369 151.792 68.2693C150.465 67.9241 149.082 67.9768 147.744 68.2272C146.568 68.4471 145.352 68.7817 144.289 69.3413C143.339 69.8415 142.477 70.6453 142.236 71.7304C141.965 72.9536 142.451 74.1995 143.47 74.9209C144.435 75.6042 146.123 75.7536 146.608 74.4217L145.662 74.5452C145.929 75.1362 146.399 75.5642 147.007 75.783C147.547 75.9772 148.153 75.9717 148.718 75.9395C148.868 75.931 149.018 75.9195 149.169 75.9278C149.191 75.9291 149.342 75.9541 149.24 75.9334C149.285 75.9424 149.328 75.9579 149.372 75.9667C149.428 75.9872 149.424 75.985 149.359 75.9603C149.381 75.9714 149.403 75.9839 149.423 75.9975C149.432 75.9631 149.323 75.951 149.425 76.0066C149.517 76.057 149.349 75.953 149.425 76.0119C149.436 76.0321 149.447 76.0528 149.457 76.074C149.428 76.0052 149.424 75.9979 149.444 76.0521C149.456 76.1296 149.483 76.2067 149.498 76.2847C149.506 76.3436 149.506 76.3411 149.497 76.2771C149.501 76.3076 149.504 76.338 149.508 76.3685C149.512 76.4165 149.517 76.4645 149.521 76.5125C149.547 76.7956 149.575 77.0775 149.62 77.3584C149.699 77.8555 150.531 77.8488 150.617 77.3584C150.735 76.6781 150.96 76.0055 151.382 75.4495C151.662 75.0808 152.161 74.6506 152.593 75.0395C152.993 75.4012 153.128 76.032 153.056 76.5485C152.971 77.153 152.622 77.6798 152.184 78.0887C151.994 78.2665 151.973 78.646 152.184 78.8201C152.443 79.0335 152.714 79.2508 152.92 79.5176C153.099 79.7484 153.161 79.8887 153.23 80.1441C153.365 80.6472 153.504 81.2728 154.093 81.4043C155.106 81.6307 155.488 80.1603 155.66 79.4519C155.939 78.3021 156.042 77.1047 156.104 75.9267C156.189 74.3003 156.258 72.5085 155.478 71.0244C154.738 69.6141 153.299 68.6806 151.792 68.2693C151.149 68.0938 150.875 69.0913 151.517 69.2666L151.517 69.2667Z" fill="black"/>
<path d="M52.3003 73.6215C52.8417 74.8424 53.1265 76.1765 53.1308 77.512C53.1313 77.6837 53.1376 77.8794 53.2684 77.9906C53.2833 77.411 53.3336 76.8174 53.5782 76.2917C53.8228 75.7659 54.2972 75.3149 54.8725 75.2426C55.5321 75.1596 56.1744 75.5963 56.5127 76.1685C57.0698 77.1106 56.8813 78.4286 56.0825 79.1768C56.3199 79.6411 56.7145 80.0985 57.1888 80.3226C57.1114 79.0917 57.9305 77.9451 57.736 76.6722C57.5713 75.5944 57.1368 74.3429 56.6846 73.3613" fill="black"/>
<path d="M51.8536 73.8824C52.1671 74.5981 52.3812 75.3614 52.5065 76.1319C52.5666 76.5017 52.5976 76.8763 52.6091 77.2507C52.6215 77.6565 52.6017 78.0412 52.9025 78.3562C53.2214 78.69 53.7728 78.4261 53.7854 77.9905C53.8037 77.3568 53.8477 76.6305 54.2913 76.1327C54.6739 75.7034 55.2121 75.6363 55.6764 75.9872C56.5785 76.6689 56.4746 78.0793 55.7167 78.811C55.5463 78.9755 55.5296 79.2362 55.6358 79.4377C55.9255 79.9873 56.3658 80.489 56.9277 80.769C57.2581 80.9337 57.726 80.739 57.7059 80.3225C57.648 79.1248 58.3782 78.0386 58.2719 76.8273C58.1594 75.5441 57.6622 74.2618 57.131 73.1002C57.0148 72.8462 56.6473 72.7838 56.4235 72.9147C56.1625 73.0673 56.1213 73.3673 56.2379 73.6223C56.4838 74.1598 56.6938 74.7133 56.8702 75.2775C57.0397 75.8201 57.2272 76.4095 57.2472 76.9814C57.2661 77.5233 57.1021 78.0437 56.9551 78.559C56.7914 79.1327 56.6425 79.721 56.6716 80.3225L57.4498 79.8759C57.0326 79.668 56.7437 79.323 56.529 78.9157C56.502 79.1246 56.475 79.3335 56.4481 79.5424C57.3904 78.6326 57.624 77.1137 56.9917 75.9644C56.6607 75.3626 56.0484 74.8579 55.36 74.7469C54.6322 74.6294 53.9283 74.9405 53.4691 75.5085C52.8983 76.2146 52.7765 77.1094 52.7511 77.9905C53.0454 77.8686 53.3397 77.7467 53.6339 77.6248C53.6565 77.6485 53.6465 77.6476 53.6499 77.6103C53.6577 77.522 53.6476 77.4264 53.6457 77.3377C53.6419 77.1636 53.6335 76.9895 53.6203 76.8158C53.5893 76.4084 53.5349 76.0011 53.4585 75.5997C53.3112 74.8249 53.0627 74.0818 52.7467 73.3604C52.6347 73.1045 52.2603 73.0455 52.0392 73.1749C51.7752 73.3293 51.7412 73.6256 51.8537 73.8824V73.8824L51.8536 73.8824Z" fill="black"/>
<path d="M154.245 72.8018C153.754 71.8675 154.217 70.6121 155.119 70.0628C156.02 69.5135 157.218 69.607 158.139 70.1228C158.869 70.5319 159.618 71.2105 160.417 70.9618C161.29 70.6904 161.465 69.5633 161.938 68.7816C162.561 67.7502 163.884 67.2591 165.074 67.4502C166.264 67.6413 167.303 68.4293 167.989 69.4204C168.95 70.8093 169.199 72.8646 168.057 74.1088C167.772 74.4197 167.31 74.6725 166.942 74.4661C166.42 74.1733 166.665 73.3488 167.096 72.9328C168.314 71.7552 170.437 71.8058 171.735 72.8946C173.034 73.9834 173.484 75.8987 173.015 77.527C172.546 79.1553 171.261 80.4771 169.735 81.214C168.276 81.9186 166.526 82.1193 165.024 81.5101C163.918 81.0613 162.913 79.8891 163.307 78.7624C163.424 78.4265 163.755 78.1011 164.094 78.2068C164.206 78.2413 164.299 78.3177 164.382 78.3987C165.382 79.3655 165.239 81.16 164.256 82.1428C163.272 83.1256 161.686 83.3335 160.366 82.8947C159.047 82.4559 157.973 81.4622 157.159 80.335C156.345 79.2078 155.756 77.9378 155.11 76.7064" fill="black"/>
<path d="M154.692 72.5409C154.34 71.8394 154.731 70.8777 155.443 70.4722C155.876 70.2263 156.4 70.1618 156.888 70.2327C157.429 70.3112 157.877 70.5585 158.332 70.846C158.837 71.1655 159.355 71.4801 159.965 71.528C160.499 71.5699 161.033 71.3216 161.378 70.9197C161.993 70.2039 162.092 69.1739 162.814 68.5415C163.513 67.9285 164.534 67.7991 165.392 68.0532C166.354 68.3377 167.175 69.0611 167.69 69.9094C168.177 70.7119 168.436 71.7325 168.236 72.6407C168.139 73.0841 167.943 73.5382 167.59 73.8443C167.517 73.9082 167.429 73.9772 167.335 74.0074C167.324 74.011 167.193 74.0234 167.206 74.02C167.262 74.005 167.092 74.0198 167.181 74.0051L167.198 74.0327C167.169 73.9792 167.164 73.9764 167.184 74.0243C167.175 73.9921 167.164 73.9605 167.159 73.9273C167.179 74.0538 167.174 73.7764 167.161 73.8834C167.257 73.1047 168.335 72.6566 169.061 72.5946C169.976 72.5167 170.904 72.7918 171.573 73.4442C172.255 74.1092 172.627 75.0526 172.673 75.9937C172.723 76.9996 172.415 77.9523 171.849 78.7821C170.659 80.5296 168.336 81.63 166.229 81.3069C165.278 81.1611 164.185 80.683 163.823 79.7179C163.751 79.5279 163.718 79.3342 163.739 79.1606C163.751 79.06 163.829 78.6903 163.988 78.6944C163.916 78.6925 164.009 78.7553 164.017 78.7646C164.068 78.8225 164.151 78.904 164.181 78.9429C164.328 79.1376 164.409 79.3189 164.47 79.5381C164.694 80.3334 164.445 81.2624 163.815 81.8495C163.125 82.4925 162.094 82.6949 161.182 82.5612C158.86 82.2211 157.425 80.0113 156.418 78.1111C156.125 77.559 155.846 76.9994 155.556 76.4456C155.248 75.8556 154.355 76.3779 154.663 76.9676C155.945 79.4178 157.208 82.1949 159.95 83.2912C161.13 83.763 162.499 83.7477 163.649 83.1982C164.782 82.6564 165.504 81.5442 165.578 80.2965C165.613 79.7147 165.483 79.1079 165.19 78.602C164.844 78.0024 164.218 77.4359 163.495 77.7881C162.862 78.096 162.639 78.8962 162.725 79.5452C162.809 80.187 163.162 80.764 163.626 81.2063C164.624 82.157 166.092 82.4811 167.436 82.369C168.797 82.2553 170.115 81.747 171.2 80.9173C172.224 80.1345 173.04 79.0972 173.451 77.8667C173.853 76.6655 173.784 75.3257 173.288 74.1645C172.804 73.031 171.886 72.1431 170.71 71.7565C169.59 71.3885 168.26 71.4932 167.263 72.1452C166.761 72.4735 166.324 72.9251 166.181 73.5253C166.031 74.1513 166.276 74.864 166.963 75.0246C167.704 75.198 168.34 74.6489 168.733 74.0838C169.087 73.5745 169.261 72.9663 169.317 72.3543C169.552 69.813 167.481 67.2035 164.941 66.9149C163.699 66.7737 162.392 67.2943 161.641 68.3006C161.314 68.7383 161.149 69.2637 160.908 69.748C160.795 69.9753 160.682 70.162 160.532 70.3104C160.493 70.3494 160.419 70.408 160.319 70.4518C160.283 70.4673 160.102 70.5046 159.999 70.4965C159.418 70.4506 158.894 69.9505 158.4 69.6765C157.816 69.3524 157.145 69.1673 156.475 69.1748C155.159 69.1895 153.954 69.9985 153.617 71.3018C153.462 71.8995 153.522 72.5118 153.799 73.063C153.924 73.3126 154.277 73.3832 154.507 73.2485C154.761 73.1 154.818 72.7914 154.692 72.541V72.541L154.692 72.5409Z" fill="black"/>
<path d="M60.5038 116.796C61.7159 117.34 63.0559 117.329 64.309 116.918C65.5984 116.494 66.7003 115.715 67.692 114.805C69.5611 113.088 71.1619 110.768 73.6976 109.99C74.9102 109.618 76.1366 109.771 77.2518 110.365C78.2835 110.915 79.1679 111.721 79.9118 112.616C81.308 114.296 82.1252 116.395 82.5108 118.528C82.9606 121.017 82.8164 123.622 82.2273 126.077C82.0721 126.724 83.0692 127 83.2247 126.352C83.7752 124.057 83.9577 121.654 83.6662 119.308C83.3805 117.009 82.6679 114.737 81.3479 112.815C79.9499 110.779 77.7324 108.785 75.1304 108.741C72.3194 108.695 70.1629 110.817 68.3496 112.694C67.425 113.651 66.4847 114.638 65.3312 115.322C64.3124 115.926 63.0486 116.356 61.8522 116.146C61.5704 116.096 61.2873 116.02 61.0258 115.903C60.7712 115.788 60.4698 115.829 60.3183 116.088C60.1889 116.309 60.2477 116.681 60.5038 116.796V116.796L60.5038 116.796Z" fill="black"/>
<path d="M183.042 37.8335C182.31 37.684 181.587 37.4419 180.835 37.4184C180.015 37.3928 179.27 37.7133 178.726 38.3274C178.527 38.552 178.539 38.8315 178.726 39.0588C179.958 40.5549 182.118 41.2114 184.003 40.9901C184.281 40.9575 184.521 40.7757 184.521 40.4729C184.521 40.2187 184.283 39.923 184.003 39.9557C182.357 40.149 180.539 39.641 179.458 38.3274V39.0588C179.882 38.579 180.354 38.4166 180.965 38.4594C181.559 38.5011 182.169 38.7087 182.767 38.8309C183.041 38.8867 183.326 38.7517 183.403 38.4697C183.474 38.214 183.317 37.8897 183.042 37.8335V37.8335L183.042 37.8335Z" fill="white"/>
<path d="M50.9327 142.258C53.6636 142.876 56.5097 142.605 59.0846 141.515C59.3419 141.407 59.3982 141.027 59.2701 140.808C59.1143 140.541 58.8208 140.513 58.5626 140.622C56.2596 141.597 53.6426 141.812 51.2076 141.261C50.5595 141.114 50.2827 142.111 50.9327 142.258V142.258V142.258Z" fill="#FFAD9D"/>
<path d="M54.8357 145.906C55.0778 145.825 55.32 145.745 55.5621 145.664C55.6898 145.621 55.802 145.545 55.8712 145.426C55.909 145.367 55.9295 145.303 55.9326 145.234C55.948 145.165 55.9449 145.097 55.9234 145.028C55.8829 144.903 55.8053 144.782 55.6857 144.719C55.5663 144.656 55.4195 144.623 55.2872 144.667C55.045 144.747 54.8029 144.828 54.5607 144.909C54.4331 144.951 54.3209 145.028 54.2517 145.146C54.2139 145.206 54.1934 145.27 54.1903 145.339C54.1749 145.407 54.178 145.476 54.1995 145.545C54.24 145.67 54.3176 145.791 54.4372 145.854C54.5566 145.917 54.7034 145.95 54.8357 145.906V145.906Z" fill="#FFAD9D"/>
<path d="M115.713 128.399C117.491 129.64 120.131 129.092 121.382 127.367C121.763 126.841 122.038 126.123 121.794 125.482C121.577 124.911 120.912 124.541 120.313 124.729C119.657 124.935 119.563 125.703 119.783 126.269C120.01 126.855 120.498 127.281 121.073 127.514C122.531 128.104 123.907 127.005 124.929 126.087C125.426 125.642 124.692 124.912 124.198 125.356C123.572 125.917 122.797 126.651 121.896 126.646C121.593 126.645 121.247 126.503 121.015 126.284C120.757 126.041 120.661 125.798 120.745 125.513C120.701 125.589 120.657 125.665 120.612 125.741C120.689 125.653 120.528 125.738 120.636 125.712C120.593 125.723 120.627 125.709 120.669 125.719C120.745 125.737 120.799 125.772 120.825 125.832C120.933 126.082 120.757 126.425 120.621 126.646C120.334 127.115 119.917 127.458 119.406 127.709C118.409 128.198 117.171 128.159 116.235 127.505C116.006 127.345 115.661 127.464 115.528 127.691C115.377 127.949 115.483 128.238 115.713 128.399V128.399H115.713Z" fill="#FFAD9D"/>
<path d="M182.272 139.131C182.595 138.646 182.918 138.162 183.241 137.678C183.391 137.452 183.292 137.096 183.055 136.97C182.795 136.833 182.508 136.915 182.348 137.156C182.025 137.64 181.702 138.124 181.379 138.609C181.229 138.834 181.328 139.191 181.565 139.316C181.825 139.454 182.112 139.372 182.272 139.131V139.131Z" fill="#00727A"/>
<path d="M184.642 144.26C185.766 143.917 186.89 143.574 188.014 143.231C188.281 143.15 188.45 142.87 188.375 142.595C188.302 142.331 188.007 142.152 187.739 142.234C186.615 142.577 185.491 142.92 184.367 143.263C184.1 143.344 183.93 143.624 184.006 143.899C184.078 144.163 184.374 144.342 184.642 144.26V144.26Z" fill="#00727A"/>
<path d="M176.708 137.175C176.789 137.901 176.869 138.628 176.95 139.354C176.966 139.495 176.997 139.615 177.102 139.72C177.191 139.809 177.338 139.877 177.467 139.871C177.722 139.86 178.016 139.642 177.984 139.354C177.904 138.628 177.823 137.901 177.742 137.175C177.727 137.033 177.695 136.913 177.591 136.809C177.501 136.719 177.354 136.652 177.225 136.658C176.971 136.669 176.676 136.887 176.708 137.175V137.175Z" fill="#00727A"/>
</svg>
