<?xml version="1.0" encoding="utf-8"?>
<!-- Generator: Adobe Illustrator 28.2.0, SVG Export Plug-In . SVG Version: 6.00 Build 0)  -->
<svg version="1.1" id="Calque_1" xmlns="http://www.w3.org/2000/svg" xmlns:xlink="http://www.w3.org/1999/xlink" x="0px" y="0px"
	 viewBox="0 0 308.8 160.8" style="enable-background:new 0 0 308.8 160.8;" xml:space="preserve">
<style type="text/css">
	.st0{fill:url(#SVGID_1_);}
	.st1{fill:url(#SVGID_00000165927555610458024490000009028830148729497766_);}
	.st2{fill:#FF524D;}
	.st3{fill:#00BEAA;}
</style>
<g>
	<g>
		<radialGradient id="SVGID_1_" cx="35.8116" cy="41.8207" r="146.2629" gradientUnits="userSpaceOnUse">
			<stop  offset="0" style="stop-color:#00DEB9"/>
			<stop  offset="1" style="stop-color:#00727A"/>
		</radialGradient>
		<path class="st0" d="M105.8,108.3c-3-2.7-7.8-3.1-8-3.1c-0.4,0-0.8-0.1-1.2-0.1c-1.8,0-3.7,0.3-5.6,1c-1-0.5-3.2-1.5-6.1-1.5
			c-1.8,0-3.6,0.4-5.4,1.1c-0.6-0.2-2.4-0.6-4.6-0.6c-3,0-5.5,0.9-7.3,2.5l-2.4-2.4c-0.4-0.4-0.9-0.6-1.4-0.6c-0.5,0-1,0.2-1.4,0.6
			c-0.8,0.8-0.8,2.1,0,2.8l8.8,8.8c0.5,0.5,0.8,1.2,0.8,1.9c0,0.7-0.3,1.3-0.8,1.8l-0.1,0.1c-0.5,0.5-1.2,0.7-1.8,0.7
			c-0.7,0-1.4-0.3-1.9-0.8l-8.2-8.2c-0.4-0.4-0.9-0.6-1.4-0.6c-0.5,0-1,0.2-1.4,0.6c-0.8,0.8-0.8,2.1,0,2.8l8.2,8.2
			c1.3,1.3,2.9,2,4.7,2c1.2,0,2.3-0.3,3.4-0.9l0,0.1l0.4-0.4l11.7-9.6c4.1-3.6,8.1-5.4,11.8-5.4c0.3,0,0.6,0,0.9,0
			c1.5,0.1,3,0.6,4.3,1.3L75.7,131c-1.2,0.9-2.6,1.4-4.1,1.4c-1.5,0-2.9-0.5-4.1-1.4l-23.2-18.2c-2-1.6-3.2-4-3.2-6.5V83.4h0V70.7
			c0-1.1-0.9-2-2-2s-2,0.9-2,2v12.7h0v24.3c0,2.9,1.3,5.6,3.6,7.4l26.1,20.5c1.4,1.1,3.1,1.7,4.8,1.7c1.7,0,3.4-0.6,4.8-1.7
			l29.3-23.1c0.6-0.5,1-1.2,1-2C106.7,109.6,106.4,108.9,105.8,108.3z M97.7,105.8c-0.5,0-0.9,0-1.4,0c0.1,0,0.1,0,0.2,0
			C96.9,105.7,97.3,105.8,97.7,105.8z M75.6,116.9c-0.2-0.8-0.6-1.6-1.2-2.3c3.4-3.9,7-6,10.5-6c0.3,0,0.6,0,1,0.1
			c-1.3,0.8-2.6,1.8-3.8,2.9L75.6,116.9z M85,108.1c0.5,0,0.9,0,1.4,0.1C85.9,108.1,85.4,108.1,85,108.1z M75.5,112.7
			c0.5-0.5,0.9-0.9,1.4-1.3C76.4,111.8,76,112.2,75.5,112.7z M76.9,111.4c0.5-0.4,0.9-0.7,1.4-1C77.8,110.7,77.4,111,76.9,111.4z
			 M78.6,110.2c0.4-0.3,0.9-0.6,1.3-0.8C79.5,109.6,79,109.9,78.6,110.2z M79.9,109.4c0.4-0.2,0.8-0.4,1.2-0.6
			C80.7,109,80.3,109.2,79.9,109.4z M81.4,108.7c0.4-0.1,0.8-0.3,1.1-0.4C82.2,108.4,81.8,108.6,81.4,108.7z M82.6,108.4
			c0.4-0.1,0.7-0.2,1.1-0.2C83.3,108.2,83,108.3,82.6,108.4z M84,108.1c0.3,0,0.7-0.1,1-0.1C84.6,108.1,84.3,108.1,84,108.1z
			 M75.4,105.8c0.1,0,0.3,0,0.4,0C75.7,105.8,75.6,105.8,75.4,105.8z M74,108.7c0.2,0,0.4,0,0.6,0C74.4,108.7,74.2,108.7,74,108.7z
			 M71,109.6c0.2-0.1,0.3-0.1,0.5-0.2C71.3,109.4,71.1,109.5,71,109.6z M72.4,109c0.2-0.1,0.4-0.1,0.6-0.1
			C72.8,108.9,72.6,108.9,72.4,109z M74.1,109.2c-0.8,0.7-1.7,1.6-2.5,2.5l-1.1-1.1C71.6,109.7,73,109.3,74.1,109.2z M75.2,113
			c-0.5,0.5-1,1-1.4,1.6C74.2,114.1,74.7,113.5,75.2,113z M86.3,108.2c0.4,0.1,0.8,0.2,1.2,0.3C87.1,108.3,86.7,108.2,86.3,108.2z
			 M96.2,108.6c-0.2,0-0.4,0-0.7,0C95.7,108.7,96,108.6,96.2,108.6z M93.9,106c-0.2,0-0.3,0.1-0.5,0.1C93.6,106.1,93.8,106,93.9,106
			z M94.7,108.8c-0.2,0-0.5,0.1-0.7,0.1C94.2,108.9,94.4,108.8,94.7,108.8z M93.1,109.1c-0.2,0.1-0.5,0.1-0.7,0.2
			C92.6,109.2,92.9,109.2,93.1,109.1z M91.5,109.6c-0.2,0.1-0.5,0.2-0.7,0.3C91.1,109.8,91.3,109.7,91.5,109.6z M89.9,110.4
			c-0.2,0.1-0.4,0.2-0.7,0.3C89.5,110.6,89.7,110.5,89.9,110.4z M88.3,111.3c-0.2,0.1-0.4,0.3-0.6,0.4
			C87.8,111.5,88.1,111.4,88.3,111.3z M88.4,105.8c0.2,0,0.3,0.1,0.5,0.1C88.7,105.9,88.6,105.8,88.4,105.8z M89.8,106.2
			c0.1,0,0.2,0.1,0.3,0.1C90,106.3,89.9,106.3,89.8,106.2z M87.2,105.5c-0.1,0-0.2-0.1-0.4-0.1C87,105.4,87.1,105.5,87.2,105.5z
			 M85,105.3c-0.5,0-1,0-1.5,0.1c0.5-0.1,0.9-0.1,1.4-0.1C84.9,105.2,85,105.3,85,105.3z M81.3,105.8c-0.6,0.2-1.2,0.4-1.8,0.6
			C80.1,106.1,80.7,105.9,81.3,105.8z M83.2,105.4c-0.4,0.1-0.9,0.1-1.4,0.3C82.3,105.5,82.7,105.4,83.2,105.4z M76.4,105.8
			c0.1,0,0.2,0,0.3,0C76.6,105.8,76.5,105.8,76.4,105.8z M77.3,105.9c0,0,0.1,0,0.2,0C77.4,105.9,77.3,105.9,77.3,105.9z
			 M79.1,106.3C79.1,106.3,79.1,106.3,79.1,106.3C79.1,106.3,79.1,106.3,79.1,106.3z M75,105.7C75,105.7,74.9,105.7,75,105.7
			C74.9,105.7,74.9,105.7,75,105.7C75,105.7,75,105.7,75,105.7z M71.1,106.3C71.1,106.3,71.2,106.3,71.1,106.3
			C71.2,106.3,71.1,106.3,71.1,106.3z M73.1,105.9C73.1,105.9,73.1,105.9,73.1,105.9C73.1,105.9,73.1,105.9,73.1,105.9z M69.3,107.2
			C69.3,107.2,69.3,107.2,69.3,107.2C69.3,107.2,69.3,107.2,69.3,107.2z M68.4,121.8c0.3,0.1,0.5,0.1,0.8,0.2
			C68.9,122,68.7,121.9,68.4,121.8z M70.4,121.8c-0.1,0-0.3,0-0.4,0.1C70.1,121.8,70.2,121.8,70.4,121.8z M68,121.7
			c-0.4-0.2-0.7-0.4-1-0.7C67.3,121.4,67.6,121.6,68,121.7z M86.5,112.4c-0.2,0.1-0.4,0.3-0.5,0.4C86.2,112.7,86.4,112.6,86.5,112.4
			z M37.9,109.6c0.3,1.3,0.9,2.5,1.7,3.6C38.8,112.2,38.2,110.9,37.9,109.6z M71.6,136.6c-0.8,0-1.6-0.1-2.3-0.4
			c1.1,0.4,2.3,0.5,3.5,0.3C72.4,136.6,72,136.6,71.6,136.6z"/>
		
			<radialGradient id="SVGID_00000161629380719356170300000012684652726295033526_" cx="35.8116" cy="41.8207" r="146.2629" gradientUnits="userSpaceOnUse">
			<stop  offset="0" style="stop-color:#00DEB9"/>
			<stop  offset="1" style="stop-color:#00727A"/>
		</radialGradient>
		<path style="fill:url(#SVGID_00000161629380719356170300000012684652726295033526_);" d="M45.3,63c0.4,0.1,0.9,0.1,1.3,0.1h0.1
			c1.8,0,3.8-0.4,5.9-1.2c1.1,0.6,3.2,1.4,5.9,1.4c1.7,0,3.5-0.4,5.3-1.1c0.4,0.1,2.3,0.6,4.6,0.6c2.1,0,5.1-0.5,7.3-2.7l2.2,2.2
			c0.7,0.7,1.8,0.7,2.4,0c0.7-0.7,0.7-1.8,0-2.4L72,51.5c-1.1-1.1-1.1-3,0-4.1l0.1-0.1c1.1-1,3-1,4.1,0.1l7.8,7.8
			c0.7,0.7,1.8,0.7,2.4,0c0.7-0.7,0.7-1.8,0-2.4l-7.8-7.8c-2.1-2.1-5.4-2.4-7.9-0.9l0,0l-11.9,9.8c-4.9,4.2-9.3,6.2-13,5.8
			c-1.9-0.2-3.2-0.9-4.1-1.6l25.2-19.8c2.8-2.2,6.6-2.2,9.4,0l22.5,17.7c2.3,1.8,3.6,4.4,3.6,7.3v29.1c0,1.9-1.6,3.5-3.5,3.5H82.2
			V68.6H60.8l0,23.9l12.6,6.9V75.3l-5.9-3.2h11.4v27.2h21.3c3.1,0,5.7-2.6,5.7-5.7l0-31.7c0-3.1-1.4-5.9-3.8-7.8L78.4,35.5
			c-4-3.1-9.6-3.1-13.6,0L38.3,56.2c-0.4,0.3-0.7,0.9-0.7,1.4c0,0.5,0.2,1.1,0.6,1.5C39.6,60.5,42,62.3,45.3,63z M56.7,59.7
			c1.5-0.9,2.9-2,4.3-3.3l6.9-5.7c0.2,1,0.7,2,1.4,2.8C64,59.8,59.4,60.2,56.7,59.7z M68.4,59.3c1.1-0.9,2.2-2,3.3-3.3l1.6,1.6
			C71.9,58.9,70,59.3,68.4,59.3z M64.2,90.4V74.2l5.7,3.1v16.2L64.2,90.4z"/>
	</g>
	<g>
		<g>
			<g>
				<path class="st2" d="M130.2,109.6c0-6.5,2.2-12.1,10.1-12.1c4.7,0,7,1.7,8,3.2V88.8h4.8v32.6h-2.7l-1.1-3.4
					c-0.8,1.6-3.5,3.7-9,3.7C132.5,121.8,130.2,116.1,130.2,109.6z M141.6,117.7c5.5,0,6.6-3.2,6.6-8.1c0-4.6-1-8-6.6-8
					c-5.4,0-6.5,3.2-6.5,8S136.3,117.7,141.6,117.7z"/>
				<path class="st2" d="M156.7,94.5c0-2.4,1.4-2.9,3.6-2.9c2.4,0,3.8,0.8,3.4,3.9l-1.1,7.8h-3.2l0.4-5.8
					C157.7,97.5,156.7,96.6,156.7,94.5z"/>
				<path class="st2" d="M166.4,114.5c0-4.3,3.1-6.3,9.8-7l7.4-0.7c-0.1-3.9-1.4-5.4-6.1-5.4c-4.4,0-5.6,1.8-5.6,4.7l-4.8,0
					c0-4.9,2-8.7,10.3-8.7c9.6,0,11,4.1,11,10.5v13.4h-2.7l-1-3.6c-1.1,1.8-4.4,3.9-9.3,3.9C170.4,121.8,166.4,119.5,166.4,114.5z
					 M176.7,117.9c4.8,0,6.9-2.5,6.9-6.6v-0.7l-6.7,0.7c-4.1,0.5-5.5,1.3-5.5,3.2C171.4,116.6,173.3,117.9,176.7,117.9z"/>
				<path class="st2" d="M192.6,97.8h2.7l1,3.4c0.9-1.6,3.5-3.7,9.1-3.7c7.7,0,10.1,5.7,10.1,12.2c0,6.5-2.2,12.1-10,12.1
					c-4.7,0-7-1.7-8-3.2v12.1h-4.8V97.8z M203.9,117.7c5.4,0,6.6-3.2,6.6-8c0-4.8-1.2-8.1-6.5-8.1c-5.5,0-6.6,3.2-6.6,8.1
					C197.4,114.3,198.4,117.7,203.9,117.7z"/>
				<path class="st2" d="M219.4,97.8h2.6l1.2,3.3c1.4-3,4.2-3.9,8.4-3.6v4.3c-4.8-0.7-7.2,1.7-7.2,7.2v12.5h-4.9V97.8z"/>
				<path class="st2" d="M232.9,109.6c0-6.3,2.4-12.1,11.8-12.1c8.7,0,11.2,6.6,10.6,14.1H238c0.3,4.1,2.3,6.4,6.5,6.4
					c3.9,0,5.2-1.9,5.6-3.8h5.2c-0.4,4-3.2,7.6-10.6,7.6C235.2,121.8,232.9,115.9,232.9,109.6z M235.9,89l16.8,3.6v3.8l-16.8-3.6V89
					z M250.1,107.7L250.1,107.7c0-3.3-1.5-6.3-5.9-6.3c-4.6,0-5.9,2.9-6.2,6.3H250.1z"/>
				<path class="st2" d="M258,113h4.8c0,3.2,2.2,4.8,6.5,4.8c3.4,0,5.6-1.2,5.6-3c0-2.2-2.7-2.8-6.8-3.6c-5.1-1-9.7-2.2-9.7-6.6
					c0-4.6,3.4-7.2,10.3-7.2c6.8,0,10.4,2.9,10.4,8.4h-4.6c-0.2-3.2-2-4.6-5.9-4.6c-3.9,0-5.3,1.1-5.3,3c0,2.1,2.6,2.5,6.5,3.3
					c5.4,1.1,9.9,2,9.9,7c0,4.3-4.2,7.1-10.4,7.1C261.8,121.8,258,118.9,258,113z"/>
			</g>
		</g>
		<g>
			<path class="st3" d="M130.2,65.7c0-8.6,2.8-16,14.5-16c10.3,0,14.2,5.8,14.2,12.3h-5.5c-0.3-4.4-2.5-7.8-8.6-7.8
				c-7.4,0-9,5.1-9,11.6s1.6,11.5,9,11.5c6.1,0,8.3-3.2,8.6-7.9h5.5c0,6.9-3.8,12.4-14.2,12.4C133,81.8,130.2,74.3,130.2,65.7z"/>
			<path class="st3" d="M162.3,68.9c0-6.6,2.6-12.9,12.4-12.9c9.8,0,12.4,6.3,12.4,12.9c0,6.7-2.7,12.9-12.5,12.9
				C164.8,81.8,162.3,75.5,162.3,68.9z M174.7,77.5c5.9,0,7.2-3.8,7.2-8.6c0-4.7-1.2-8.6-7.1-8.6c-5.8,0-7.1,3.9-7.1,8.6
				C167.6,73.6,168.9,77.5,174.7,77.5z"/>
			<path class="st3" d="M191.3,56.3h2.8l1.1,3.6c1-1.7,3.7-3.9,9.7-3.9c8.2,0,10.7,6.1,10.7,12.9c0,6.9-2.3,12.8-10.6,12.8
				c-4.9,0-7.4-1.8-8.5-3.4v12.9h-5.1V56.3z M203.3,77.4c5.8,0,7-3.4,7-8.5c0-5.1-1.2-8.6-6.9-8.6c-5.8,0-7.1,3.4-7.1,8.6
				C196.4,73.8,197.4,77.4,203.3,77.4z"/>
			<path class="st3" d="M218.7,74.1c0-4.6,3.3-6.7,10.4-7.4l7.9-0.8c-0.1-4.1-1.5-5.7-6.5-5.7c-4.7,0-5.9,1.9-5.9,5l-5.1,0
				c0-5.2,2.2-9.2,11-9.2c10.2,0,11.7,4.4,11.7,11.2v14.3h-2.8l-1.1-3.8c-1.2,2-4.7,4.1-9.8,4.1C223,81.8,218.7,79.4,218.7,74.1z
				 M229.7,77.6c5,0,7.3-2.6,7.3-7v-0.8l-7.1,0.8c-4.4,0.5-5.8,1.4-5.8,3.4C224.1,76.3,226,77.6,229.7,77.6z"/>
			<path class="st3" d="M249.1,46.1c2.3,0,3.7,0.6,3.7,3.2c0,2.5-1.5,3.1-3.7,3.1c-2.4,0-3.9-0.6-3.9-3.1
				C245.3,46.8,246.8,46.1,249.1,46.1z M246.5,56.3h5.2v25.1h-5.2V56.3z"/>
			<path class="st3" d="M256.7,56.3h2.8l1.2,3.5c0.8-1.7,3.5-3.9,9.2-3.9c8.2,0,9.8,4.8,9.8,11.9v13.5h-5.2v-14
				c0-4.5-0.8-7.1-6.1-7.1c-5.3,0-6.5,2.6-6.5,7.1v14h-5.2V56.3z"/>
		</g>
	</g>
</g>
</svg>
